<?xml version="1.0" encoding="utf-8" standalone="no"?>
<!DOCTYPE svg PUBLIC "-//W3C//DTD SVG 1.1//EN"
  "http://www.w3.org/Graphics/SVG/1.1/DTD/svg11.dtd">
<svg xmlns:xlink="http://www.w3.org/1999/xlink" width="460.8pt" height="345.6pt" viewBox="0 0 460.8 345.6" xmlns="http://www.w3.org/2000/svg" version="1.1">
 <metadata>
  <rdf:RDF xmlns:dc="http://purl.org/dc/elements/1.1/" xmlns:cc="http://creativecommons.org/ns#" xmlns:rdf="http://www.w3.org/1999/02/22-rdf-syntax-ns#">
   <cc:Work>
    <dc:type rdf:resource="http://purl.org/dc/dcmitype/StillImage"/>
    <dc:date>2023-08-23T16:14:44.347296</dc:date>
    <dc:format>image/svg+xml</dc:format>
    <dc:creator>
     <cc:Agent>
      <dc:title>Matplotlib v3.5.2, https://matplotlib.org/</dc:title>
     </cc:Agent>
    </dc:creator>
   </cc:Work>
  </rdf:RDF>
 </metadata>
 <defs>
  <style type="text/css">*{stroke-linejoin: round; stroke-linecap: butt}</style>
 </defs>
 <g id="figure_1">
  <g id="patch_1">
   <path d="M 0 345.6 
L 460.8 345.6 
L 460.8 0 
L 0 0 
z
" style="fill: #ffffff"/>
  </g>
  <g id="axes_1">
   <g id="patch_2">
    <path d="M 62.8175 286.36 
L 450 286.36 
L 450 10.8 
L 62.8175 10.8 
z
" style="fill: #ffffff"/>
   </g>
   <g id="patch_3">
    <path d="M 63.204683 286.36 
L 66.302143 286.36 
L 66.302143 35.850909 
L 63.204683 35.850909 
z
" clip-path="url(#p60161a8a73)" style="fill: #1f77b4"/>
   </g>
   <g id="patch_4">
    <path d="M 67.076508 286.36 
L 70.173968 286.36 
L 70.173968 35.850909 
L 67.076508 35.850909 
z
" clip-path="url(#p60161a8a73)" style="fill: #1f77b4"/>
   </g>
   <g id="patch_5">
    <path d="M 70.948333 286.36 
L 74.045793 286.36 
L 74.045793 35.850909 
L 70.948333 35.850909 
z
" clip-path="url(#p60161a8a73)" style="fill: #1f77b4"/>
   </g>
   <g id="patch_6">
    <path d="M 74.820158 286.36 
L 77.917618 286.36 
L 77.917618 35.850909 
L 74.820158 35.850909 
z
" clip-path="url(#p60161a8a73)" style="fill: #1f77b4"/>
   </g>
   <g id="patch_7">
    <path d="M 78.691983 286.36 
L 81.789443 286.36 
L 81.789443 74.390769 
L 78.691983 74.390769 
z
" clip-path="url(#p60161a8a73)" style="fill: #1f77b4"/>
   </g>
   <g id="patch_8">
    <path d="M 82.563808 286.36 
L 85.661268 286.36 
L 85.661268 74.390769 
L 82.563808 74.390769 
z
" clip-path="url(#p60161a8a73)" style="fill: #1f77b4"/>
   </g>
   <g id="patch_9">
    <path d="M 86.435633 286.36 
L 89.533093 286.36 
L 89.533093 228.55021 
L 86.435633 228.55021 
z
" clip-path="url(#p60161a8a73)" style="fill: #1f77b4"/>
   </g>
   <g id="patch_10">
    <path d="M 90.307458 286.36 
L 93.404918 286.36 
L 93.404918 228.55021 
L 90.307458 228.55021 
z
" clip-path="url(#p60161a8a73)" style="fill: #1f77b4"/>
   </g>
   <g id="patch_11">
    <path d="M 94.179283 286.36 
L 97.276743 286.36 
L 97.276743 228.55021 
L 94.179283 228.55021 
z
" clip-path="url(#p60161a8a73)" style="fill: #1f77b4"/>
   </g>
   <g id="patch_12">
    <path d="M 98.051108 286.36 
L 101.148567 286.36 
L 101.148567 228.55021 
L 98.051108 228.55021 
z
" clip-path="url(#p60161a8a73)" style="fill: #1f77b4"/>
   </g>
   <g id="patch_13">
    <path d="M 101.922933 286.36 
L 105.020392 286.36 
L 105.020392 228.55021 
L 101.922933 228.55021 
z
" clip-path="url(#p60161a8a73)" style="fill: #1f77b4"/>
   </g>
   <g id="patch_14">
    <path d="M 105.794758 286.36 
L 108.892218 286.36 
L 108.892218 228.55021 
L 105.794758 228.55021 
z
" clip-path="url(#p60161a8a73)" style="fill: #1f77b4"/>
   </g>
   <g id="patch_15">
    <path d="M 109.666583 286.36 
L 112.764043 286.36 
L 112.764043 228.55021 
L 109.666583 228.55021 
z
" clip-path="url(#p60161a8a73)" style="fill: #1f77b4"/>
   </g>
   <g id="patch_16">
    <path d="M 113.538408 286.36 
L 116.635868 286.36 
L 116.635868 228.55021 
L 113.538408 228.55021 
z
" clip-path="url(#p60161a8a73)" style="fill: #1f77b4"/>
   </g>
   <g id="patch_17">
    <path d="M 117.410233 286.36 
L 120.507693 286.36 
L 120.507693 247.82014 
L 117.410233 247.82014 
z
" clip-path="url(#p60161a8a73)" style="fill: #1f77b4"/>
   </g>
   <g id="patch_18">
    <path d="M 121.282058 286.36 
L 124.379518 286.36 
L 124.379518 247.82014 
L 121.282058 247.82014 
z
" clip-path="url(#p60161a8a73)" style="fill: #1f77b4"/>
   </g>
   <g id="patch_19">
    <path d="M 125.153883 286.36 
L 128.251343 286.36 
L 128.251343 247.82014 
L 125.153883 247.82014 
z
" clip-path="url(#p60161a8a73)" style="fill: #1f77b4"/>
   </g>
   <g id="patch_20">
    <path d="M 129.025708 286.36 
L 132.123168 286.36 
L 132.123168 247.82014 
L 129.025708 247.82014 
z
" clip-path="url(#p60161a8a73)" style="fill: #1f77b4"/>
   </g>
   <g id="patch_21">
    <path d="M 132.897533 286.36 
L 135.994993 286.36 
L 135.994993 247.82014 
L 132.897533 247.82014 
z
" clip-path="url(#p60161a8a73)" style="fill: #1f77b4"/>
   </g>
   <g id="patch_22">
    <path d="M 136.769358 286.36 
L 139.866818 286.36 
L 139.866818 247.82014 
L 136.769358 247.82014 
z
" clip-path="url(#p60161a8a73)" style="fill: #1f77b4"/>
   </g>
   <g id="patch_23">
    <path d="M 140.641183 286.36 
L 143.738643 286.36 
L 143.738643 247.82014 
L 140.641183 247.82014 
z
" clip-path="url(#p60161a8a73)" style="fill: #1f77b4"/>
   </g>
   <g id="patch_24">
    <path d="M 144.513008 286.36 
L 147.610468 286.36 
L 147.610468 247.82014 
L 144.513008 247.82014 
z
" clip-path="url(#p60161a8a73)" style="fill: #1f77b4"/>
   </g>
   <g id="patch_25">
    <path d="M 148.384833 286.36 
L 151.482293 286.36 
L 151.482293 247.82014 
L 148.384833 247.82014 
z
" clip-path="url(#p60161a8a73)" style="fill: #1f77b4"/>
   </g>
   <g id="patch_26">
    <path d="M 152.256658 286.36 
L 155.354118 286.36 
L 155.354118 247.82014 
L 152.256658 247.82014 
z
" clip-path="url(#p60161a8a73)" style="fill: #1f77b4"/>
   </g>
   <g id="patch_27">
    <path d="M 156.128483 286.36 
L 159.225943 286.36 
L 159.225943 247.82014 
L 156.128483 247.82014 
z
" clip-path="url(#p60161a8a73)" style="fill: #1f77b4"/>
   </g>
   <g id="patch_28">
    <path d="M 160.000308 286.36 
L 163.097768 286.36 
L 163.097768 247.82014 
L 160.000308 247.82014 
z
" clip-path="url(#p60161a8a73)" style="fill: #1f77b4"/>
   </g>
   <g id="patch_29">
    <path d="M 163.872133 286.36 
L 166.969593 286.36 
L 166.969593 247.82014 
L 163.872133 247.82014 
z
" clip-path="url(#p60161a8a73)" style="fill: #1f77b4"/>
   </g>
   <g id="patch_30">
    <path d="M 167.743958 286.36 
L 170.841418 286.36 
L 170.841418 247.82014 
L 167.743958 247.82014 
z
" clip-path="url(#p60161a8a73)" style="fill: #1f77b4"/>
   </g>
   <g id="patch_31">
    <path d="M 171.615783 286.36 
L 174.713243 286.36 
L 174.713243 247.82014 
L 171.615783 247.82014 
z
" clip-path="url(#p60161a8a73)" style="fill: #1f77b4"/>
   </g>
   <g id="patch_32">
    <path d="M 175.487608 286.36 
L 178.585068 286.36 
L 178.585068 247.82014 
L 175.487608 247.82014 
z
" clip-path="url(#p60161a8a73)" style="fill: #1f77b4"/>
   </g>
   <g id="patch_33">
    <path d="M 179.359433 286.36 
L 182.456893 286.36 
L 182.456893 247.82014 
L 179.359433 247.82014 
z
" clip-path="url(#p60161a8a73)" style="fill: #1f77b4"/>
   </g>
   <g id="patch_34">
    <path d="M 183.231258 286.36 
L 186.328718 286.36 
L 186.328718 247.82014 
L 183.231258 247.82014 
z
" clip-path="url(#p60161a8a73)" style="fill: #1f77b4"/>
   </g>
   <g id="patch_35">
    <path d="M 187.103083 286.36 
L 190.200543 286.36 
L 190.200543 247.82014 
L 187.103083 247.82014 
z
" clip-path="url(#p60161a8a73)" style="fill: #1f77b4"/>
   </g>
   <g id="patch_36">
    <path d="M 190.974908 286.36 
L 194.072368 286.36 
L 194.072368 247.82014 
L 190.974908 247.82014 
z
" clip-path="url(#p60161a8a73)" style="fill: #1f77b4"/>
   </g>
   <g id="patch_37">
    <path d="M 194.846733 286.36 
L 197.944193 286.36 
L 197.944193 247.82014 
L 194.846733 247.82014 
z
" clip-path="url(#p60161a8a73)" style="fill: #1f77b4"/>
   </g>
   <g id="patch_38">
    <path d="M 198.718558 286.36 
L 201.816018 286.36 
L 201.816018 247.82014 
L 198.718558 247.82014 
z
" clip-path="url(#p60161a8a73)" style="fill: #1f77b4"/>
   </g>
   <g id="patch_39">
    <path d="M 202.590383 286.36 
L 205.687843 286.36 
L 205.687843 247.82014 
L 202.590383 247.82014 
z
" clip-path="url(#p60161a8a73)" style="fill: #1f77b4"/>
   </g>
   <g id="patch_40">
    <path d="M 206.462208 286.36 
L 209.559668 286.36 
L 209.559668 247.82014 
L 206.462208 247.82014 
z
" clip-path="url(#p60161a8a73)" style="fill: #1f77b4"/>
   </g>
   <g id="patch_41">
    <path d="M 210.334033 286.36 
L 213.431493 286.36 
L 213.431493 247.82014 
L 210.334033 247.82014 
z
" clip-path="url(#p60161a8a73)" style="fill: #1f77b4"/>
   </g>
   <g id="patch_42">
    <path d="M 214.205858 286.36 
L 217.303318 286.36 
L 217.303318 247.82014 
L 214.205858 247.82014 
z
" clip-path="url(#p60161a8a73)" style="fill: #1f77b4"/>
   </g>
   <g id="patch_43">
    <path d="M 218.077683 286.36 
L 221.175143 286.36 
L 221.175143 247.82014 
L 218.077683 247.82014 
z
" clip-path="url(#p60161a8a73)" style="fill: #1f77b4"/>
   </g>
   <g id="patch_44">
    <path d="M 221.949508 286.36 
L 225.046968 286.36 
L 225.046968 247.82014 
L 221.949508 247.82014 
z
" clip-path="url(#p60161a8a73)" style="fill: #1f77b4"/>
   </g>
   <g id="patch_45">
    <path d="M 225.821333 286.36 
L 228.918793 286.36 
L 228.918793 247.82014 
L 225.821333 247.82014 
z
" clip-path="url(#p60161a8a73)" style="fill: #1f77b4"/>
   </g>
   <g id="patch_46">
    <path d="M 229.693158 286.36 
L 232.790618 286.36 
L 232.790618 247.82014 
L 229.693158 247.82014 
z
" clip-path="url(#p60161a8a73)" style="fill: #1f77b4"/>
   </g>
   <g id="patch_47">
    <path d="M 233.564983 286.36 
L 236.662443 286.36 
L 236.662443 247.82014 
L 233.564983 247.82014 
z
" clip-path="url(#p60161a8a73)" style="fill: #1f77b4"/>
   </g>
   <g id="patch_48">
    <path d="M 237.436808 286.36 
L 240.534268 286.36 
L 240.534268 247.82014 
L 237.436808 247.82014 
z
" clip-path="url(#p60161a8a73)" style="fill: #1f77b4"/>
   </g>
   <g id="patch_49">
    <path d="M 241.308633 286.36 
L 244.406093 286.36 
L 244.406093 267.09007 
L 241.308633 267.09007 
z
" clip-path="url(#p60161a8a73)" style="fill: #1f77b4"/>
   </g>
   <g id="patch_50">
    <path d="M 245.180458 286.36 
L 248.277918 286.36 
L 248.277918 267.09007 
L 245.180458 267.09007 
z
" clip-path="url(#p60161a8a73)" style="fill: #1f77b4"/>
   </g>
   <g id="patch_51">
    <path d="M 249.052283 286.36 
L 252.149743 286.36 
L 252.149743 267.09007 
L 249.052283 267.09007 
z
" clip-path="url(#p60161a8a73)" style="fill: #1f77b4"/>
   </g>
   <g id="patch_52">
    <path d="M 252.924108 286.36 
L 256.021568 286.36 
L 256.021568 267.09007 
L 252.924108 267.09007 
z
" clip-path="url(#p60161a8a73)" style="fill: #1f77b4"/>
   </g>
   <g id="patch_53">
    <path d="M 256.795933 286.36 
L 259.893393 286.36 
L 259.893393 267.09007 
L 256.795933 267.09007 
z
" clip-path="url(#p60161a8a73)" style="fill: #1f77b4"/>
   </g>
   <g id="patch_54">
    <path d="M 260.667758 286.36 
L 263.765218 286.36 
L 263.765218 267.09007 
L 260.667758 267.09007 
z
" clip-path="url(#p60161a8a73)" style="fill: #1f77b4"/>
   </g>
   <g id="patch_55">
    <path d="M 264.539583 286.36 
L 267.637043 286.36 
L 267.637043 267.09007 
L 264.539583 267.09007 
z
" clip-path="url(#p60161a8a73)" style="fill: #1f77b4"/>
   </g>
   <g id="patch_56">
    <path d="M 268.411408 286.36 
L 271.508868 286.36 
L 271.508868 267.09007 
L 268.411408 267.09007 
z
" clip-path="url(#p60161a8a73)" style="fill: #1f77b4"/>
   </g>
   <g id="patch_57">
    <path d="M 272.283233 286.36 
L 275.380693 286.36 
L 275.380693 267.09007 
L 272.283233 267.09007 
z
" clip-path="url(#p60161a8a73)" style="fill: #1f77b4"/>
   </g>
   <g id="patch_58">
    <path d="M 276.155058 286.36 
L 279.252518 286.36 
L 279.252518 267.09007 
L 276.155058 267.09007 
z
" clip-path="url(#p60161a8a73)" style="fill: #1f77b4"/>
   </g>
   <g id="patch_59">
    <path d="M 280.026883 286.36 
L 283.124343 286.36 
L 283.124343 267.09007 
L 280.026883 267.09007 
z
" clip-path="url(#p60161a8a73)" style="fill: #1f77b4"/>
   </g>
   <g id="patch_60">
    <path d="M 283.898708 286.36 
L 286.996168 286.36 
L 286.996168 267.09007 
L 283.898708 267.09007 
z
" clip-path="url(#p60161a8a73)" style="fill: #1f77b4"/>
   </g>
   <g id="patch_61">
    <path d="M 287.770533 286.36 
L 290.867993 286.36 
L 290.867993 267.09007 
L 287.770533 267.09007 
z
" clip-path="url(#p60161a8a73)" style="fill: #1f77b4"/>
   </g>
   <g id="patch_62">
    <path d="M 291.642358 286.36 
L 294.739818 286.36 
L 294.739818 267.09007 
L 291.642358 267.09007 
z
" clip-path="url(#p60161a8a73)" style="fill: #1f77b4"/>
   </g>
   <g id="patch_63">
    <path d="M 295.514183 286.36 
L 298.611643 286.36 
L 298.611643 267.09007 
L 295.514183 267.09007 
z
" clip-path="url(#p60161a8a73)" style="fill: #1f77b4"/>
   </g>
   <g id="patch_64">
    <path d="M 299.386008 286.36 
L 302.483468 286.36 
L 302.483468 267.09007 
L 299.386008 267.09007 
z
" clip-path="url(#p60161a8a73)" style="fill: #1f77b4"/>
   </g>
   <g id="patch_65">
    <path d="M 303.257833 286.36 
L 306.355293 286.36 
L 306.355293 267.09007 
L 303.257833 267.09007 
z
" clip-path="url(#p60161a8a73)" style="fill: #1f77b4"/>
   </g>
   <g id="patch_66">
    <path d="M 307.129658 286.36 
L 310.227118 286.36 
L 310.227118 267.09007 
L 307.129658 267.09007 
z
" clip-path="url(#p60161a8a73)" style="fill: #1f77b4"/>
   </g>
   <g id="patch_67">
    <path d="M 311.001483 286.36 
L 314.098943 286.36 
L 314.098943 267.09007 
L 311.001483 267.09007 
z
" clip-path="url(#p60161a8a73)" style="fill: #1f77b4"/>
   </g>
   <g id="patch_68">
    <path d="M 314.873308 286.36 
L 317.970768 286.36 
L 317.970768 267.09007 
L 314.873308 267.09007 
z
" clip-path="url(#p60161a8a73)" style="fill: #1f77b4"/>
   </g>
   <g id="patch_69">
    <path d="M 318.745133 286.36 
L 321.842593 286.36 
L 321.842593 267.09007 
L 318.745133 267.09007 
z
" clip-path="url(#p60161a8a73)" style="fill: #1f77b4"/>
   </g>
   <g id="patch_70">
    <path d="M 322.616958 286.36 
L 325.714418 286.36 
L 325.714418 267.09007 
L 322.616958 267.09007 
z
" clip-path="url(#p60161a8a73)" style="fill: #1f77b4"/>
   </g>
   <g id="patch_71">
    <path d="M 326.488783 286.36 
L 329.586243 286.36 
L 329.586243 267.09007 
L 326.488783 267.09007 
z
" clip-path="url(#p60161a8a73)" style="fill: #1f77b4"/>
   </g>
   <g id="patch_72">
    <path d="M 330.360608 286.36 
L 333.458068 286.36 
L 333.458068 267.09007 
L 330.360608 267.09007 
z
" clip-path="url(#p60161a8a73)" style="fill: #1f77b4"/>
   </g>
   <g id="patch_73">
    <path d="M 334.232433 286.36 
L 337.329893 286.36 
L 337.329893 267.09007 
L 334.232433 267.09007 
z
" clip-path="url(#p60161a8a73)" style="fill: #1f77b4"/>
   </g>
   <g id="patch_74">
    <path d="M 338.104258 286.36 
L 341.201718 286.36 
L 341.201718 267.09007 
L 338.104258 267.09007 
z
" clip-path="url(#p60161a8a73)" style="fill: #1f77b4"/>
   </g>
   <g id="patch_75">
    <path d="M 341.976083 286.36 
L 345.073543 286.36 
L 345.073543 267.09007 
L 341.976083 267.09007 
z
" clip-path="url(#p60161a8a73)" style="fill: #1f77b4"/>
   </g>
   <g id="patch_76">
    <path d="M 345.847908 286.36 
L 348.945368 286.36 
L 348.945368 267.09007 
L 345.847908 267.09007 
z
" clip-path="url(#p60161a8a73)" style="fill: #1f77b4"/>
   </g>
   <g id="patch_77">
    <path d="M 349.719733 286.36 
L 352.817193 286.36 
L 352.817193 267.09007 
L 349.719733 267.09007 
z
" clip-path="url(#p60161a8a73)" style="fill: #1f77b4"/>
   </g>
   <g id="patch_78">
    <path d="M 353.591558 286.36 
L 356.689018 286.36 
L 356.689018 267.09007 
L 353.591558 267.09007 
z
" clip-path="url(#p60161a8a73)" style="fill: #1f77b4"/>
   </g>
   <g id="patch_79">
    <path d="M 357.463383 286.36 
L 360.560843 286.36 
L 360.560843 267.09007 
L 357.463383 267.09007 
z
" clip-path="url(#p60161a8a73)" style="fill: #1f77b4"/>
   </g>
   <g id="patch_80">
    <path d="M 361.335208 286.36 
L 364.432668 286.36 
L 364.432668 267.09007 
L 361.335208 267.09007 
z
" clip-path="url(#p60161a8a73)" style="fill: #1f77b4"/>
   </g>
   <g id="patch_81">
    <path d="M 365.207033 286.36 
L 368.304493 286.36 
L 368.304493 267.09007 
L 365.207033 267.09007 
z
" clip-path="url(#p60161a8a73)" style="fill: #1f77b4"/>
   </g>
   <g id="patch_82">
    <path d="M 369.078858 286.36 
L 372.176318 286.36 
L 372.176318 267.09007 
L 369.078858 267.09007 
z
" clip-path="url(#p60161a8a73)" style="fill: #1f77b4"/>
   </g>
   <g id="patch_83">
    <path d="M 372.950683 286.36 
L 376.048143 286.36 
L 376.048143 267.09007 
L 372.950683 267.09007 
z
" clip-path="url(#p60161a8a73)" style="fill: #1f77b4"/>
   </g>
   <g id="patch_84">
    <path d="M 376.822508 286.36 
L 379.919968 286.36 
L 379.919968 267.09007 
L 376.822508 267.09007 
z
" clip-path="url(#p60161a8a73)" style="fill: #1f77b4"/>
   </g>
   <g id="patch_85">
    <path d="M 380.694333 286.36 
L 383.791793 286.36 
L 383.791793 267.09007 
L 380.694333 267.09007 
z
" clip-path="url(#p60161a8a73)" style="fill: #1f77b4"/>
   </g>
   <g id="patch_86">
    <path d="M 384.566158 286.36 
L 387.663618 286.36 
L 387.663618 267.09007 
L 384.566158 267.09007 
z
" clip-path="url(#p60161a8a73)" style="fill: #1f77b4"/>
   </g>
   <g id="patch_87">
    <path d="M 388.437983 286.36 
L 391.535443 286.36 
L 391.535443 267.09007 
L 388.437983 267.09007 
z
" clip-path="url(#p60161a8a73)" style="fill: #1f77b4"/>
   </g>
   <g id="patch_88">
    <path d="M 392.309808 286.36 
L 395.407268 286.36 
L 395.407268 267.09007 
L 392.309808 267.09007 
z
" clip-path="url(#p60161a8a73)" style="fill: #1f77b4"/>
   </g>
   <g id="patch_89">
    <path d="M 396.181633 286.36 
L 399.279093 286.36 
L 399.279093 267.09007 
L 396.181633 267.09007 
z
" clip-path="url(#p60161a8a73)" style="fill: #1f77b4"/>
   </g>
   <g id="patch_90">
    <path d="M 400.053458 286.36 
L 403.150918 286.36 
L 403.150918 267.09007 
L 400.053458 267.09007 
z
" clip-path="url(#p60161a8a73)" style="fill: #1f77b4"/>
   </g>
   <g id="patch_91">
    <path d="M 403.925283 286.36 
L 407.022743 286.36 
L 407.022743 267.09007 
L 403.925283 267.09007 
z
" clip-path="url(#p60161a8a73)" style="fill: #1f77b4"/>
   </g>
   <g id="patch_92">
    <path d="M 407.797108 286.36 
L 410.894568 286.36 
L 410.894568 267.09007 
L 407.797108 267.09007 
z
" clip-path="url(#p60161a8a73)" style="fill: #1f77b4"/>
   </g>
   <g id="patch_93">
    <path d="M 411.668933 286.36 
L 414.766393 286.36 
L 414.766393 267.09007 
L 411.668933 267.09007 
z
" clip-path="url(#p60161a8a73)" style="fill: #1f77b4"/>
   </g>
   <g id="patch_94">
    <path d="M 415.540758 286.36 
L 418.638218 286.36 
L 418.638218 267.09007 
L 415.540758 267.09007 
z
" clip-path="url(#p60161a8a73)" style="fill: #1f77b4"/>
   </g>
   <g id="patch_95">
    <path d="M 419.412583 286.36 
L 422.510043 286.36 
L 422.510043 267.09007 
L 419.412583 267.09007 
z
" clip-path="url(#p60161a8a73)" style="fill: #1f77b4"/>
   </g>
   <g id="patch_96">
    <path d="M 423.284408 286.36 
L 426.381868 286.36 
L 426.381868 267.09007 
L 423.284408 267.09007 
z
" clip-path="url(#p60161a8a73)" style="fill: #1f77b4"/>
   </g>
   <g id="patch_97">
    <path d="M 427.156233 286.36 
L 430.253693 286.36 
L 430.253693 267.09007 
L 427.156233 267.09007 
z
" clip-path="url(#p60161a8a73)" style="fill: #1f77b4"/>
   </g>
   <g id="patch_98">
    <path d="M 431.028058 286.36 
L 434.125518 286.36 
L 434.125518 267.09007 
L 431.028058 267.09007 
z
" clip-path="url(#p60161a8a73)" style="fill: #1f77b4"/>
   </g>
   <g id="patch_99">
    <path d="M 434.899883 286.36 
L 437.997343 286.36 
L 437.997343 267.09007 
L 434.899883 267.09007 
z
" clip-path="url(#p60161a8a73)" style="fill: #1f77b4"/>
   </g>
   <g id="patch_100">
    <path d="M 438.771708 286.36 
L 441.869168 286.36 
L 441.869168 267.09007 
L 438.771708 267.09007 
z
" clip-path="url(#p60161a8a73)" style="fill: #1f77b4"/>
   </g>
   <g id="patch_101">
    <path d="M 442.643533 286.36 
L 445.740993 286.36 
L 445.740993 267.09007 
L 442.643533 267.09007 
z
" clip-path="url(#p60161a8a73)" style="fill: #1f77b4"/>
   </g>
   <g id="patch_102">
    <path d="M 446.515358 286.36 
L 449.612818 286.36 
L 449.612818 267.09007 
L 446.515358 267.09007 
z
" clip-path="url(#p60161a8a73)" style="fill: #1f77b4"/>
   </g>
   <g id="matplotlib.axis_1">
    <g id="xtick_1">
     <g id="line2d_1">
      <defs>
       <path id="m9275df2956" d="M 0 0 
L 0 3.5 
" style="stroke: #000000; stroke-width: 0.8"/>
      </defs>
      <g>
       <use xlink:href="#m9275df2956" x="64.753413" y="286.36" style="stroke: #000000; stroke-width: 0.8"/>
      </g>
     </g>
     <g id="text_1">
      <!-- 1 -->
      <g transform="translate(59.027163 307.037187)scale(0.18 -0.18)">
       <defs>
        <path id="DejaVuSans-31" d="M 794 531 
L 1825 531 
L 1825 4091 
L 703 3866 
L 703 4441 
L 1819 4666 
L 2450 4666 
L 2450 531 
L 3481 531 
L 3481 0 
L 794 0 
L 794 531 
z
" transform="scale(0.015625)"/>
       </defs>
       <use xlink:href="#DejaVuSans-31"/>
      </g>
     </g>
    </g>
    <g id="xtick_2">
     <g id="line2d_2">
      <g>
       <use xlink:href="#m9275df2956" x="142.189913" y="286.36" style="stroke: #000000; stroke-width: 0.8"/>
      </g>
     </g>
     <g id="text_2">
      <!-- 21 -->
      <g transform="translate(130.737413 307.037187)scale(0.18 -0.18)">
       <defs>
        <path id="DejaVuSans-32" d="M 1228 531 
L 3431 531 
L 3431 0 
L 469 0 
L 469 531 
Q 828 903 1448 1529 
Q 2069 2156 2228 2338 
Q 2531 2678 2651 2914 
Q 2772 3150 2772 3378 
Q 2772 3750 2511 3984 
Q 2250 4219 1831 4219 
Q 1534 4219 1204 4116 
Q 875 4013 500 3803 
L 500 4441 
Q 881 4594 1212 4672 
Q 1544 4750 1819 4750 
Q 2544 4750 2975 4387 
Q 3406 4025 3406 3419 
Q 3406 3131 3298 2873 
Q 3191 2616 2906 2266 
Q 2828 2175 2409 1742 
Q 1991 1309 1228 531 
z
" transform="scale(0.015625)"/>
       </defs>
       <use xlink:href="#DejaVuSans-32"/>
       <use xlink:href="#DejaVuSans-31" x="63.623047"/>
      </g>
     </g>
    </g>
    <g id="xtick_3">
     <g id="line2d_3">
      <g>
       <use xlink:href="#m9275df2956" x="219.626413" y="286.36" style="stroke: #000000; stroke-width: 0.8"/>
      </g>
     </g>
     <g id="text_3">
      <!-- 41 -->
      <g transform="translate(208.173913 307.037187)scale(0.18 -0.18)">
       <defs>
        <path id="DejaVuSans-34" d="M 2419 4116 
L 825 1625 
L 2419 1625 
L 2419 4116 
z
M 2253 4666 
L 3047 4666 
L 3047 1625 
L 3713 1625 
L 3713 1100 
L 3047 1100 
L 3047 0 
L 2419 0 
L 2419 1100 
L 313 1100 
L 313 1709 
L 2253 4666 
z
" transform="scale(0.015625)"/>
       </defs>
       <use xlink:href="#DejaVuSans-34"/>
       <use xlink:href="#DejaVuSans-31" x="63.623047"/>
      </g>
     </g>
    </g>
    <g id="xtick_4">
     <g id="line2d_4">
      <g>
       <use xlink:href="#m9275df2956" x="297.062913" y="286.36" style="stroke: #000000; stroke-width: 0.8"/>
      </g>
     </g>
     <g id="text_4">
      <!-- 61 -->
      <g transform="translate(285.610413 307.037187)scale(0.18 -0.18)">
       <defs>
        <path id="DejaVuSans-36" d="M 2113 2584 
Q 1688 2584 1439 2293 
Q 1191 2003 1191 1497 
Q 1191 994 1439 701 
Q 1688 409 2113 409 
Q 2538 409 2786 701 
Q 3034 994 3034 1497 
Q 3034 2003 2786 2293 
Q 2538 2584 2113 2584 
z
M 3366 4563 
L 3366 3988 
Q 3128 4100 2886 4159 
Q 2644 4219 2406 4219 
Q 1781 4219 1451 3797 
Q 1122 3375 1075 2522 
Q 1259 2794 1537 2939 
Q 1816 3084 2150 3084 
Q 2853 3084 3261 2657 
Q 3669 2231 3669 1497 
Q 3669 778 3244 343 
Q 2819 -91 2113 -91 
Q 1303 -91 875 529 
Q 447 1150 447 2328 
Q 447 3434 972 4092 
Q 1497 4750 2381 4750 
Q 2619 4750 2861 4703 
Q 3103 4656 3366 4563 
z
" transform="scale(0.015625)"/>
       </defs>
       <use xlink:href="#DejaVuSans-36"/>
       <use xlink:href="#DejaVuSans-31" x="63.623047"/>
      </g>
     </g>
    </g>
    <g id="xtick_5">
     <g id="line2d_5">
      <g>
       <use xlink:href="#m9275df2956" x="374.499413" y="286.36" style="stroke: #000000; stroke-width: 0.8"/>
      </g>
     </g>
     <g id="text_5">
      <!-- 81 -->
      <g transform="translate(363.046913 307.037187)scale(0.18 -0.18)">
       <defs>
        <path id="DejaVuSans-38" d="M 2034 2216 
Q 1584 2216 1326 1975 
Q 1069 1734 1069 1313 
Q 1069 891 1326 650 
Q 1584 409 2034 409 
Q 2484 409 2743 651 
Q 3003 894 3003 1313 
Q 3003 1734 2745 1975 
Q 2488 2216 2034 2216 
z
M 1403 2484 
Q 997 2584 770 2862 
Q 544 3141 544 3541 
Q 544 4100 942 4425 
Q 1341 4750 2034 4750 
Q 2731 4750 3128 4425 
Q 3525 4100 3525 3541 
Q 3525 3141 3298 2862 
Q 3072 2584 2669 2484 
Q 3125 2378 3379 2068 
Q 3634 1759 3634 1313 
Q 3634 634 3220 271 
Q 2806 -91 2034 -91 
Q 1263 -91 848 271 
Q 434 634 434 1313 
Q 434 1759 690 2068 
Q 947 2378 1403 2484 
z
M 1172 3481 
Q 1172 3119 1398 2916 
Q 1625 2713 2034 2713 
Q 2441 2713 2670 2916 
Q 2900 3119 2900 3481 
Q 2900 3844 2670 4047 
Q 2441 4250 2034 4250 
Q 1625 4250 1398 4047 
Q 1172 3844 1172 3481 
z
" transform="scale(0.015625)"/>
       </defs>
       <use xlink:href="#DejaVuSans-38"/>
       <use xlink:href="#DejaVuSans-31" x="63.623047"/>
      </g>
     </g>
    </g>
    <g id="text_6">
     <!-- $c$ -->
     <g transform="translate(250.90875 329.9775)scale(0.2 -0.2)">
      <defs>
       <path id="DejaVuSans-Oblique-63" d="M 3431 3366 
L 3316 2797 
Q 3109 2947 2876 3022 
Q 2644 3097 2394 3097 
Q 2119 3097 1870 3000 
Q 1622 2903 1453 2725 
Q 1184 2453 1037 2087 
Q 891 1722 891 1331 
Q 891 859 1127 628 
Q 1363 397 1844 397 
Q 2081 397 2348 469 
Q 2616 541 2906 684 
L 2797 116 
Q 2547 13 2283 -39 
Q 2019 -91 1741 -91 
Q 1044 -91 669 257 
Q 294 606 294 1253 
Q 294 1797 489 2255 
Q 684 2713 1069 3078 
Q 1331 3328 1684 3456 
Q 2038 3584 2456 3584 
Q 2700 3584 2940 3529 
Q 3181 3475 3431 3366 
z
" transform="scale(0.015625)"/>
      </defs>
      <use xlink:href="#DejaVuSans-Oblique-63"/>
     </g>
    </g>
   </g>
   <g id="matplotlib.axis_2">
    <g id="ytick_1">
     <g id="line2d_6">
      <defs>
       <path id="m473b3a1423" d="M 0 0 
L -3.5 0 
" style="stroke: #000000; stroke-width: 0.8"/>
      </defs>
      <g>
       <use xlink:href="#m473b3a1423" x="62.8175" y="286.36" style="stroke: #000000; stroke-width: 0.8"/>
      </g>
     </g>
     <g id="text_7">
      <!-- 0 -->
      <g transform="translate(44.365 293.198594)scale(0.18 -0.18)">
       <defs>
        <path id="DejaVuSans-30" d="M 2034 4250 
Q 1547 4250 1301 3770 
Q 1056 3291 1056 2328 
Q 1056 1369 1301 889 
Q 1547 409 2034 409 
Q 2525 409 2770 889 
Q 3016 1369 3016 2328 
Q 3016 3291 2770 3770 
Q 2525 4250 2034 4250 
z
M 2034 4750 
Q 2819 4750 3233 4129 
Q 3647 3509 3647 2328 
Q 3647 1150 3233 529 
Q 2819 -91 2034 -91 
Q 1250 -91 836 529 
Q 422 1150 422 2328 
Q 422 3509 836 4129 
Q 1250 4750 2034 4750 
z
" transform="scale(0.015625)"/>
       </defs>
       <use xlink:href="#DejaVuSans-30"/>
      </g>
     </g>
    </g>
    <g id="ytick_2">
     <g id="line2d_7">
      <g>
       <use xlink:href="#m473b3a1423" x="62.8175" y="170.74042" style="stroke: #000000; stroke-width: 0.8"/>
      </g>
     </g>
     <g id="text_8">
      <!-- 6 -->
      <g transform="translate(44.365 177.579013)scale(0.18 -0.18)">
       <use xlink:href="#DejaVuSans-36"/>
      </g>
     </g>
    </g>
    <g id="ytick_3">
     <g id="line2d_8">
      <g>
       <use xlink:href="#m473b3a1423" x="62.8175" y="35.850909" style="stroke: #000000; stroke-width: 0.8"/>
      </g>
     </g>
     <g id="text_9">
      <!-- 13 -->
      <g transform="translate(32.9125 42.689503)scale(0.18 -0.18)">
       <defs>
        <path id="DejaVuSans-33" d="M 2597 2516 
Q 3050 2419 3304 2112 
Q 3559 1806 3559 1356 
Q 3559 666 3084 287 
Q 2609 -91 1734 -91 
Q 1441 -91 1130 -33 
Q 819 25 488 141 
L 488 750 
Q 750 597 1062 519 
Q 1375 441 1716 441 
Q 2309 441 2620 675 
Q 2931 909 2931 1356 
Q 2931 1769 2642 2001 
Q 2353 2234 1838 2234 
L 1294 2234 
L 1294 2753 
L 1863 2753 
Q 2328 2753 2575 2939 
Q 2822 3125 2822 3475 
Q 2822 3834 2567 4026 
Q 2313 4219 1838 4219 
Q 1578 4219 1281 4162 
Q 984 4106 628 3988 
L 628 4550 
Q 988 4650 1302 4700 
Q 1616 4750 1894 4750 
Q 2613 4750 3031 4423 
Q 3450 4097 3450 3541 
Q 3450 3153 3228 2886 
Q 3006 2619 2597 2516 
z
" transform="scale(0.015625)"/>
       </defs>
       <use xlink:href="#DejaVuSans-31"/>
       <use xlink:href="#DejaVuSans-33" x="63.623047"/>
      </g>
     </g>
    </g>
    <g id="text_10">
     <!-- $M$ -->
     <g transform="translate(11.5125 144.420625)scale(0.2 -0.2)">
      <defs>
       <path id="DejaVuSans-Oblique-4d" d="M 1081 4666 
L 2028 4666 
L 2572 1522 
L 4378 4666 
L 5350 4666 
L 4441 0 
L 3828 0 
L 4622 4091 
L 2791 897 
L 2175 897 
L 1581 4103 
L 788 0 
L 172 0 
L 1081 4666 
z
" transform="scale(0.015625)"/>
      </defs>
      <use xlink:href="#DejaVuSans-Oblique-4d" transform="translate(0 0.09375)"/>
     </g>
    </g>
   </g>
   <g id="patch_103">
    <path d="M 62.8175 286.36 
L 62.8175 10.8 
" style="fill: none; stroke: #000000; stroke-width: 0.8; stroke-linejoin: miter; stroke-linecap: square"/>
   </g>
   <g id="patch_104">
    <path d="M 450 286.36 
L 450 10.8 
" style="fill: none; stroke: #000000; stroke-width: 0.8; stroke-linejoin: miter; stroke-linecap: square"/>
   </g>
   <g id="patch_105">
    <path d="M 62.8175 286.36 
L 450 286.36 
" style="fill: none; stroke: #000000; stroke-width: 0.8; stroke-linejoin: miter; stroke-linecap: square"/>
   </g>
   <g id="patch_106">
    <path d="M 62.8175 10.8 
L 450 10.8 
" style="fill: none; stroke: #000000; stroke-width: 0.8; stroke-linejoin: miter; stroke-linecap: square"/>
   </g>
  </g>
 </g>
 <defs>
  <clipPath id="p60161a8a73">
   <rect x="62.8175" y="10.8" width="387.1825" height="275.56"/>
  </clipPath>
 </defs>
</svg>
