<?xml version="1.0" encoding="utf-8" standalone="no"?>
<!DOCTYPE svg PUBLIC "-//W3C//DTD SVG 1.1//EN"
  "http://www.w3.org/Graphics/SVG/1.1/DTD/svg11.dtd">
<svg xmlns:xlink="http://www.w3.org/1999/xlink" width="460.8pt" height="345.6pt" viewBox="0 0 460.8 345.6" xmlns="http://www.w3.org/2000/svg" version="1.1">
 <metadata>
  <rdf:RDF xmlns:dc="http://purl.org/dc/elements/1.1/" xmlns:cc="http://creativecommons.org/ns#" xmlns:rdf="http://www.w3.org/1999/02/22-rdf-syntax-ns#">
   <cc:Work>
    <dc:type rdf:resource="http://purl.org/dc/dcmitype/StillImage"/>
    <dc:date>2023-08-25T16:09:33.236603</dc:date>
    <dc:format>image/svg+xml</dc:format>
    <dc:creator>
     <cc:Agent>
      <dc:title>Matplotlib v3.5.2, https://matplotlib.org/</dc:title>
     </cc:Agent>
    </dc:creator>
   </cc:Work>
  </rdf:RDF>
 </metadata>
 <defs>
  <style type="text/css">*{stroke-linejoin: round; stroke-linecap: butt}</style>
 </defs>
 <g id="figure_1">
  <g id="patch_1">
   <path d="M 0 345.6 
L 460.8 345.6 
L 460.8 0 
L 0 0 
z
" style="fill: #ffffff"/>
  </g>
  <g id="axes_1">
   <g id="patch_2">
    <path d="M 86.47625 266.2 
L 450 266.2 
L 450 10.8 
L 86.47625 10.8 
z
" style="fill: #ffffff"/>
   </g>
   <g id="patch_3">
    <path d="M 86.839774 266.2 
L 89.747964 266.2 
L 89.747964 34.018182 
L 86.839774 34.018182 
z
" clip-path="url(#pb9366d310e)" style="fill: #1f77b4"/>
   </g>
   <g id="patch_4">
    <path d="M 90.475011 266.2 
L 93.383201 266.2 
L 93.383201 34.018182 
L 90.475011 34.018182 
z
" clip-path="url(#pb9366d310e)" style="fill: #1f77b4"/>
   </g>
   <g id="patch_5">
    <path d="M 94.110249 266.2 
L 97.018439 266.2 
L 97.018439 34.018182 
L 94.110249 34.018182 
z
" clip-path="url(#pb9366d310e)" style="fill: #1f77b4"/>
   </g>
   <g id="patch_6">
    <path d="M 97.745486 266.2 
L 100.653676 266.2 
L 100.653676 34.018182 
L 97.745486 34.018182 
z
" clip-path="url(#pb9366d310e)" style="fill: #1f77b4"/>
   </g>
   <g id="patch_7">
    <path d="M 101.380724 266.2 
L 104.288914 266.2 
L 104.288914 69.738462 
L 101.380724 69.738462 
z
" clip-path="url(#pb9366d310e)" style="fill: #1f77b4"/>
   </g>
   <g id="patch_8">
    <path d="M 105.015961 266.2 
L 107.924151 266.2 
L 107.924151 69.738462 
L 105.015961 69.738462 
z
" clip-path="url(#pb9366d310e)" style="fill: #1f77b4"/>
   </g>
   <g id="patch_9">
    <path d="M 108.651199 266.2 
L 111.559389 266.2 
L 111.559389 212.61958 
L 108.651199 212.61958 
z
" clip-path="url(#pb9366d310e)" style="fill: #1f77b4"/>
   </g>
   <g id="patch_10">
    <path d="M 112.286436 266.2 
L 115.194626 266.2 
L 115.194626 212.61958 
L 112.286436 212.61958 
z
" clip-path="url(#pb9366d310e)" style="fill: #1f77b4"/>
   </g>
   <g id="patch_11">
    <path d="M 115.921674 266.2 
L 118.829864 266.2 
L 118.829864 212.61958 
L 115.921674 212.61958 
z
" clip-path="url(#pb9366d310e)" style="fill: #1f77b4"/>
   </g>
   <g id="patch_12">
    <path d="M 119.556911 266.2 
L 122.465101 266.2 
L 122.465101 212.61958 
L 119.556911 212.61958 
z
" clip-path="url(#pb9366d310e)" style="fill: #1f77b4"/>
   </g>
   <g id="patch_13">
    <path d="M 123.192149 266.2 
L 126.100339 266.2 
L 126.100339 212.61958 
L 123.192149 212.61958 
z
" clip-path="url(#pb9366d310e)" style="fill: #1f77b4"/>
   </g>
   <g id="patch_14">
    <path d="M 126.827386 266.2 
L 129.735576 266.2 
L 129.735576 212.61958 
L 126.827386 212.61958 
z
" clip-path="url(#pb9366d310e)" style="fill: #1f77b4"/>
   </g>
   <g id="patch_15">
    <path d="M 130.462624 266.2 
L 133.370814 266.2 
L 133.370814 212.61958 
L 130.462624 212.61958 
z
" clip-path="url(#pb9366d310e)" style="fill: #1f77b4"/>
   </g>
   <g id="patch_16">
    <path d="M 134.097861 266.2 
L 137.006051 266.2 
L 137.006051 212.61958 
L 134.097861 212.61958 
z
" clip-path="url(#pb9366d310e)" style="fill: #1f77b4"/>
   </g>
   <g id="patch_17">
    <path d="M 137.733099 266.2 
L 140.641289 266.2 
L 140.641289 230.47972 
L 137.733099 230.47972 
z
" clip-path="url(#pb9366d310e)" style="fill: #1f77b4"/>
   </g>
   <g id="patch_18">
    <path d="M 141.368336 266.2 
L 144.276526 266.2 
L 144.276526 230.47972 
L 141.368336 230.47972 
z
" clip-path="url(#pb9366d310e)" style="fill: #1f77b4"/>
   </g>
   <g id="patch_19">
    <path d="M 145.003574 266.2 
L 147.911764 266.2 
L 147.911764 230.47972 
L 145.003574 230.47972 
z
" clip-path="url(#pb9366d310e)" style="fill: #1f77b4"/>
   </g>
   <g id="patch_20">
    <path d="M 148.638811 266.2 
L 151.547001 266.2 
L 151.547001 230.47972 
L 148.638811 230.47972 
z
" clip-path="url(#pb9366d310e)" style="fill: #1f77b4"/>
   </g>
   <g id="patch_21">
    <path d="M 152.274049 266.2 
L 155.182239 266.2 
L 155.182239 230.47972 
L 152.274049 230.47972 
z
" clip-path="url(#pb9366d310e)" style="fill: #1f77b4"/>
   </g>
   <g id="patch_22">
    <path d="M 155.909286 266.2 
L 158.817476 266.2 
L 158.817476 230.47972 
L 155.909286 230.47972 
z
" clip-path="url(#pb9366d310e)" style="fill: #1f77b4"/>
   </g>
   <g id="patch_23">
    <path d="M 159.544524 266.2 
L 162.452714 266.2 
L 162.452714 230.47972 
L 159.544524 230.47972 
z
" clip-path="url(#pb9366d310e)" style="fill: #1f77b4"/>
   </g>
   <g id="patch_24">
    <path d="M 163.179761 266.2 
L 166.087951 266.2 
L 166.087951 230.47972 
L 163.179761 230.47972 
z
" clip-path="url(#pb9366d310e)" style="fill: #1f77b4"/>
   </g>
   <g id="patch_25">
    <path d="M 166.814999 266.2 
L 169.723189 266.2 
L 169.723189 230.47972 
L 166.814999 230.47972 
z
" clip-path="url(#pb9366d310e)" style="fill: #1f77b4"/>
   </g>
   <g id="patch_26">
    <path d="M 170.450236 266.2 
L 173.358426 266.2 
L 173.358426 230.47972 
L 170.450236 230.47972 
z
" clip-path="url(#pb9366d310e)" style="fill: #1f77b4"/>
   </g>
   <g id="patch_27">
    <path d="M 174.085474 266.2 
L 176.993664 266.2 
L 176.993664 230.47972 
L 174.085474 230.47972 
z
" clip-path="url(#pb9366d310e)" style="fill: #1f77b4"/>
   </g>
   <g id="patch_28">
    <path d="M 177.720711 266.2 
L 180.628901 266.2 
L 180.628901 230.47972 
L 177.720711 230.47972 
z
" clip-path="url(#pb9366d310e)" style="fill: #1f77b4"/>
   </g>
   <g id="patch_29">
    <path d="M 181.355949 266.2 
L 184.264139 266.2 
L 184.264139 230.47972 
L 181.355949 230.47972 
z
" clip-path="url(#pb9366d310e)" style="fill: #1f77b4"/>
   </g>
   <g id="patch_30">
    <path d="M 184.991186 266.2 
L 187.899376 266.2 
L 187.899376 230.47972 
L 184.991186 230.47972 
z
" clip-path="url(#pb9366d310e)" style="fill: #1f77b4"/>
   </g>
   <g id="patch_31">
    <path d="M 188.626424 266.2 
L 191.534614 266.2 
L 191.534614 230.47972 
L 188.626424 230.47972 
z
" clip-path="url(#pb9366d310e)" style="fill: #1f77b4"/>
   </g>
   <g id="patch_32">
    <path d="M 192.261661 266.2 
L 195.169851 266.2 
L 195.169851 230.47972 
L 192.261661 230.47972 
z
" clip-path="url(#pb9366d310e)" style="fill: #1f77b4"/>
   </g>
   <g id="patch_33">
    <path d="M 195.896899 266.2 
L 198.805089 266.2 
L 198.805089 230.47972 
L 195.896899 230.47972 
z
" clip-path="url(#pb9366d310e)" style="fill: #1f77b4"/>
   </g>
   <g id="patch_34">
    <path d="M 199.532136 266.2 
L 202.440326 266.2 
L 202.440326 230.47972 
L 199.532136 230.47972 
z
" clip-path="url(#pb9366d310e)" style="fill: #1f77b4"/>
   </g>
   <g id="patch_35">
    <path d="M 203.167374 266.2 
L 206.075564 266.2 
L 206.075564 230.47972 
L 203.167374 230.47972 
z
" clip-path="url(#pb9366d310e)" style="fill: #1f77b4"/>
   </g>
   <g id="patch_36">
    <path d="M 206.802611 266.2 
L 209.710801 266.2 
L 209.710801 230.47972 
L 206.802611 230.47972 
z
" clip-path="url(#pb9366d310e)" style="fill: #1f77b4"/>
   </g>
   <g id="patch_37">
    <path d="M 210.437849 266.2 
L 213.346039 266.2 
L 213.346039 230.47972 
L 210.437849 230.47972 
z
" clip-path="url(#pb9366d310e)" style="fill: #1f77b4"/>
   </g>
   <g id="patch_38">
    <path d="M 214.073086 266.2 
L 216.981276 266.2 
L 216.981276 230.47972 
L 214.073086 230.47972 
z
" clip-path="url(#pb9366d310e)" style="fill: #1f77b4"/>
   </g>
   <g id="patch_39">
    <path d="M 217.708324 266.2 
L 220.616514 266.2 
L 220.616514 230.47972 
L 217.708324 230.47972 
z
" clip-path="url(#pb9366d310e)" style="fill: #1f77b4"/>
   </g>
   <g id="patch_40">
    <path d="M 221.343561 266.2 
L 224.251751 266.2 
L 224.251751 230.47972 
L 221.343561 230.47972 
z
" clip-path="url(#pb9366d310e)" style="fill: #1f77b4"/>
   </g>
   <g id="patch_41">
    <path d="M 224.978799 266.2 
L 227.886989 266.2 
L 227.886989 230.47972 
L 224.978799 230.47972 
z
" clip-path="url(#pb9366d310e)" style="fill: #1f77b4"/>
   </g>
   <g id="patch_42">
    <path d="M 228.614036 266.2 
L 231.522226 266.2 
L 231.522226 230.47972 
L 228.614036 230.47972 
z
" clip-path="url(#pb9366d310e)" style="fill: #1f77b4"/>
   </g>
   <g id="patch_43">
    <path d="M 232.249274 266.2 
L 235.157464 266.2 
L 235.157464 230.47972 
L 232.249274 230.47972 
z
" clip-path="url(#pb9366d310e)" style="fill: #1f77b4"/>
   </g>
   <g id="patch_44">
    <path d="M 235.884511 266.2 
L 238.792701 266.2 
L 238.792701 230.47972 
L 235.884511 230.47972 
z
" clip-path="url(#pb9366d310e)" style="fill: #1f77b4"/>
   </g>
   <g id="patch_45">
    <path d="M 239.519749 266.2 
L 242.427939 266.2 
L 242.427939 230.47972 
L 239.519749 230.47972 
z
" clip-path="url(#pb9366d310e)" style="fill: #1f77b4"/>
   </g>
   <g id="patch_46">
    <path d="M 243.154986 266.2 
L 246.063176 266.2 
L 246.063176 230.47972 
L 243.154986 230.47972 
z
" clip-path="url(#pb9366d310e)" style="fill: #1f77b4"/>
   </g>
   <g id="patch_47">
    <path d="M 246.790224 266.2 
L 249.698414 266.2 
L 249.698414 230.47972 
L 246.790224 230.47972 
z
" clip-path="url(#pb9366d310e)" style="fill: #1f77b4"/>
   </g>
   <g id="patch_48">
    <path d="M 250.425461 266.2 
L 253.333651 266.2 
L 253.333651 230.47972 
L 250.425461 230.47972 
z
" clip-path="url(#pb9366d310e)" style="fill: #1f77b4"/>
   </g>
   <g id="patch_49">
    <path d="M 254.060699 266.2 
L 256.968889 266.2 
L 256.968889 248.33986 
L 254.060699 248.33986 
z
" clip-path="url(#pb9366d310e)" style="fill: #1f77b4"/>
   </g>
   <g id="patch_50">
    <path d="M 257.695936 266.2 
L 260.604126 266.2 
L 260.604126 248.33986 
L 257.695936 248.33986 
z
" clip-path="url(#pb9366d310e)" style="fill: #1f77b4"/>
   </g>
   <g id="patch_51">
    <path d="M 261.331174 266.2 
L 264.239364 266.2 
L 264.239364 248.33986 
L 261.331174 248.33986 
z
" clip-path="url(#pb9366d310e)" style="fill: #1f77b4"/>
   </g>
   <g id="patch_52">
    <path d="M 264.966411 266.2 
L 267.874601 266.2 
L 267.874601 248.33986 
L 264.966411 248.33986 
z
" clip-path="url(#pb9366d310e)" style="fill: #1f77b4"/>
   </g>
   <g id="patch_53">
    <path d="M 268.601649 266.2 
L 271.509839 266.2 
L 271.509839 248.33986 
L 268.601649 248.33986 
z
" clip-path="url(#pb9366d310e)" style="fill: #1f77b4"/>
   </g>
   <g id="patch_54">
    <path d="M 272.236886 266.2 
L 275.145076 266.2 
L 275.145076 248.33986 
L 272.236886 248.33986 
z
" clip-path="url(#pb9366d310e)" style="fill: #1f77b4"/>
   </g>
   <g id="patch_55">
    <path d="M 275.872124 266.2 
L 278.780314 266.2 
L 278.780314 248.33986 
L 275.872124 248.33986 
z
" clip-path="url(#pb9366d310e)" style="fill: #1f77b4"/>
   </g>
   <g id="patch_56">
    <path d="M 279.507361 266.2 
L 282.415551 266.2 
L 282.415551 248.33986 
L 279.507361 248.33986 
z
" clip-path="url(#pb9366d310e)" style="fill: #1f77b4"/>
   </g>
   <g id="patch_57">
    <path d="M 283.142599 266.2 
L 286.050789 266.2 
L 286.050789 248.33986 
L 283.142599 248.33986 
z
" clip-path="url(#pb9366d310e)" style="fill: #1f77b4"/>
   </g>
   <g id="patch_58">
    <path d="M 286.777836 266.2 
L 289.686026 266.2 
L 289.686026 248.33986 
L 286.777836 248.33986 
z
" clip-path="url(#pb9366d310e)" style="fill: #1f77b4"/>
   </g>
   <g id="patch_59">
    <path d="M 290.413074 266.2 
L 293.321264 266.2 
L 293.321264 248.33986 
L 290.413074 248.33986 
z
" clip-path="url(#pb9366d310e)" style="fill: #1f77b4"/>
   </g>
   <g id="patch_60">
    <path d="M 294.048311 266.2 
L 296.956501 266.2 
L 296.956501 248.33986 
L 294.048311 248.33986 
z
" clip-path="url(#pb9366d310e)" style="fill: #1f77b4"/>
   </g>
   <g id="patch_61">
    <path d="M 297.683549 266.2 
L 300.591739 266.2 
L 300.591739 248.33986 
L 297.683549 248.33986 
z
" clip-path="url(#pb9366d310e)" style="fill: #1f77b4"/>
   </g>
   <g id="patch_62">
    <path d="M 301.318786 266.2 
L 304.226976 266.2 
L 304.226976 248.33986 
L 301.318786 248.33986 
z
" clip-path="url(#pb9366d310e)" style="fill: #1f77b4"/>
   </g>
   <g id="patch_63">
    <path d="M 304.954024 266.2 
L 307.862214 266.2 
L 307.862214 248.33986 
L 304.954024 248.33986 
z
" clip-path="url(#pb9366d310e)" style="fill: #1f77b4"/>
   </g>
   <g id="patch_64">
    <path d="M 308.589261 266.2 
L 311.497451 266.2 
L 311.497451 248.33986 
L 308.589261 248.33986 
z
" clip-path="url(#pb9366d310e)" style="fill: #1f77b4"/>
   </g>
   <g id="patch_65">
    <path d="M 312.224499 266.2 
L 315.132689 266.2 
L 315.132689 248.33986 
L 312.224499 248.33986 
z
" clip-path="url(#pb9366d310e)" style="fill: #1f77b4"/>
   </g>
   <g id="patch_66">
    <path d="M 315.859736 266.2 
L 318.767926 266.2 
L 318.767926 248.33986 
L 315.859736 248.33986 
z
" clip-path="url(#pb9366d310e)" style="fill: #1f77b4"/>
   </g>
   <g id="patch_67">
    <path d="M 319.494974 266.2 
L 322.403164 266.2 
L 322.403164 248.33986 
L 319.494974 248.33986 
z
" clip-path="url(#pb9366d310e)" style="fill: #1f77b4"/>
   </g>
   <g id="patch_68">
    <path d="M 323.130211 266.2 
L 326.038401 266.2 
L 326.038401 248.33986 
L 323.130211 248.33986 
z
" clip-path="url(#pb9366d310e)" style="fill: #1f77b4"/>
   </g>
   <g id="patch_69">
    <path d="M 326.765449 266.2 
L 329.673639 266.2 
L 329.673639 248.33986 
L 326.765449 248.33986 
z
" clip-path="url(#pb9366d310e)" style="fill: #1f77b4"/>
   </g>
   <g id="patch_70">
    <path d="M 330.400686 266.2 
L 333.308876 266.2 
L 333.308876 248.33986 
L 330.400686 248.33986 
z
" clip-path="url(#pb9366d310e)" style="fill: #1f77b4"/>
   </g>
   <g id="patch_71">
    <path d="M 334.035924 266.2 
L 336.944114 266.2 
L 336.944114 248.33986 
L 334.035924 248.33986 
z
" clip-path="url(#pb9366d310e)" style="fill: #1f77b4"/>
   </g>
   <g id="patch_72">
    <path d="M 337.671161 266.2 
L 340.579351 266.2 
L 340.579351 248.33986 
L 337.671161 248.33986 
z
" clip-path="url(#pb9366d310e)" style="fill: #1f77b4"/>
   </g>
   <g id="patch_73">
    <path d="M 341.306399 266.2 
L 344.214589 266.2 
L 344.214589 248.33986 
L 341.306399 248.33986 
z
" clip-path="url(#pb9366d310e)" style="fill: #1f77b4"/>
   </g>
   <g id="patch_74">
    <path d="M 344.941636 266.2 
L 347.849826 266.2 
L 347.849826 248.33986 
L 344.941636 248.33986 
z
" clip-path="url(#pb9366d310e)" style="fill: #1f77b4"/>
   </g>
   <g id="patch_75">
    <path d="M 348.576874 266.2 
L 351.485064 266.2 
L 351.485064 248.33986 
L 348.576874 248.33986 
z
" clip-path="url(#pb9366d310e)" style="fill: #1f77b4"/>
   </g>
   <g id="patch_76">
    <path d="M 352.212111 266.2 
L 355.120301 266.2 
L 355.120301 248.33986 
L 352.212111 248.33986 
z
" clip-path="url(#pb9366d310e)" style="fill: #1f77b4"/>
   </g>
   <g id="patch_77">
    <path d="M 355.847349 266.2 
L 358.755539 266.2 
L 358.755539 248.33986 
L 355.847349 248.33986 
z
" clip-path="url(#pb9366d310e)" style="fill: #1f77b4"/>
   </g>
   <g id="patch_78">
    <path d="M 359.482586 266.2 
L 362.390776 266.2 
L 362.390776 248.33986 
L 359.482586 248.33986 
z
" clip-path="url(#pb9366d310e)" style="fill: #1f77b4"/>
   </g>
   <g id="patch_79">
    <path d="M 363.117824 266.2 
L 366.026014 266.2 
L 366.026014 248.33986 
L 363.117824 248.33986 
z
" clip-path="url(#pb9366d310e)" style="fill: #1f77b4"/>
   </g>
   <g id="patch_80">
    <path d="M 366.753061 266.2 
L 369.661251 266.2 
L 369.661251 248.33986 
L 366.753061 248.33986 
z
" clip-path="url(#pb9366d310e)" style="fill: #1f77b4"/>
   </g>
   <g id="patch_81">
    <path d="M 370.388299 266.2 
L 373.296489 266.2 
L 373.296489 248.33986 
L 370.388299 248.33986 
z
" clip-path="url(#pb9366d310e)" style="fill: #1f77b4"/>
   </g>
   <g id="patch_82">
    <path d="M 374.023536 266.2 
L 376.931726 266.2 
L 376.931726 248.33986 
L 374.023536 248.33986 
z
" clip-path="url(#pb9366d310e)" style="fill: #1f77b4"/>
   </g>
   <g id="patch_83">
    <path d="M 377.658774 266.2 
L 380.566964 266.2 
L 380.566964 248.33986 
L 377.658774 248.33986 
z
" clip-path="url(#pb9366d310e)" style="fill: #1f77b4"/>
   </g>
   <g id="patch_84">
    <path d="M 381.294011 266.2 
L 384.202201 266.2 
L 384.202201 248.33986 
L 381.294011 248.33986 
z
" clip-path="url(#pb9366d310e)" style="fill: #1f77b4"/>
   </g>
   <g id="patch_85">
    <path d="M 384.929249 266.2 
L 387.837439 266.2 
L 387.837439 248.33986 
L 384.929249 248.33986 
z
" clip-path="url(#pb9366d310e)" style="fill: #1f77b4"/>
   </g>
   <g id="patch_86">
    <path d="M 388.564486 266.2 
L 391.472676 266.2 
L 391.472676 248.33986 
L 388.564486 248.33986 
z
" clip-path="url(#pb9366d310e)" style="fill: #1f77b4"/>
   </g>
   <g id="patch_87">
    <path d="M 392.199724 266.2 
L 395.107914 266.2 
L 395.107914 248.33986 
L 392.199724 248.33986 
z
" clip-path="url(#pb9366d310e)" style="fill: #1f77b4"/>
   </g>
   <g id="patch_88">
    <path d="M 395.834961 266.2 
L 398.743151 266.2 
L 398.743151 248.33986 
L 395.834961 248.33986 
z
" clip-path="url(#pb9366d310e)" style="fill: #1f77b4"/>
   </g>
   <g id="patch_89">
    <path d="M 399.470199 266.2 
L 402.378389 266.2 
L 402.378389 248.33986 
L 399.470199 248.33986 
z
" clip-path="url(#pb9366d310e)" style="fill: #1f77b4"/>
   </g>
   <g id="patch_90">
    <path d="M 403.105436 266.2 
L 406.013626 266.2 
L 406.013626 248.33986 
L 403.105436 248.33986 
z
" clip-path="url(#pb9366d310e)" style="fill: #1f77b4"/>
   </g>
   <g id="patch_91">
    <path d="M 406.740674 266.2 
L 409.648864 266.2 
L 409.648864 248.33986 
L 406.740674 248.33986 
z
" clip-path="url(#pb9366d310e)" style="fill: #1f77b4"/>
   </g>
   <g id="patch_92">
    <path d="M 410.375911 266.2 
L 413.284101 266.2 
L 413.284101 248.33986 
L 410.375911 248.33986 
z
" clip-path="url(#pb9366d310e)" style="fill: #1f77b4"/>
   </g>
   <g id="patch_93">
    <path d="M 414.011149 266.2 
L 416.919339 266.2 
L 416.919339 248.33986 
L 414.011149 248.33986 
z
" clip-path="url(#pb9366d310e)" style="fill: #1f77b4"/>
   </g>
   <g id="patch_94">
    <path d="M 417.646386 266.2 
L 420.554576 266.2 
L 420.554576 248.33986 
L 417.646386 248.33986 
z
" clip-path="url(#pb9366d310e)" style="fill: #1f77b4"/>
   </g>
   <g id="patch_95">
    <path d="M 421.281624 266.2 
L 424.189814 266.2 
L 424.189814 248.33986 
L 421.281624 248.33986 
z
" clip-path="url(#pb9366d310e)" style="fill: #1f77b4"/>
   </g>
   <g id="patch_96">
    <path d="M 424.916861 266.2 
L 427.825051 266.2 
L 427.825051 248.33986 
L 424.916861 248.33986 
z
" clip-path="url(#pb9366d310e)" style="fill: #1f77b4"/>
   </g>
   <g id="patch_97">
    <path d="M 428.552099 266.2 
L 431.460289 266.2 
L 431.460289 248.33986 
L 428.552099 248.33986 
z
" clip-path="url(#pb9366d310e)" style="fill: #1f77b4"/>
   </g>
   <g id="patch_98">
    <path d="M 432.187336 266.2 
L 435.095526 266.2 
L 435.095526 248.33986 
L 432.187336 248.33986 
z
" clip-path="url(#pb9366d310e)" style="fill: #1f77b4"/>
   </g>
   <g id="patch_99">
    <path d="M 435.822574 266.2 
L 438.730764 266.2 
L 438.730764 248.33986 
L 435.822574 248.33986 
z
" clip-path="url(#pb9366d310e)" style="fill: #1f77b4"/>
   </g>
   <g id="patch_100">
    <path d="M 439.457811 266.2 
L 442.366001 266.2 
L 442.366001 248.33986 
L 439.457811 248.33986 
z
" clip-path="url(#pb9366d310e)" style="fill: #1f77b4"/>
   </g>
   <g id="patch_101">
    <path d="M 443.093049 266.2 
L 446.001239 266.2 
L 446.001239 248.33986 
L 443.093049 248.33986 
z
" clip-path="url(#pb9366d310e)" style="fill: #1f77b4"/>
   </g>
   <g id="patch_102">
    <path d="M 446.728286 266.2 
L 449.636476 266.2 
L 449.636476 248.33986 
L 446.728286 248.33986 
z
" clip-path="url(#pb9366d310e)" style="fill: #1f77b4"/>
   </g>
   <g id="matplotlib.axis_1">
    <g id="xtick_1">
     <g id="line2d_1">
      <defs>
       <path id="m1449826bd0" d="M 0 0 
L 0 3.5 
" style="stroke: #000000; stroke-width: 0.8"/>
      </defs>
      <g>
       <use xlink:href="#m1449826bd0" x="88.293869" y="266.2" style="stroke: #000000; stroke-width: 0.8"/>
      </g>
     </g>
     <g id="text_1">
      <!-- 1 -->
      <g transform="translate(78.750119 295.995312)scale(0.3 -0.3)">
       <defs>
        <path id="DejaVuSans-31" d="M 794 531 
L 1825 531 
L 1825 4091 
L 703 3866 
L 703 4441 
L 1819 4666 
L 2450 4666 
L 2450 531 
L 3481 531 
L 3481 0 
L 794 0 
L 794 531 
z
" transform="scale(0.015625)"/>
       </defs>
       <use xlink:href="#DejaVuSans-31"/>
      </g>
     </g>
    </g>
    <g id="xtick_2">
     <g id="line2d_2">
      <g>
       <use xlink:href="#m1449826bd0" x="160.998619" y="266.2" style="stroke: #000000; stroke-width: 0.8"/>
      </g>
     </g>
     <g id="text_2">
      <!-- 21 -->
      <g transform="translate(141.911119 295.995312)scale(0.3 -0.3)">
       <defs>
        <path id="DejaVuSans-32" d="M 1228 531 
L 3431 531 
L 3431 0 
L 469 0 
L 469 531 
Q 828 903 1448 1529 
Q 2069 2156 2228 2338 
Q 2531 2678 2651 2914 
Q 2772 3150 2772 3378 
Q 2772 3750 2511 3984 
Q 2250 4219 1831 4219 
Q 1534 4219 1204 4116 
Q 875 4013 500 3803 
L 500 4441 
Q 881 4594 1212 4672 
Q 1544 4750 1819 4750 
Q 2544 4750 2975 4387 
Q 3406 4025 3406 3419 
Q 3406 3131 3298 2873 
Q 3191 2616 2906 2266 
Q 2828 2175 2409 1742 
Q 1991 1309 1228 531 
z
" transform="scale(0.015625)"/>
       </defs>
       <use xlink:href="#DejaVuSans-32"/>
       <use xlink:href="#DejaVuSans-31" x="63.623047"/>
      </g>
     </g>
    </g>
    <g id="xtick_3">
     <g id="line2d_3">
      <g>
       <use xlink:href="#m1449826bd0" x="233.703369" y="266.2" style="stroke: #000000; stroke-width: 0.8"/>
      </g>
     </g>
     <g id="text_3">
      <!-- 41 -->
      <g transform="translate(214.615869 295.995312)scale(0.3 -0.3)">
       <defs>
        <path id="DejaVuSans-34" d="M 2419 4116 
L 825 1625 
L 2419 1625 
L 2419 4116 
z
M 2253 4666 
L 3047 4666 
L 3047 1625 
L 3713 1625 
L 3713 1100 
L 3047 1100 
L 3047 0 
L 2419 0 
L 2419 1100 
L 313 1100 
L 313 1709 
L 2253 4666 
z
" transform="scale(0.015625)"/>
       </defs>
       <use xlink:href="#DejaVuSans-34"/>
       <use xlink:href="#DejaVuSans-31" x="63.623047"/>
      </g>
     </g>
    </g>
    <g id="xtick_4">
     <g id="line2d_4">
      <g>
       <use xlink:href="#m1449826bd0" x="306.408119" y="266.2" style="stroke: #000000; stroke-width: 0.8"/>
      </g>
     </g>
     <g id="text_4">
      <!-- 61 -->
      <g transform="translate(287.320619 295.995312)scale(0.3 -0.3)">
       <defs>
        <path id="DejaVuSans-36" d="M 2113 2584 
Q 1688 2584 1439 2293 
Q 1191 2003 1191 1497 
Q 1191 994 1439 701 
Q 1688 409 2113 409 
Q 2538 409 2786 701 
Q 3034 994 3034 1497 
Q 3034 2003 2786 2293 
Q 2538 2584 2113 2584 
z
M 3366 4563 
L 3366 3988 
Q 3128 4100 2886 4159 
Q 2644 4219 2406 4219 
Q 1781 4219 1451 3797 
Q 1122 3375 1075 2522 
Q 1259 2794 1537 2939 
Q 1816 3084 2150 3084 
Q 2853 3084 3261 2657 
Q 3669 2231 3669 1497 
Q 3669 778 3244 343 
Q 2819 -91 2113 -91 
Q 1303 -91 875 529 
Q 447 1150 447 2328 
Q 447 3434 972 4092 
Q 1497 4750 2381 4750 
Q 2619 4750 2861 4703 
Q 3103 4656 3366 4563 
z
" transform="scale(0.015625)"/>
       </defs>
       <use xlink:href="#DejaVuSans-36"/>
       <use xlink:href="#DejaVuSans-31" x="63.623047"/>
      </g>
     </g>
    </g>
    <g id="xtick_5">
     <g id="line2d_5">
      <g>
       <use xlink:href="#m1449826bd0" x="379.112869" y="266.2" style="stroke: #000000; stroke-width: 0.8"/>
      </g>
     </g>
     <g id="text_5">
      <!-- 81 -->
      <g transform="translate(360.025369 295.995312)scale(0.3 -0.3)">
       <defs>
        <path id="DejaVuSans-38" d="M 2034 2216 
Q 1584 2216 1326 1975 
Q 1069 1734 1069 1313 
Q 1069 891 1326 650 
Q 1584 409 2034 409 
Q 2484 409 2743 651 
Q 3003 894 3003 1313 
Q 3003 1734 2745 1975 
Q 2488 2216 2034 2216 
z
M 1403 2484 
Q 997 2584 770 2862 
Q 544 3141 544 3541 
Q 544 4100 942 4425 
Q 1341 4750 2034 4750 
Q 2731 4750 3128 4425 
Q 3525 4100 3525 3541 
Q 3525 3141 3298 2862 
Q 3072 2584 2669 2484 
Q 3125 2378 3379 2068 
Q 3634 1759 3634 1313 
Q 3634 634 3220 271 
Q 2806 -91 2034 -91 
Q 1263 -91 848 271 
Q 434 634 434 1313 
Q 434 1759 690 2068 
Q 947 2378 1403 2484 
z
M 1172 3481 
Q 1172 3119 1398 2916 
Q 1625 2713 2034 2713 
Q 2441 2713 2670 2916 
Q 2900 3119 2900 3481 
Q 2900 3844 2670 4047 
Q 2441 4250 2034 4250 
Q 1625 4250 1398 4047 
Q 1172 3844 1172 3481 
z
" transform="scale(0.015625)"/>
       </defs>
       <use xlink:href="#DejaVuSans-38"/>
       <use xlink:href="#DejaVuSans-31" x="63.623047"/>
      </g>
     </g>
    </g>
    <g id="text_6">
     <!-- $c$ -->
     <g transform="translate(259.988125 329.029687)scale(0.3 -0.3)">
      <defs>
       <path id="DejaVuSans-Oblique-63" d="M 3431 3366 
L 3316 2797 
Q 3109 2947 2876 3022 
Q 2644 3097 2394 3097 
Q 2119 3097 1870 3000 
Q 1622 2903 1453 2725 
Q 1184 2453 1037 2087 
Q 891 1722 891 1331 
Q 891 859 1127 628 
Q 1363 397 1844 397 
Q 2081 397 2348 469 
Q 2616 541 2906 684 
L 2797 116 
Q 2547 13 2283 -39 
Q 2019 -91 1741 -91 
Q 1044 -91 669 257 
Q 294 606 294 1253 
Q 294 1797 489 2255 
Q 684 2713 1069 3078 
Q 1331 3328 1684 3456 
Q 2038 3584 2456 3584 
Q 2700 3584 2940 3529 
Q 3181 3475 3431 3366 
z
" transform="scale(0.015625)"/>
      </defs>
      <use xlink:href="#DejaVuSans-Oblique-63"/>
     </g>
    </g>
   </g>
   <g id="matplotlib.axis_2">
    <g id="ytick_1">
     <g id="line2d_6">
      <defs>
       <path id="mb8c09da291" d="M 0 0 
L -3.5 0 
" style="stroke: #000000; stroke-width: 0.8"/>
      </defs>
      <g>
       <use xlink:href="#mb8c09da291" x="86.47625" y="266.2" style="stroke: #000000; stroke-width: 0.8"/>
      </g>
     </g>
     <g id="text_7">
      <!-- 0 -->
      <g transform="translate(60.38875 277.597656)scale(0.3 -0.3)">
       <defs>
        <path id="DejaVuSans-30" d="M 2034 4250 
Q 1547 4250 1301 3770 
Q 1056 3291 1056 2328 
Q 1056 1369 1301 889 
Q 1547 409 2034 409 
Q 2525 409 2770 889 
Q 3016 1369 3016 2328 
Q 3016 3291 2770 3770 
Q 2525 4250 2034 4250 
z
M 2034 4750 
Q 2819 4750 3233 4129 
Q 3647 3509 3647 2328 
Q 3647 1150 3233 529 
Q 2819 -91 2034 -91 
Q 1250 -91 836 529 
Q 422 1150 422 2328 
Q 422 3509 836 4129 
Q 1250 4750 2034 4750 
z
" transform="scale(0.015625)"/>
       </defs>
       <use xlink:href="#DejaVuSans-30"/>
      </g>
     </g>
    </g>
    <g id="ytick_2">
     <g id="line2d_7">
      <g>
       <use xlink:href="#mb8c09da291" x="86.47625" y="159.039161" style="stroke: #000000; stroke-width: 0.8"/>
      </g>
     </g>
     <g id="text_8">
      <!-- 6 -->
      <g transform="translate(60.38875 170.436817)scale(0.3 -0.3)">
       <use xlink:href="#DejaVuSans-36"/>
      </g>
     </g>
    </g>
    <g id="ytick_3">
     <g id="line2d_8">
      <g>
       <use xlink:href="#mb8c09da291" x="86.47625" y="34.018182" style="stroke: #000000; stroke-width: 0.8"/>
      </g>
     </g>
     <g id="text_9">
      <!-- 13 -->
      <g transform="translate(41.30125 45.415838)scale(0.3 -0.3)">
       <defs>
        <path id="DejaVuSans-33" d="M 2597 2516 
Q 3050 2419 3304 2112 
Q 3559 1806 3559 1356 
Q 3559 666 3084 287 
Q 2609 -91 1734 -91 
Q 1441 -91 1130 -33 
Q 819 25 488 141 
L 488 750 
Q 750 597 1062 519 
Q 1375 441 1716 441 
Q 2309 441 2620 675 
Q 2931 909 2931 1356 
Q 2931 1769 2642 2001 
Q 2353 2234 1838 2234 
L 1294 2234 
L 1294 2753 
L 1863 2753 
Q 2328 2753 2575 2939 
Q 2822 3125 2822 3475 
Q 2822 3834 2567 4026 
Q 2313 4219 1838 4219 
Q 1578 4219 1281 4162 
Q 984 4106 628 3988 
L 628 4550 
Q 988 4650 1302 4700 
Q 1616 4750 1894 4750 
Q 2613 4750 3031 4423 
Q 3450 4097 3450 3541 
Q 3450 3153 3228 2886 
Q 3006 2619 2597 2516 
z
" transform="scale(0.015625)"/>
       </defs>
       <use xlink:href="#DejaVuSans-31"/>
       <use xlink:href="#DejaVuSans-33" x="63.623047"/>
      </g>
     </g>
    </g>
    <g id="text_10">
     <!-- $M$ -->
     <g transform="translate(11.20125 132.260938)scale(0.3 -0.3)">
      <defs>
       <path id="DejaVuSans-Oblique-4d" d="M 1081 4666 
L 2028 4666 
L 2572 1522 
L 4378 4666 
L 5350 4666 
L 4441 0 
L 3828 0 
L 4622 4091 
L 2791 897 
L 2175 897 
L 1581 4103 
L 788 0 
L 172 0 
L 1081 4666 
z
" transform="scale(0.015625)"/>
      </defs>
      <use xlink:href="#DejaVuSans-Oblique-4d" transform="translate(0 0.09375)"/>
     </g>
    </g>
   </g>
   <g id="patch_103">
    <path d="M 86.47625 266.2 
L 86.47625 10.8 
" style="fill: none; stroke: #000000; stroke-width: 0.8; stroke-linejoin: miter; stroke-linecap: square"/>
   </g>
   <g id="patch_104">
    <path d="M 450 266.2 
L 450 10.8 
" style="fill: none; stroke: #000000; stroke-width: 0.8; stroke-linejoin: miter; stroke-linecap: square"/>
   </g>
   <g id="patch_105">
    <path d="M 86.47625 266.2 
L 450 266.2 
" style="fill: none; stroke: #000000; stroke-width: 0.8; stroke-linejoin: miter; stroke-linecap: square"/>
   </g>
   <g id="patch_106">
    <path d="M 86.47625 10.8 
L 450 10.8 
" style="fill: none; stroke: #000000; stroke-width: 0.8; stroke-linejoin: miter; stroke-linecap: square"/>
   </g>
  </g>
 </g>
 <defs>
  <clipPath id="pb9366d310e">
   <rect x="86.47625" y="10.8" width="363.52375" height="255.4"/>
  </clipPath>
 </defs>
</svg>
