<?xml version="1.0" encoding="utf-8" standalone="no"?>
<!DOCTYPE svg PUBLIC "-//W3C//DTD SVG 1.1//EN"
  "http://www.w3.org/Graphics/SVG/1.1/DTD/svg11.dtd">
<svg xmlns:xlink="http://www.w3.org/1999/xlink" width="460.8pt" height="345.6pt" viewBox="0 0 460.8 345.6" xmlns="http://www.w3.org/2000/svg" version="1.1">
 <metadata>
  <rdf:RDF xmlns:dc="http://purl.org/dc/elements/1.1/" xmlns:cc="http://creativecommons.org/ns#" xmlns:rdf="http://www.w3.org/1999/02/22-rdf-syntax-ns#">
   <cc:Work>
    <dc:type rdf:resource="http://purl.org/dc/dcmitype/StillImage"/>
    <dc:date>2023-08-25T16:10:19.801194</dc:date>
    <dc:format>image/svg+xml</dc:format>
    <dc:creator>
     <cc:Agent>
      <dc:title>Matplotlib v3.5.2, https://matplotlib.org/</dc:title>
     </cc:Agent>
    </dc:creator>
   </cc:Work>
  </rdf:RDF>
 </metadata>
 <defs>
  <style type="text/css">*{stroke-linejoin: round; stroke-linecap: butt}</style>
 </defs>
 <g id="figure_1">
  <g id="patch_1">
   <path d="M 0 345.6 
L 460.8 345.6 
L 460.8 0 
L 0 0 
z
" style="fill: #ffffff"/>
  </g>
  <g id="axes_1">
   <g id="patch_2">
    <path d="M 86.47625 266.2 
L 434.256923 266.2 
L 434.256923 10.8 
L 86.47625 10.8 
z
" style="fill: #ffffff"/>
   </g>
   <g id="patch_3">
    <path d="M 86.643452 266.2 
L 87.98107 266.2 
L 87.98107 34.018182 
L 86.643452 34.018182 
z
" clip-path="url(#p22dbbe38c4)" style="fill: #1f77b4"/>
   </g>
   <g id="patch_4">
    <path d="M 88.315475 266.2 
L 89.653093 266.2 
L 89.653093 34.018182 
L 88.315475 34.018182 
z
" clip-path="url(#p22dbbe38c4)" style="fill: #1f77b4"/>
   </g>
   <g id="patch_5">
    <path d="M 89.987497 266.2 
L 91.325115 266.2 
L 91.325115 34.018182 
L 89.987497 34.018182 
z
" clip-path="url(#p22dbbe38c4)" style="fill: #1f77b4"/>
   </g>
   <g id="patch_6">
    <path d="M 91.65952 266.2 
L 92.997138 266.2 
L 92.997138 34.018182 
L 91.65952 34.018182 
z
" clip-path="url(#p22dbbe38c4)" style="fill: #1f77b4"/>
   </g>
   <g id="patch_7">
    <path d="M 93.331542 266.2 
L 94.66916 266.2 
L 94.66916 58.458373 
L 93.331542 58.458373 
z
" clip-path="url(#p22dbbe38c4)" style="fill: #1f77b4"/>
   </g>
   <g id="patch_8">
    <path d="M 95.003565 266.2 
L 96.341183 266.2 
L 96.341183 58.458373 
L 95.003565 58.458373 
z
" clip-path="url(#p22dbbe38c4)" style="fill: #1f77b4"/>
   </g>
   <g id="patch_9">
    <path d="M 96.675587 266.2 
L 98.013205 266.2 
L 98.013205 58.458373 
L 96.675587 58.458373 
z
" clip-path="url(#p22dbbe38c4)" style="fill: #1f77b4"/>
   </g>
   <g id="patch_10">
    <path d="M 98.34761 266.2 
L 99.685227 266.2 
L 99.685227 58.458373 
L 98.34761 58.458373 
z
" clip-path="url(#p22dbbe38c4)" style="fill: #1f77b4"/>
   </g>
   <g id="patch_11">
    <path d="M 100.019632 266.2 
L 101.35725 266.2 
L 101.35725 229.539713 
L 100.019632 229.539713 
z
" clip-path="url(#p22dbbe38c4)" style="fill: #1f77b4"/>
   </g>
   <g id="patch_12">
    <path d="M 101.691654 266.2 
L 103.029272 266.2 
L 103.029272 229.539713 
L 101.691654 229.539713 
z
" clip-path="url(#p22dbbe38c4)" style="fill: #1f77b4"/>
   </g>
   <g id="patch_13">
    <path d="M 103.363677 266.2 
L 104.701295 266.2 
L 104.701295 229.539713 
L 103.363677 229.539713 
z
" clip-path="url(#p22dbbe38c4)" style="fill: #1f77b4"/>
   </g>
   <g id="patch_14">
    <path d="M 105.035699 266.2 
L 106.373317 266.2 
L 106.373317 229.539713 
L 105.035699 229.539713 
z
" clip-path="url(#p22dbbe38c4)" style="fill: #1f77b4"/>
   </g>
   <g id="patch_15">
    <path d="M 106.707722 266.2 
L 108.04534 266.2 
L 108.04534 229.539713 
L 106.707722 229.539713 
z
" clip-path="url(#p22dbbe38c4)" style="fill: #1f77b4"/>
   </g>
   <g id="patch_16">
    <path d="M 108.379744 266.2 
L 109.717362 266.2 
L 109.717362 229.539713 
L 108.379744 229.539713 
z
" clip-path="url(#p22dbbe38c4)" style="fill: #1f77b4"/>
   </g>
   <g id="patch_17">
    <path d="M 110.051767 266.2 
L 111.389385 266.2 
L 111.389385 229.539713 
L 110.051767 229.539713 
z
" clip-path="url(#p22dbbe38c4)" style="fill: #1f77b4"/>
   </g>
   <g id="patch_18">
    <path d="M 111.723789 266.2 
L 113.061407 266.2 
L 113.061407 229.539713 
L 111.723789 229.539713 
z
" clip-path="url(#p22dbbe38c4)" style="fill: #1f77b4"/>
   </g>
   <g id="patch_19">
    <path d="M 113.395812 266.2 
L 114.73343 266.2 
L 114.73343 229.539713 
L 113.395812 229.539713 
z
" clip-path="url(#p22dbbe38c4)" style="fill: #1f77b4"/>
   </g>
   <g id="patch_20">
    <path d="M 115.067834 266.2 
L 116.405452 266.2 
L 116.405452 229.539713 
L 115.067834 229.539713 
z
" clip-path="url(#p22dbbe38c4)" style="fill: #1f77b4"/>
   </g>
   <g id="patch_21">
    <path d="M 116.739857 266.2 
L 118.077475 266.2 
L 118.077475 229.539713 
L 116.739857 229.539713 
z
" clip-path="url(#p22dbbe38c4)" style="fill: #1f77b4"/>
   </g>
   <g id="patch_22">
    <path d="M 118.411879 266.2 
L 119.749497 266.2 
L 119.749497 229.539713 
L 118.411879 229.539713 
z
" clip-path="url(#p22dbbe38c4)" style="fill: #1f77b4"/>
   </g>
   <g id="patch_23">
    <path d="M 120.083902 266.2 
L 121.42152 266.2 
L 121.42152 229.539713 
L 120.083902 229.539713 
z
" clip-path="url(#p22dbbe38c4)" style="fill: #1f77b4"/>
   </g>
   <g id="patch_24">
    <path d="M 121.755924 266.2 
L 123.093542 266.2 
L 123.093542 229.539713 
L 121.755924 229.539713 
z
" clip-path="url(#p22dbbe38c4)" style="fill: #1f77b4"/>
   </g>
   <g id="patch_25">
    <path d="M 123.427947 266.2 
L 124.765564 266.2 
L 124.765564 229.539713 
L 123.427947 229.539713 
z
" clip-path="url(#p22dbbe38c4)" style="fill: #1f77b4"/>
   </g>
   <g id="patch_26">
    <path d="M 125.099969 266.2 
L 126.437587 266.2 
L 126.437587 229.539713 
L 125.099969 229.539713 
z
" clip-path="url(#p22dbbe38c4)" style="fill: #1f77b4"/>
   </g>
   <g id="patch_27">
    <path d="M 126.771991 266.2 
L 128.109609 266.2 
L 128.109609 229.539713 
L 126.771991 229.539713 
z
" clip-path="url(#p22dbbe38c4)" style="fill: #1f77b4"/>
   </g>
   <g id="patch_28">
    <path d="M 128.444014 266.2 
L 129.781632 266.2 
L 129.781632 229.539713 
L 128.444014 229.539713 
z
" clip-path="url(#p22dbbe38c4)" style="fill: #1f77b4"/>
   </g>
   <g id="patch_29">
    <path d="M 130.116036 266.2 
L 131.453654 266.2 
L 131.453654 229.539713 
L 130.116036 229.539713 
z
" clip-path="url(#p22dbbe38c4)" style="fill: #1f77b4"/>
   </g>
   <g id="patch_30">
    <path d="M 131.788059 266.2 
L 133.125677 266.2 
L 133.125677 229.539713 
L 131.788059 229.539713 
z
" clip-path="url(#p22dbbe38c4)" style="fill: #1f77b4"/>
   </g>
   <g id="patch_31">
    <path d="M 133.460081 266.2 
L 134.797699 266.2 
L 134.797699 229.539713 
L 133.460081 229.539713 
z
" clip-path="url(#p22dbbe38c4)" style="fill: #1f77b4"/>
   </g>
   <g id="patch_32">
    <path d="M 135.132104 266.2 
L 136.469722 266.2 
L 136.469722 229.539713 
L 135.132104 229.539713 
z
" clip-path="url(#p22dbbe38c4)" style="fill: #1f77b4"/>
   </g>
   <g id="patch_33">
    <path d="M 136.804126 266.2 
L 138.141744 266.2 
L 138.141744 229.539713 
L 136.804126 229.539713 
z
" clip-path="url(#p22dbbe38c4)" style="fill: #1f77b4"/>
   </g>
   <g id="patch_34">
    <path d="M 138.476149 266.2 
L 139.813767 266.2 
L 139.813767 229.539713 
L 138.476149 229.539713 
z
" clip-path="url(#p22dbbe38c4)" style="fill: #1f77b4"/>
   </g>
   <g id="patch_35">
    <path d="M 140.148171 266.2 
L 141.485789 266.2 
L 141.485789 229.539713 
L 140.148171 229.539713 
z
" clip-path="url(#p22dbbe38c4)" style="fill: #1f77b4"/>
   </g>
   <g id="patch_36">
    <path d="M 141.820194 266.2 
L 143.157812 266.2 
L 143.157812 229.539713 
L 141.820194 229.539713 
z
" clip-path="url(#p22dbbe38c4)" style="fill: #1f77b4"/>
   </g>
   <g id="patch_37">
    <path d="M 143.492216 266.2 
L 144.829834 266.2 
L 144.829834 229.539713 
L 143.492216 229.539713 
z
" clip-path="url(#p22dbbe38c4)" style="fill: #1f77b4"/>
   </g>
   <g id="patch_38">
    <path d="M 145.164239 266.2 
L 146.501857 266.2 
L 146.501857 229.539713 
L 145.164239 229.539713 
z
" clip-path="url(#p22dbbe38c4)" style="fill: #1f77b4"/>
   </g>
   <g id="patch_39">
    <path d="M 146.836261 266.2 
L 148.173879 266.2 
L 148.173879 229.539713 
L 146.836261 229.539713 
z
" clip-path="url(#p22dbbe38c4)" style="fill: #1f77b4"/>
   </g>
   <g id="patch_40">
    <path d="M 148.508284 266.2 
L 149.845901 266.2 
L 149.845901 229.539713 
L 148.508284 229.539713 
z
" clip-path="url(#p22dbbe38c4)" style="fill: #1f77b4"/>
   </g>
   <g id="patch_41">
    <path d="M 150.180306 266.2 
L 151.517924 266.2 
L 151.517924 229.539713 
L 150.180306 229.539713 
z
" clip-path="url(#p22dbbe38c4)" style="fill: #1f77b4"/>
   </g>
   <g id="patch_42">
    <path d="M 151.852328 266.2 
L 153.189946 266.2 
L 153.189946 229.539713 
L 151.852328 229.539713 
z
" clip-path="url(#p22dbbe38c4)" style="fill: #1f77b4"/>
   </g>
   <g id="patch_43">
    <path d="M 153.524351 266.2 
L 154.861969 266.2 
L 154.861969 229.539713 
L 153.524351 229.539713 
z
" clip-path="url(#p22dbbe38c4)" style="fill: #1f77b4"/>
   </g>
   <g id="patch_44">
    <path d="M 155.196373 266.2 
L 156.533991 266.2 
L 156.533991 229.539713 
L 155.196373 229.539713 
z
" clip-path="url(#p22dbbe38c4)" style="fill: #1f77b4"/>
   </g>
   <g id="patch_45">
    <path d="M 156.868396 266.2 
L 158.206014 266.2 
L 158.206014 229.539713 
L 156.868396 229.539713 
z
" clip-path="url(#p22dbbe38c4)" style="fill: #1f77b4"/>
   </g>
   <g id="patch_46">
    <path d="M 158.540418 266.2 
L 159.878036 266.2 
L 159.878036 229.539713 
L 158.540418 229.539713 
z
" clip-path="url(#p22dbbe38c4)" style="fill: #1f77b4"/>
   </g>
   <g id="patch_47">
    <path d="M 160.212441 266.2 
L 161.550059 266.2 
L 161.550059 229.539713 
L 160.212441 229.539713 
z
" clip-path="url(#p22dbbe38c4)" style="fill: #1f77b4"/>
   </g>
   <g id="patch_48">
    <path d="M 161.884463 266.2 
L 163.222081 266.2 
L 163.222081 229.539713 
L 161.884463 229.539713 
z
" clip-path="url(#p22dbbe38c4)" style="fill: #1f77b4"/>
   </g>
   <g id="patch_49">
    <path d="M 163.556486 266.2 
L 164.894104 266.2 
L 164.894104 229.539713 
L 163.556486 229.539713 
z
" clip-path="url(#p22dbbe38c4)" style="fill: #1f77b4"/>
   </g>
   <g id="patch_50">
    <path d="M 165.228508 266.2 
L 166.566126 266.2 
L 166.566126 229.539713 
L 165.228508 229.539713 
z
" clip-path="url(#p22dbbe38c4)" style="fill: #1f77b4"/>
   </g>
   <g id="patch_51">
    <path d="M 166.900531 266.2 
L 168.238149 266.2 
L 168.238149 229.539713 
L 166.900531 229.539713 
z
" clip-path="url(#p22dbbe38c4)" style="fill: #1f77b4"/>
   </g>
   <g id="patch_52">
    <path d="M 168.572553 266.2 
L 169.910171 266.2 
L 169.910171 229.539713 
L 168.572553 229.539713 
z
" clip-path="url(#p22dbbe38c4)" style="fill: #1f77b4"/>
   </g>
   <g id="patch_53">
    <path d="M 170.244576 266.2 
L 171.582194 266.2 
L 171.582194 229.539713 
L 170.244576 229.539713 
z
" clip-path="url(#p22dbbe38c4)" style="fill: #1f77b4"/>
   </g>
   <g id="patch_54">
    <path d="M 171.916598 266.2 
L 173.254216 266.2 
L 173.254216 229.539713 
L 171.916598 229.539713 
z
" clip-path="url(#p22dbbe38c4)" style="fill: #1f77b4"/>
   </g>
   <g id="patch_55">
    <path d="M 173.588621 266.2 
L 174.926238 266.2 
L 174.926238 229.539713 
L 173.588621 229.539713 
z
" clip-path="url(#p22dbbe38c4)" style="fill: #1f77b4"/>
   </g>
   <g id="patch_56">
    <path d="M 175.260643 266.2 
L 176.598261 266.2 
L 176.598261 229.539713 
L 175.260643 229.539713 
z
" clip-path="url(#p22dbbe38c4)" style="fill: #1f77b4"/>
   </g>
   <g id="patch_57">
    <path d="M 176.932665 266.2 
L 178.270283 266.2 
L 178.270283 229.539713 
L 176.932665 229.539713 
z
" clip-path="url(#p22dbbe38c4)" style="fill: #1f77b4"/>
   </g>
   <g id="patch_58">
    <path d="M 178.604688 266.2 
L 179.942306 266.2 
L 179.942306 229.539713 
L 178.604688 229.539713 
z
" clip-path="url(#p22dbbe38c4)" style="fill: #1f77b4"/>
   </g>
   <g id="patch_59">
    <path d="M 180.27671 266.2 
L 181.614328 266.2 
L 181.614328 229.539713 
L 180.27671 229.539713 
z
" clip-path="url(#p22dbbe38c4)" style="fill: #1f77b4"/>
   </g>
   <g id="patch_60">
    <path d="M 181.948733 266.2 
L 183.286351 266.2 
L 183.286351 229.539713 
L 181.948733 229.539713 
z
" clip-path="url(#p22dbbe38c4)" style="fill: #1f77b4"/>
   </g>
   <g id="patch_61">
    <path d="M 183.620755 266.2 
L 184.958373 266.2 
L 184.958373 229.539713 
L 183.620755 229.539713 
z
" clip-path="url(#p22dbbe38c4)" style="fill: #1f77b4"/>
   </g>
   <g id="patch_62">
    <path d="M 185.292778 266.2 
L 186.630396 266.2 
L 186.630396 229.539713 
L 185.292778 229.539713 
z
" clip-path="url(#p22dbbe38c4)" style="fill: #1f77b4"/>
   </g>
   <g id="patch_63">
    <path d="M 186.9648 266.2 
L 188.302418 266.2 
L 188.302418 229.539713 
L 186.9648 229.539713 
z
" clip-path="url(#p22dbbe38c4)" style="fill: #1f77b4"/>
   </g>
   <g id="patch_64">
    <path d="M 188.636823 266.2 
L 189.974441 266.2 
L 189.974441 229.539713 
L 188.636823 229.539713 
z
" clip-path="url(#p22dbbe38c4)" style="fill: #1f77b4"/>
   </g>
   <g id="patch_65">
    <path d="M 190.308845 266.2 
L 191.646463 266.2 
L 191.646463 229.539713 
L 190.308845 229.539713 
z
" clip-path="url(#p22dbbe38c4)" style="fill: #1f77b4"/>
   </g>
   <g id="patch_66">
    <path d="M 191.980868 266.2 
L 193.318486 266.2 
L 193.318486 229.539713 
L 191.980868 229.539713 
z
" clip-path="url(#p22dbbe38c4)" style="fill: #1f77b4"/>
   </g>
   <g id="patch_67">
    <path d="M 193.65289 266.2 
L 194.990508 266.2 
L 194.990508 241.759809 
L 193.65289 241.759809 
z
" clip-path="url(#p22dbbe38c4)" style="fill: #1f77b4"/>
   </g>
   <g id="patch_68">
    <path d="M 195.324913 266.2 
L 196.662531 266.2 
L 196.662531 241.759809 
L 195.324913 241.759809 
z
" clip-path="url(#p22dbbe38c4)" style="fill: #1f77b4"/>
   </g>
   <g id="patch_69">
    <path d="M 196.996935 266.2 
L 198.334553 266.2 
L 198.334553 241.759809 
L 196.996935 241.759809 
z
" clip-path="url(#p22dbbe38c4)" style="fill: #1f77b4"/>
   </g>
   <g id="patch_70">
    <path d="M 198.668958 266.2 
L 200.006575 266.2 
L 200.006575 241.759809 
L 198.668958 241.759809 
z
" clip-path="url(#p22dbbe38c4)" style="fill: #1f77b4"/>
   </g>
   <g id="patch_71">
    <path d="M 200.34098 266.2 
L 201.678598 266.2 
L 201.678598 241.759809 
L 200.34098 241.759809 
z
" clip-path="url(#p22dbbe38c4)" style="fill: #1f77b4"/>
   </g>
   <g id="patch_72">
    <path d="M 202.013002 266.2 
L 203.35062 266.2 
L 203.35062 241.759809 
L 202.013002 241.759809 
z
" clip-path="url(#p22dbbe38c4)" style="fill: #1f77b4"/>
   </g>
   <g id="patch_73">
    <path d="M 203.685025 266.2 
L 205.022643 266.2 
L 205.022643 241.759809 
L 203.685025 241.759809 
z
" clip-path="url(#p22dbbe38c4)" style="fill: #1f77b4"/>
   </g>
   <g id="patch_74">
    <path d="M 205.357047 266.2 
L 206.694665 266.2 
L 206.694665 241.759809 
L 205.357047 241.759809 
z
" clip-path="url(#p22dbbe38c4)" style="fill: #1f77b4"/>
   </g>
   <g id="patch_75">
    <path d="M 207.02907 266.2 
L 208.366688 266.2 
L 208.366688 241.759809 
L 207.02907 241.759809 
z
" clip-path="url(#p22dbbe38c4)" style="fill: #1f77b4"/>
   </g>
   <g id="patch_76">
    <path d="M 208.701092 266.2 
L 210.03871 266.2 
L 210.03871 241.759809 
L 208.701092 241.759809 
z
" clip-path="url(#p22dbbe38c4)" style="fill: #1f77b4"/>
   </g>
   <g id="patch_77">
    <path d="M 210.373115 266.2 
L 211.710733 266.2 
L 211.710733 241.759809 
L 210.373115 241.759809 
z
" clip-path="url(#p22dbbe38c4)" style="fill: #1f77b4"/>
   </g>
   <g id="patch_78">
    <path d="M 212.045137 266.2 
L 213.382755 266.2 
L 213.382755 241.759809 
L 212.045137 241.759809 
z
" clip-path="url(#p22dbbe38c4)" style="fill: #1f77b4"/>
   </g>
   <g id="patch_79">
    <path d="M 213.71716 266.2 
L 215.054778 266.2 
L 215.054778 241.759809 
L 213.71716 241.759809 
z
" clip-path="url(#p22dbbe38c4)" style="fill: #1f77b4"/>
   </g>
   <g id="patch_80">
    <path d="M 215.389182 266.2 
L 216.7268 266.2 
L 216.7268 241.759809 
L 215.389182 241.759809 
z
" clip-path="url(#p22dbbe38c4)" style="fill: #1f77b4"/>
   </g>
   <g id="patch_81">
    <path d="M 217.061205 266.2 
L 218.398823 266.2 
L 218.398823 241.759809 
L 217.061205 241.759809 
z
" clip-path="url(#p22dbbe38c4)" style="fill: #1f77b4"/>
   </g>
   <g id="patch_82">
    <path d="M 218.733227 266.2 
L 220.070845 266.2 
L 220.070845 241.759809 
L 218.733227 241.759809 
z
" clip-path="url(#p22dbbe38c4)" style="fill: #1f77b4"/>
   </g>
   <g id="patch_83">
    <path d="M 220.40525 266.2 
L 221.742868 266.2 
L 221.742868 241.759809 
L 220.40525 241.759809 
z
" clip-path="url(#p22dbbe38c4)" style="fill: #1f77b4"/>
   </g>
   <g id="patch_84">
    <path d="M 222.077272 266.2 
L 223.41489 266.2 
L 223.41489 241.759809 
L 222.077272 241.759809 
z
" clip-path="url(#p22dbbe38c4)" style="fill: #1f77b4"/>
   </g>
   <g id="patch_85">
    <path d="M 223.749295 266.2 
L 225.086912 266.2 
L 225.086912 241.759809 
L 223.749295 241.759809 
z
" clip-path="url(#p22dbbe38c4)" style="fill: #1f77b4"/>
   </g>
   <g id="patch_86">
    <path d="M 225.421317 266.2 
L 226.758935 266.2 
L 226.758935 241.759809 
L 225.421317 241.759809 
z
" clip-path="url(#p22dbbe38c4)" style="fill: #1f77b4"/>
   </g>
   <g id="patch_87">
    <path d="M 227.093339 266.2 
L 228.430957 266.2 
L 228.430957 241.759809 
L 227.093339 241.759809 
z
" clip-path="url(#p22dbbe38c4)" style="fill: #1f77b4"/>
   </g>
   <g id="patch_88">
    <path d="M 228.765362 266.2 
L 230.10298 266.2 
L 230.10298 241.759809 
L 228.765362 241.759809 
z
" clip-path="url(#p22dbbe38c4)" style="fill: #1f77b4"/>
   </g>
   <g id="patch_89">
    <path d="M 230.437384 266.2 
L 231.775002 266.2 
L 231.775002 241.759809 
L 230.437384 241.759809 
z
" clip-path="url(#p22dbbe38c4)" style="fill: #1f77b4"/>
   </g>
   <g id="patch_90">
    <path d="M 232.109407 266.2 
L 233.447025 266.2 
L 233.447025 241.759809 
L 232.109407 241.759809 
z
" clip-path="url(#p22dbbe38c4)" style="fill: #1f77b4"/>
   </g>
   <g id="patch_91">
    <path d="M 233.781429 266.2 
L 235.119047 266.2 
L 235.119047 241.759809 
L 233.781429 241.759809 
z
" clip-path="url(#p22dbbe38c4)" style="fill: #1f77b4"/>
   </g>
   <g id="patch_92">
    <path d="M 235.453452 266.2 
L 236.79107 266.2 
L 236.79107 241.759809 
L 235.453452 241.759809 
z
" clip-path="url(#p22dbbe38c4)" style="fill: #1f77b4"/>
   </g>
   <g id="patch_93">
    <path d="M 237.125474 266.2 
L 238.463092 266.2 
L 238.463092 241.759809 
L 237.125474 241.759809 
z
" clip-path="url(#p22dbbe38c4)" style="fill: #1f77b4"/>
   </g>
   <g id="patch_94">
    <path d="M 238.797497 266.2 
L 240.135115 266.2 
L 240.135115 241.759809 
L 238.797497 241.759809 
z
" clip-path="url(#p22dbbe38c4)" style="fill: #1f77b4"/>
   </g>
   <g id="patch_95">
    <path d="M 240.469519 266.2 
L 241.807137 266.2 
L 241.807137 241.759809 
L 240.469519 241.759809 
z
" clip-path="url(#p22dbbe38c4)" style="fill: #1f77b4"/>
   </g>
   <g id="patch_96">
    <path d="M 242.141542 266.2 
L 243.47916 266.2 
L 243.47916 241.759809 
L 242.141542 241.759809 
z
" clip-path="url(#p22dbbe38c4)" style="fill: #1f77b4"/>
   </g>
   <g id="patch_97">
    <path d="M 243.813564 266.2 
L 245.151182 266.2 
L 245.151182 241.759809 
L 243.813564 241.759809 
z
" clip-path="url(#p22dbbe38c4)" style="fill: #1f77b4"/>
   </g>
   <g id="patch_98">
    <path d="M 245.485587 266.2 
L 246.823205 266.2 
L 246.823205 241.759809 
L 245.485587 241.759809 
z
" clip-path="url(#p22dbbe38c4)" style="fill: #1f77b4"/>
   </g>
   <g id="patch_99">
    <path d="M 247.157609 266.2 
L 248.495227 266.2 
L 248.495227 241.759809 
L 247.157609 241.759809 
z
" clip-path="url(#p22dbbe38c4)" style="fill: #1f77b4"/>
   </g>
   <g id="patch_100">
    <path d="M 248.829632 266.2 
L 250.167249 266.2 
L 250.167249 241.759809 
L 248.829632 241.759809 
z
" clip-path="url(#p22dbbe38c4)" style="fill: #1f77b4"/>
   </g>
   <g id="patch_101">
    <path d="M 250.501654 266.2 
L 251.839272 266.2 
L 251.839272 241.759809 
L 250.501654 241.759809 
z
" clip-path="url(#p22dbbe38c4)" style="fill: #1f77b4"/>
   </g>
   <g id="patch_102">
    <path d="M 252.173676 266.2 
L 253.511294 266.2 
L 253.511294 241.759809 
L 252.173676 241.759809 
z
" clip-path="url(#p22dbbe38c4)" style="fill: #1f77b4"/>
   </g>
   <g id="patch_103">
    <path d="M 253.845699 266.2 
L 255.183317 266.2 
L 255.183317 241.759809 
L 253.845699 241.759809 
z
" clip-path="url(#p22dbbe38c4)" style="fill: #1f77b4"/>
   </g>
   <g id="patch_104">
    <path d="M 255.517721 266.2 
L 256.855339 266.2 
L 256.855339 241.759809 
L 255.517721 241.759809 
z
" clip-path="url(#p22dbbe38c4)" style="fill: #1f77b4"/>
   </g>
   <g id="patch_105">
    <path d="M 257.189744 266.2 
L 258.527362 266.2 
L 258.527362 241.759809 
L 257.189744 241.759809 
z
" clip-path="url(#p22dbbe38c4)" style="fill: #1f77b4"/>
   </g>
   <g id="patch_106">
    <path d="M 258.861766 266.2 
L 260.199384 266.2 
L 260.199384 241.759809 
L 258.861766 241.759809 
z
" clip-path="url(#p22dbbe38c4)" style="fill: #1f77b4"/>
   </g>
   <g id="patch_107">
    <path d="M 260.533789 266.2 
L 261.871407 266.2 
L 261.871407 241.759809 
L 260.533789 241.759809 
z
" clip-path="url(#p22dbbe38c4)" style="fill: #1f77b4"/>
   </g>
   <g id="patch_108">
    <path d="M 262.205811 266.2 
L 263.543429 266.2 
L 263.543429 241.759809 
L 262.205811 241.759809 
z
" clip-path="url(#p22dbbe38c4)" style="fill: #1f77b4"/>
   </g>
   <g id="patch_109">
    <path d="M 263.877834 266.2 
L 265.215452 266.2 
L 265.215452 241.759809 
L 263.877834 241.759809 
z
" clip-path="url(#p22dbbe38c4)" style="fill: #1f77b4"/>
   </g>
   <g id="patch_110">
    <path d="M 265.549856 266.2 
L 266.887474 266.2 
L 266.887474 241.759809 
L 265.549856 241.759809 
z
" clip-path="url(#p22dbbe38c4)" style="fill: #1f77b4"/>
   </g>
   <g id="patch_111">
    <path d="M 267.221879 266.2 
L 268.559497 266.2 
L 268.559497 241.759809 
L 267.221879 241.759809 
z
" clip-path="url(#p22dbbe38c4)" style="fill: #1f77b4"/>
   </g>
   <g id="patch_112">
    <path d="M 268.893901 266.2 
L 270.231519 266.2 
L 270.231519 241.759809 
L 268.893901 241.759809 
z
" clip-path="url(#p22dbbe38c4)" style="fill: #1f77b4"/>
   </g>
   <g id="patch_113">
    <path d="M 270.565924 266.2 
L 271.903542 266.2 
L 271.903542 241.759809 
L 270.565924 241.759809 
z
" clip-path="url(#p22dbbe38c4)" style="fill: #1f77b4"/>
   </g>
   <g id="patch_114">
    <path d="M 272.237946 266.2 
L 273.575564 266.2 
L 273.575564 241.759809 
L 272.237946 241.759809 
z
" clip-path="url(#p22dbbe38c4)" style="fill: #1f77b4"/>
   </g>
   <g id="patch_115">
    <path d="M 273.909969 266.2 
L 275.247586 266.2 
L 275.247586 241.759809 
L 273.909969 241.759809 
z
" clip-path="url(#p22dbbe38c4)" style="fill: #1f77b4"/>
   </g>
   <g id="patch_116">
    <path d="M 275.581991 266.2 
L 276.919609 266.2 
L 276.919609 241.759809 
L 275.581991 241.759809 
z
" clip-path="url(#p22dbbe38c4)" style="fill: #1f77b4"/>
   </g>
   <g id="patch_117">
    <path d="M 277.254013 266.2 
L 278.591631 266.2 
L 278.591631 241.759809 
L 277.254013 241.759809 
z
" clip-path="url(#p22dbbe38c4)" style="fill: #1f77b4"/>
   </g>
   <g id="patch_118">
    <path d="M 278.926036 266.2 
L 280.263654 266.2 
L 280.263654 241.759809 
L 278.926036 241.759809 
z
" clip-path="url(#p22dbbe38c4)" style="fill: #1f77b4"/>
   </g>
   <g id="patch_119">
    <path d="M 280.598058 266.2 
L 281.935676 266.2 
L 281.935676 241.759809 
L 280.598058 241.759809 
z
" clip-path="url(#p22dbbe38c4)" style="fill: #1f77b4"/>
   </g>
   <g id="patch_120">
    <path d="M 282.270081 266.2 
L 283.607699 266.2 
L 283.607699 241.759809 
L 282.270081 241.759809 
z
" clip-path="url(#p22dbbe38c4)" style="fill: #1f77b4"/>
   </g>
   <g id="patch_121">
    <path d="M 283.942103 266.2 
L 285.279721 266.2 
L 285.279721 241.759809 
L 283.942103 241.759809 
z
" clip-path="url(#p22dbbe38c4)" style="fill: #1f77b4"/>
   </g>
   <g id="patch_122">
    <path d="M 285.614126 266.2 
L 286.951744 266.2 
L 286.951744 241.759809 
L 285.614126 241.759809 
z
" clip-path="url(#p22dbbe38c4)" style="fill: #1f77b4"/>
   </g>
   <g id="patch_123">
    <path d="M 287.286148 266.2 
L 288.623766 266.2 
L 288.623766 253.979904 
L 287.286148 253.979904 
z
" clip-path="url(#p22dbbe38c4)" style="fill: #1f77b4"/>
   </g>
   <g id="patch_124">
    <path d="M 288.958171 266.2 
L 290.295789 266.2 
L 290.295789 253.979904 
L 288.958171 253.979904 
z
" clip-path="url(#p22dbbe38c4)" style="fill: #1f77b4"/>
   </g>
   <g id="patch_125">
    <path d="M 290.630193 266.2 
L 291.967811 266.2 
L 291.967811 253.979904 
L 290.630193 253.979904 
z
" clip-path="url(#p22dbbe38c4)" style="fill: #1f77b4"/>
   </g>
   <g id="patch_126">
    <path d="M 292.302216 266.2 
L 293.639834 266.2 
L 293.639834 253.979904 
L 292.302216 253.979904 
z
" clip-path="url(#p22dbbe38c4)" style="fill: #1f77b4"/>
   </g>
   <g id="patch_127">
    <path d="M 293.974238 266.2 
L 295.311856 266.2 
L 295.311856 253.979904 
L 293.974238 253.979904 
z
" clip-path="url(#p22dbbe38c4)" style="fill: #1f77b4"/>
   </g>
   <g id="patch_128">
    <path d="M 295.646261 266.2 
L 296.983879 266.2 
L 296.983879 253.979904 
L 295.646261 253.979904 
z
" clip-path="url(#p22dbbe38c4)" style="fill: #1f77b4"/>
   </g>
   <g id="patch_129">
    <path d="M 297.318283 266.2 
L 298.655901 266.2 
L 298.655901 253.979904 
L 297.318283 253.979904 
z
" clip-path="url(#p22dbbe38c4)" style="fill: #1f77b4"/>
   </g>
   <g id="patch_130">
    <path d="M 298.990306 266.2 
L 300.327923 266.2 
L 300.327923 253.979904 
L 298.990306 253.979904 
z
" clip-path="url(#p22dbbe38c4)" style="fill: #1f77b4"/>
   </g>
   <g id="patch_131">
    <path d="M 300.662328 266.2 
L 301.999946 266.2 
L 301.999946 253.979904 
L 300.662328 253.979904 
z
" clip-path="url(#p22dbbe38c4)" style="fill: #1f77b4"/>
   </g>
   <g id="patch_132">
    <path d="M 302.33435 266.2 
L 303.671968 266.2 
L 303.671968 253.979904 
L 302.33435 253.979904 
z
" clip-path="url(#p22dbbe38c4)" style="fill: #1f77b4"/>
   </g>
   <g id="patch_133">
    <path d="M 304.006373 266.2 
L 305.343991 266.2 
L 305.343991 253.979904 
L 304.006373 253.979904 
z
" clip-path="url(#p22dbbe38c4)" style="fill: #1f77b4"/>
   </g>
   <g id="patch_134">
    <path d="M 305.678395 266.2 
L 307.016013 266.2 
L 307.016013 253.979904 
L 305.678395 253.979904 
z
" clip-path="url(#p22dbbe38c4)" style="fill: #1f77b4"/>
   </g>
   <g id="patch_135">
    <path d="M 307.350418 266.2 
L 308.688036 266.2 
L 308.688036 253.979904 
L 307.350418 253.979904 
z
" clip-path="url(#p22dbbe38c4)" style="fill: #1f77b4"/>
   </g>
   <g id="patch_136">
    <path d="M 309.02244 266.2 
L 310.360058 266.2 
L 310.360058 253.979904 
L 309.02244 253.979904 
z
" clip-path="url(#p22dbbe38c4)" style="fill: #1f77b4"/>
   </g>
   <g id="patch_137">
    <path d="M 310.694463 266.2 
L 312.032081 266.2 
L 312.032081 253.979904 
L 310.694463 253.979904 
z
" clip-path="url(#p22dbbe38c4)" style="fill: #1f77b4"/>
   </g>
   <g id="patch_138">
    <path d="M 312.366485 266.2 
L 313.704103 266.2 
L 313.704103 253.979904 
L 312.366485 253.979904 
z
" clip-path="url(#p22dbbe38c4)" style="fill: #1f77b4"/>
   </g>
   <g id="patch_139">
    <path d="M 314.038508 266.2 
L 315.376126 266.2 
L 315.376126 253.979904 
L 314.038508 253.979904 
z
" clip-path="url(#p22dbbe38c4)" style="fill: #1f77b4"/>
   </g>
   <g id="patch_140">
    <path d="M 315.71053 266.2 
L 317.048148 266.2 
L 317.048148 253.979904 
L 315.71053 253.979904 
z
" clip-path="url(#p22dbbe38c4)" style="fill: #1f77b4"/>
   </g>
   <g id="patch_141">
    <path d="M 317.382553 266.2 
L 318.720171 266.2 
L 318.720171 253.979904 
L 317.382553 253.979904 
z
" clip-path="url(#p22dbbe38c4)" style="fill: #1f77b4"/>
   </g>
   <g id="patch_142">
    <path d="M 319.054575 266.2 
L 320.392193 266.2 
L 320.392193 253.979904 
L 319.054575 253.979904 
z
" clip-path="url(#p22dbbe38c4)" style="fill: #1f77b4"/>
   </g>
   <g id="patch_143">
    <path d="M 320.726598 266.2 
L 322.064216 266.2 
L 322.064216 253.979904 
L 320.726598 253.979904 
z
" clip-path="url(#p22dbbe38c4)" style="fill: #1f77b4"/>
   </g>
   <g id="patch_144">
    <path d="M 322.39862 266.2 
L 323.736238 266.2 
L 323.736238 253.979904 
L 322.39862 253.979904 
z
" clip-path="url(#p22dbbe38c4)" style="fill: #1f77b4"/>
   </g>
   <g id="patch_145">
    <path d="M 324.070643 266.2 
L 325.40826 266.2 
L 325.40826 253.979904 
L 324.070643 253.979904 
z
" clip-path="url(#p22dbbe38c4)" style="fill: #1f77b4"/>
   </g>
   <g id="patch_146">
    <path d="M 325.742665 266.2 
L 327.080283 266.2 
L 327.080283 253.979904 
L 325.742665 253.979904 
z
" clip-path="url(#p22dbbe38c4)" style="fill: #1f77b4"/>
   </g>
   <g id="patch_147">
    <path d="M 327.414687 266.2 
L 328.752305 266.2 
L 328.752305 253.979904 
L 327.414687 253.979904 
z
" clip-path="url(#p22dbbe38c4)" style="fill: #1f77b4"/>
   </g>
   <g id="patch_148">
    <path d="M 329.08671 266.2 
L 330.424328 266.2 
L 330.424328 253.979904 
L 329.08671 253.979904 
z
" clip-path="url(#p22dbbe38c4)" style="fill: #1f77b4"/>
   </g>
   <g id="patch_149">
    <path d="M 330.758732 266.2 
L 332.09635 266.2 
L 332.09635 253.979904 
L 330.758732 253.979904 
z
" clip-path="url(#p22dbbe38c4)" style="fill: #1f77b4"/>
   </g>
   <g id="patch_150">
    <path d="M 332.430755 266.2 
L 333.768373 266.2 
L 333.768373 253.979904 
L 332.430755 253.979904 
z
" clip-path="url(#p22dbbe38c4)" style="fill: #1f77b4"/>
   </g>
   <g id="patch_151">
    <path d="M 334.102777 266.2 
L 335.440395 266.2 
L 335.440395 253.979904 
L 334.102777 253.979904 
z
" clip-path="url(#p22dbbe38c4)" style="fill: #1f77b4"/>
   </g>
   <g id="patch_152">
    <path d="M 335.7748 266.2 
L 337.112418 266.2 
L 337.112418 253.979904 
L 335.7748 253.979904 
z
" clip-path="url(#p22dbbe38c4)" style="fill: #1f77b4"/>
   </g>
   <g id="patch_153">
    <path d="M 337.446822 266.2 
L 338.78444 266.2 
L 338.78444 253.979904 
L 337.446822 253.979904 
z
" clip-path="url(#p22dbbe38c4)" style="fill: #1f77b4"/>
   </g>
   <g id="patch_154">
    <path d="M 339.118845 266.2 
L 340.456463 266.2 
L 340.456463 253.979904 
L 339.118845 253.979904 
z
" clip-path="url(#p22dbbe38c4)" style="fill: #1f77b4"/>
   </g>
   <g id="patch_155">
    <path d="M 340.790867 266.2 
L 342.128485 266.2 
L 342.128485 253.979904 
L 340.790867 253.979904 
z
" clip-path="url(#p22dbbe38c4)" style="fill: #1f77b4"/>
   </g>
   <g id="patch_156">
    <path d="M 342.46289 266.2 
L 343.800508 266.2 
L 343.800508 253.979904 
L 342.46289 253.979904 
z
" clip-path="url(#p22dbbe38c4)" style="fill: #1f77b4"/>
   </g>
   <g id="patch_157">
    <path d="M 344.134912 266.2 
L 345.47253 266.2 
L 345.47253 253.979904 
L 344.134912 253.979904 
z
" clip-path="url(#p22dbbe38c4)" style="fill: #1f77b4"/>
   </g>
   <g id="patch_158">
    <path d="M 345.806935 266.2 
L 347.144553 266.2 
L 347.144553 253.979904 
L 345.806935 253.979904 
z
" clip-path="url(#p22dbbe38c4)" style="fill: #1f77b4"/>
   </g>
   <g id="patch_159">
    <path d="M 347.478957 266.2 
L 348.816575 266.2 
L 348.816575 253.979904 
L 347.478957 253.979904 
z
" clip-path="url(#p22dbbe38c4)" style="fill: #1f77b4"/>
   </g>
   <g id="patch_160">
    <path d="M 349.15098 266.2 
L 350.488597 266.2 
L 350.488597 253.979904 
L 349.15098 253.979904 
z
" clip-path="url(#p22dbbe38c4)" style="fill: #1f77b4"/>
   </g>
   <g id="patch_161">
    <path d="M 350.823002 266.2 
L 352.16062 266.2 
L 352.16062 253.979904 
L 350.823002 253.979904 
z
" clip-path="url(#p22dbbe38c4)" style="fill: #1f77b4"/>
   </g>
   <g id="patch_162">
    <path d="M 352.495024 266.2 
L 353.832642 266.2 
L 353.832642 253.979904 
L 352.495024 253.979904 
z
" clip-path="url(#p22dbbe38c4)" style="fill: #1f77b4"/>
   </g>
   <g id="patch_163">
    <path d="M 354.167047 266.2 
L 355.504665 266.2 
L 355.504665 253.979904 
L 354.167047 253.979904 
z
" clip-path="url(#p22dbbe38c4)" style="fill: #1f77b4"/>
   </g>
   <g id="patch_164">
    <path d="M 355.839069 266.2 
L 357.176687 266.2 
L 357.176687 253.979904 
L 355.839069 253.979904 
z
" clip-path="url(#p22dbbe38c4)" style="fill: #1f77b4"/>
   </g>
   <g id="patch_165">
    <path d="M 357.511092 266.2 
L 358.84871 266.2 
L 358.84871 253.979904 
L 357.511092 253.979904 
z
" clip-path="url(#p22dbbe38c4)" style="fill: #1f77b4"/>
   </g>
   <g id="patch_166">
    <path d="M 359.183114 266.2 
L 360.520732 266.2 
L 360.520732 253.979904 
L 359.183114 253.979904 
z
" clip-path="url(#p22dbbe38c4)" style="fill: #1f77b4"/>
   </g>
   <g id="patch_167">
    <path d="M 360.855137 266.2 
L 362.192755 266.2 
L 362.192755 253.979904 
L 360.855137 253.979904 
z
" clip-path="url(#p22dbbe38c4)" style="fill: #1f77b4"/>
   </g>
   <g id="patch_168">
    <path d="M 362.527159 266.2 
L 363.864777 266.2 
L 363.864777 253.979904 
L 362.527159 253.979904 
z
" clip-path="url(#p22dbbe38c4)" style="fill: #1f77b4"/>
   </g>
   <g id="patch_169">
    <path d="M 364.199182 266.2 
L 365.5368 266.2 
L 365.5368 253.979904 
L 364.199182 253.979904 
z
" clip-path="url(#p22dbbe38c4)" style="fill: #1f77b4"/>
   </g>
   <g id="patch_170">
    <path d="M 365.871204 266.2 
L 367.208822 266.2 
L 367.208822 253.979904 
L 365.871204 253.979904 
z
" clip-path="url(#p22dbbe38c4)" style="fill: #1f77b4"/>
   </g>
   <g id="patch_171">
    <path d="M 367.543227 266.2 
L 368.880845 266.2 
L 368.880845 253.979904 
L 367.543227 253.979904 
z
" clip-path="url(#p22dbbe38c4)" style="fill: #1f77b4"/>
   </g>
   <g id="patch_172">
    <path d="M 369.215249 266.2 
L 370.552867 266.2 
L 370.552867 253.979904 
L 369.215249 253.979904 
z
" clip-path="url(#p22dbbe38c4)" style="fill: #1f77b4"/>
   </g>
   <g id="patch_173">
    <path d="M 370.887272 266.2 
L 372.22489 266.2 
L 372.22489 253.979904 
L 370.887272 253.979904 
z
" clip-path="url(#p22dbbe38c4)" style="fill: #1f77b4"/>
   </g>
   <g id="patch_174">
    <path d="M 372.559294 266.2 
L 373.896912 266.2 
L 373.896912 253.979904 
L 372.559294 253.979904 
z
" clip-path="url(#p22dbbe38c4)" style="fill: #1f77b4"/>
   </g>
   <g id="patch_175">
    <path d="M 374.231317 266.2 
L 375.568934 266.2 
L 375.568934 253.979904 
L 374.231317 253.979904 
z
" clip-path="url(#p22dbbe38c4)" style="fill: #1f77b4"/>
   </g>
   <g id="patch_176">
    <path d="M 375.903339 266.2 
L 377.240957 266.2 
L 377.240957 253.979904 
L 375.903339 253.979904 
z
" clip-path="url(#p22dbbe38c4)" style="fill: #1f77b4"/>
   </g>
   <g id="patch_177">
    <path d="M 377.575361 266.2 
L 378.912979 266.2 
L 378.912979 253.979904 
L 377.575361 253.979904 
z
" clip-path="url(#p22dbbe38c4)" style="fill: #1f77b4"/>
   </g>
   <g id="patch_178">
    <path d="M 379.247384 266.2 
L 380.585002 266.2 
L 380.585002 253.979904 
L 379.247384 253.979904 
z
" clip-path="url(#p22dbbe38c4)" style="fill: #1f77b4"/>
   </g>
   <g id="patch_179">
    <path d="M 380.919406 266.2 
L 382.257024 266.2 
L 382.257024 253.979904 
L 380.919406 253.979904 
z
" clip-path="url(#p22dbbe38c4)" style="fill: #1f77b4"/>
   </g>
   <g id="patch_180">
    <path d="M 382.591429 266.2 
L 383.929047 266.2 
L 383.929047 253.979904 
L 382.591429 253.979904 
z
" clip-path="url(#p22dbbe38c4)" style="fill: #1f77b4"/>
   </g>
   <g id="patch_181">
    <path d="M 384.263451 266.2 
L 385.601069 266.2 
L 385.601069 253.979904 
L 384.263451 253.979904 
z
" clip-path="url(#p22dbbe38c4)" style="fill: #1f77b4"/>
   </g>
   <g id="patch_182">
    <path d="M 385.935474 266.2 
L 387.273092 266.2 
L 387.273092 253.979904 
L 385.935474 253.979904 
z
" clip-path="url(#p22dbbe38c4)" style="fill: #1f77b4"/>
   </g>
   <g id="patch_183">
    <path d="M 387.607496 266.2 
L 388.945114 266.2 
L 388.945114 253.979904 
L 387.607496 253.979904 
z
" clip-path="url(#p22dbbe38c4)" style="fill: #1f77b4"/>
   </g>
   <g id="patch_184">
    <path d="M 389.279519 266.2 
L 390.617137 266.2 
L 390.617137 253.979904 
L 389.279519 253.979904 
z
" clip-path="url(#p22dbbe38c4)" style="fill: #1f77b4"/>
   </g>
   <g id="patch_185">
    <path d="M 390.951541 266.2 
L 392.289159 266.2 
L 392.289159 253.979904 
L 390.951541 253.979904 
z
" clip-path="url(#p22dbbe38c4)" style="fill: #1f77b4"/>
   </g>
   <g id="patch_186">
    <path d="M 392.623564 266.2 
L 393.961182 266.2 
L 393.961182 253.979904 
L 392.623564 253.979904 
z
" clip-path="url(#p22dbbe38c4)" style="fill: #1f77b4"/>
   </g>
   <g id="patch_187">
    <path d="M 394.295586 266.2 
L 395.633204 266.2 
L 395.633204 253.979904 
L 394.295586 253.979904 
z
" clip-path="url(#p22dbbe38c4)" style="fill: #1f77b4"/>
   </g>
   <g id="patch_188">
    <path d="M 395.967609 266.2 
L 397.305227 266.2 
L 397.305227 253.979904 
L 395.967609 253.979904 
z
" clip-path="url(#p22dbbe38c4)" style="fill: #1f77b4"/>
   </g>
   <g id="patch_189">
    <path d="M 397.639631 266.2 
L 398.977249 266.2 
L 398.977249 253.979904 
L 397.639631 253.979904 
z
" clip-path="url(#p22dbbe38c4)" style="fill: #1f77b4"/>
   </g>
   <g id="patch_190">
    <path d="M 399.311654 266.2 
L 400.649271 266.2 
L 400.649271 253.979904 
L 399.311654 253.979904 
z
" clip-path="url(#p22dbbe38c4)" style="fill: #1f77b4"/>
   </g>
   <g id="patch_191">
    <path d="M 400.983676 266.2 
L 402.321294 266.2 
L 402.321294 253.979904 
L 400.983676 253.979904 
z
" clip-path="url(#p22dbbe38c4)" style="fill: #1f77b4"/>
   </g>
   <g id="patch_192">
    <path d="M 402.655698 266.2 
L 403.993316 266.2 
L 403.993316 253.979904 
L 402.655698 253.979904 
z
" clip-path="url(#p22dbbe38c4)" style="fill: #1f77b4"/>
   </g>
   <g id="patch_193">
    <path d="M 404.327721 266.2 
L 405.665339 266.2 
L 405.665339 253.979904 
L 404.327721 253.979904 
z
" clip-path="url(#p22dbbe38c4)" style="fill: #1f77b4"/>
   </g>
   <g id="patch_194">
    <path d="M 405.999743 266.2 
L 407.337361 266.2 
L 407.337361 253.979904 
L 405.999743 253.979904 
z
" clip-path="url(#p22dbbe38c4)" style="fill: #1f77b4"/>
   </g>
   <g id="patch_195">
    <path d="M 407.671766 266.2 
L 409.009384 266.2 
L 409.009384 253.979904 
L 407.671766 253.979904 
z
" clip-path="url(#p22dbbe38c4)" style="fill: #1f77b4"/>
   </g>
   <g id="patch_196">
    <path d="M 409.343788 266.2 
L 410.681406 266.2 
L 410.681406 253.979904 
L 409.343788 253.979904 
z
" clip-path="url(#p22dbbe38c4)" style="fill: #1f77b4"/>
   </g>
   <g id="patch_197">
    <path d="M 411.015811 266.2 
L 412.353429 266.2 
L 412.353429 253.979904 
L 411.015811 253.979904 
z
" clip-path="url(#p22dbbe38c4)" style="fill: #1f77b4"/>
   </g>
   <g id="patch_198">
    <path d="M 412.687833 266.2 
L 414.025451 266.2 
L 414.025451 253.979904 
L 412.687833 253.979904 
z
" clip-path="url(#p22dbbe38c4)" style="fill: #1f77b4"/>
   </g>
   <g id="patch_199">
    <path d="M 414.359856 266.2 
L 415.697474 266.2 
L 415.697474 253.979904 
L 414.359856 253.979904 
z
" clip-path="url(#p22dbbe38c4)" style="fill: #1f77b4"/>
   </g>
   <g id="patch_200">
    <path d="M 416.031878 266.2 
L 417.369496 266.2 
L 417.369496 253.979904 
L 416.031878 253.979904 
z
" clip-path="url(#p22dbbe38c4)" style="fill: #1f77b4"/>
   </g>
   <g id="patch_201">
    <path d="M 417.703901 266.2 
L 419.041519 266.2 
L 419.041519 253.979904 
L 417.703901 253.979904 
z
" clip-path="url(#p22dbbe38c4)" style="fill: #1f77b4"/>
   </g>
   <g id="patch_202">
    <path d="M 419.375923 266.2 
L 420.713541 266.2 
L 420.713541 253.979904 
L 419.375923 253.979904 
z
" clip-path="url(#p22dbbe38c4)" style="fill: #1f77b4"/>
   </g>
   <g id="patch_203">
    <path d="M 421.047946 266.2 
L 422.385564 266.2 
L 422.385564 253.979904 
L 421.047946 253.979904 
z
" clip-path="url(#p22dbbe38c4)" style="fill: #1f77b4"/>
   </g>
   <g id="patch_204">
    <path d="M 422.719968 266.2 
L 424.057586 266.2 
L 424.057586 253.979904 
L 422.719968 253.979904 
z
" clip-path="url(#p22dbbe38c4)" style="fill: #1f77b4"/>
   </g>
   <g id="patch_205">
    <path d="M 424.391991 266.2 
L 425.729608 266.2 
L 425.729608 253.979904 
L 424.391991 253.979904 
z
" clip-path="url(#p22dbbe38c4)" style="fill: #1f77b4"/>
   </g>
   <g id="patch_206">
    <path d="M 426.064013 266.2 
L 427.401631 266.2 
L 427.401631 253.979904 
L 426.064013 253.979904 
z
" clip-path="url(#p22dbbe38c4)" style="fill: #1f77b4"/>
   </g>
   <g id="patch_207">
    <path d="M 427.736035 266.2 
L 429.073653 266.2 
L 429.073653 253.979904 
L 427.736035 253.979904 
z
" clip-path="url(#p22dbbe38c4)" style="fill: #1f77b4"/>
   </g>
   <g id="patch_208">
    <path d="M 429.408058 266.2 
L 430.745676 266.2 
L 430.745676 253.979904 
L 429.408058 253.979904 
z
" clip-path="url(#p22dbbe38c4)" style="fill: #1f77b4"/>
   </g>
   <g id="patch_209">
    <path d="M 431.08008 266.2 
L 432.417698 266.2 
L 432.417698 253.979904 
L 431.08008 253.979904 
z
" clip-path="url(#p22dbbe38c4)" style="fill: #1f77b4"/>
   </g>
   <g id="patch_210">
    <path d="M 432.752103 266.2 
L 434.089721 266.2 
L 434.089721 253.979904 
L 432.752103 253.979904 
z
" clip-path="url(#p22dbbe38c4)" style="fill: #1f77b4"/>
   </g>
   <g id="matplotlib.axis_1">
    <g id="xtick_1">
     <g id="line2d_1">
      <defs>
       <path id="m6125af18ec" d="M 0 0 
L 0 3.5 
" style="stroke: #000000; stroke-width: 0.8"/>
      </defs>
      <g>
       <use xlink:href="#m6125af18ec" x="87.312261" y="266.2" style="stroke: #000000; stroke-width: 0.8"/>
      </g>
     </g>
     <g id="text_1">
      <!-- 1 -->
      <g transform="translate(77.768511 295.995312)scale(0.3 -0.3)">
       <defs>
        <path id="DejaVuSans-31" d="M 794 531 
L 1825 531 
L 1825 4091 
L 703 3866 
L 703 4441 
L 1819 4666 
L 2450 4666 
L 2450 531 
L 3481 531 
L 3481 0 
L 794 0 
L 794 531 
z
" transform="scale(0.015625)"/>
       </defs>
       <use xlink:href="#DejaVuSans-31"/>
      </g>
     </g>
    </g>
    <g id="xtick_2">
     <g id="line2d_2">
      <g>
       <use xlink:href="#m6125af18ec" x="170.913385" y="266.2" style="stroke: #000000; stroke-width: 0.8"/>
      </g>
     </g>
     <g id="text_2">
      <!-- 51 -->
      <g transform="translate(151.825885 295.995312)scale(0.3 -0.3)">
       <defs>
        <path id="DejaVuSans-35" d="M 691 4666 
L 3169 4666 
L 3169 4134 
L 1269 4134 
L 1269 2991 
Q 1406 3038 1543 3061 
Q 1681 3084 1819 3084 
Q 2600 3084 3056 2656 
Q 3513 2228 3513 1497 
Q 3513 744 3044 326 
Q 2575 -91 1722 -91 
Q 1428 -91 1123 -41 
Q 819 9 494 109 
L 494 744 
Q 775 591 1075 516 
Q 1375 441 1709 441 
Q 2250 441 2565 725 
Q 2881 1009 2881 1497 
Q 2881 1984 2565 2268 
Q 2250 2553 1709 2553 
Q 1456 2553 1204 2497 
Q 953 2441 691 2322 
L 691 4666 
z
" transform="scale(0.015625)"/>
       </defs>
       <use xlink:href="#DejaVuSans-35"/>
       <use xlink:href="#DejaVuSans-31" x="63.623047"/>
      </g>
     </g>
    </g>
    <g id="xtick_3">
     <g id="line2d_3">
      <g>
       <use xlink:href="#m6125af18ec" x="254.514508" y="266.2" style="stroke: #000000; stroke-width: 0.8"/>
      </g>
     </g>
     <g id="text_3">
      <!-- 101 -->
      <g transform="translate(225.883258 295.995312)scale(0.3 -0.3)">
       <defs>
        <path id="DejaVuSans-30" d="M 2034 4250 
Q 1547 4250 1301 3770 
Q 1056 3291 1056 2328 
Q 1056 1369 1301 889 
Q 1547 409 2034 409 
Q 2525 409 2770 889 
Q 3016 1369 3016 2328 
Q 3016 3291 2770 3770 
Q 2525 4250 2034 4250 
z
M 2034 4750 
Q 2819 4750 3233 4129 
Q 3647 3509 3647 2328 
Q 3647 1150 3233 529 
Q 2819 -91 2034 -91 
Q 1250 -91 836 529 
Q 422 1150 422 2328 
Q 422 3509 836 4129 
Q 1250 4750 2034 4750 
z
" transform="scale(0.015625)"/>
       </defs>
       <use xlink:href="#DejaVuSans-31"/>
       <use xlink:href="#DejaVuSans-30" x="63.623047"/>
       <use xlink:href="#DejaVuSans-31" x="127.246094"/>
      </g>
     </g>
    </g>
    <g id="xtick_4">
     <g id="line2d_4">
      <g>
       <use xlink:href="#m6125af18ec" x="338.115631" y="266.2" style="stroke: #000000; stroke-width: 0.8"/>
      </g>
     </g>
     <g id="text_4">
      <!-- 151 -->
      <g transform="translate(309.484381 295.995312)scale(0.3 -0.3)">
       <use xlink:href="#DejaVuSans-31"/>
       <use xlink:href="#DejaVuSans-35" x="63.623047"/>
       <use xlink:href="#DejaVuSans-31" x="127.246094"/>
      </g>
     </g>
    </g>
    <g id="xtick_5">
     <g id="line2d_5">
      <g>
       <use xlink:href="#m6125af18ec" x="421.716755" y="266.2" style="stroke: #000000; stroke-width: 0.8"/>
      </g>
     </g>
     <g id="text_5">
      <!-- 201 -->
      <g transform="translate(393.085505 295.995312)scale(0.3 -0.3)">
       <defs>
        <path id="DejaVuSans-32" d="M 1228 531 
L 3431 531 
L 3431 0 
L 469 0 
L 469 531 
Q 828 903 1448 1529 
Q 2069 2156 2228 2338 
Q 2531 2678 2651 2914 
Q 2772 3150 2772 3378 
Q 2772 3750 2511 3984 
Q 2250 4219 1831 4219 
Q 1534 4219 1204 4116 
Q 875 4013 500 3803 
L 500 4441 
Q 881 4594 1212 4672 
Q 1544 4750 1819 4750 
Q 2544 4750 2975 4387 
Q 3406 4025 3406 3419 
Q 3406 3131 3298 2873 
Q 3191 2616 2906 2266 
Q 2828 2175 2409 1742 
Q 1991 1309 1228 531 
z
" transform="scale(0.015625)"/>
       </defs>
       <use xlink:href="#DejaVuSans-32"/>
       <use xlink:href="#DejaVuSans-30" x="63.623047"/>
       <use xlink:href="#DejaVuSans-31" x="127.246094"/>
      </g>
     </g>
    </g>
    <g id="text_6">
     <!-- $c$ -->
     <g transform="translate(252.116587 329.029687)scale(0.3 -0.3)">
      <defs>
       <path id="DejaVuSans-Oblique-63" d="M 3431 3366 
L 3316 2797 
Q 3109 2947 2876 3022 
Q 2644 3097 2394 3097 
Q 2119 3097 1870 3000 
Q 1622 2903 1453 2725 
Q 1184 2453 1037 2087 
Q 891 1722 891 1331 
Q 891 859 1127 628 
Q 1363 397 1844 397 
Q 2081 397 2348 469 
Q 2616 541 2906 684 
L 2797 116 
Q 2547 13 2283 -39 
Q 2019 -91 1741 -91 
Q 1044 -91 669 257 
Q 294 606 294 1253 
Q 294 1797 489 2255 
Q 684 2713 1069 3078 
Q 1331 3328 1684 3456 
Q 2038 3584 2456 3584 
Q 2700 3584 2940 3529 
Q 3181 3475 3431 3366 
z
" transform="scale(0.015625)"/>
      </defs>
      <use xlink:href="#DejaVuSans-Oblique-63"/>
     </g>
    </g>
   </g>
   <g id="matplotlib.axis_2">
    <g id="ytick_1">
     <g id="line2d_6">
      <defs>
       <path id="m491b120e08" d="M 0 0 
L -3.5 0 
" style="stroke: #000000; stroke-width: 0.8"/>
      </defs>
      <g>
       <use xlink:href="#m491b120e08" x="86.47625" y="266.2" style="stroke: #000000; stroke-width: 0.8"/>
      </g>
     </g>
     <g id="text_7">
      <!-- 0 -->
      <g transform="translate(60.38875 277.597656)scale(0.3 -0.3)">
       <use xlink:href="#DejaVuSans-30"/>
      </g>
     </g>
    </g>
    <g id="ytick_2">
     <g id="line2d_7">
      <g>
       <use xlink:href="#m491b120e08" x="86.47625" y="156.219139" style="stroke: #000000; stroke-width: 0.8"/>
      </g>
     </g>
     <g id="text_8">
      <!-- 9 -->
      <g transform="translate(60.38875 167.616795)scale(0.3 -0.3)">
       <defs>
        <path id="DejaVuSans-39" d="M 703 97 
L 703 672 
Q 941 559 1184 500 
Q 1428 441 1663 441 
Q 2288 441 2617 861 
Q 2947 1281 2994 2138 
Q 2813 1869 2534 1725 
Q 2256 1581 1919 1581 
Q 1219 1581 811 2004 
Q 403 2428 403 3163 
Q 403 3881 828 4315 
Q 1253 4750 1959 4750 
Q 2769 4750 3195 4129 
Q 3622 3509 3622 2328 
Q 3622 1225 3098 567 
Q 2575 -91 1691 -91 
Q 1453 -91 1209 -44 
Q 966 3 703 97 
z
M 1959 2075 
Q 2384 2075 2632 2365 
Q 2881 2656 2881 3163 
Q 2881 3666 2632 3958 
Q 2384 4250 1959 4250 
Q 1534 4250 1286 3958 
Q 1038 3666 1038 3163 
Q 1038 2656 1286 2365 
Q 1534 2075 1959 2075 
z
" transform="scale(0.015625)"/>
       </defs>
       <use xlink:href="#DejaVuSans-39"/>
      </g>
     </g>
    </g>
    <g id="ytick_3">
     <g id="line2d_8">
      <g>
       <use xlink:href="#m491b120e08" x="86.47625" y="34.018182" style="stroke: #000000; stroke-width: 0.8"/>
      </g>
     </g>
     <g id="text_9">
      <!-- 19 -->
      <g transform="translate(41.30125 45.415838)scale(0.3 -0.3)">
       <use xlink:href="#DejaVuSans-31"/>
       <use xlink:href="#DejaVuSans-39" x="63.623047"/>
      </g>
     </g>
    </g>
    <g id="text_10">
     <!-- $M$ -->
     <g transform="translate(11.20125 132.260938)scale(0.3 -0.3)">
      <defs>
       <path id="DejaVuSans-Oblique-4d" d="M 1081 4666 
L 2028 4666 
L 2572 1522 
L 4378 4666 
L 5350 4666 
L 4441 0 
L 3828 0 
L 4622 4091 
L 2791 897 
L 2175 897 
L 1581 4103 
L 788 0 
L 172 0 
L 1081 4666 
z
" transform="scale(0.015625)"/>
      </defs>
      <use xlink:href="#DejaVuSans-Oblique-4d" transform="translate(0 0.09375)"/>
     </g>
    </g>
   </g>
   <g id="patch_211">
    <path d="M 86.47625 266.2 
L 86.47625 10.8 
" style="fill: none; stroke: #000000; stroke-width: 0.8; stroke-linejoin: miter; stroke-linecap: square"/>
   </g>
   <g id="patch_212">
    <path d="M 434.256923 266.2 
L 434.256923 10.8 
" style="fill: none; stroke: #000000; stroke-width: 0.8; stroke-linejoin: miter; stroke-linecap: square"/>
   </g>
   <g id="patch_213">
    <path d="M 86.47625 266.2 
L 434.256923 266.2 
" style="fill: none; stroke: #000000; stroke-width: 0.8; stroke-linejoin: miter; stroke-linecap: square"/>
   </g>
   <g id="patch_214">
    <path d="M 86.47625 10.8 
L 434.256923 10.8 
" style="fill: none; stroke: #000000; stroke-width: 0.8; stroke-linejoin: miter; stroke-linecap: square"/>
   </g>
  </g>
 </g>
 <defs>
  <clipPath id="p22dbbe38c4">
   <rect x="86.47625" y="10.8" width="347.780673" height="255.4"/>
  </clipPath>
 </defs>
</svg>
