<?xml version="1.0" encoding="utf-8" standalone="no"?>
<!DOCTYPE svg PUBLIC "-//W3C//DTD SVG 1.1//EN"
  "http://www.w3.org/Graphics/SVG/1.1/DTD/svg11.dtd">
<svg xmlns:xlink="http://www.w3.org/1999/xlink" width="460.8pt" height="345.6pt" viewBox="0 0 460.8 345.6" xmlns="http://www.w3.org/2000/svg" version="1.1">
 <metadata>
  <rdf:RDF xmlns:dc="http://purl.org/dc/elements/1.1/" xmlns:cc="http://creativecommons.org/ns#" xmlns:rdf="http://www.w3.org/1999/02/22-rdf-syntax-ns#">
   <cc:Work>
    <dc:type rdf:resource="http://purl.org/dc/dcmitype/StillImage"/>
    <dc:date>2023-08-25T16:11:07.307806</dc:date>
    <dc:format>image/svg+xml</dc:format>
    <dc:creator>
     <cc:Agent>
      <dc:title>Matplotlib v3.5.2, https://matplotlib.org/</dc:title>
     </cc:Agent>
    </dc:creator>
   </cc:Work>
  </rdf:RDF>
 </metadata>
 <defs>
  <style type="text/css">*{stroke-linejoin: round; stroke-linecap: butt}</style>
 </defs>
 <g id="figure_1">
  <g id="patch_1">
   <path d="M 0 345.6 
L 460.8 345.6 
L 460.8 0 
L 0 0 
z
" style="fill: #ffffff"/>
  </g>
  <g id="axes_1">
   <g id="patch_2">
    <path d="M 86.47625 266.2 
L 450 266.2 
L 450 10.8 
L 86.47625 10.8 
z
" style="fill: #ffffff"/>
   </g>
   <g id="patch_3">
    <path d="M 86.576119 266.2 
L 87.375072 266.2 
L 87.375072 34.018182 
L 86.576119 34.018182 
z
" clip-path="url(#p8bc985970b)" style="fill: #1f77b4"/>
   </g>
   <g id="patch_4">
    <path d="M 87.574811 266.2 
L 88.373764 266.2 
L 88.373764 34.018182 
L 87.574811 34.018182 
z
" clip-path="url(#p8bc985970b)" style="fill: #1f77b4"/>
   </g>
   <g id="patch_5">
    <path d="M 88.573502 266.2 
L 89.372456 266.2 
L 89.372456 34.018182 
L 88.573502 34.018182 
z
" clip-path="url(#p8bc985970b)" style="fill: #1f77b4"/>
   </g>
   <g id="patch_6">
    <path d="M 89.572194 266.2 
L 90.371147 266.2 
L 90.371147 34.018182 
L 89.572194 34.018182 
z
" clip-path="url(#p8bc985970b)" style="fill: #1f77b4"/>
   </g>
   <g id="patch_7">
    <path d="M 90.570886 266.2 
L 91.369839 266.2 
L 91.369839 52.592727 
L 90.570886 52.592727 
z
" clip-path="url(#p8bc985970b)" style="fill: #1f77b4"/>
   </g>
   <g id="patch_8">
    <path d="M 91.569577 266.2 
L 92.368531 266.2 
L 92.368531 52.592727 
L 91.569577 52.592727 
z
" clip-path="url(#p8bc985970b)" style="fill: #1f77b4"/>
   </g>
   <g id="patch_9">
    <path d="M 92.568269 266.2 
L 93.367222 266.2 
L 93.367222 52.592727 
L 92.568269 52.592727 
z
" clip-path="url(#p8bc985970b)" style="fill: #1f77b4"/>
   </g>
   <g id="patch_10">
    <path d="M 93.566961 266.2 
L 94.365914 266.2 
L 94.365914 52.592727 
L 93.566961 52.592727 
z
" clip-path="url(#p8bc985970b)" style="fill: #1f77b4"/>
   </g>
   <g id="patch_11">
    <path d="M 94.565652 266.2 
L 95.364605 266.2 
L 95.364605 52.592727 
L 94.565652 52.592727 
z
" clip-path="url(#p8bc985970b)" style="fill: #1f77b4"/>
   </g>
   <g id="patch_12">
    <path d="M 95.564344 266.2 
L 96.363297 266.2 
L 96.363297 52.592727 
L 95.564344 52.592727 
z
" clip-path="url(#p8bc985970b)" style="fill: #1f77b4"/>
   </g>
   <g id="patch_13">
    <path d="M 96.563035 266.2 
L 97.361989 266.2 
L 97.361989 210.476364 
L 96.563035 210.476364 
z
" clip-path="url(#p8bc985970b)" style="fill: #1f77b4"/>
   </g>
   <g id="patch_14">
    <path d="M 97.561727 266.2 
L 98.36068 266.2 
L 98.36068 210.476364 
L 97.561727 210.476364 
z
" clip-path="url(#p8bc985970b)" style="fill: #1f77b4"/>
   </g>
   <g id="patch_15">
    <path d="M 98.560419 266.2 
L 99.359372 266.2 
L 99.359372 210.476364 
L 98.560419 210.476364 
z
" clip-path="url(#p8bc985970b)" style="fill: #1f77b4"/>
   </g>
   <g id="patch_16">
    <path d="M 99.55911 266.2 
L 100.358064 266.2 
L 100.358064 210.476364 
L 99.55911 210.476364 
z
" clip-path="url(#p8bc985970b)" style="fill: #1f77b4"/>
   </g>
   <g id="patch_17">
    <path d="M 100.557802 266.2 
L 101.356755 266.2 
L 101.356755 210.476364 
L 100.557802 210.476364 
z
" clip-path="url(#p8bc985970b)" style="fill: #1f77b4"/>
   </g>
   <g id="patch_18">
    <path d="M 101.556493 266.2 
L 102.355447 266.2 
L 102.355447 210.476364 
L 101.556493 210.476364 
z
" clip-path="url(#p8bc985970b)" style="fill: #1f77b4"/>
   </g>
   <g id="patch_19">
    <path d="M 102.555185 266.2 
L 103.354138 266.2 
L 103.354138 210.476364 
L 102.555185 210.476364 
z
" clip-path="url(#p8bc985970b)" style="fill: #1f77b4"/>
   </g>
   <g id="patch_20">
    <path d="M 103.553877 266.2 
L 104.35283 266.2 
L 104.35283 210.476364 
L 103.553877 210.476364 
z
" clip-path="url(#p8bc985970b)" style="fill: #1f77b4"/>
   </g>
   <g id="patch_21">
    <path d="M 104.552568 266.2 
L 105.351522 266.2 
L 105.351522 238.338182 
L 104.552568 238.338182 
z
" clip-path="url(#p8bc985970b)" style="fill: #1f77b4"/>
   </g>
   <g id="patch_22">
    <path d="M 105.55126 266.2 
L 106.350213 266.2 
L 106.350213 238.338182 
L 105.55126 238.338182 
z
" clip-path="url(#p8bc985970b)" style="fill: #1f77b4"/>
   </g>
   <g id="patch_23">
    <path d="M 106.549952 266.2 
L 107.348905 266.2 
L 107.348905 238.338182 
L 106.549952 238.338182 
z
" clip-path="url(#p8bc985970b)" style="fill: #1f77b4"/>
   </g>
   <g id="patch_24">
    <path d="M 107.548643 266.2 
L 108.347596 266.2 
L 108.347596 238.338182 
L 107.548643 238.338182 
z
" clip-path="url(#p8bc985970b)" style="fill: #1f77b4"/>
   </g>
   <g id="patch_25">
    <path d="M 108.547335 266.2 
L 109.346288 266.2 
L 109.346288 238.338182 
L 108.547335 238.338182 
z
" clip-path="url(#p8bc985970b)" style="fill: #1f77b4"/>
   </g>
   <g id="patch_26">
    <path d="M 109.546026 266.2 
L 110.34498 266.2 
L 110.34498 238.338182 
L 109.546026 238.338182 
z
" clip-path="url(#p8bc985970b)" style="fill: #1f77b4"/>
   </g>
   <g id="patch_27">
    <path d="M 110.544718 266.2 
L 111.343671 266.2 
L 111.343671 238.338182 
L 110.544718 238.338182 
z
" clip-path="url(#p8bc985970b)" style="fill: #1f77b4"/>
   </g>
   <g id="patch_28">
    <path d="M 111.54341 266.2 
L 112.342363 266.2 
L 112.342363 238.338182 
L 111.54341 238.338182 
z
" clip-path="url(#p8bc985970b)" style="fill: #1f77b4"/>
   </g>
   <g id="patch_29">
    <path d="M 112.542101 266.2 
L 113.341055 266.2 
L 113.341055 238.338182 
L 112.542101 238.338182 
z
" clip-path="url(#p8bc985970b)" style="fill: #1f77b4"/>
   </g>
   <g id="patch_30">
    <path d="M 113.540793 266.2 
L 114.339746 266.2 
L 114.339746 238.338182 
L 113.540793 238.338182 
z
" clip-path="url(#p8bc985970b)" style="fill: #1f77b4"/>
   </g>
   <g id="patch_31">
    <path d="M 114.539485 266.2 
L 115.338438 266.2 
L 115.338438 238.338182 
L 114.539485 238.338182 
z
" clip-path="url(#p8bc985970b)" style="fill: #1f77b4"/>
   </g>
   <g id="patch_32">
    <path d="M 115.538176 266.2 
L 116.337129 266.2 
L 116.337129 238.338182 
L 115.538176 238.338182 
z
" clip-path="url(#p8bc985970b)" style="fill: #1f77b4"/>
   </g>
   <g id="patch_33">
    <path d="M 116.536868 266.2 
L 117.335821 266.2 
L 117.335821 238.338182 
L 116.536868 238.338182 
z
" clip-path="url(#p8bc985970b)" style="fill: #1f77b4"/>
   </g>
   <g id="patch_34">
    <path d="M 117.535559 266.2 
L 118.334513 266.2 
L 118.334513 238.338182 
L 117.535559 238.338182 
z
" clip-path="url(#p8bc985970b)" style="fill: #1f77b4"/>
   </g>
   <g id="patch_35">
    <path d="M 118.534251 266.2 
L 119.333204 266.2 
L 119.333204 238.338182 
L 118.534251 238.338182 
z
" clip-path="url(#p8bc985970b)" style="fill: #1f77b4"/>
   </g>
   <g id="patch_36">
    <path d="M 119.532943 266.2 
L 120.331896 266.2 
L 120.331896 238.338182 
L 119.532943 238.338182 
z
" clip-path="url(#p8bc985970b)" style="fill: #1f77b4"/>
   </g>
   <g id="patch_37">
    <path d="M 120.531634 266.2 
L 121.330588 266.2 
L 121.330588 238.338182 
L 120.531634 238.338182 
z
" clip-path="url(#p8bc985970b)" style="fill: #1f77b4"/>
   </g>
   <g id="patch_38">
    <path d="M 121.530326 266.2 
L 122.329279 266.2 
L 122.329279 238.338182 
L 121.530326 238.338182 
z
" clip-path="url(#p8bc985970b)" style="fill: #1f77b4"/>
   </g>
   <g id="patch_39">
    <path d="M 122.529018 266.2 
L 123.327971 266.2 
L 123.327971 238.338182 
L 122.529018 238.338182 
z
" clip-path="url(#p8bc985970b)" style="fill: #1f77b4"/>
   </g>
   <g id="patch_40">
    <path d="M 123.527709 266.2 
L 124.326662 266.2 
L 124.326662 238.338182 
L 123.527709 238.338182 
z
" clip-path="url(#p8bc985970b)" style="fill: #1f77b4"/>
   </g>
   <g id="patch_41">
    <path d="M 124.526401 266.2 
L 125.325354 266.2 
L 125.325354 238.338182 
L 124.526401 238.338182 
z
" clip-path="url(#p8bc985970b)" style="fill: #1f77b4"/>
   </g>
   <g id="patch_42">
    <path d="M 125.525092 266.2 
L 126.324046 266.2 
L 126.324046 238.338182 
L 125.525092 238.338182 
z
" clip-path="url(#p8bc985970b)" style="fill: #1f77b4"/>
   </g>
   <g id="patch_43">
    <path d="M 126.523784 266.2 
L 127.322737 266.2 
L 127.322737 238.338182 
L 126.523784 238.338182 
z
" clip-path="url(#p8bc985970b)" style="fill: #1f77b4"/>
   </g>
   <g id="patch_44">
    <path d="M 127.522476 266.2 
L 128.321429 266.2 
L 128.321429 238.338182 
L 127.522476 238.338182 
z
" clip-path="url(#p8bc985970b)" style="fill: #1f77b4"/>
   </g>
   <g id="patch_45">
    <path d="M 128.521167 266.2 
L 129.320121 266.2 
L 129.320121 238.338182 
L 128.521167 238.338182 
z
" clip-path="url(#p8bc985970b)" style="fill: #1f77b4"/>
   </g>
   <g id="patch_46">
    <path d="M 129.519859 266.2 
L 130.318812 266.2 
L 130.318812 238.338182 
L 129.519859 238.338182 
z
" clip-path="url(#p8bc985970b)" style="fill: #1f77b4"/>
   </g>
   <g id="patch_47">
    <path d="M 130.51855 266.2 
L 131.317504 266.2 
L 131.317504 238.338182 
L 130.51855 238.338182 
z
" clip-path="url(#p8bc985970b)" style="fill: #1f77b4"/>
   </g>
   <g id="patch_48">
    <path d="M 131.517242 266.2 
L 132.316195 266.2 
L 132.316195 238.338182 
L 131.517242 238.338182 
z
" clip-path="url(#p8bc985970b)" style="fill: #1f77b4"/>
   </g>
   <g id="patch_49">
    <path d="M 132.515934 266.2 
L 133.314887 266.2 
L 133.314887 238.338182 
L 132.515934 238.338182 
z
" clip-path="url(#p8bc985970b)" style="fill: #1f77b4"/>
   </g>
   <g id="patch_50">
    <path d="M 133.514625 266.2 
L 134.313579 266.2 
L 134.313579 238.338182 
L 133.514625 238.338182 
z
" clip-path="url(#p8bc985970b)" style="fill: #1f77b4"/>
   </g>
   <g id="patch_51">
    <path d="M 134.513317 266.2 
L 135.31227 266.2 
L 135.31227 238.338182 
L 134.513317 238.338182 
z
" clip-path="url(#p8bc985970b)" style="fill: #1f77b4"/>
   </g>
   <g id="patch_52">
    <path d="M 135.512009 266.2 
L 136.310962 266.2 
L 136.310962 238.338182 
L 135.512009 238.338182 
z
" clip-path="url(#p8bc985970b)" style="fill: #1f77b4"/>
   </g>
   <g id="patch_53">
    <path d="M 136.5107 266.2 
L 137.309654 266.2 
L 137.309654 238.338182 
L 136.5107 238.338182 
z
" clip-path="url(#p8bc985970b)" style="fill: #1f77b4"/>
   </g>
   <g id="patch_54">
    <path d="M 137.509392 266.2 
L 138.308345 266.2 
L 138.308345 238.338182 
L 137.509392 238.338182 
z
" clip-path="url(#p8bc985970b)" style="fill: #1f77b4"/>
   </g>
   <g id="patch_55">
    <path d="M 138.508083 266.2 
L 139.307037 266.2 
L 139.307037 238.338182 
L 138.508083 238.338182 
z
" clip-path="url(#p8bc985970b)" style="fill: #1f77b4"/>
   </g>
   <g id="patch_56">
    <path d="M 139.506775 266.2 
L 140.305728 266.2 
L 140.305728 238.338182 
L 139.506775 238.338182 
z
" clip-path="url(#p8bc985970b)" style="fill: #1f77b4"/>
   </g>
   <g id="patch_57">
    <path d="M 140.505467 266.2 
L 141.30442 266.2 
L 141.30442 238.338182 
L 140.505467 238.338182 
z
" clip-path="url(#p8bc985970b)" style="fill: #1f77b4"/>
   </g>
   <g id="patch_58">
    <path d="M 141.504158 266.2 
L 142.303112 266.2 
L 142.303112 238.338182 
L 141.504158 238.338182 
z
" clip-path="url(#p8bc985970b)" style="fill: #1f77b4"/>
   </g>
   <g id="patch_59">
    <path d="M 142.50285 266.2 
L 143.301803 266.2 
L 143.301803 238.338182 
L 142.50285 238.338182 
z
" clip-path="url(#p8bc985970b)" style="fill: #1f77b4"/>
   </g>
   <g id="patch_60">
    <path d="M 143.501542 266.2 
L 144.300495 266.2 
L 144.300495 238.338182 
L 143.501542 238.338182 
z
" clip-path="url(#p8bc985970b)" style="fill: #1f77b4"/>
   </g>
   <g id="patch_61">
    <path d="M 144.500233 266.2 
L 145.299186 266.2 
L 145.299186 238.338182 
L 144.500233 238.338182 
z
" clip-path="url(#p8bc985970b)" style="fill: #1f77b4"/>
   </g>
   <g id="patch_62">
    <path d="M 145.498925 266.2 
L 146.297878 266.2 
L 146.297878 238.338182 
L 145.498925 238.338182 
z
" clip-path="url(#p8bc985970b)" style="fill: #1f77b4"/>
   </g>
   <g id="patch_63">
    <path d="M 146.497616 266.2 
L 147.29657 266.2 
L 147.29657 238.338182 
L 146.497616 238.338182 
z
" clip-path="url(#p8bc985970b)" style="fill: #1f77b4"/>
   </g>
   <g id="patch_64">
    <path d="M 147.496308 266.2 
L 148.295261 266.2 
L 148.295261 238.338182 
L 147.496308 238.338182 
z
" clip-path="url(#p8bc985970b)" style="fill: #1f77b4"/>
   </g>
   <g id="patch_65">
    <path d="M 148.495 266.2 
L 149.293953 266.2 
L 149.293953 238.338182 
L 148.495 238.338182 
z
" clip-path="url(#p8bc985970b)" style="fill: #1f77b4"/>
   </g>
   <g id="patch_66">
    <path d="M 149.493691 266.2 
L 150.292645 266.2 
L 150.292645 238.338182 
L 149.493691 238.338182 
z
" clip-path="url(#p8bc985970b)" style="fill: #1f77b4"/>
   </g>
   <g id="patch_67">
    <path d="M 150.492383 266.2 
L 151.291336 266.2 
L 151.291336 238.338182 
L 150.492383 238.338182 
z
" clip-path="url(#p8bc985970b)" style="fill: #1f77b4"/>
   </g>
   <g id="patch_68">
    <path d="M 151.491075 266.2 
L 152.290028 266.2 
L 152.290028 238.338182 
L 151.491075 238.338182 
z
" clip-path="url(#p8bc985970b)" style="fill: #1f77b4"/>
   </g>
   <g id="patch_69">
    <path d="M 152.489766 266.2 
L 153.288719 266.2 
L 153.288719 238.338182 
L 152.489766 238.338182 
z
" clip-path="url(#p8bc985970b)" style="fill: #1f77b4"/>
   </g>
   <g id="patch_70">
    <path d="M 153.488458 266.2 
L 154.287411 266.2 
L 154.287411 238.338182 
L 153.488458 238.338182 
z
" clip-path="url(#p8bc985970b)" style="fill: #1f77b4"/>
   </g>
   <g id="patch_71">
    <path d="M 154.487149 266.2 
L 155.286103 266.2 
L 155.286103 238.338182 
L 154.487149 238.338182 
z
" clip-path="url(#p8bc985970b)" style="fill: #1f77b4"/>
   </g>
   <g id="patch_72">
    <path d="M 155.485841 266.2 
L 156.284794 266.2 
L 156.284794 238.338182 
L 155.485841 238.338182 
z
" clip-path="url(#p8bc985970b)" style="fill: #1f77b4"/>
   </g>
   <g id="patch_73">
    <path d="M 156.484533 266.2 
L 157.283486 266.2 
L 157.283486 238.338182 
L 156.484533 238.338182 
z
" clip-path="url(#p8bc985970b)" style="fill: #1f77b4"/>
   </g>
   <g id="patch_74">
    <path d="M 157.483224 266.2 
L 158.282178 266.2 
L 158.282178 238.338182 
L 157.483224 238.338182 
z
" clip-path="url(#p8bc985970b)" style="fill: #1f77b4"/>
   </g>
   <g id="patch_75">
    <path d="M 158.481916 266.2 
L 159.280869 266.2 
L 159.280869 238.338182 
L 158.481916 238.338182 
z
" clip-path="url(#p8bc985970b)" style="fill: #1f77b4"/>
   </g>
   <g id="patch_76">
    <path d="M 159.480607 266.2 
L 160.279561 266.2 
L 160.279561 238.338182 
L 159.480607 238.338182 
z
" clip-path="url(#p8bc985970b)" style="fill: #1f77b4"/>
   </g>
   <g id="patch_77">
    <path d="M 160.479299 266.2 
L 161.278252 266.2 
L 161.278252 238.338182 
L 160.479299 238.338182 
z
" clip-path="url(#p8bc985970b)" style="fill: #1f77b4"/>
   </g>
   <g id="patch_78">
    <path d="M 161.477991 266.2 
L 162.276944 266.2 
L 162.276944 238.338182 
L 161.477991 238.338182 
z
" clip-path="url(#p8bc985970b)" style="fill: #1f77b4"/>
   </g>
   <g id="patch_79">
    <path d="M 162.476682 266.2 
L 163.275636 266.2 
L 163.275636 238.338182 
L 162.476682 238.338182 
z
" clip-path="url(#p8bc985970b)" style="fill: #1f77b4"/>
   </g>
   <g id="patch_80">
    <path d="M 163.475374 266.2 
L 164.274327 266.2 
L 164.274327 238.338182 
L 163.475374 238.338182 
z
" clip-path="url(#p8bc985970b)" style="fill: #1f77b4"/>
   </g>
   <g id="patch_81">
    <path d="M 164.474066 266.2 
L 165.273019 266.2 
L 165.273019 238.338182 
L 164.474066 238.338182 
z
" clip-path="url(#p8bc985970b)" style="fill: #1f77b4"/>
   </g>
   <g id="patch_82">
    <path d="M 165.472757 266.2 
L 166.271711 266.2 
L 166.271711 238.338182 
L 165.472757 238.338182 
z
" clip-path="url(#p8bc985970b)" style="fill: #1f77b4"/>
   </g>
   <g id="patch_83">
    <path d="M 166.471449 266.2 
L 167.270402 266.2 
L 167.270402 238.338182 
L 166.471449 238.338182 
z
" clip-path="url(#p8bc985970b)" style="fill: #1f77b4"/>
   </g>
   <g id="patch_84">
    <path d="M 167.47014 266.2 
L 168.269094 266.2 
L 168.269094 238.338182 
L 167.47014 238.338182 
z
" clip-path="url(#p8bc985970b)" style="fill: #1f77b4"/>
   </g>
   <g id="patch_85">
    <path d="M 168.468832 266.2 
L 169.267785 266.2 
L 169.267785 238.338182 
L 168.468832 238.338182 
z
" clip-path="url(#p8bc985970b)" style="fill: #1f77b4"/>
   </g>
   <g id="patch_86">
    <path d="M 169.467524 266.2 
L 170.266477 266.2 
L 170.266477 238.338182 
L 169.467524 238.338182 
z
" clip-path="url(#p8bc985970b)" style="fill: #1f77b4"/>
   </g>
   <g id="patch_87">
    <path d="M 170.466215 266.2 
L 171.265169 266.2 
L 171.265169 238.338182 
L 170.466215 238.338182 
z
" clip-path="url(#p8bc985970b)" style="fill: #1f77b4"/>
   </g>
   <g id="patch_88">
    <path d="M 171.464907 266.2 
L 172.26386 266.2 
L 172.26386 238.338182 
L 171.464907 238.338182 
z
" clip-path="url(#p8bc985970b)" style="fill: #1f77b4"/>
   </g>
   <g id="patch_89">
    <path d="M 172.463599 266.2 
L 173.262552 266.2 
L 173.262552 238.338182 
L 172.463599 238.338182 
z
" clip-path="url(#p8bc985970b)" style="fill: #1f77b4"/>
   </g>
   <g id="patch_90">
    <path d="M 173.46229 266.2 
L 174.261243 266.2 
L 174.261243 238.338182 
L 173.46229 238.338182 
z
" clip-path="url(#p8bc985970b)" style="fill: #1f77b4"/>
   </g>
   <g id="patch_91">
    <path d="M 174.460982 266.2 
L 175.259935 266.2 
L 175.259935 238.338182 
L 174.460982 238.338182 
z
" clip-path="url(#p8bc985970b)" style="fill: #1f77b4"/>
   </g>
   <g id="patch_92">
    <path d="M 175.459673 266.2 
L 176.258627 266.2 
L 176.258627 238.338182 
L 175.459673 238.338182 
z
" clip-path="url(#p8bc985970b)" style="fill: #1f77b4"/>
   </g>
   <g id="patch_93">
    <path d="M 176.458365 266.2 
L 177.257318 266.2 
L 177.257318 238.338182 
L 176.458365 238.338182 
z
" clip-path="url(#p8bc985970b)" style="fill: #1f77b4"/>
   </g>
   <g id="patch_94">
    <path d="M 177.457057 266.2 
L 178.25601 266.2 
L 178.25601 238.338182 
L 177.457057 238.338182 
z
" clip-path="url(#p8bc985970b)" style="fill: #1f77b4"/>
   </g>
   <g id="patch_95">
    <path d="M 178.455748 266.2 
L 179.254702 266.2 
L 179.254702 238.338182 
L 178.455748 238.338182 
z
" clip-path="url(#p8bc985970b)" style="fill: #1f77b4"/>
   </g>
   <g id="patch_96">
    <path d="M 179.45444 266.2 
L 180.253393 266.2 
L 180.253393 238.338182 
L 179.45444 238.338182 
z
" clip-path="url(#p8bc985970b)" style="fill: #1f77b4"/>
   </g>
   <g id="patch_97">
    <path d="M 180.453132 266.2 
L 181.252085 266.2 
L 181.252085 238.338182 
L 180.453132 238.338182 
z
" clip-path="url(#p8bc985970b)" style="fill: #1f77b4"/>
   </g>
   <g id="patch_98">
    <path d="M 181.451823 266.2 
L 182.250776 266.2 
L 182.250776 238.338182 
L 181.451823 238.338182 
z
" clip-path="url(#p8bc985970b)" style="fill: #1f77b4"/>
   </g>
   <g id="patch_99">
    <path d="M 182.450515 266.2 
L 183.249468 266.2 
L 183.249468 238.338182 
L 182.450515 238.338182 
z
" clip-path="url(#p8bc985970b)" style="fill: #1f77b4"/>
   </g>
   <g id="patch_100">
    <path d="M 183.449206 266.2 
L 184.24816 266.2 
L 184.24816 238.338182 
L 183.449206 238.338182 
z
" clip-path="url(#p8bc985970b)" style="fill: #1f77b4"/>
   </g>
   <g id="patch_101">
    <path d="M 184.447898 266.2 
L 185.246851 266.2 
L 185.246851 238.338182 
L 184.447898 238.338182 
z
" clip-path="url(#p8bc985970b)" style="fill: #1f77b4"/>
   </g>
   <g id="patch_102">
    <path d="M 185.44659 266.2 
L 186.245543 266.2 
L 186.245543 238.338182 
L 185.44659 238.338182 
z
" clip-path="url(#p8bc985970b)" style="fill: #1f77b4"/>
   </g>
   <g id="patch_103">
    <path d="M 186.445281 266.2 
L 187.244235 266.2 
L 187.244235 238.338182 
L 186.445281 238.338182 
z
" clip-path="url(#p8bc985970b)" style="fill: #1f77b4"/>
   </g>
   <g id="patch_104">
    <path d="M 187.443973 266.2 
L 188.242926 266.2 
L 188.242926 238.338182 
L 187.443973 238.338182 
z
" clip-path="url(#p8bc985970b)" style="fill: #1f77b4"/>
   </g>
   <g id="patch_105">
    <path d="M 188.442664 266.2 
L 189.241618 266.2 
L 189.241618 238.338182 
L 188.442664 238.338182 
z
" clip-path="url(#p8bc985970b)" style="fill: #1f77b4"/>
   </g>
   <g id="patch_106">
    <path d="M 189.441356 266.2 
L 190.240309 266.2 
L 190.240309 238.338182 
L 189.441356 238.338182 
z
" clip-path="url(#p8bc985970b)" style="fill: #1f77b4"/>
   </g>
   <g id="patch_107">
    <path d="M 190.440048 266.2 
L 191.239001 266.2 
L 191.239001 238.338182 
L 190.440048 238.338182 
z
" clip-path="url(#p8bc985970b)" style="fill: #1f77b4"/>
   </g>
   <g id="patch_108">
    <path d="M 191.438739 266.2 
L 192.237693 266.2 
L 192.237693 238.338182 
L 191.438739 238.338182 
z
" clip-path="url(#p8bc985970b)" style="fill: #1f77b4"/>
   </g>
   <g id="patch_109">
    <path d="M 192.437431 266.2 
L 193.236384 266.2 
L 193.236384 238.338182 
L 192.437431 238.338182 
z
" clip-path="url(#p8bc985970b)" style="fill: #1f77b4"/>
   </g>
   <g id="patch_110">
    <path d="M 193.436123 266.2 
L 194.235076 266.2 
L 194.235076 238.338182 
L 193.436123 238.338182 
z
" clip-path="url(#p8bc985970b)" style="fill: #1f77b4"/>
   </g>
   <g id="patch_111">
    <path d="M 194.434814 266.2 
L 195.233768 266.2 
L 195.233768 238.338182 
L 194.434814 238.338182 
z
" clip-path="url(#p8bc985970b)" style="fill: #1f77b4"/>
   </g>
   <g id="patch_112">
    <path d="M 195.433506 266.2 
L 196.232459 266.2 
L 196.232459 238.338182 
L 195.433506 238.338182 
z
" clip-path="url(#p8bc985970b)" style="fill: #1f77b4"/>
   </g>
   <g id="patch_113">
    <path d="M 196.432197 266.2 
L 197.231151 266.2 
L 197.231151 238.338182 
L 196.432197 238.338182 
z
" clip-path="url(#p8bc985970b)" style="fill: #1f77b4"/>
   </g>
   <g id="patch_114">
    <path d="M 197.430889 266.2 
L 198.229842 266.2 
L 198.229842 238.338182 
L 197.430889 238.338182 
z
" clip-path="url(#p8bc985970b)" style="fill: #1f77b4"/>
   </g>
   <g id="patch_115">
    <path d="M 198.429581 266.2 
L 199.228534 266.2 
L 199.228534 238.338182 
L 198.429581 238.338182 
z
" clip-path="url(#p8bc985970b)" style="fill: #1f77b4"/>
   </g>
   <g id="patch_116">
    <path d="M 199.428272 266.2 
L 200.227226 266.2 
L 200.227226 238.338182 
L 199.428272 238.338182 
z
" clip-path="url(#p8bc985970b)" style="fill: #1f77b4"/>
   </g>
   <g id="patch_117">
    <path d="M 200.426964 266.2 
L 201.225917 266.2 
L 201.225917 238.338182 
L 200.426964 238.338182 
z
" clip-path="url(#p8bc985970b)" style="fill: #1f77b4"/>
   </g>
   <g id="patch_118">
    <path d="M 201.425656 266.2 
L 202.224609 266.2 
L 202.224609 238.338182 
L 201.425656 238.338182 
z
" clip-path="url(#p8bc985970b)" style="fill: #1f77b4"/>
   </g>
   <g id="patch_119">
    <path d="M 202.424347 266.2 
L 203.2233 266.2 
L 203.2233 238.338182 
L 202.424347 238.338182 
z
" clip-path="url(#p8bc985970b)" style="fill: #1f77b4"/>
   </g>
   <g id="patch_120">
    <path d="M 203.423039 266.2 
L 204.221992 266.2 
L 204.221992 238.338182 
L 203.423039 238.338182 
z
" clip-path="url(#p8bc985970b)" style="fill: #1f77b4"/>
   </g>
   <g id="patch_121">
    <path d="M 204.42173 266.2 
L 205.220684 266.2 
L 205.220684 238.338182 
L 204.42173 238.338182 
z
" clip-path="url(#p8bc985970b)" style="fill: #1f77b4"/>
   </g>
   <g id="patch_122">
    <path d="M 205.420422 266.2 
L 206.219375 266.2 
L 206.219375 238.338182 
L 205.420422 238.338182 
z
" clip-path="url(#p8bc985970b)" style="fill: #1f77b4"/>
   </g>
   <g id="patch_123">
    <path d="M 206.419114 266.2 
L 207.218067 266.2 
L 207.218067 238.338182 
L 206.419114 238.338182 
z
" clip-path="url(#p8bc985970b)" style="fill: #1f77b4"/>
   </g>
   <g id="patch_124">
    <path d="M 207.417805 266.2 
L 208.216759 266.2 
L 208.216759 238.338182 
L 207.417805 238.338182 
z
" clip-path="url(#p8bc985970b)" style="fill: #1f77b4"/>
   </g>
   <g id="patch_125">
    <path d="M 208.416497 266.2 
L 209.21545 266.2 
L 209.21545 238.338182 
L 208.416497 238.338182 
z
" clip-path="url(#p8bc985970b)" style="fill: #1f77b4"/>
   </g>
   <g id="patch_126">
    <path d="M 209.415189 266.2 
L 210.214142 266.2 
L 210.214142 238.338182 
L 209.415189 238.338182 
z
" clip-path="url(#p8bc985970b)" style="fill: #1f77b4"/>
   </g>
   <g id="patch_127">
    <path d="M 210.41388 266.2 
L 211.212833 266.2 
L 211.212833 238.338182 
L 210.41388 238.338182 
z
" clip-path="url(#p8bc985970b)" style="fill: #1f77b4"/>
   </g>
   <g id="patch_128">
    <path d="M 211.412572 266.2 
L 212.211525 266.2 
L 212.211525 238.338182 
L 211.412572 238.338182 
z
" clip-path="url(#p8bc985970b)" style="fill: #1f77b4"/>
   </g>
   <g id="patch_129">
    <path d="M 212.411263 266.2 
L 213.210217 266.2 
L 213.210217 238.338182 
L 212.411263 238.338182 
z
" clip-path="url(#p8bc985970b)" style="fill: #1f77b4"/>
   </g>
   <g id="patch_130">
    <path d="M 213.409955 266.2 
L 214.208908 266.2 
L 214.208908 238.338182 
L 213.409955 238.338182 
z
" clip-path="url(#p8bc985970b)" style="fill: #1f77b4"/>
   </g>
   <g id="patch_131">
    <path d="M 214.408647 266.2 
L 215.2076 266.2 
L 215.2076 238.338182 
L 214.408647 238.338182 
z
" clip-path="url(#p8bc985970b)" style="fill: #1f77b4"/>
   </g>
   <g id="patch_132">
    <path d="M 215.407338 266.2 
L 216.206292 266.2 
L 216.206292 238.338182 
L 215.407338 238.338182 
z
" clip-path="url(#p8bc985970b)" style="fill: #1f77b4"/>
   </g>
   <g id="patch_133">
    <path d="M 216.40603 266.2 
L 217.204983 266.2 
L 217.204983 238.338182 
L 216.40603 238.338182 
z
" clip-path="url(#p8bc985970b)" style="fill: #1f77b4"/>
   </g>
   <g id="patch_134">
    <path d="M 217.404721 266.2 
L 218.203675 266.2 
L 218.203675 238.338182 
L 217.404721 238.338182 
z
" clip-path="url(#p8bc985970b)" style="fill: #1f77b4"/>
   </g>
   <g id="patch_135">
    <path d="M 218.403413 266.2 
L 219.202366 266.2 
L 219.202366 238.338182 
L 218.403413 238.338182 
z
" clip-path="url(#p8bc985970b)" style="fill: #1f77b4"/>
   </g>
   <g id="patch_136">
    <path d="M 219.402105 266.2 
L 220.201058 266.2 
L 220.201058 238.338182 
L 219.402105 238.338182 
z
" clip-path="url(#p8bc985970b)" style="fill: #1f77b4"/>
   </g>
   <g id="patch_137">
    <path d="M 220.400796 266.2 
L 221.19975 266.2 
L 221.19975 238.338182 
L 220.400796 238.338182 
z
" clip-path="url(#p8bc985970b)" style="fill: #1f77b4"/>
   </g>
   <g id="patch_138">
    <path d="M 221.399488 266.2 
L 222.198441 266.2 
L 222.198441 238.338182 
L 221.399488 238.338182 
z
" clip-path="url(#p8bc985970b)" style="fill: #1f77b4"/>
   </g>
   <g id="patch_139">
    <path d="M 222.39818 266.2 
L 223.197133 266.2 
L 223.197133 238.338182 
L 222.39818 238.338182 
z
" clip-path="url(#p8bc985970b)" style="fill: #1f77b4"/>
   </g>
   <g id="patch_140">
    <path d="M 223.396871 266.2 
L 224.195825 266.2 
L 224.195825 238.338182 
L 223.396871 238.338182 
z
" clip-path="url(#p8bc985970b)" style="fill: #1f77b4"/>
   </g>
   <g id="patch_141">
    <path d="M 224.395563 266.2 
L 225.194516 266.2 
L 225.194516 238.338182 
L 224.395563 238.338182 
z
" clip-path="url(#p8bc985970b)" style="fill: #1f77b4"/>
   </g>
   <g id="patch_142">
    <path d="M 225.394254 266.2 
L 226.193208 266.2 
L 226.193208 238.338182 
L 225.394254 238.338182 
z
" clip-path="url(#p8bc985970b)" style="fill: #1f77b4"/>
   </g>
   <g id="patch_143">
    <path d="M 226.392946 266.2 
L 227.191899 266.2 
L 227.191899 238.338182 
L 226.392946 238.338182 
z
" clip-path="url(#p8bc985970b)" style="fill: #1f77b4"/>
   </g>
   <g id="patch_144">
    <path d="M 227.391638 266.2 
L 228.190591 266.2 
L 228.190591 238.338182 
L 227.391638 238.338182 
z
" clip-path="url(#p8bc985970b)" style="fill: #1f77b4"/>
   </g>
   <g id="patch_145">
    <path d="M 228.390329 266.2 
L 229.189283 266.2 
L 229.189283 238.338182 
L 228.390329 238.338182 
z
" clip-path="url(#p8bc985970b)" style="fill: #1f77b4"/>
   </g>
   <g id="patch_146">
    <path d="M 229.389021 266.2 
L 230.187974 266.2 
L 230.187974 238.338182 
L 229.389021 238.338182 
z
" clip-path="url(#p8bc985970b)" style="fill: #1f77b4"/>
   </g>
   <g id="patch_147">
    <path d="M 230.387713 266.2 
L 231.186666 266.2 
L 231.186666 238.338182 
L 230.387713 238.338182 
z
" clip-path="url(#p8bc985970b)" style="fill: #1f77b4"/>
   </g>
   <g id="patch_148">
    <path d="M 231.386404 266.2 
L 232.185357 266.2 
L 232.185357 238.338182 
L 231.386404 238.338182 
z
" clip-path="url(#p8bc985970b)" style="fill: #1f77b4"/>
   </g>
   <g id="patch_149">
    <path d="M 232.385096 266.2 
L 233.184049 266.2 
L 233.184049 238.338182 
L 232.385096 238.338182 
z
" clip-path="url(#p8bc985970b)" style="fill: #1f77b4"/>
   </g>
   <g id="patch_150">
    <path d="M 233.383787 266.2 
L 234.182741 266.2 
L 234.182741 238.338182 
L 233.383787 238.338182 
z
" clip-path="url(#p8bc985970b)" style="fill: #1f77b4"/>
   </g>
   <g id="patch_151">
    <path d="M 234.382479 266.2 
L 235.181432 266.2 
L 235.181432 238.338182 
L 234.382479 238.338182 
z
" clip-path="url(#p8bc985970b)" style="fill: #1f77b4"/>
   </g>
   <g id="patch_152">
    <path d="M 235.381171 266.2 
L 236.180124 266.2 
L 236.180124 238.338182 
L 235.381171 238.338182 
z
" clip-path="url(#p8bc985970b)" style="fill: #1f77b4"/>
   </g>
   <g id="patch_153">
    <path d="M 236.379862 266.2 
L 237.178816 266.2 
L 237.178816 238.338182 
L 236.379862 238.338182 
z
" clip-path="url(#p8bc985970b)" style="fill: #1f77b4"/>
   </g>
   <g id="patch_154">
    <path d="M 237.378554 266.2 
L 238.177507 266.2 
L 238.177507 238.338182 
L 237.378554 238.338182 
z
" clip-path="url(#p8bc985970b)" style="fill: #1f77b4"/>
   </g>
   <g id="patch_155">
    <path d="M 238.377246 266.2 
L 239.176199 266.2 
L 239.176199 238.338182 
L 238.377246 238.338182 
z
" clip-path="url(#p8bc985970b)" style="fill: #1f77b4"/>
   </g>
   <g id="patch_156">
    <path d="M 239.375937 266.2 
L 240.17489 266.2 
L 240.17489 238.338182 
L 239.375937 238.338182 
z
" clip-path="url(#p8bc985970b)" style="fill: #1f77b4"/>
   </g>
   <g id="patch_157">
    <path d="M 240.374629 266.2 
L 241.173582 266.2 
L 241.173582 238.338182 
L 240.374629 238.338182 
z
" clip-path="url(#p8bc985970b)" style="fill: #1f77b4"/>
   </g>
   <g id="patch_158">
    <path d="M 241.37332 266.2 
L 242.172274 266.2 
L 242.172274 238.338182 
L 241.37332 238.338182 
z
" clip-path="url(#p8bc985970b)" style="fill: #1f77b4"/>
   </g>
   <g id="patch_159">
    <path d="M 242.372012 266.2 
L 243.170965 266.2 
L 243.170965 238.338182 
L 242.372012 238.338182 
z
" clip-path="url(#p8bc985970b)" style="fill: #1f77b4"/>
   </g>
   <g id="patch_160">
    <path d="M 243.370704 266.2 
L 244.169657 266.2 
L 244.169657 238.338182 
L 243.370704 238.338182 
z
" clip-path="url(#p8bc985970b)" style="fill: #1f77b4"/>
   </g>
   <g id="patch_161">
    <path d="M 244.369395 266.2 
L 245.168349 266.2 
L 245.168349 238.338182 
L 244.369395 238.338182 
z
" clip-path="url(#p8bc985970b)" style="fill: #1f77b4"/>
   </g>
   <g id="patch_162">
    <path d="M 245.368087 266.2 
L 246.16704 266.2 
L 246.16704 238.338182 
L 245.368087 238.338182 
z
" clip-path="url(#p8bc985970b)" style="fill: #1f77b4"/>
   </g>
   <g id="patch_163">
    <path d="M 246.366779 266.2 
L 247.165732 266.2 
L 247.165732 238.338182 
L 246.366779 238.338182 
z
" clip-path="url(#p8bc985970b)" style="fill: #1f77b4"/>
   </g>
   <g id="patch_164">
    <path d="M 247.36547 266.2 
L 248.164423 266.2 
L 248.164423 238.338182 
L 247.36547 238.338182 
z
" clip-path="url(#p8bc985970b)" style="fill: #1f77b4"/>
   </g>
   <g id="patch_165">
    <path d="M 248.364162 266.2 
L 249.163115 266.2 
L 249.163115 247.625455 
L 248.364162 247.625455 
z
" clip-path="url(#p8bc985970b)" style="fill: #1f77b4"/>
   </g>
   <g id="patch_166">
    <path d="M 249.362853 266.2 
L 250.161807 266.2 
L 250.161807 247.625455 
L 249.362853 247.625455 
z
" clip-path="url(#p8bc985970b)" style="fill: #1f77b4"/>
   </g>
   <g id="patch_167">
    <path d="M 250.361545 266.2 
L 251.160498 266.2 
L 251.160498 247.625455 
L 250.361545 247.625455 
z
" clip-path="url(#p8bc985970b)" style="fill: #1f77b4"/>
   </g>
   <g id="patch_168">
    <path d="M 251.360237 266.2 
L 252.15919 266.2 
L 252.15919 247.625455 
L 251.360237 247.625455 
z
" clip-path="url(#p8bc985970b)" style="fill: #1f77b4"/>
   </g>
   <g id="patch_169">
    <path d="M 252.358928 266.2 
L 253.157882 266.2 
L 253.157882 247.625455 
L 252.358928 247.625455 
z
" clip-path="url(#p8bc985970b)" style="fill: #1f77b4"/>
   </g>
   <g id="patch_170">
    <path d="M 253.35762 266.2 
L 254.156573 266.2 
L 254.156573 247.625455 
L 253.35762 247.625455 
z
" clip-path="url(#p8bc985970b)" style="fill: #1f77b4"/>
   </g>
   <g id="patch_171">
    <path d="M 254.356311 266.2 
L 255.155265 266.2 
L 255.155265 247.625455 
L 254.356311 247.625455 
z
" clip-path="url(#p8bc985970b)" style="fill: #1f77b4"/>
   </g>
   <g id="patch_172">
    <path d="M 255.355003 266.2 
L 256.153956 266.2 
L 256.153956 247.625455 
L 255.355003 247.625455 
z
" clip-path="url(#p8bc985970b)" style="fill: #1f77b4"/>
   </g>
   <g id="patch_173">
    <path d="M 256.353695 266.2 
L 257.152648 266.2 
L 257.152648 247.625455 
L 256.353695 247.625455 
z
" clip-path="url(#p8bc985970b)" style="fill: #1f77b4"/>
   </g>
   <g id="patch_174">
    <path d="M 257.352386 266.2 
L 258.15134 266.2 
L 258.15134 247.625455 
L 257.352386 247.625455 
z
" clip-path="url(#p8bc985970b)" style="fill: #1f77b4"/>
   </g>
   <g id="patch_175">
    <path d="M 258.351078 266.2 
L 259.150031 266.2 
L 259.150031 247.625455 
L 258.351078 247.625455 
z
" clip-path="url(#p8bc985970b)" style="fill: #1f77b4"/>
   </g>
   <g id="patch_176">
    <path d="M 259.34977 266.2 
L 260.148723 266.2 
L 260.148723 247.625455 
L 259.34977 247.625455 
z
" clip-path="url(#p8bc985970b)" style="fill: #1f77b4"/>
   </g>
   <g id="patch_177">
    <path d="M 260.348461 266.2 
L 261.147414 266.2 
L 261.147414 247.625455 
L 260.348461 247.625455 
z
" clip-path="url(#p8bc985970b)" style="fill: #1f77b4"/>
   </g>
   <g id="patch_178">
    <path d="M 261.347153 266.2 
L 262.146106 266.2 
L 262.146106 247.625455 
L 261.347153 247.625455 
z
" clip-path="url(#p8bc985970b)" style="fill: #1f77b4"/>
   </g>
   <g id="patch_179">
    <path d="M 262.345844 266.2 
L 263.144798 266.2 
L 263.144798 247.625455 
L 262.345844 247.625455 
z
" clip-path="url(#p8bc985970b)" style="fill: #1f77b4"/>
   </g>
   <g id="patch_180">
    <path d="M 263.344536 266.2 
L 264.143489 266.2 
L 264.143489 247.625455 
L 263.344536 247.625455 
z
" clip-path="url(#p8bc985970b)" style="fill: #1f77b4"/>
   </g>
   <g id="patch_181">
    <path d="M 264.343228 266.2 
L 265.142181 266.2 
L 265.142181 247.625455 
L 264.343228 247.625455 
z
" clip-path="url(#p8bc985970b)" style="fill: #1f77b4"/>
   </g>
   <g id="patch_182">
    <path d="M 265.341919 266.2 
L 266.140873 266.2 
L 266.140873 247.625455 
L 265.341919 247.625455 
z
" clip-path="url(#p8bc985970b)" style="fill: #1f77b4"/>
   </g>
   <g id="patch_183">
    <path d="M 266.340611 266.2 
L 267.139564 266.2 
L 267.139564 247.625455 
L 266.340611 247.625455 
z
" clip-path="url(#p8bc985970b)" style="fill: #1f77b4"/>
   </g>
   <g id="patch_184">
    <path d="M 267.339303 266.2 
L 268.138256 266.2 
L 268.138256 247.625455 
L 267.339303 247.625455 
z
" clip-path="url(#p8bc985970b)" style="fill: #1f77b4"/>
   </g>
   <g id="patch_185">
    <path d="M 268.337994 266.2 
L 269.136947 266.2 
L 269.136947 247.625455 
L 268.337994 247.625455 
z
" clip-path="url(#p8bc985970b)" style="fill: #1f77b4"/>
   </g>
   <g id="patch_186">
    <path d="M 269.336686 266.2 
L 270.135639 266.2 
L 270.135639 247.625455 
L 269.336686 247.625455 
z
" clip-path="url(#p8bc985970b)" style="fill: #1f77b4"/>
   </g>
   <g id="patch_187">
    <path d="M 270.335377 266.2 
L 271.134331 266.2 
L 271.134331 247.625455 
L 270.335377 247.625455 
z
" clip-path="url(#p8bc985970b)" style="fill: #1f77b4"/>
   </g>
   <g id="patch_188">
    <path d="M 271.334069 266.2 
L 272.133022 266.2 
L 272.133022 247.625455 
L 271.334069 247.625455 
z
" clip-path="url(#p8bc985970b)" style="fill: #1f77b4"/>
   </g>
   <g id="patch_189">
    <path d="M 272.332761 266.2 
L 273.131714 266.2 
L 273.131714 247.625455 
L 272.332761 247.625455 
z
" clip-path="url(#p8bc985970b)" style="fill: #1f77b4"/>
   </g>
   <g id="patch_190">
    <path d="M 273.331452 266.2 
L 274.130406 266.2 
L 274.130406 247.625455 
L 273.331452 247.625455 
z
" clip-path="url(#p8bc985970b)" style="fill: #1f77b4"/>
   </g>
   <g id="patch_191">
    <path d="M 274.330144 266.2 
L 275.129097 266.2 
L 275.129097 247.625455 
L 274.330144 247.625455 
z
" clip-path="url(#p8bc985970b)" style="fill: #1f77b4"/>
   </g>
   <g id="patch_192">
    <path d="M 275.328836 266.2 
L 276.127789 266.2 
L 276.127789 247.625455 
L 275.328836 247.625455 
z
" clip-path="url(#p8bc985970b)" style="fill: #1f77b4"/>
   </g>
   <g id="patch_193">
    <path d="M 276.327527 266.2 
L 277.12648 266.2 
L 277.12648 247.625455 
L 276.327527 247.625455 
z
" clip-path="url(#p8bc985970b)" style="fill: #1f77b4"/>
   </g>
   <g id="patch_194">
    <path d="M 277.326219 266.2 
L 278.125172 266.2 
L 278.125172 247.625455 
L 277.326219 247.625455 
z
" clip-path="url(#p8bc985970b)" style="fill: #1f77b4"/>
   </g>
   <g id="patch_195">
    <path d="M 278.32491 266.2 
L 279.123864 266.2 
L 279.123864 247.625455 
L 278.32491 247.625455 
z
" clip-path="url(#p8bc985970b)" style="fill: #1f77b4"/>
   </g>
   <g id="patch_196">
    <path d="M 279.323602 266.2 
L 280.122555 266.2 
L 280.122555 247.625455 
L 279.323602 247.625455 
z
" clip-path="url(#p8bc985970b)" style="fill: #1f77b4"/>
   </g>
   <g id="patch_197">
    <path d="M 280.322294 266.2 
L 281.121247 266.2 
L 281.121247 247.625455 
L 280.322294 247.625455 
z
" clip-path="url(#p8bc985970b)" style="fill: #1f77b4"/>
   </g>
   <g id="patch_198">
    <path d="M 281.320985 266.2 
L 282.119939 266.2 
L 282.119939 247.625455 
L 281.320985 247.625455 
z
" clip-path="url(#p8bc985970b)" style="fill: #1f77b4"/>
   </g>
   <g id="patch_199">
    <path d="M 282.319677 266.2 
L 283.11863 266.2 
L 283.11863 247.625455 
L 282.319677 247.625455 
z
" clip-path="url(#p8bc985970b)" style="fill: #1f77b4"/>
   </g>
   <g id="patch_200">
    <path d="M 283.318368 266.2 
L 284.117322 266.2 
L 284.117322 247.625455 
L 283.318368 247.625455 
z
" clip-path="url(#p8bc985970b)" style="fill: #1f77b4"/>
   </g>
   <g id="patch_201">
    <path d="M 284.31706 266.2 
L 285.116013 266.2 
L 285.116013 247.625455 
L 284.31706 247.625455 
z
" clip-path="url(#p8bc985970b)" style="fill: #1f77b4"/>
   </g>
   <g id="patch_202">
    <path d="M 285.315752 266.2 
L 286.114705 266.2 
L 286.114705 247.625455 
L 285.315752 247.625455 
z
" clip-path="url(#p8bc985970b)" style="fill: #1f77b4"/>
   </g>
   <g id="patch_203">
    <path d="M 286.314443 266.2 
L 287.113397 266.2 
L 287.113397 247.625455 
L 286.314443 247.625455 
z
" clip-path="url(#p8bc985970b)" style="fill: #1f77b4"/>
   </g>
   <g id="patch_204">
    <path d="M 287.313135 266.2 
L 288.112088 266.2 
L 288.112088 247.625455 
L 287.313135 247.625455 
z
" clip-path="url(#p8bc985970b)" style="fill: #1f77b4"/>
   </g>
   <g id="patch_205">
    <path d="M 288.311827 266.2 
L 289.11078 266.2 
L 289.11078 247.625455 
L 288.311827 247.625455 
z
" clip-path="url(#p8bc985970b)" style="fill: #1f77b4"/>
   </g>
   <g id="patch_206">
    <path d="M 289.310518 266.2 
L 290.109471 266.2 
L 290.109471 247.625455 
L 289.310518 247.625455 
z
" clip-path="url(#p8bc985970b)" style="fill: #1f77b4"/>
   </g>
   <g id="patch_207">
    <path d="M 290.30921 266.2 
L 291.108163 266.2 
L 291.108163 247.625455 
L 290.30921 247.625455 
z
" clip-path="url(#p8bc985970b)" style="fill: #1f77b4"/>
   </g>
   <g id="patch_208">
    <path d="M 291.307901 266.2 
L 292.106855 266.2 
L 292.106855 247.625455 
L 291.307901 247.625455 
z
" clip-path="url(#p8bc985970b)" style="fill: #1f77b4"/>
   </g>
   <g id="patch_209">
    <path d="M 292.306593 266.2 
L 293.105546 266.2 
L 293.105546 247.625455 
L 292.306593 247.625455 
z
" clip-path="url(#p8bc985970b)" style="fill: #1f77b4"/>
   </g>
   <g id="patch_210">
    <path d="M 293.305285 266.2 
L 294.104238 266.2 
L 294.104238 247.625455 
L 293.305285 247.625455 
z
" clip-path="url(#p8bc985970b)" style="fill: #1f77b4"/>
   </g>
   <g id="patch_211">
    <path d="M 294.303976 266.2 
L 295.10293 266.2 
L 295.10293 247.625455 
L 294.303976 247.625455 
z
" clip-path="url(#p8bc985970b)" style="fill: #1f77b4"/>
   </g>
   <g id="patch_212">
    <path d="M 295.302668 266.2 
L 296.101621 266.2 
L 296.101621 247.625455 
L 295.302668 247.625455 
z
" clip-path="url(#p8bc985970b)" style="fill: #1f77b4"/>
   </g>
   <g id="patch_213">
    <path d="M 296.30136 266.2 
L 297.100313 266.2 
L 297.100313 247.625455 
L 296.30136 247.625455 
z
" clip-path="url(#p8bc985970b)" style="fill: #1f77b4"/>
   </g>
   <g id="patch_214">
    <path d="M 297.300051 266.2 
L 298.099004 266.2 
L 298.099004 247.625455 
L 297.300051 247.625455 
z
" clip-path="url(#p8bc985970b)" style="fill: #1f77b4"/>
   </g>
   <g id="patch_215">
    <path d="M 298.298743 266.2 
L 299.097696 266.2 
L 299.097696 247.625455 
L 298.298743 247.625455 
z
" clip-path="url(#p8bc985970b)" style="fill: #1f77b4"/>
   </g>
   <g id="patch_216">
    <path d="M 299.297434 266.2 
L 300.096388 266.2 
L 300.096388 247.625455 
L 299.297434 247.625455 
z
" clip-path="url(#p8bc985970b)" style="fill: #1f77b4"/>
   </g>
   <g id="patch_217">
    <path d="M 300.296126 266.2 
L 301.095079 266.2 
L 301.095079 247.625455 
L 300.296126 247.625455 
z
" clip-path="url(#p8bc985970b)" style="fill: #1f77b4"/>
   </g>
   <g id="patch_218">
    <path d="M 301.294818 266.2 
L 302.093771 266.2 
L 302.093771 247.625455 
L 301.294818 247.625455 
z
" clip-path="url(#p8bc985970b)" style="fill: #1f77b4"/>
   </g>
   <g id="patch_219">
    <path d="M 302.293509 266.2 
L 303.092463 266.2 
L 303.092463 247.625455 
L 302.293509 247.625455 
z
" clip-path="url(#p8bc985970b)" style="fill: #1f77b4"/>
   </g>
   <g id="patch_220">
    <path d="M 303.292201 266.2 
L 304.091154 266.2 
L 304.091154 247.625455 
L 303.292201 247.625455 
z
" clip-path="url(#p8bc985970b)" style="fill: #1f77b4"/>
   </g>
   <g id="patch_221">
    <path d="M 304.290893 266.2 
L 305.089846 266.2 
L 305.089846 247.625455 
L 304.290893 247.625455 
z
" clip-path="url(#p8bc985970b)" style="fill: #1f77b4"/>
   </g>
   <g id="patch_222">
    <path d="M 305.289584 266.2 
L 306.088537 266.2 
L 306.088537 247.625455 
L 305.289584 247.625455 
z
" clip-path="url(#p8bc985970b)" style="fill: #1f77b4"/>
   </g>
   <g id="patch_223">
    <path d="M 306.288276 266.2 
L 307.087229 266.2 
L 307.087229 247.625455 
L 306.288276 247.625455 
z
" clip-path="url(#p8bc985970b)" style="fill: #1f77b4"/>
   </g>
   <g id="patch_224">
    <path d="M 307.286967 266.2 
L 308.085921 266.2 
L 308.085921 247.625455 
L 307.286967 247.625455 
z
" clip-path="url(#p8bc985970b)" style="fill: #1f77b4"/>
   </g>
   <g id="patch_225">
    <path d="M 308.285659 266.2 
L 309.084612 266.2 
L 309.084612 247.625455 
L 308.285659 247.625455 
z
" clip-path="url(#p8bc985970b)" style="fill: #1f77b4"/>
   </g>
   <g id="patch_226">
    <path d="M 309.284351 266.2 
L 310.083304 266.2 
L 310.083304 247.625455 
L 309.284351 247.625455 
z
" clip-path="url(#p8bc985970b)" style="fill: #1f77b4"/>
   </g>
   <g id="patch_227">
    <path d="M 310.283042 266.2 
L 311.081996 266.2 
L 311.081996 247.625455 
L 310.283042 247.625455 
z
" clip-path="url(#p8bc985970b)" style="fill: #1f77b4"/>
   </g>
   <g id="patch_228">
    <path d="M 311.281734 266.2 
L 312.080687 266.2 
L 312.080687 247.625455 
L 311.281734 247.625455 
z
" clip-path="url(#p8bc985970b)" style="fill: #1f77b4"/>
   </g>
   <g id="patch_229">
    <path d="M 312.280425 266.2 
L 313.079379 266.2 
L 313.079379 247.625455 
L 312.280425 247.625455 
z
" clip-path="url(#p8bc985970b)" style="fill: #1f77b4"/>
   </g>
   <g id="patch_230">
    <path d="M 313.279117 266.2 
L 314.07807 266.2 
L 314.07807 247.625455 
L 313.279117 247.625455 
z
" clip-path="url(#p8bc985970b)" style="fill: #1f77b4"/>
   </g>
   <g id="patch_231">
    <path d="M 314.277809 266.2 
L 315.076762 266.2 
L 315.076762 247.625455 
L 314.277809 247.625455 
z
" clip-path="url(#p8bc985970b)" style="fill: #1f77b4"/>
   </g>
   <g id="patch_232">
    <path d="M 315.2765 266.2 
L 316.075454 266.2 
L 316.075454 247.625455 
L 315.2765 247.625455 
z
" clip-path="url(#p8bc985970b)" style="fill: #1f77b4"/>
   </g>
   <g id="patch_233">
    <path d="M 316.275192 266.2 
L 317.074145 266.2 
L 317.074145 247.625455 
L 316.275192 247.625455 
z
" clip-path="url(#p8bc985970b)" style="fill: #1f77b4"/>
   </g>
   <g id="patch_234">
    <path d="M 317.273884 266.2 
L 318.072837 266.2 
L 318.072837 247.625455 
L 317.273884 247.625455 
z
" clip-path="url(#p8bc985970b)" style="fill: #1f77b4"/>
   </g>
   <g id="patch_235">
    <path d="M 318.272575 266.2 
L 319.071529 266.2 
L 319.071529 247.625455 
L 318.272575 247.625455 
z
" clip-path="url(#p8bc985970b)" style="fill: #1f77b4"/>
   </g>
   <g id="patch_236">
    <path d="M 319.271267 266.2 
L 320.07022 266.2 
L 320.07022 247.625455 
L 319.271267 247.625455 
z
" clip-path="url(#p8bc985970b)" style="fill: #1f77b4"/>
   </g>
   <g id="patch_237">
    <path d="M 320.269958 266.2 
L 321.068912 266.2 
L 321.068912 247.625455 
L 320.269958 247.625455 
z
" clip-path="url(#p8bc985970b)" style="fill: #1f77b4"/>
   </g>
   <g id="patch_238">
    <path d="M 321.26865 266.2 
L 322.067603 266.2 
L 322.067603 247.625455 
L 321.26865 247.625455 
z
" clip-path="url(#p8bc985970b)" style="fill: #1f77b4"/>
   </g>
   <g id="patch_239">
    <path d="M 322.267342 266.2 
L 323.066295 266.2 
L 323.066295 247.625455 
L 322.267342 247.625455 
z
" clip-path="url(#p8bc985970b)" style="fill: #1f77b4"/>
   </g>
   <g id="patch_240">
    <path d="M 323.266033 266.2 
L 324.064987 266.2 
L 324.064987 247.625455 
L 323.266033 247.625455 
z
" clip-path="url(#p8bc985970b)" style="fill: #1f77b4"/>
   </g>
   <g id="patch_241">
    <path d="M 324.264725 266.2 
L 325.063678 266.2 
L 325.063678 247.625455 
L 324.264725 247.625455 
z
" clip-path="url(#p8bc985970b)" style="fill: #1f77b4"/>
   </g>
   <g id="patch_242">
    <path d="M 325.263417 266.2 
L 326.06237 266.2 
L 326.06237 247.625455 
L 325.263417 247.625455 
z
" clip-path="url(#p8bc985970b)" style="fill: #1f77b4"/>
   </g>
   <g id="patch_243">
    <path d="M 326.262108 266.2 
L 327.061061 266.2 
L 327.061061 247.625455 
L 326.262108 247.625455 
z
" clip-path="url(#p8bc985970b)" style="fill: #1f77b4"/>
   </g>
   <g id="patch_244">
    <path d="M 327.2608 266.2 
L 328.059753 266.2 
L 328.059753 247.625455 
L 327.2608 247.625455 
z
" clip-path="url(#p8bc985970b)" style="fill: #1f77b4"/>
   </g>
   <g id="patch_245">
    <path d="M 328.259491 266.2 
L 329.058445 266.2 
L 329.058445 256.912727 
L 328.259491 256.912727 
z
" clip-path="url(#p8bc985970b)" style="fill: #1f77b4"/>
   </g>
   <g id="patch_246">
    <path d="M 329.258183 266.2 
L 330.057136 266.2 
L 330.057136 256.912727 
L 329.258183 256.912727 
z
" clip-path="url(#p8bc985970b)" style="fill: #1f77b4"/>
   </g>
   <g id="patch_247">
    <path d="M 330.256875 266.2 
L 331.055828 266.2 
L 331.055828 256.912727 
L 330.256875 256.912727 
z
" clip-path="url(#p8bc985970b)" style="fill: #1f77b4"/>
   </g>
   <g id="patch_248">
    <path d="M 331.255566 266.2 
L 332.05452 266.2 
L 332.05452 256.912727 
L 331.255566 256.912727 
z
" clip-path="url(#p8bc985970b)" style="fill: #1f77b4"/>
   </g>
   <g id="patch_249">
    <path d="M 332.254258 266.2 
L 333.053211 266.2 
L 333.053211 256.912727 
L 332.254258 256.912727 
z
" clip-path="url(#p8bc985970b)" style="fill: #1f77b4"/>
   </g>
   <g id="patch_250">
    <path d="M 333.25295 266.2 
L 334.051903 266.2 
L 334.051903 256.912727 
L 333.25295 256.912727 
z
" clip-path="url(#p8bc985970b)" style="fill: #1f77b4"/>
   </g>
   <g id="patch_251">
    <path d="M 334.251641 266.2 
L 335.050594 266.2 
L 335.050594 256.912727 
L 334.251641 256.912727 
z
" clip-path="url(#p8bc985970b)" style="fill: #1f77b4"/>
   </g>
   <g id="patch_252">
    <path d="M 335.250333 266.2 
L 336.049286 266.2 
L 336.049286 256.912727 
L 335.250333 256.912727 
z
" clip-path="url(#p8bc985970b)" style="fill: #1f77b4"/>
   </g>
   <g id="patch_253">
    <path d="M 336.249024 266.2 
L 337.047978 266.2 
L 337.047978 256.912727 
L 336.249024 256.912727 
z
" clip-path="url(#p8bc985970b)" style="fill: #1f77b4"/>
   </g>
   <g id="patch_254">
    <path d="M 337.247716 266.2 
L 338.046669 266.2 
L 338.046669 256.912727 
L 337.247716 256.912727 
z
" clip-path="url(#p8bc985970b)" style="fill: #1f77b4"/>
   </g>
   <g id="patch_255">
    <path d="M 338.246408 266.2 
L 339.045361 266.2 
L 339.045361 256.912727 
L 338.246408 256.912727 
z
" clip-path="url(#p8bc985970b)" style="fill: #1f77b4"/>
   </g>
   <g id="patch_256">
    <path d="M 339.245099 266.2 
L 340.044053 266.2 
L 340.044053 256.912727 
L 339.245099 256.912727 
z
" clip-path="url(#p8bc985970b)" style="fill: #1f77b4"/>
   </g>
   <g id="patch_257">
    <path d="M 340.243791 266.2 
L 341.042744 266.2 
L 341.042744 256.912727 
L 340.243791 256.912727 
z
" clip-path="url(#p8bc985970b)" style="fill: #1f77b4"/>
   </g>
   <g id="patch_258">
    <path d="M 341.242482 266.2 
L 342.041436 266.2 
L 342.041436 256.912727 
L 341.242482 256.912727 
z
" clip-path="url(#p8bc985970b)" style="fill: #1f77b4"/>
   </g>
   <g id="patch_259">
    <path d="M 342.241174 266.2 
L 343.040127 266.2 
L 343.040127 256.912727 
L 342.241174 256.912727 
z
" clip-path="url(#p8bc985970b)" style="fill: #1f77b4"/>
   </g>
   <g id="patch_260">
    <path d="M 343.239866 266.2 
L 344.038819 266.2 
L 344.038819 256.912727 
L 343.239866 256.912727 
z
" clip-path="url(#p8bc985970b)" style="fill: #1f77b4"/>
   </g>
   <g id="patch_261">
    <path d="M 344.238557 266.2 
L 345.037511 266.2 
L 345.037511 256.912727 
L 344.238557 256.912727 
z
" clip-path="url(#p8bc985970b)" style="fill: #1f77b4"/>
   </g>
   <g id="patch_262">
    <path d="M 345.237249 266.2 
L 346.036202 266.2 
L 346.036202 256.912727 
L 345.237249 256.912727 
z
" clip-path="url(#p8bc985970b)" style="fill: #1f77b4"/>
   </g>
   <g id="patch_263">
    <path d="M 346.235941 266.2 
L 347.034894 266.2 
L 347.034894 256.912727 
L 346.235941 256.912727 
z
" clip-path="url(#p8bc985970b)" style="fill: #1f77b4"/>
   </g>
   <g id="patch_264">
    <path d="M 347.234632 266.2 
L 348.033586 266.2 
L 348.033586 256.912727 
L 347.234632 256.912727 
z
" clip-path="url(#p8bc985970b)" style="fill: #1f77b4"/>
   </g>
   <g id="patch_265">
    <path d="M 348.233324 266.2 
L 349.032277 266.2 
L 349.032277 256.912727 
L 348.233324 256.912727 
z
" clip-path="url(#p8bc985970b)" style="fill: #1f77b4"/>
   </g>
   <g id="patch_266">
    <path d="M 349.232015 266.2 
L 350.030969 266.2 
L 350.030969 256.912727 
L 349.232015 256.912727 
z
" clip-path="url(#p8bc985970b)" style="fill: #1f77b4"/>
   </g>
   <g id="patch_267">
    <path d="M 350.230707 266.2 
L 351.02966 266.2 
L 351.02966 256.912727 
L 350.230707 256.912727 
z
" clip-path="url(#p8bc985970b)" style="fill: #1f77b4"/>
   </g>
   <g id="patch_268">
    <path d="M 351.229399 266.2 
L 352.028352 266.2 
L 352.028352 256.912727 
L 351.229399 256.912727 
z
" clip-path="url(#p8bc985970b)" style="fill: #1f77b4"/>
   </g>
   <g id="patch_269">
    <path d="M 352.22809 266.2 
L 353.027044 266.2 
L 353.027044 256.912727 
L 352.22809 256.912727 
z
" clip-path="url(#p8bc985970b)" style="fill: #1f77b4"/>
   </g>
   <g id="patch_270">
    <path d="M 353.226782 266.2 
L 354.025735 266.2 
L 354.025735 256.912727 
L 353.226782 256.912727 
z
" clip-path="url(#p8bc985970b)" style="fill: #1f77b4"/>
   </g>
   <g id="patch_271">
    <path d="M 354.225474 266.2 
L 355.024427 266.2 
L 355.024427 256.912727 
L 354.225474 256.912727 
z
" clip-path="url(#p8bc985970b)" style="fill: #1f77b4"/>
   </g>
   <g id="patch_272">
    <path d="M 355.224165 266.2 
L 356.023118 266.2 
L 356.023118 256.912727 
L 355.224165 256.912727 
z
" clip-path="url(#p8bc985970b)" style="fill: #1f77b4"/>
   </g>
   <g id="patch_273">
    <path d="M 356.222857 266.2 
L 357.02181 266.2 
L 357.02181 256.912727 
L 356.222857 256.912727 
z
" clip-path="url(#p8bc985970b)" style="fill: #1f77b4"/>
   </g>
   <g id="patch_274">
    <path d="M 357.221548 266.2 
L 358.020502 266.2 
L 358.020502 256.912727 
L 357.221548 256.912727 
z
" clip-path="url(#p8bc985970b)" style="fill: #1f77b4"/>
   </g>
   <g id="patch_275">
    <path d="M 358.22024 266.2 
L 359.019193 266.2 
L 359.019193 256.912727 
L 358.22024 256.912727 
z
" clip-path="url(#p8bc985970b)" style="fill: #1f77b4"/>
   </g>
   <g id="patch_276">
    <path d="M 359.218932 266.2 
L 360.017885 266.2 
L 360.017885 256.912727 
L 359.218932 256.912727 
z
" clip-path="url(#p8bc985970b)" style="fill: #1f77b4"/>
   </g>
   <g id="patch_277">
    <path d="M 360.217623 266.2 
L 361.016577 266.2 
L 361.016577 256.912727 
L 360.217623 256.912727 
z
" clip-path="url(#p8bc985970b)" style="fill: #1f77b4"/>
   </g>
   <g id="patch_278">
    <path d="M 361.216315 266.2 
L 362.015268 266.2 
L 362.015268 256.912727 
L 361.216315 256.912727 
z
" clip-path="url(#p8bc985970b)" style="fill: #1f77b4"/>
   </g>
   <g id="patch_279">
    <path d="M 362.215007 266.2 
L 363.01396 266.2 
L 363.01396 256.912727 
L 362.215007 256.912727 
z
" clip-path="url(#p8bc985970b)" style="fill: #1f77b4"/>
   </g>
   <g id="patch_280">
    <path d="M 363.213698 266.2 
L 364.012651 266.2 
L 364.012651 256.912727 
L 363.213698 256.912727 
z
" clip-path="url(#p8bc985970b)" style="fill: #1f77b4"/>
   </g>
   <g id="patch_281">
    <path d="M 364.21239 266.2 
L 365.011343 266.2 
L 365.011343 256.912727 
L 364.21239 256.912727 
z
" clip-path="url(#p8bc985970b)" style="fill: #1f77b4"/>
   </g>
   <g id="patch_282">
    <path d="M 365.211081 266.2 
L 366.010035 266.2 
L 366.010035 256.912727 
L 365.211081 256.912727 
z
" clip-path="url(#p8bc985970b)" style="fill: #1f77b4"/>
   </g>
   <g id="patch_283">
    <path d="M 366.209773 266.2 
L 367.008726 266.2 
L 367.008726 256.912727 
L 366.209773 256.912727 
z
" clip-path="url(#p8bc985970b)" style="fill: #1f77b4"/>
   </g>
   <g id="patch_284">
    <path d="M 367.208465 266.2 
L 368.007418 266.2 
L 368.007418 256.912727 
L 367.208465 256.912727 
z
" clip-path="url(#p8bc985970b)" style="fill: #1f77b4"/>
   </g>
   <g id="patch_285">
    <path d="M 368.207156 266.2 
L 369.00611 266.2 
L 369.00611 256.912727 
L 368.207156 256.912727 
z
" clip-path="url(#p8bc985970b)" style="fill: #1f77b4"/>
   </g>
   <g id="patch_286">
    <path d="M 369.205848 266.2 
L 370.004801 266.2 
L 370.004801 256.912727 
L 369.205848 256.912727 
z
" clip-path="url(#p8bc985970b)" style="fill: #1f77b4"/>
   </g>
   <g id="patch_287">
    <path d="M 370.204539 266.2 
L 371.003493 266.2 
L 371.003493 256.912727 
L 370.204539 256.912727 
z
" clip-path="url(#p8bc985970b)" style="fill: #1f77b4"/>
   </g>
   <g id="patch_288">
    <path d="M 371.203231 266.2 
L 372.002184 266.2 
L 372.002184 256.912727 
L 371.203231 256.912727 
z
" clip-path="url(#p8bc985970b)" style="fill: #1f77b4"/>
   </g>
   <g id="patch_289">
    <path d="M 372.201923 266.2 
L 373.000876 266.2 
L 373.000876 256.912727 
L 372.201923 256.912727 
z
" clip-path="url(#p8bc985970b)" style="fill: #1f77b4"/>
   </g>
   <g id="patch_290">
    <path d="M 373.200614 266.2 
L 373.999568 266.2 
L 373.999568 256.912727 
L 373.200614 256.912727 
z
" clip-path="url(#p8bc985970b)" style="fill: #1f77b4"/>
   </g>
   <g id="patch_291">
    <path d="M 374.199306 266.2 
L 374.998259 266.2 
L 374.998259 256.912727 
L 374.199306 256.912727 
z
" clip-path="url(#p8bc985970b)" style="fill: #1f77b4"/>
   </g>
   <g id="patch_292">
    <path d="M 375.197998 266.2 
L 375.996951 266.2 
L 375.996951 256.912727 
L 375.197998 256.912727 
z
" clip-path="url(#p8bc985970b)" style="fill: #1f77b4"/>
   </g>
   <g id="patch_293">
    <path d="M 376.196689 266.2 
L 376.995643 266.2 
L 376.995643 256.912727 
L 376.196689 256.912727 
z
" clip-path="url(#p8bc985970b)" style="fill: #1f77b4"/>
   </g>
   <g id="patch_294">
    <path d="M 377.195381 266.2 
L 377.994334 266.2 
L 377.994334 256.912727 
L 377.195381 256.912727 
z
" clip-path="url(#p8bc985970b)" style="fill: #1f77b4"/>
   </g>
   <g id="patch_295">
    <path d="M 378.194072 266.2 
L 378.993026 266.2 
L 378.993026 256.912727 
L 378.194072 256.912727 
z
" clip-path="url(#p8bc985970b)" style="fill: #1f77b4"/>
   </g>
   <g id="patch_296">
    <path d="M 379.192764 266.2 
L 379.991717 266.2 
L 379.991717 256.912727 
L 379.192764 256.912727 
z
" clip-path="url(#p8bc985970b)" style="fill: #1f77b4"/>
   </g>
   <g id="patch_297">
    <path d="M 380.191456 266.2 
L 380.990409 266.2 
L 380.990409 256.912727 
L 380.191456 256.912727 
z
" clip-path="url(#p8bc985970b)" style="fill: #1f77b4"/>
   </g>
   <g id="patch_298">
    <path d="M 381.190147 266.2 
L 381.989101 266.2 
L 381.989101 256.912727 
L 381.190147 256.912727 
z
" clip-path="url(#p8bc985970b)" style="fill: #1f77b4"/>
   </g>
   <g id="patch_299">
    <path d="M 382.188839 266.2 
L 382.987792 266.2 
L 382.987792 256.912727 
L 382.188839 256.912727 
z
" clip-path="url(#p8bc985970b)" style="fill: #1f77b4"/>
   </g>
   <g id="patch_300">
    <path d="M 383.187531 266.2 
L 383.986484 266.2 
L 383.986484 256.912727 
L 383.187531 256.912727 
z
" clip-path="url(#p8bc985970b)" style="fill: #1f77b4"/>
   </g>
   <g id="patch_301">
    <path d="M 384.186222 266.2 
L 384.985175 266.2 
L 384.985175 256.912727 
L 384.186222 256.912727 
z
" clip-path="url(#p8bc985970b)" style="fill: #1f77b4"/>
   </g>
   <g id="patch_302">
    <path d="M 385.184914 266.2 
L 385.983867 266.2 
L 385.983867 256.912727 
L 385.184914 256.912727 
z
" clip-path="url(#p8bc985970b)" style="fill: #1f77b4"/>
   </g>
   <g id="patch_303">
    <path d="M 386.183605 266.2 
L 386.982559 266.2 
L 386.982559 256.912727 
L 386.183605 256.912727 
z
" clip-path="url(#p8bc985970b)" style="fill: #1f77b4"/>
   </g>
   <g id="patch_304">
    <path d="M 387.182297 266.2 
L 387.98125 266.2 
L 387.98125 256.912727 
L 387.182297 256.912727 
z
" clip-path="url(#p8bc985970b)" style="fill: #1f77b4"/>
   </g>
   <g id="patch_305">
    <path d="M 388.180989 266.2 
L 388.979942 266.2 
L 388.979942 256.912727 
L 388.180989 256.912727 
z
" clip-path="url(#p8bc985970b)" style="fill: #1f77b4"/>
   </g>
   <g id="patch_306">
    <path d="M 389.17968 266.2 
L 389.978634 266.2 
L 389.978634 256.912727 
L 389.17968 256.912727 
z
" clip-path="url(#p8bc985970b)" style="fill: #1f77b4"/>
   </g>
   <g id="patch_307">
    <path d="M 390.178372 266.2 
L 390.977325 266.2 
L 390.977325 256.912727 
L 390.178372 256.912727 
z
" clip-path="url(#p8bc985970b)" style="fill: #1f77b4"/>
   </g>
   <g id="patch_308">
    <path d="M 391.177064 266.2 
L 391.976017 266.2 
L 391.976017 256.912727 
L 391.177064 256.912727 
z
" clip-path="url(#p8bc985970b)" style="fill: #1f77b4"/>
   </g>
   <g id="patch_309">
    <path d="M 392.175755 266.2 
L 392.974708 266.2 
L 392.974708 256.912727 
L 392.175755 256.912727 
z
" clip-path="url(#p8bc985970b)" style="fill: #1f77b4"/>
   </g>
   <g id="patch_310">
    <path d="M 393.174447 266.2 
L 393.9734 266.2 
L 393.9734 256.912727 
L 393.174447 256.912727 
z
" clip-path="url(#p8bc985970b)" style="fill: #1f77b4"/>
   </g>
   <g id="patch_311">
    <path d="M 394.173138 266.2 
L 394.972092 266.2 
L 394.972092 256.912727 
L 394.173138 256.912727 
z
" clip-path="url(#p8bc985970b)" style="fill: #1f77b4"/>
   </g>
   <g id="patch_312">
    <path d="M 395.17183 266.2 
L 395.970783 266.2 
L 395.970783 256.912727 
L 395.17183 256.912727 
z
" clip-path="url(#p8bc985970b)" style="fill: #1f77b4"/>
   </g>
   <g id="patch_313">
    <path d="M 396.170522 266.2 
L 396.969475 266.2 
L 396.969475 256.912727 
L 396.170522 256.912727 
z
" clip-path="url(#p8bc985970b)" style="fill: #1f77b4"/>
   </g>
   <g id="patch_314">
    <path d="M 397.169213 266.2 
L 397.968167 266.2 
L 397.968167 256.912727 
L 397.169213 256.912727 
z
" clip-path="url(#p8bc985970b)" style="fill: #1f77b4"/>
   </g>
   <g id="patch_315">
    <path d="M 398.167905 266.2 
L 398.966858 266.2 
L 398.966858 256.912727 
L 398.167905 256.912727 
z
" clip-path="url(#p8bc985970b)" style="fill: #1f77b4"/>
   </g>
   <g id="patch_316">
    <path d="M 399.166596 266.2 
L 399.96555 266.2 
L 399.96555 256.912727 
L 399.166596 256.912727 
z
" clip-path="url(#p8bc985970b)" style="fill: #1f77b4"/>
   </g>
   <g id="patch_317">
    <path d="M 400.165288 266.2 
L 400.964241 266.2 
L 400.964241 256.912727 
L 400.165288 256.912727 
z
" clip-path="url(#p8bc985970b)" style="fill: #1f77b4"/>
   </g>
   <g id="patch_318">
    <path d="M 401.16398 266.2 
L 401.962933 266.2 
L 401.962933 256.912727 
L 401.16398 256.912727 
z
" clip-path="url(#p8bc985970b)" style="fill: #1f77b4"/>
   </g>
   <g id="patch_319">
    <path d="M 402.162671 266.2 
L 402.961625 266.2 
L 402.961625 256.912727 
L 402.162671 256.912727 
z
" clip-path="url(#p8bc985970b)" style="fill: #1f77b4"/>
   </g>
   <g id="patch_320">
    <path d="M 403.161363 266.2 
L 403.960316 266.2 
L 403.960316 256.912727 
L 403.161363 256.912727 
z
" clip-path="url(#p8bc985970b)" style="fill: #1f77b4"/>
   </g>
   <g id="patch_321">
    <path d="M 404.160055 266.2 
L 404.959008 266.2 
L 404.959008 256.912727 
L 404.160055 256.912727 
z
" clip-path="url(#p8bc985970b)" style="fill: #1f77b4"/>
   </g>
   <g id="patch_322">
    <path d="M 405.158746 266.2 
L 405.9577 266.2 
L 405.9577 256.912727 
L 405.158746 256.912727 
z
" clip-path="url(#p8bc985970b)" style="fill: #1f77b4"/>
   </g>
   <g id="patch_323">
    <path d="M 406.157438 266.2 
L 406.956391 266.2 
L 406.956391 256.912727 
L 406.157438 256.912727 
z
" clip-path="url(#p8bc985970b)" style="fill: #1f77b4"/>
   </g>
   <g id="patch_324">
    <path d="M 407.156129 266.2 
L 407.955083 266.2 
L 407.955083 256.912727 
L 407.156129 256.912727 
z
" clip-path="url(#p8bc985970b)" style="fill: #1f77b4"/>
   </g>
   <g id="patch_325">
    <path d="M 408.154821 266.2 
L 408.953774 266.2 
L 408.953774 256.912727 
L 408.154821 256.912727 
z
" clip-path="url(#p8bc985970b)" style="fill: #1f77b4"/>
   </g>
   <g id="patch_326">
    <path d="M 409.153513 266.2 
L 409.952466 266.2 
L 409.952466 256.912727 
L 409.153513 256.912727 
z
" clip-path="url(#p8bc985970b)" style="fill: #1f77b4"/>
   </g>
   <g id="patch_327">
    <path d="M 410.152204 266.2 
L 410.951158 266.2 
L 410.951158 256.912727 
L 410.152204 256.912727 
z
" clip-path="url(#p8bc985970b)" style="fill: #1f77b4"/>
   </g>
   <g id="patch_328">
    <path d="M 411.150896 266.2 
L 411.949849 266.2 
L 411.949849 256.912727 
L 411.150896 256.912727 
z
" clip-path="url(#p8bc985970b)" style="fill: #1f77b4"/>
   </g>
   <g id="patch_329">
    <path d="M 412.149588 266.2 
L 412.948541 266.2 
L 412.948541 256.912727 
L 412.149588 256.912727 
z
" clip-path="url(#p8bc985970b)" style="fill: #1f77b4"/>
   </g>
   <g id="patch_330">
    <path d="M 413.148279 266.2 
L 413.947232 266.2 
L 413.947232 256.912727 
L 413.148279 256.912727 
z
" clip-path="url(#p8bc985970b)" style="fill: #1f77b4"/>
   </g>
   <g id="patch_331">
    <path d="M 414.146971 266.2 
L 414.945924 266.2 
L 414.945924 256.912727 
L 414.146971 256.912727 
z
" clip-path="url(#p8bc985970b)" style="fill: #1f77b4"/>
   </g>
   <g id="patch_332">
    <path d="M 415.145662 266.2 
L 415.944616 266.2 
L 415.944616 256.912727 
L 415.145662 256.912727 
z
" clip-path="url(#p8bc985970b)" style="fill: #1f77b4"/>
   </g>
   <g id="patch_333">
    <path d="M 416.144354 266.2 
L 416.943307 266.2 
L 416.943307 256.912727 
L 416.144354 256.912727 
z
" clip-path="url(#p8bc985970b)" style="fill: #1f77b4"/>
   </g>
   <g id="patch_334">
    <path d="M 417.143046 266.2 
L 417.941999 266.2 
L 417.941999 256.912727 
L 417.143046 256.912727 
z
" clip-path="url(#p8bc985970b)" style="fill: #1f77b4"/>
   </g>
   <g id="patch_335">
    <path d="M 418.141737 266.2 
L 418.940691 266.2 
L 418.940691 256.912727 
L 418.141737 256.912727 
z
" clip-path="url(#p8bc985970b)" style="fill: #1f77b4"/>
   </g>
   <g id="patch_336">
    <path d="M 419.140429 266.2 
L 419.939382 266.2 
L 419.939382 256.912727 
L 419.140429 256.912727 
z
" clip-path="url(#p8bc985970b)" style="fill: #1f77b4"/>
   </g>
   <g id="patch_337">
    <path d="M 420.139121 266.2 
L 420.938074 266.2 
L 420.938074 256.912727 
L 420.139121 256.912727 
z
" clip-path="url(#p8bc985970b)" style="fill: #1f77b4"/>
   </g>
   <g id="patch_338">
    <path d="M 421.137812 266.2 
L 421.936765 266.2 
L 421.936765 256.912727 
L 421.137812 256.912727 
z
" clip-path="url(#p8bc985970b)" style="fill: #1f77b4"/>
   </g>
   <g id="patch_339">
    <path d="M 422.136504 266.2 
L 422.935457 266.2 
L 422.935457 256.912727 
L 422.136504 256.912727 
z
" clip-path="url(#p8bc985970b)" style="fill: #1f77b4"/>
   </g>
   <g id="patch_340">
    <path d="M 423.135195 266.2 
L 423.934149 266.2 
L 423.934149 256.912727 
L 423.135195 256.912727 
z
" clip-path="url(#p8bc985970b)" style="fill: #1f77b4"/>
   </g>
   <g id="patch_341">
    <path d="M 424.133887 266.2 
L 424.93284 266.2 
L 424.93284 256.912727 
L 424.133887 256.912727 
z
" clip-path="url(#p8bc985970b)" style="fill: #1f77b4"/>
   </g>
   <g id="patch_342">
    <path d="M 425.132579 266.2 
L 425.931532 266.2 
L 425.931532 256.912727 
L 425.132579 256.912727 
z
" clip-path="url(#p8bc985970b)" style="fill: #1f77b4"/>
   </g>
   <g id="patch_343">
    <path d="M 426.13127 266.2 
L 426.930224 266.2 
L 426.930224 256.912727 
L 426.13127 256.912727 
z
" clip-path="url(#p8bc985970b)" style="fill: #1f77b4"/>
   </g>
   <g id="patch_344">
    <path d="M 427.129962 266.2 
L 427.928915 266.2 
L 427.928915 256.912727 
L 427.129962 256.912727 
z
" clip-path="url(#p8bc985970b)" style="fill: #1f77b4"/>
   </g>
   <g id="patch_345">
    <path d="M 428.128654 266.2 
L 428.927607 266.2 
L 428.927607 256.912727 
L 428.128654 256.912727 
z
" clip-path="url(#p8bc985970b)" style="fill: #1f77b4"/>
   </g>
   <g id="patch_346">
    <path d="M 429.127345 266.2 
L 429.926298 266.2 
L 429.926298 256.912727 
L 429.127345 256.912727 
z
" clip-path="url(#p8bc985970b)" style="fill: #1f77b4"/>
   </g>
   <g id="patch_347">
    <path d="M 430.126037 266.2 
L 430.92499 266.2 
L 430.92499 256.912727 
L 430.126037 256.912727 
z
" clip-path="url(#p8bc985970b)" style="fill: #1f77b4"/>
   </g>
   <g id="patch_348">
    <path d="M 431.124728 266.2 
L 431.923682 266.2 
L 431.923682 256.912727 
L 431.124728 256.912727 
z
" clip-path="url(#p8bc985970b)" style="fill: #1f77b4"/>
   </g>
   <g id="patch_349">
    <path d="M 432.12342 266.2 
L 432.922373 266.2 
L 432.922373 256.912727 
L 432.12342 256.912727 
z
" clip-path="url(#p8bc985970b)" style="fill: #1f77b4"/>
   </g>
   <g id="patch_350">
    <path d="M 433.122112 266.2 
L 433.921065 266.2 
L 433.921065 256.912727 
L 433.122112 256.912727 
z
" clip-path="url(#p8bc985970b)" style="fill: #1f77b4"/>
   </g>
   <g id="patch_351">
    <path d="M 434.120803 266.2 
L 434.919757 266.2 
L 434.919757 256.912727 
L 434.120803 256.912727 
z
" clip-path="url(#p8bc985970b)" style="fill: #1f77b4"/>
   </g>
   <g id="patch_352">
    <path d="M 435.119495 266.2 
L 435.918448 266.2 
L 435.918448 256.912727 
L 435.119495 256.912727 
z
" clip-path="url(#p8bc985970b)" style="fill: #1f77b4"/>
   </g>
   <g id="patch_353">
    <path d="M 436.118186 266.2 
L 436.91714 266.2 
L 436.91714 256.912727 
L 436.118186 256.912727 
z
" clip-path="url(#p8bc985970b)" style="fill: #1f77b4"/>
   </g>
   <g id="patch_354">
    <path d="M 437.116878 266.2 
L 437.915831 266.2 
L 437.915831 256.912727 
L 437.116878 256.912727 
z
" clip-path="url(#p8bc985970b)" style="fill: #1f77b4"/>
   </g>
   <g id="patch_355">
    <path d="M 438.11557 266.2 
L 438.914523 266.2 
L 438.914523 256.912727 
L 438.11557 256.912727 
z
" clip-path="url(#p8bc985970b)" style="fill: #1f77b4"/>
   </g>
   <g id="patch_356">
    <path d="M 439.114261 266.2 
L 439.913215 266.2 
L 439.913215 256.912727 
L 439.114261 256.912727 
z
" clip-path="url(#p8bc985970b)" style="fill: #1f77b4"/>
   </g>
   <g id="patch_357">
    <path d="M 440.112953 266.2 
L 440.911906 266.2 
L 440.911906 256.912727 
L 440.112953 256.912727 
z
" clip-path="url(#p8bc985970b)" style="fill: #1f77b4"/>
   </g>
   <g id="patch_358">
    <path d="M 441.111645 266.2 
L 441.910598 266.2 
L 441.910598 256.912727 
L 441.111645 256.912727 
z
" clip-path="url(#p8bc985970b)" style="fill: #1f77b4"/>
   </g>
   <g id="patch_359">
    <path d="M 442.110336 266.2 
L 442.909289 266.2 
L 442.909289 256.912727 
L 442.110336 256.912727 
z
" clip-path="url(#p8bc985970b)" style="fill: #1f77b4"/>
   </g>
   <g id="patch_360">
    <path d="M 443.109028 266.2 
L 443.907981 266.2 
L 443.907981 256.912727 
L 443.109028 256.912727 
z
" clip-path="url(#p8bc985970b)" style="fill: #1f77b4"/>
   </g>
   <g id="patch_361">
    <path d="M 444.107719 266.2 
L 444.906673 266.2 
L 444.906673 256.912727 
L 444.107719 256.912727 
z
" clip-path="url(#p8bc985970b)" style="fill: #1f77b4"/>
   </g>
   <g id="patch_362">
    <path d="M 445.106411 266.2 
L 445.905364 266.2 
L 445.905364 256.912727 
L 445.106411 256.912727 
z
" clip-path="url(#p8bc985970b)" style="fill: #1f77b4"/>
   </g>
   <g id="patch_363">
    <path d="M 446.105103 266.2 
L 446.904056 266.2 
L 446.904056 256.912727 
L 446.105103 256.912727 
z
" clip-path="url(#p8bc985970b)" style="fill: #1f77b4"/>
   </g>
   <g id="patch_364">
    <path d="M 447.103794 266.2 
L 447.902748 266.2 
L 447.902748 256.912727 
L 447.103794 256.912727 
z
" clip-path="url(#p8bc985970b)" style="fill: #1f77b4"/>
   </g>
   <g id="patch_365">
    <path d="M 448.102486 266.2 
L 448.901439 266.2 
L 448.901439 256.912727 
L 448.102486 256.912727 
z
" clip-path="url(#p8bc985970b)" style="fill: #1f77b4"/>
   </g>
   <g id="patch_366">
    <path d="M 449.101178 266.2 
L 449.900131 266.2 
L 449.900131 256.912727 
L 449.101178 256.912727 
z
" clip-path="url(#p8bc985970b)" style="fill: #1f77b4"/>
   </g>
   <g id="matplotlib.axis_1">
    <g id="xtick_1">
     <g id="line2d_1">
      <defs>
       <path id="md38e0765d8" d="M 0 0 
L 0 3.5 
" style="stroke: #000000; stroke-width: 0.8"/>
      </defs>
      <g>
       <use xlink:href="#md38e0765d8" x="86.975596" y="266.2" style="stroke: #000000; stroke-width: 0.8"/>
      </g>
     </g>
     <g id="text_1">
      <!-- 1 -->
      <g transform="translate(77.431846 295.995312)scale(0.3 -0.3)">
       <defs>
        <path id="DejaVuSans-31" d="M 794 531 
L 1825 531 
L 1825 4091 
L 703 3866 
L 703 4441 
L 1819 4666 
L 2450 4666 
L 2450 531 
L 3481 531 
L 3481 0 
L 794 0 
L 794 531 
z
" transform="scale(0.015625)"/>
       </defs>
       <use xlink:href="#DejaVuSans-31"/>
      </g>
     </g>
    </g>
    <g id="xtick_2">
     <g id="line2d_2">
      <g>
       <use xlink:href="#md38e0765d8" x="186.844758" y="266.2" style="stroke: #000000; stroke-width: 0.8"/>
      </g>
     </g>
     <g id="text_2">
      <!-- 101 -->
      <g transform="translate(158.213508 295.995312)scale(0.3 -0.3)">
       <defs>
        <path id="DejaVuSans-30" d="M 2034 4250 
Q 1547 4250 1301 3770 
Q 1056 3291 1056 2328 
Q 1056 1369 1301 889 
Q 1547 409 2034 409 
Q 2525 409 2770 889 
Q 3016 1369 3016 2328 
Q 3016 3291 2770 3770 
Q 2525 4250 2034 4250 
z
M 2034 4750 
Q 2819 4750 3233 4129 
Q 3647 3509 3647 2328 
Q 3647 1150 3233 529 
Q 2819 -91 2034 -91 
Q 1250 -91 836 529 
Q 422 1150 422 2328 
Q 422 3509 836 4129 
Q 1250 4750 2034 4750 
z
" transform="scale(0.015625)"/>
       </defs>
       <use xlink:href="#DejaVuSans-31"/>
       <use xlink:href="#DejaVuSans-30" x="63.623047"/>
       <use xlink:href="#DejaVuSans-31" x="127.246094"/>
      </g>
     </g>
    </g>
    <g id="xtick_3">
     <g id="line2d_3">
      <g>
       <use xlink:href="#md38e0765d8" x="286.71392" y="266.2" style="stroke: #000000; stroke-width: 0.8"/>
      </g>
     </g>
     <g id="text_3">
      <!-- 201 -->
      <g transform="translate(258.08267 295.995312)scale(0.3 -0.3)">
       <defs>
        <path id="DejaVuSans-32" d="M 1228 531 
L 3431 531 
L 3431 0 
L 469 0 
L 469 531 
Q 828 903 1448 1529 
Q 2069 2156 2228 2338 
Q 2531 2678 2651 2914 
Q 2772 3150 2772 3378 
Q 2772 3750 2511 3984 
Q 2250 4219 1831 4219 
Q 1534 4219 1204 4116 
Q 875 4013 500 3803 
L 500 4441 
Q 881 4594 1212 4672 
Q 1544 4750 1819 4750 
Q 2544 4750 2975 4387 
Q 3406 4025 3406 3419 
Q 3406 3131 3298 2873 
Q 3191 2616 2906 2266 
Q 2828 2175 2409 1742 
Q 1991 1309 1228 531 
z
" transform="scale(0.015625)"/>
       </defs>
       <use xlink:href="#DejaVuSans-32"/>
       <use xlink:href="#DejaVuSans-30" x="63.623047"/>
       <use xlink:href="#DejaVuSans-31" x="127.246094"/>
      </g>
     </g>
    </g>
    <g id="xtick_4">
     <g id="line2d_4">
      <g>
       <use xlink:href="#md38e0765d8" x="386.583082" y="266.2" style="stroke: #000000; stroke-width: 0.8"/>
      </g>
     </g>
     <g id="text_4">
      <!-- 301 -->
      <g transform="translate(357.951832 295.995312)scale(0.3 -0.3)">
       <defs>
        <path id="DejaVuSans-33" d="M 2597 2516 
Q 3050 2419 3304 2112 
Q 3559 1806 3559 1356 
Q 3559 666 3084 287 
Q 2609 -91 1734 -91 
Q 1441 -91 1130 -33 
Q 819 25 488 141 
L 488 750 
Q 750 597 1062 519 
Q 1375 441 1716 441 
Q 2309 441 2620 675 
Q 2931 909 2931 1356 
Q 2931 1769 2642 2001 
Q 2353 2234 1838 2234 
L 1294 2234 
L 1294 2753 
L 1863 2753 
Q 2328 2753 2575 2939 
Q 2822 3125 2822 3475 
Q 2822 3834 2567 4026 
Q 2313 4219 1838 4219 
Q 1578 4219 1281 4162 
Q 984 4106 628 3988 
L 628 4550 
Q 988 4650 1302 4700 
Q 1616 4750 1894 4750 
Q 2613 4750 3031 4423 
Q 3450 4097 3450 3541 
Q 3450 3153 3228 2886 
Q 3006 2619 2597 2516 
z
" transform="scale(0.015625)"/>
       </defs>
       <use xlink:href="#DejaVuSans-33"/>
       <use xlink:href="#DejaVuSans-30" x="63.623047"/>
       <use xlink:href="#DejaVuSans-31" x="127.246094"/>
      </g>
     </g>
    </g>
    <g id="text_5">
     <!-- $c$ -->
     <g transform="translate(259.988125 329.029687)scale(0.3 -0.3)">
      <defs>
       <path id="DejaVuSans-Oblique-63" d="M 3431 3366 
L 3316 2797 
Q 3109 2947 2876 3022 
Q 2644 3097 2394 3097 
Q 2119 3097 1870 3000 
Q 1622 2903 1453 2725 
Q 1184 2453 1037 2087 
Q 891 1722 891 1331 
Q 891 859 1127 628 
Q 1363 397 1844 397 
Q 2081 397 2348 469 
Q 2616 541 2906 684 
L 2797 116 
Q 2547 13 2283 -39 
Q 2019 -91 1741 -91 
Q 1044 -91 669 257 
Q 294 606 294 1253 
Q 294 1797 489 2255 
Q 684 2713 1069 3078 
Q 1331 3328 1684 3456 
Q 2038 3584 2456 3584 
Q 2700 3584 2940 3529 
Q 3181 3475 3431 3366 
z
" transform="scale(0.015625)"/>
      </defs>
      <use xlink:href="#DejaVuSans-Oblique-63"/>
     </g>
    </g>
   </g>
   <g id="matplotlib.axis_2">
    <g id="ytick_1">
     <g id="line2d_5">
      <defs>
       <path id="mc4c4ced100" d="M 0 0 
L -3.5 0 
" style="stroke: #000000; stroke-width: 0.8"/>
      </defs>
      <g>
       <use xlink:href="#mc4c4ced100" x="86.47625" y="266.2" style="stroke: #000000; stroke-width: 0.8"/>
      </g>
     </g>
     <g id="text_6">
      <!-- 0 -->
      <g transform="translate(60.38875 277.597656)scale(0.3 -0.3)">
       <use xlink:href="#DejaVuSans-30"/>
      </g>
     </g>
    </g>
    <g id="ytick_2">
     <g id="line2d_6">
      <g>
       <use xlink:href="#mc4c4ced100" x="86.47625" y="154.752727" style="stroke: #000000; stroke-width: 0.8"/>
      </g>
     </g>
     <g id="text_7">
      <!-- 12 -->
      <g transform="translate(41.30125 166.150384)scale(0.3 -0.3)">
       <use xlink:href="#DejaVuSans-31"/>
       <use xlink:href="#DejaVuSans-32" x="63.623047"/>
      </g>
     </g>
    </g>
    <g id="ytick_3">
     <g id="line2d_7">
      <g>
       <use xlink:href="#mc4c4ced100" x="86.47625" y="34.018182" style="stroke: #000000; stroke-width: 0.8"/>
      </g>
     </g>
     <g id="text_8">
      <!-- 25 -->
      <g transform="translate(41.30125 45.415838)scale(0.3 -0.3)">
       <defs>
        <path id="DejaVuSans-35" d="M 691 4666 
L 3169 4666 
L 3169 4134 
L 1269 4134 
L 1269 2991 
Q 1406 3038 1543 3061 
Q 1681 3084 1819 3084 
Q 2600 3084 3056 2656 
Q 3513 2228 3513 1497 
Q 3513 744 3044 326 
Q 2575 -91 1722 -91 
Q 1428 -91 1123 -41 
Q 819 9 494 109 
L 494 744 
Q 775 591 1075 516 
Q 1375 441 1709 441 
Q 2250 441 2565 725 
Q 2881 1009 2881 1497 
Q 2881 1984 2565 2268 
Q 2250 2553 1709 2553 
Q 1456 2553 1204 2497 
Q 953 2441 691 2322 
L 691 4666 
z
" transform="scale(0.015625)"/>
       </defs>
       <use xlink:href="#DejaVuSans-32"/>
       <use xlink:href="#DejaVuSans-35" x="63.623047"/>
      </g>
     </g>
    </g>
    <g id="text_9">
     <!-- $M$ -->
     <g transform="translate(11.20125 132.260938)scale(0.3 -0.3)">
      <defs>
       <path id="DejaVuSans-Oblique-4d" d="M 1081 4666 
L 2028 4666 
L 2572 1522 
L 4378 4666 
L 5350 4666 
L 4441 0 
L 3828 0 
L 4622 4091 
L 2791 897 
L 2175 897 
L 1581 4103 
L 788 0 
L 172 0 
L 1081 4666 
z
" transform="scale(0.015625)"/>
      </defs>
      <use xlink:href="#DejaVuSans-Oblique-4d" transform="translate(0 0.09375)"/>
     </g>
    </g>
   </g>
   <g id="patch_367">
    <path d="M 86.47625 266.2 
L 86.47625 10.8 
" style="fill: none; stroke: #000000; stroke-width: 0.8; stroke-linejoin: miter; stroke-linecap: square"/>
   </g>
   <g id="patch_368">
    <path d="M 450 266.2 
L 450 10.8 
" style="fill: none; stroke: #000000; stroke-width: 0.8; stroke-linejoin: miter; stroke-linecap: square"/>
   </g>
   <g id="patch_369">
    <path d="M 86.47625 266.2 
L 450 266.2 
" style="fill: none; stroke: #000000; stroke-width: 0.8; stroke-linejoin: miter; stroke-linecap: square"/>
   </g>
   <g id="patch_370">
    <path d="M 86.47625 10.8 
L 450 10.8 
" style="fill: none; stroke: #000000; stroke-width: 0.8; stroke-linejoin: miter; stroke-linecap: square"/>
   </g>
  </g>
 </g>
 <defs>
  <clipPath id="p8bc985970b">
   <rect x="86.47625" y="10.8" width="363.52375" height="255.4"/>
  </clipPath>
 </defs>
</svg>
