<?xml version="1.0" encoding="utf-8" standalone="no"?>
<!DOCTYPE svg PUBLIC "-//W3C//DTD SVG 1.1//EN"
  "http://www.w3.org/Graphics/SVG/1.1/DTD/svg11.dtd">
<svg xmlns:xlink="http://www.w3.org/1999/xlink" width="460.8pt" height="345.6pt" viewBox="0 0 460.8 345.6" xmlns="http://www.w3.org/2000/svg" version="1.1">
 <metadata>
  <rdf:RDF xmlns:dc="http://purl.org/dc/elements/1.1/" xmlns:cc="http://creativecommons.org/ns#" xmlns:rdf="http://www.w3.org/1999/02/22-rdf-syntax-ns#">
   <cc:Work>
    <dc:type rdf:resource="http://purl.org/dc/dcmitype/StillImage"/>
    <dc:date>2023-08-30T16:14:31.565999</dc:date>
    <dc:format>image/svg+xml</dc:format>
    <dc:creator>
     <cc:Agent>
      <dc:title>Matplotlib v3.5.2, https://matplotlib.org/</dc:title>
     </cc:Agent>
    </dc:creator>
   </cc:Work>
  </rdf:RDF>
 </metadata>
 <defs>
  <style type="text/css">*{stroke-linejoin: round; stroke-linecap: butt}</style>
 </defs>
 <g id="figure_1">
  <g id="patch_1">
   <path d="M 0 345.6 
L 460.8 345.6 
L 460.8 0 
L 0 0 
z
" style="fill: #ffffff"/>
  </g>
  <g id="axes_1">
   <g id="patch_2">
    <path d="M 86.47625 266.2 
L 450 266.2 
L 450 10.8 
L 86.47625 10.8 
z
" style="fill: #ffffff"/>
   </g>
   <g id="patch_3">
    <path d="M 86.571165 266.2 
L 87.330483 266.2 
L 87.330483 34.018182 
L 86.571165 34.018182 
z
" clip-path="url(#pa504078bac)" style="fill: #1f77b4"/>
   </g>
   <g id="patch_4">
    <path d="M 87.520313 266.2 
L 88.279632 266.2 
L 88.279632 39.54632 
L 87.520313 39.54632 
z
" clip-path="url(#pa504078bac)" style="fill: #1f77b4"/>
   </g>
   <g id="patch_5">
    <path d="M 88.469461 266.2 
L 89.22878 266.2 
L 89.22878 61.658874 
L 88.469461 61.658874 
z
" clip-path="url(#pa504078bac)" style="fill: #1f77b4"/>
   </g>
   <g id="patch_6">
    <path d="M 89.418609 266.2 
L 90.177928 266.2 
L 90.177928 67.187013 
L 89.418609 67.187013 
z
" clip-path="url(#pa504078bac)" style="fill: #1f77b4"/>
   </g>
   <g id="patch_7">
    <path d="M 90.367758 266.2 
L 91.127076 266.2 
L 91.127076 67.187013 
L 90.367758 67.187013 
z
" clip-path="url(#pa504078bac)" style="fill: #1f77b4"/>
   </g>
   <g id="patch_8">
    <path d="M 91.316906 266.2 
L 92.076224 266.2 
L 92.076224 100.355844 
L 91.316906 100.355844 
z
" clip-path="url(#pa504078bac)" style="fill: #1f77b4"/>
   </g>
   <g id="patch_9">
    <path d="M 92.266054 266.2 
L 93.025372 266.2 
L 93.025372 100.355844 
L 92.266054 100.355844 
z
" clip-path="url(#pa504078bac)" style="fill: #1f77b4"/>
   </g>
   <g id="patch_10">
    <path d="M 93.215202 266.2 
L 93.974521 266.2 
L 93.974521 111.412121 
L 93.215202 111.412121 
z
" clip-path="url(#pa504078bac)" style="fill: #1f77b4"/>
   </g>
   <g id="patch_11">
    <path d="M 94.16435 266.2 
L 94.923669 266.2 
L 94.923669 127.996537 
L 94.16435 127.996537 
z
" clip-path="url(#pa504078bac)" style="fill: #1f77b4"/>
   </g>
   <g id="patch_12">
    <path d="M 95.113498 266.2 
L 95.872817 266.2 
L 95.872817 194.334199 
L 95.113498 194.334199 
z
" clip-path="url(#pa504078bac)" style="fill: #1f77b4"/>
   </g>
   <g id="patch_13">
    <path d="M 96.062647 266.2 
L 96.821965 266.2 
L 96.821965 205.390476 
L 96.062647 205.390476 
z
" clip-path="url(#pa504078bac)" style="fill: #1f77b4"/>
   </g>
   <g id="patch_14">
    <path d="M 97.011795 266.2 
L 97.771113 266.2 
L 97.771113 205.390476 
L 97.011795 205.390476 
z
" clip-path="url(#pa504078bac)" style="fill: #1f77b4"/>
   </g>
   <g id="patch_15">
    <path d="M 97.960943 266.2 
L 98.720261 266.2 
L 98.720261 205.390476 
L 97.960943 205.390476 
z
" clip-path="url(#pa504078bac)" style="fill: #1f77b4"/>
   </g>
   <g id="patch_16">
    <path d="M 98.910091 266.2 
L 99.66941 266.2 
L 99.66941 205.390476 
L 98.910091 205.390476 
z
" clip-path="url(#pa504078bac)" style="fill: #1f77b4"/>
   </g>
   <g id="patch_17">
    <path d="M 99.859239 266.2 
L 100.618558 266.2 
L 100.618558 210.918615 
L 99.859239 210.918615 
z
" clip-path="url(#pa504078bac)" style="fill: #1f77b4"/>
   </g>
   <g id="patch_18">
    <path d="M 100.808387 266.2 
L 101.567706 266.2 
L 101.567706 210.918615 
L 100.808387 210.918615 
z
" clip-path="url(#pa504078bac)" style="fill: #1f77b4"/>
   </g>
   <g id="patch_19">
    <path d="M 101.757536 266.2 
L 102.516854 266.2 
L 102.516854 216.446753 
L 101.757536 216.446753 
z
" clip-path="url(#pa504078bac)" style="fill: #1f77b4"/>
   </g>
   <g id="patch_20">
    <path d="M 102.706684 266.2 
L 103.466002 266.2 
L 103.466002 216.446753 
L 102.706684 216.446753 
z
" clip-path="url(#pa504078bac)" style="fill: #1f77b4"/>
   </g>
   <g id="patch_21">
    <path d="M 103.655832 266.2 
L 104.41515 266.2 
L 104.41515 216.446753 
L 103.655832 216.446753 
z
" clip-path="url(#pa504078bac)" style="fill: #1f77b4"/>
   </g>
   <g id="patch_22">
    <path d="M 104.60498 266.2 
L 105.364299 266.2 
L 105.364299 221.974892 
L 104.60498 221.974892 
z
" clip-path="url(#pa504078bac)" style="fill: #1f77b4"/>
   </g>
   <g id="patch_23">
    <path d="M 105.554128 266.2 
L 106.313447 266.2 
L 106.313447 221.974892 
L 105.554128 221.974892 
z
" clip-path="url(#pa504078bac)" style="fill: #1f77b4"/>
   </g>
   <g id="patch_24">
    <path d="M 106.503276 266.2 
L 107.262595 266.2 
L 107.262595 221.974892 
L 106.503276 221.974892 
z
" clip-path="url(#pa504078bac)" style="fill: #1f77b4"/>
   </g>
   <g id="patch_25">
    <path d="M 107.452425 266.2 
L 108.211743 266.2 
L 108.211743 221.974892 
L 107.452425 221.974892 
z
" clip-path="url(#pa504078bac)" style="fill: #1f77b4"/>
   </g>
   <g id="patch_26">
    <path d="M 108.401573 266.2 
L 109.160891 266.2 
L 109.160891 227.50303 
L 108.401573 227.50303 
z
" clip-path="url(#pa504078bac)" style="fill: #1f77b4"/>
   </g>
   <g id="patch_27">
    <path d="M 109.350721 266.2 
L 110.110039 266.2 
L 110.110039 227.50303 
L 109.350721 227.50303 
z
" clip-path="url(#pa504078bac)" style="fill: #1f77b4"/>
   </g>
   <g id="patch_28">
    <path d="M 110.299869 266.2 
L 111.059188 266.2 
L 111.059188 227.50303 
L 110.299869 227.50303 
z
" clip-path="url(#pa504078bac)" style="fill: #1f77b4"/>
   </g>
   <g id="patch_29">
    <path d="M 111.249017 266.2 
L 112.008336 266.2 
L 112.008336 227.50303 
L 111.249017 227.50303 
z
" clip-path="url(#pa504078bac)" style="fill: #1f77b4"/>
   </g>
   <g id="patch_30">
    <path d="M 112.198165 266.2 
L 112.957484 266.2 
L 112.957484 227.50303 
L 112.198165 227.50303 
z
" clip-path="url(#pa504078bac)" style="fill: #1f77b4"/>
   </g>
   <g id="patch_31">
    <path d="M 113.147314 266.2 
L 113.906632 266.2 
L 113.906632 233.031169 
L 113.147314 233.031169 
z
" clip-path="url(#pa504078bac)" style="fill: #1f77b4"/>
   </g>
   <g id="patch_32">
    <path d="M 114.096462 266.2 
L 114.85578 266.2 
L 114.85578 233.031169 
L 114.096462 233.031169 
z
" clip-path="url(#pa504078bac)" style="fill: #1f77b4"/>
   </g>
   <g id="patch_33">
    <path d="M 115.04561 266.2 
L 115.804929 266.2 
L 115.804929 238.559307 
L 115.04561 238.559307 
z
" clip-path="url(#pa504078bac)" style="fill: #1f77b4"/>
   </g>
   <g id="patch_34">
    <path d="M 115.994758 266.2 
L 116.754077 266.2 
L 116.754077 238.559307 
L 115.994758 238.559307 
z
" clip-path="url(#pa504078bac)" style="fill: #1f77b4"/>
   </g>
   <g id="patch_35">
    <path d="M 116.943906 266.2 
L 117.703225 266.2 
L 117.703225 238.559307 
L 116.943906 238.559307 
z
" clip-path="url(#pa504078bac)" style="fill: #1f77b4"/>
   </g>
   <g id="patch_36">
    <path d="M 117.893055 266.2 
L 118.652373 266.2 
L 118.652373 238.559307 
L 117.893055 238.559307 
z
" clip-path="url(#pa504078bac)" style="fill: #1f77b4"/>
   </g>
   <g id="patch_37">
    <path d="M 118.842203 266.2 
L 119.601521 266.2 
L 119.601521 238.559307 
L 118.842203 238.559307 
z
" clip-path="url(#pa504078bac)" style="fill: #1f77b4"/>
   </g>
   <g id="patch_38">
    <path d="M 119.791351 266.2 
L 120.550669 266.2 
L 120.550669 238.559307 
L 119.791351 238.559307 
z
" clip-path="url(#pa504078bac)" style="fill: #1f77b4"/>
   </g>
   <g id="patch_39">
    <path d="M 120.740499 266.2 
L 121.499818 266.2 
L 121.499818 238.559307 
L 120.740499 238.559307 
z
" clip-path="url(#pa504078bac)" style="fill: #1f77b4"/>
   </g>
   <g id="patch_40">
    <path d="M 121.689647 266.2 
L 122.448966 266.2 
L 122.448966 244.087446 
L 121.689647 244.087446 
z
" clip-path="url(#pa504078bac)" style="fill: #1f77b4"/>
   </g>
   <g id="patch_41">
    <path d="M 122.638795 266.2 
L 123.398114 266.2 
L 123.398114 244.087446 
L 122.638795 244.087446 
z
" clip-path="url(#pa504078bac)" style="fill: #1f77b4"/>
   </g>
   <g id="patch_42">
    <path d="M 123.587944 266.2 
L 124.347262 266.2 
L 124.347262 244.087446 
L 123.587944 244.087446 
z
" clip-path="url(#pa504078bac)" style="fill: #1f77b4"/>
   </g>
   <g id="patch_43">
    <path d="M 124.537092 266.2 
L 125.29641 266.2 
L 125.29641 244.087446 
L 124.537092 244.087446 
z
" clip-path="url(#pa504078bac)" style="fill: #1f77b4"/>
   </g>
   <g id="patch_44">
    <path d="M 125.48624 266.2 
L 126.245558 266.2 
L 126.245558 244.087446 
L 125.48624 244.087446 
z
" clip-path="url(#pa504078bac)" style="fill: #1f77b4"/>
   </g>
   <g id="patch_45">
    <path d="M 126.435388 266.2 
L 127.194707 266.2 
L 127.194707 244.087446 
L 126.435388 244.087446 
z
" clip-path="url(#pa504078bac)" style="fill: #1f77b4"/>
   </g>
   <g id="patch_46">
    <path d="M 127.384536 266.2 
L 128.143855 266.2 
L 128.143855 244.087446 
L 127.384536 244.087446 
z
" clip-path="url(#pa504078bac)" style="fill: #1f77b4"/>
   </g>
   <g id="patch_47">
    <path d="M 128.333684 266.2 
L 129.093003 266.2 
L 129.093003 244.087446 
L 128.333684 244.087446 
z
" clip-path="url(#pa504078bac)" style="fill: #1f77b4"/>
   </g>
   <g id="patch_48">
    <path d="M 129.282833 266.2 
L 130.042151 266.2 
L 130.042151 244.087446 
L 129.282833 244.087446 
z
" clip-path="url(#pa504078bac)" style="fill: #1f77b4"/>
   </g>
   <g id="patch_49">
    <path d="M 130.231981 266.2 
L 130.991299 266.2 
L 130.991299 244.087446 
L 130.231981 244.087446 
z
" clip-path="url(#pa504078bac)" style="fill: #1f77b4"/>
   </g>
   <g id="patch_50">
    <path d="M 131.181129 266.2 
L 131.940447 266.2 
L 131.940447 244.087446 
L 131.181129 244.087446 
z
" clip-path="url(#pa504078bac)" style="fill: #1f77b4"/>
   </g>
   <g id="patch_51">
    <path d="M 132.130277 266.2 
L 132.889596 266.2 
L 132.889596 249.615584 
L 132.130277 249.615584 
z
" clip-path="url(#pa504078bac)" style="fill: #1f77b4"/>
   </g>
   <g id="patch_52">
    <path d="M 133.079425 266.2 
L 133.838744 266.2 
L 133.838744 249.615584 
L 133.079425 249.615584 
z
" clip-path="url(#pa504078bac)" style="fill: #1f77b4"/>
   </g>
   <g id="patch_53">
    <path d="M 134.028573 266.2 
L 134.787892 266.2 
L 134.787892 249.615584 
L 134.028573 249.615584 
z
" clip-path="url(#pa504078bac)" style="fill: #1f77b4"/>
   </g>
   <g id="patch_54">
    <path d="M 134.977722 266.2 
L 135.73704 266.2 
L 135.73704 249.615584 
L 134.977722 249.615584 
z
" clip-path="url(#pa504078bac)" style="fill: #1f77b4"/>
   </g>
   <g id="patch_55">
    <path d="M 135.92687 266.2 
L 136.686188 266.2 
L 136.686188 249.615584 
L 135.92687 249.615584 
z
" clip-path="url(#pa504078bac)" style="fill: #1f77b4"/>
   </g>
   <g id="patch_56">
    <path d="M 136.876018 266.2 
L 137.635336 266.2 
L 137.635336 249.615584 
L 136.876018 249.615584 
z
" clip-path="url(#pa504078bac)" style="fill: #1f77b4"/>
   </g>
   <g id="patch_57">
    <path d="M 137.825166 266.2 
L 138.584485 266.2 
L 138.584485 249.615584 
L 137.825166 249.615584 
z
" clip-path="url(#pa504078bac)" style="fill: #1f77b4"/>
   </g>
   <g id="patch_58">
    <path d="M 138.774314 266.2 
L 139.533633 266.2 
L 139.533633 249.615584 
L 138.774314 249.615584 
z
" clip-path="url(#pa504078bac)" style="fill: #1f77b4"/>
   </g>
   <g id="patch_59">
    <path d="M 139.723462 266.2 
L 140.482781 266.2 
L 140.482781 249.615584 
L 139.723462 249.615584 
z
" clip-path="url(#pa504078bac)" style="fill: #1f77b4"/>
   </g>
   <g id="patch_60">
    <path d="M 140.672611 266.2 
L 141.431929 266.2 
L 141.431929 249.615584 
L 140.672611 249.615584 
z
" clip-path="url(#pa504078bac)" style="fill: #1f77b4"/>
   </g>
   <g id="patch_61">
    <path d="M 141.621759 266.2 
L 142.381077 266.2 
L 142.381077 249.615584 
L 141.621759 249.615584 
z
" clip-path="url(#pa504078bac)" style="fill: #1f77b4"/>
   </g>
   <g id="patch_62">
    <path d="M 142.570907 266.2 
L 143.330226 266.2 
L 143.330226 249.615584 
L 142.570907 249.615584 
z
" clip-path="url(#pa504078bac)" style="fill: #1f77b4"/>
   </g>
   <g id="patch_63">
    <path d="M 143.520055 266.2 
L 144.279374 266.2 
L 144.279374 249.615584 
L 143.520055 249.615584 
z
" clip-path="url(#pa504078bac)" style="fill: #1f77b4"/>
   </g>
   <g id="patch_64">
    <path d="M 144.469203 266.2 
L 145.228522 266.2 
L 145.228522 249.615584 
L 144.469203 249.615584 
z
" clip-path="url(#pa504078bac)" style="fill: #1f77b4"/>
   </g>
   <g id="patch_65">
    <path d="M 145.418352 266.2 
L 146.17767 266.2 
L 146.17767 249.615584 
L 145.418352 249.615584 
z
" clip-path="url(#pa504078bac)" style="fill: #1f77b4"/>
   </g>
   <g id="patch_66">
    <path d="M 146.3675 266.2 
L 147.126818 266.2 
L 147.126818 249.615584 
L 146.3675 249.615584 
z
" clip-path="url(#pa504078bac)" style="fill: #1f77b4"/>
   </g>
   <g id="patch_67">
    <path d="M 147.316648 266.2 
L 148.075966 266.2 
L 148.075966 249.615584 
L 147.316648 249.615584 
z
" clip-path="url(#pa504078bac)" style="fill: #1f77b4"/>
   </g>
   <g id="patch_68">
    <path d="M 148.265796 266.2 
L 149.025115 266.2 
L 149.025115 249.615584 
L 148.265796 249.615584 
z
" clip-path="url(#pa504078bac)" style="fill: #1f77b4"/>
   </g>
   <g id="patch_69">
    <path d="M 149.214944 266.2 
L 149.974263 266.2 
L 149.974263 249.615584 
L 149.214944 249.615584 
z
" clip-path="url(#pa504078bac)" style="fill: #1f77b4"/>
   </g>
   <g id="patch_70">
    <path d="M 150.164092 266.2 
L 150.923411 266.2 
L 150.923411 249.615584 
L 150.164092 249.615584 
z
" clip-path="url(#pa504078bac)" style="fill: #1f77b4"/>
   </g>
   <g id="patch_71">
    <path d="M 151.113241 266.2 
L 151.872559 266.2 
L 151.872559 249.615584 
L 151.113241 249.615584 
z
" clip-path="url(#pa504078bac)" style="fill: #1f77b4"/>
   </g>
   <g id="patch_72">
    <path d="M 152.062389 266.2 
L 152.821707 266.2 
L 152.821707 255.143723 
L 152.062389 255.143723 
z
" clip-path="url(#pa504078bac)" style="fill: #1f77b4"/>
   </g>
   <g id="patch_73">
    <path d="M 153.011537 266.2 
L 153.770855 266.2 
L 153.770855 255.143723 
L 153.011537 255.143723 
z
" clip-path="url(#pa504078bac)" style="fill: #1f77b4"/>
   </g>
   <g id="patch_74">
    <path d="M 153.960685 266.2 
L 154.720004 266.2 
L 154.720004 255.143723 
L 153.960685 255.143723 
z
" clip-path="url(#pa504078bac)" style="fill: #1f77b4"/>
   </g>
   <g id="patch_75">
    <path d="M 154.909833 266.2 
L 155.669152 266.2 
L 155.669152 255.143723 
L 154.909833 255.143723 
z
" clip-path="url(#pa504078bac)" style="fill: #1f77b4"/>
   </g>
   <g id="patch_76">
    <path d="M 155.858981 266.2 
L 156.6183 266.2 
L 156.6183 255.143723 
L 155.858981 255.143723 
z
" clip-path="url(#pa504078bac)" style="fill: #1f77b4"/>
   </g>
   <g id="patch_77">
    <path d="M 156.80813 266.2 
L 157.567448 266.2 
L 157.567448 255.143723 
L 156.80813 255.143723 
z
" clip-path="url(#pa504078bac)" style="fill: #1f77b4"/>
   </g>
   <g id="patch_78">
    <path d="M 157.757278 266.2 
L 158.516596 266.2 
L 158.516596 255.143723 
L 157.757278 255.143723 
z
" clip-path="url(#pa504078bac)" style="fill: #1f77b4"/>
   </g>
   <g id="patch_79">
    <path d="M 158.706426 266.2 
L 159.465744 266.2 
L 159.465744 255.143723 
L 158.706426 255.143723 
z
" clip-path="url(#pa504078bac)" style="fill: #1f77b4"/>
   </g>
   <g id="patch_80">
    <path d="M 159.655574 266.2 
L 160.414893 266.2 
L 160.414893 255.143723 
L 159.655574 255.143723 
z
" clip-path="url(#pa504078bac)" style="fill: #1f77b4"/>
   </g>
   <g id="patch_81">
    <path d="M 160.604722 266.2 
L 161.364041 266.2 
L 161.364041 255.143723 
L 160.604722 255.143723 
z
" clip-path="url(#pa504078bac)" style="fill: #1f77b4"/>
   </g>
   <g id="patch_82">
    <path d="M 161.55387 266.2 
L 162.313189 266.2 
L 162.313189 255.143723 
L 161.55387 255.143723 
z
" clip-path="url(#pa504078bac)" style="fill: #1f77b4"/>
   </g>
   <g id="patch_83">
    <path d="M 162.503019 266.2 
L 163.262337 266.2 
L 163.262337 255.143723 
L 162.503019 255.143723 
z
" clip-path="url(#pa504078bac)" style="fill: #1f77b4"/>
   </g>
   <g id="patch_84">
    <path d="M 163.452167 266.2 
L 164.211485 266.2 
L 164.211485 255.143723 
L 163.452167 255.143723 
z
" clip-path="url(#pa504078bac)" style="fill: #1f77b4"/>
   </g>
   <g id="patch_85">
    <path d="M 164.401315 266.2 
L 165.160633 266.2 
L 165.160633 255.143723 
L 164.401315 255.143723 
z
" clip-path="url(#pa504078bac)" style="fill: #1f77b4"/>
   </g>
   <g id="patch_86">
    <path d="M 165.350463 266.2 
L 166.109782 266.2 
L 166.109782 255.143723 
L 165.350463 255.143723 
z
" clip-path="url(#pa504078bac)" style="fill: #1f77b4"/>
   </g>
   <g id="patch_87">
    <path d="M 166.299611 266.2 
L 167.05893 266.2 
L 167.05893 255.143723 
L 166.299611 255.143723 
z
" clip-path="url(#pa504078bac)" style="fill: #1f77b4"/>
   </g>
   <g id="patch_88">
    <path d="M 167.248759 266.2 
L 168.008078 266.2 
L 168.008078 255.143723 
L 167.248759 255.143723 
z
" clip-path="url(#pa504078bac)" style="fill: #1f77b4"/>
   </g>
   <g id="patch_89">
    <path d="M 168.197908 266.2 
L 168.957226 266.2 
L 168.957226 255.143723 
L 168.197908 255.143723 
z
" clip-path="url(#pa504078bac)" style="fill: #1f77b4"/>
   </g>
   <g id="patch_90">
    <path d="M 169.147056 266.2 
L 169.906374 266.2 
L 169.906374 255.143723 
L 169.147056 255.143723 
z
" clip-path="url(#pa504078bac)" style="fill: #1f77b4"/>
   </g>
   <g id="patch_91">
    <path d="M 170.096204 266.2 
L 170.855523 266.2 
L 170.855523 255.143723 
L 170.096204 255.143723 
z
" clip-path="url(#pa504078bac)" style="fill: #1f77b4"/>
   </g>
   <g id="patch_92">
    <path d="M 171.045352 266.2 
L 171.804671 266.2 
L 171.804671 255.143723 
L 171.045352 255.143723 
z
" clip-path="url(#pa504078bac)" style="fill: #1f77b4"/>
   </g>
   <g id="patch_93">
    <path d="M 171.9945 266.2 
L 172.753819 266.2 
L 172.753819 255.143723 
L 171.9945 255.143723 
z
" clip-path="url(#pa504078bac)" style="fill: #1f77b4"/>
   </g>
   <g id="patch_94">
    <path d="M 172.943648 266.2 
L 173.702967 266.2 
L 173.702967 255.143723 
L 172.943648 255.143723 
z
" clip-path="url(#pa504078bac)" style="fill: #1f77b4"/>
   </g>
   <g id="patch_95">
    <path d="M 173.892797 266.2 
L 174.652115 266.2 
L 174.652115 255.143723 
L 173.892797 255.143723 
z
" clip-path="url(#pa504078bac)" style="fill: #1f77b4"/>
   </g>
   <g id="patch_96">
    <path d="M 174.841945 266.2 
L 175.601263 266.2 
L 175.601263 255.143723 
L 174.841945 255.143723 
z
" clip-path="url(#pa504078bac)" style="fill: #1f77b4"/>
   </g>
   <g id="patch_97">
    <path d="M 175.791093 266.2 
L 176.550412 266.2 
L 176.550412 255.143723 
L 175.791093 255.143723 
z
" clip-path="url(#pa504078bac)" style="fill: #1f77b4"/>
   </g>
   <g id="patch_98">
    <path d="M 176.740241 266.2 
L 177.49956 266.2 
L 177.49956 255.143723 
L 176.740241 255.143723 
z
" clip-path="url(#pa504078bac)" style="fill: #1f77b4"/>
   </g>
   <g id="patch_99">
    <path d="M 177.689389 266.2 
L 178.448708 266.2 
L 178.448708 255.143723 
L 177.689389 255.143723 
z
" clip-path="url(#pa504078bac)" style="fill: #1f77b4"/>
   </g>
   <g id="patch_100">
    <path d="M 178.638538 266.2 
L 179.397856 266.2 
L 179.397856 255.143723 
L 178.638538 255.143723 
z
" clip-path="url(#pa504078bac)" style="fill: #1f77b4"/>
   </g>
   <g id="patch_101">
    <path d="M 179.587686 266.2 
L 180.347004 266.2 
L 180.347004 255.143723 
L 179.587686 255.143723 
z
" clip-path="url(#pa504078bac)" style="fill: #1f77b4"/>
   </g>
   <g id="patch_102">
    <path d="M 180.536834 266.2 
L 181.296152 266.2 
L 181.296152 255.143723 
L 180.536834 255.143723 
z
" clip-path="url(#pa504078bac)" style="fill: #1f77b4"/>
   </g>
   <g id="patch_103">
    <path d="M 181.485982 266.2 
L 182.245301 266.2 
L 182.245301 255.143723 
L 181.485982 255.143723 
z
" clip-path="url(#pa504078bac)" style="fill: #1f77b4"/>
   </g>
   <g id="patch_104">
    <path d="M 182.43513 266.2 
L 183.194449 266.2 
L 183.194449 255.143723 
L 182.43513 255.143723 
z
" clip-path="url(#pa504078bac)" style="fill: #1f77b4"/>
   </g>
   <g id="patch_105">
    <path d="M 183.384278 266.2 
L 184.143597 266.2 
L 184.143597 255.143723 
L 183.384278 255.143723 
z
" clip-path="url(#pa504078bac)" style="fill: #1f77b4"/>
   </g>
   <g id="patch_106">
    <path d="M 184.333427 266.2 
L 185.092745 266.2 
L 185.092745 255.143723 
L 184.333427 255.143723 
z
" clip-path="url(#pa504078bac)" style="fill: #1f77b4"/>
   </g>
   <g id="patch_107">
    <path d="M 185.282575 266.2 
L 186.041893 266.2 
L 186.041893 255.143723 
L 185.282575 255.143723 
z
" clip-path="url(#pa504078bac)" style="fill: #1f77b4"/>
   </g>
   <g id="patch_108">
    <path d="M 186.231723 266.2 
L 186.991041 266.2 
L 186.991041 255.143723 
L 186.231723 255.143723 
z
" clip-path="url(#pa504078bac)" style="fill: #1f77b4"/>
   </g>
   <g id="patch_109">
    <path d="M 187.180871 266.2 
L 187.94019 266.2 
L 187.94019 255.143723 
L 187.180871 255.143723 
z
" clip-path="url(#pa504078bac)" style="fill: #1f77b4"/>
   </g>
   <g id="patch_110">
    <path d="M 188.130019 266.2 
L 188.889338 266.2 
L 188.889338 255.143723 
L 188.130019 255.143723 
z
" clip-path="url(#pa504078bac)" style="fill: #1f77b4"/>
   </g>
   <g id="patch_111">
    <path d="M 189.079167 266.2 
L 189.838486 266.2 
L 189.838486 255.143723 
L 189.079167 255.143723 
z
" clip-path="url(#pa504078bac)" style="fill: #1f77b4"/>
   </g>
   <g id="patch_112">
    <path d="M 190.028316 266.2 
L 190.787634 266.2 
L 190.787634 255.143723 
L 190.028316 255.143723 
z
" clip-path="url(#pa504078bac)" style="fill: #1f77b4"/>
   </g>
   <g id="patch_113">
    <path d="M 190.977464 266.2 
L 191.736782 266.2 
L 191.736782 255.143723 
L 190.977464 255.143723 
z
" clip-path="url(#pa504078bac)" style="fill: #1f77b4"/>
   </g>
   <g id="patch_114">
    <path d="M 191.926612 266.2 
L 192.68593 266.2 
L 192.68593 255.143723 
L 191.926612 255.143723 
z
" clip-path="url(#pa504078bac)" style="fill: #1f77b4"/>
   </g>
   <g id="patch_115">
    <path d="M 192.87576 266.2 
L 193.635079 266.2 
L 193.635079 255.143723 
L 192.87576 255.143723 
z
" clip-path="url(#pa504078bac)" style="fill: #1f77b4"/>
   </g>
   <g id="patch_116">
    <path d="M 193.824908 266.2 
L 194.584227 266.2 
L 194.584227 255.143723 
L 193.824908 255.143723 
z
" clip-path="url(#pa504078bac)" style="fill: #1f77b4"/>
   </g>
   <g id="patch_117">
    <path d="M 194.774056 266.2 
L 195.533375 266.2 
L 195.533375 255.143723 
L 194.774056 255.143723 
z
" clip-path="url(#pa504078bac)" style="fill: #1f77b4"/>
   </g>
   <g id="patch_118">
    <path d="M 195.723205 266.2 
L 196.482523 266.2 
L 196.482523 255.143723 
L 195.723205 255.143723 
z
" clip-path="url(#pa504078bac)" style="fill: #1f77b4"/>
   </g>
   <g id="patch_119">
    <path d="M 196.672353 266.2 
L 197.431671 266.2 
L 197.431671 255.143723 
L 196.672353 255.143723 
z
" clip-path="url(#pa504078bac)" style="fill: #1f77b4"/>
   </g>
   <g id="patch_120">
    <path d="M 197.621501 266.2 
L 198.38082 266.2 
L 198.38082 255.143723 
L 197.621501 255.143723 
z
" clip-path="url(#pa504078bac)" style="fill: #1f77b4"/>
   </g>
   <g id="patch_121">
    <path d="M 198.570649 266.2 
L 199.329968 266.2 
L 199.329968 255.143723 
L 198.570649 255.143723 
z
" clip-path="url(#pa504078bac)" style="fill: #1f77b4"/>
   </g>
   <g id="patch_122">
    <path d="M 199.519797 266.2 
L 200.279116 266.2 
L 200.279116 255.143723 
L 199.519797 255.143723 
z
" clip-path="url(#pa504078bac)" style="fill: #1f77b4"/>
   </g>
   <g id="patch_123">
    <path d="M 200.468945 266.2 
L 201.228264 266.2 
L 201.228264 255.143723 
L 200.468945 255.143723 
z
" clip-path="url(#pa504078bac)" style="fill: #1f77b4"/>
   </g>
   <g id="patch_124">
    <path d="M 201.418094 266.2 
L 202.177412 266.2 
L 202.177412 255.143723 
L 201.418094 255.143723 
z
" clip-path="url(#pa504078bac)" style="fill: #1f77b4"/>
   </g>
   <g id="patch_125">
    <path d="M 202.367242 266.2 
L 203.12656 266.2 
L 203.12656 255.143723 
L 202.367242 255.143723 
z
" clip-path="url(#pa504078bac)" style="fill: #1f77b4"/>
   </g>
   <g id="patch_126">
    <path d="M 203.31639 266.2 
L 204.075709 266.2 
L 204.075709 255.143723 
L 203.31639 255.143723 
z
" clip-path="url(#pa504078bac)" style="fill: #1f77b4"/>
   </g>
   <g id="patch_127">
    <path d="M 204.265538 266.2 
L 205.024857 266.2 
L 205.024857 255.143723 
L 204.265538 255.143723 
z
" clip-path="url(#pa504078bac)" style="fill: #1f77b4"/>
   </g>
   <g id="patch_128">
    <path d="M 205.214686 266.2 
L 205.974005 266.2 
L 205.974005 260.671861 
L 205.214686 260.671861 
z
" clip-path="url(#pa504078bac)" style="fill: #1f77b4"/>
   </g>
   <g id="patch_129">
    <path d="M 206.163835 266.2 
L 206.923153 266.2 
L 206.923153 260.671861 
L 206.163835 260.671861 
z
" clip-path="url(#pa504078bac)" style="fill: #1f77b4"/>
   </g>
   <g id="patch_130">
    <path d="M 207.112983 266.2 
L 207.872301 266.2 
L 207.872301 260.671861 
L 207.112983 260.671861 
z
" clip-path="url(#pa504078bac)" style="fill: #1f77b4"/>
   </g>
   <g id="patch_131">
    <path d="M 208.062131 266.2 
L 208.821449 266.2 
L 208.821449 260.671861 
L 208.062131 260.671861 
z
" clip-path="url(#pa504078bac)" style="fill: #1f77b4"/>
   </g>
   <g id="patch_132">
    <path d="M 209.011279 266.2 
L 209.770598 266.2 
L 209.770598 260.671861 
L 209.011279 260.671861 
z
" clip-path="url(#pa504078bac)" style="fill: #1f77b4"/>
   </g>
   <g id="patch_133">
    <path d="M 209.960427 266.2 
L 210.719746 266.2 
L 210.719746 260.671861 
L 209.960427 260.671861 
z
" clip-path="url(#pa504078bac)" style="fill: #1f77b4"/>
   </g>
   <g id="patch_134">
    <path d="M 210.909575 266.2 
L 211.668894 266.2 
L 211.668894 260.671861 
L 210.909575 260.671861 
z
" clip-path="url(#pa504078bac)" style="fill: #1f77b4"/>
   </g>
   <g id="patch_135">
    <path d="M 211.858724 266.2 
L 212.618042 266.2 
L 212.618042 260.671861 
L 211.858724 260.671861 
z
" clip-path="url(#pa504078bac)" style="fill: #1f77b4"/>
   </g>
   <g id="patch_136">
    <path d="M 212.807872 266.2 
L 213.56719 266.2 
L 213.56719 260.671861 
L 212.807872 260.671861 
z
" clip-path="url(#pa504078bac)" style="fill: #1f77b4"/>
   </g>
   <g id="patch_137">
    <path d="M 213.75702 266.2 
L 214.516338 266.2 
L 214.516338 260.671861 
L 213.75702 260.671861 
z
" clip-path="url(#pa504078bac)" style="fill: #1f77b4"/>
   </g>
   <g id="patch_138">
    <path d="M 214.706168 266.2 
L 215.465487 266.2 
L 215.465487 260.671861 
L 214.706168 260.671861 
z
" clip-path="url(#pa504078bac)" style="fill: #1f77b4"/>
   </g>
   <g id="patch_139">
    <path d="M 215.655316 266.2 
L 216.414635 266.2 
L 216.414635 260.671861 
L 215.655316 260.671861 
z
" clip-path="url(#pa504078bac)" style="fill: #1f77b4"/>
   </g>
   <g id="patch_140">
    <path d="M 216.604464 266.2 
L 217.363783 266.2 
L 217.363783 260.671861 
L 216.604464 260.671861 
z
" clip-path="url(#pa504078bac)" style="fill: #1f77b4"/>
   </g>
   <g id="patch_141">
    <path d="M 217.553613 266.2 
L 218.312931 266.2 
L 218.312931 260.671861 
L 217.553613 260.671861 
z
" clip-path="url(#pa504078bac)" style="fill: #1f77b4"/>
   </g>
   <g id="patch_142">
    <path d="M 218.502761 266.2 
L 219.262079 266.2 
L 219.262079 260.671861 
L 218.502761 260.671861 
z
" clip-path="url(#pa504078bac)" style="fill: #1f77b4"/>
   </g>
   <g id="patch_143">
    <path d="M 219.451909 266.2 
L 220.211227 266.2 
L 220.211227 260.671861 
L 219.451909 260.671861 
z
" clip-path="url(#pa504078bac)" style="fill: #1f77b4"/>
   </g>
   <g id="patch_144">
    <path d="M 220.401057 266.2 
L 221.160376 266.2 
L 221.160376 260.671861 
L 220.401057 260.671861 
z
" clip-path="url(#pa504078bac)" style="fill: #1f77b4"/>
   </g>
   <g id="patch_145">
    <path d="M 221.350205 266.2 
L 222.109524 266.2 
L 222.109524 260.671861 
L 221.350205 260.671861 
z
" clip-path="url(#pa504078bac)" style="fill: #1f77b4"/>
   </g>
   <g id="patch_146">
    <path d="M 222.299353 266.2 
L 223.058672 266.2 
L 223.058672 260.671861 
L 222.299353 260.671861 
z
" clip-path="url(#pa504078bac)" style="fill: #1f77b4"/>
   </g>
   <g id="patch_147">
    <path d="M 223.248502 266.2 
L 224.00782 266.2 
L 224.00782 260.671861 
L 223.248502 260.671861 
z
" clip-path="url(#pa504078bac)" style="fill: #1f77b4"/>
   </g>
   <g id="patch_148">
    <path d="M 224.19765 266.2 
L 224.956968 266.2 
L 224.956968 260.671861 
L 224.19765 260.671861 
z
" clip-path="url(#pa504078bac)" style="fill: #1f77b4"/>
   </g>
   <g id="patch_149">
    <path d="M 225.146798 266.2 
L 225.906117 266.2 
L 225.906117 260.671861 
L 225.146798 260.671861 
z
" clip-path="url(#pa504078bac)" style="fill: #1f77b4"/>
   </g>
   <g id="patch_150">
    <path d="M 226.095946 266.2 
L 226.855265 266.2 
L 226.855265 260.671861 
L 226.095946 260.671861 
z
" clip-path="url(#pa504078bac)" style="fill: #1f77b4"/>
   </g>
   <g id="patch_151">
    <path d="M 227.045094 266.2 
L 227.804413 266.2 
L 227.804413 260.671861 
L 227.045094 260.671861 
z
" clip-path="url(#pa504078bac)" style="fill: #1f77b4"/>
   </g>
   <g id="patch_152">
    <path d="M 227.994242 266.2 
L 228.753561 266.2 
L 228.753561 260.671861 
L 227.994242 260.671861 
z
" clip-path="url(#pa504078bac)" style="fill: #1f77b4"/>
   </g>
   <g id="patch_153">
    <path d="M 228.943391 266.2 
L 229.702709 266.2 
L 229.702709 260.671861 
L 228.943391 260.671861 
z
" clip-path="url(#pa504078bac)" style="fill: #1f77b4"/>
   </g>
   <g id="patch_154">
    <path d="M 229.892539 266.2 
L 230.651857 266.2 
L 230.651857 260.671861 
L 229.892539 260.671861 
z
" clip-path="url(#pa504078bac)" style="fill: #1f77b4"/>
   </g>
   <g id="patch_155">
    <path d="M 230.841687 266.2 
L 231.601006 266.2 
L 231.601006 260.671861 
L 230.841687 260.671861 
z
" clip-path="url(#pa504078bac)" style="fill: #1f77b4"/>
   </g>
   <g id="patch_156">
    <path d="M 231.790835 266.2 
L 232.550154 266.2 
L 232.550154 260.671861 
L 231.790835 260.671861 
z
" clip-path="url(#pa504078bac)" style="fill: #1f77b4"/>
   </g>
   <g id="patch_157">
    <path d="M 232.739983 266.2 
L 233.499302 266.2 
L 233.499302 260.671861 
L 232.739983 260.671861 
z
" clip-path="url(#pa504078bac)" style="fill: #1f77b4"/>
   </g>
   <g id="patch_158">
    <path d="M 233.689132 266.2 
L 234.44845 266.2 
L 234.44845 260.671861 
L 233.689132 260.671861 
z
" clip-path="url(#pa504078bac)" style="fill: #1f77b4"/>
   </g>
   <g id="patch_159">
    <path d="M 234.63828 266.2 
L 235.397598 266.2 
L 235.397598 260.671861 
L 234.63828 260.671861 
z
" clip-path="url(#pa504078bac)" style="fill: #1f77b4"/>
   </g>
   <g id="patch_160">
    <path d="M 235.587428 266.2 
L 236.346746 266.2 
L 236.346746 260.671861 
L 235.587428 260.671861 
z
" clip-path="url(#pa504078bac)" style="fill: #1f77b4"/>
   </g>
   <g id="patch_161">
    <path d="M 236.536576 266.2 
L 237.295895 266.2 
L 237.295895 260.671861 
L 236.536576 260.671861 
z
" clip-path="url(#pa504078bac)" style="fill: #1f77b4"/>
   </g>
   <g id="patch_162">
    <path d="M 237.485724 266.2 
L 238.245043 266.2 
L 238.245043 260.671861 
L 237.485724 260.671861 
z
" clip-path="url(#pa504078bac)" style="fill: #1f77b4"/>
   </g>
   <g id="patch_163">
    <path d="M 238.434872 266.2 
L 239.194191 266.2 
L 239.194191 260.671861 
L 238.434872 260.671861 
z
" clip-path="url(#pa504078bac)" style="fill: #1f77b4"/>
   </g>
   <g id="patch_164">
    <path d="M 239.384021 266.2 
L 240.143339 266.2 
L 240.143339 260.671861 
L 239.384021 260.671861 
z
" clip-path="url(#pa504078bac)" style="fill: #1f77b4"/>
   </g>
   <g id="patch_165">
    <path d="M 240.333169 266.2 
L 241.092487 266.2 
L 241.092487 260.671861 
L 240.333169 260.671861 
z
" clip-path="url(#pa504078bac)" style="fill: #1f77b4"/>
   </g>
   <g id="patch_166">
    <path d="M 241.282317 266.2 
L 242.041635 266.2 
L 242.041635 260.671861 
L 241.282317 260.671861 
z
" clip-path="url(#pa504078bac)" style="fill: #1f77b4"/>
   </g>
   <g id="patch_167">
    <path d="M 242.231465 266.2 
L 242.990784 266.2 
L 242.990784 260.671861 
L 242.231465 260.671861 
z
" clip-path="url(#pa504078bac)" style="fill: #1f77b4"/>
   </g>
   <g id="patch_168">
    <path d="M 243.180613 266.2 
L 243.939932 266.2 
L 243.939932 260.671861 
L 243.180613 260.671861 
z
" clip-path="url(#pa504078bac)" style="fill: #1f77b4"/>
   </g>
   <g id="patch_169">
    <path d="M 244.129761 266.2 
L 244.88908 266.2 
L 244.88908 260.671861 
L 244.129761 260.671861 
z
" clip-path="url(#pa504078bac)" style="fill: #1f77b4"/>
   </g>
   <g id="patch_170">
    <path d="M 245.07891 266.2 
L 245.838228 266.2 
L 245.838228 260.671861 
L 245.07891 260.671861 
z
" clip-path="url(#pa504078bac)" style="fill: #1f77b4"/>
   </g>
   <g id="patch_171">
    <path d="M 246.028058 266.2 
L 246.787376 266.2 
L 246.787376 260.671861 
L 246.028058 260.671861 
z
" clip-path="url(#pa504078bac)" style="fill: #1f77b4"/>
   </g>
   <g id="patch_172">
    <path d="M 246.977206 266.2 
L 247.736524 266.2 
L 247.736524 260.671861 
L 246.977206 260.671861 
z
" clip-path="url(#pa504078bac)" style="fill: #1f77b4"/>
   </g>
   <g id="patch_173">
    <path d="M 247.926354 266.2 
L 248.685673 266.2 
L 248.685673 260.671861 
L 247.926354 260.671861 
z
" clip-path="url(#pa504078bac)" style="fill: #1f77b4"/>
   </g>
   <g id="patch_174">
    <path d="M 248.875502 266.2 
L 249.634821 266.2 
L 249.634821 260.671861 
L 248.875502 260.671861 
z
" clip-path="url(#pa504078bac)" style="fill: #1f77b4"/>
   </g>
   <g id="patch_175">
    <path d="M 249.82465 266.2 
L 250.583969 266.2 
L 250.583969 260.671861 
L 249.82465 260.671861 
z
" clip-path="url(#pa504078bac)" style="fill: #1f77b4"/>
   </g>
   <g id="patch_176">
    <path d="M 250.773799 266.2 
L 251.533117 266.2 
L 251.533117 260.671861 
L 250.773799 260.671861 
z
" clip-path="url(#pa504078bac)" style="fill: #1f77b4"/>
   </g>
   <g id="patch_177">
    <path d="M 251.722947 266.2 
L 252.482265 266.2 
L 252.482265 260.671861 
L 251.722947 260.671861 
z
" clip-path="url(#pa504078bac)" style="fill: #1f77b4"/>
   </g>
   <g id="patch_178">
    <path d="M 252.672095 266.2 
L 253.431414 266.2 
L 253.431414 260.671861 
L 252.672095 260.671861 
z
" clip-path="url(#pa504078bac)" style="fill: #1f77b4"/>
   </g>
   <g id="patch_179">
    <path d="M 253.621243 266.2 
L 254.380562 266.2 
L 254.380562 260.671861 
L 253.621243 260.671861 
z
" clip-path="url(#pa504078bac)" style="fill: #1f77b4"/>
   </g>
   <g id="patch_180">
    <path d="M 254.570391 266.2 
L 255.32971 266.2 
L 255.32971 260.671861 
L 254.570391 260.671861 
z
" clip-path="url(#pa504078bac)" style="fill: #1f77b4"/>
   </g>
   <g id="patch_181">
    <path d="M 255.519539 266.2 
L 256.278858 266.2 
L 256.278858 260.671861 
L 255.519539 260.671861 
z
" clip-path="url(#pa504078bac)" style="fill: #1f77b4"/>
   </g>
   <g id="patch_182">
    <path d="M 256.468688 266.2 
L 257.228006 266.2 
L 257.228006 260.671861 
L 256.468688 260.671861 
z
" clip-path="url(#pa504078bac)" style="fill: #1f77b4"/>
   </g>
   <g id="patch_183">
    <path d="M 257.417836 266.2 
L 258.177154 266.2 
L 258.177154 260.671861 
L 257.417836 260.671861 
z
" clip-path="url(#pa504078bac)" style="fill: #1f77b4"/>
   </g>
   <g id="patch_184">
    <path d="M 258.366984 266.2 
L 259.126303 266.2 
L 259.126303 260.671861 
L 258.366984 260.671861 
z
" clip-path="url(#pa504078bac)" style="fill: #1f77b4"/>
   </g>
   <g id="patch_185">
    <path d="M 259.316132 266.2 
L 260.075451 266.2 
L 260.075451 260.671861 
L 259.316132 260.671861 
z
" clip-path="url(#pa504078bac)" style="fill: #1f77b4"/>
   </g>
   <g id="patch_186">
    <path d="M 260.26528 266.2 
L 261.024599 266.2 
L 261.024599 260.671861 
L 260.26528 260.671861 
z
" clip-path="url(#pa504078bac)" style="fill: #1f77b4"/>
   </g>
   <g id="patch_187">
    <path d="M 261.214429 266.2 
L 261.973747 266.2 
L 261.973747 260.671861 
L 261.214429 260.671861 
z
" clip-path="url(#pa504078bac)" style="fill: #1f77b4"/>
   </g>
   <g id="patch_188">
    <path d="M 262.163577 266.2 
L 262.922895 266.2 
L 262.922895 260.671861 
L 262.163577 260.671861 
z
" clip-path="url(#pa504078bac)" style="fill: #1f77b4"/>
   </g>
   <g id="patch_189">
    <path d="M 263.112725 266.2 
L 263.872043 266.2 
L 263.872043 260.671861 
L 263.112725 260.671861 
z
" clip-path="url(#pa504078bac)" style="fill: #1f77b4"/>
   </g>
   <g id="patch_190">
    <path d="M 264.061873 266.2 
L 264.821192 266.2 
L 264.821192 260.671861 
L 264.061873 260.671861 
z
" clip-path="url(#pa504078bac)" style="fill: #1f77b4"/>
   </g>
   <g id="patch_191">
    <path d="M 265.011021 266.2 
L 265.77034 266.2 
L 265.77034 260.671861 
L 265.011021 260.671861 
z
" clip-path="url(#pa504078bac)" style="fill: #1f77b4"/>
   </g>
   <g id="patch_192">
    <path d="M 265.960169 266.2 
L 266.719488 266.2 
L 266.719488 260.671861 
L 265.960169 260.671861 
z
" clip-path="url(#pa504078bac)" style="fill: #1f77b4"/>
   </g>
   <g id="patch_193">
    <path d="M 266.909318 266.2 
L 267.668636 266.2 
L 267.668636 260.671861 
L 266.909318 260.671861 
z
" clip-path="url(#pa504078bac)" style="fill: #1f77b4"/>
   </g>
   <g id="patch_194">
    <path d="M 267.858466 266.2 
L 268.617784 266.2 
L 268.617784 260.671861 
L 267.858466 260.671861 
z
" clip-path="url(#pa504078bac)" style="fill: #1f77b4"/>
   </g>
   <g id="patch_195">
    <path d="M 268.807614 266.2 
L 269.566932 266.2 
L 269.566932 260.671861 
L 268.807614 260.671861 
z
" clip-path="url(#pa504078bac)" style="fill: #1f77b4"/>
   </g>
   <g id="patch_196">
    <path d="M 269.756762 266.2 
L 270.516081 266.2 
L 270.516081 260.671861 
L 269.756762 260.671861 
z
" clip-path="url(#pa504078bac)" style="fill: #1f77b4"/>
   </g>
   <g id="patch_197">
    <path d="M 270.70591 266.2 
L 271.465229 266.2 
L 271.465229 260.671861 
L 270.70591 260.671861 
z
" clip-path="url(#pa504078bac)" style="fill: #1f77b4"/>
   </g>
   <g id="patch_198">
    <path d="M 271.655058 266.2 
L 272.414377 266.2 
L 272.414377 260.671861 
L 271.655058 260.671861 
z
" clip-path="url(#pa504078bac)" style="fill: #1f77b4"/>
   </g>
   <g id="patch_199">
    <path d="M 272.604207 266.2 
L 273.363525 266.2 
L 273.363525 260.671861 
L 272.604207 260.671861 
z
" clip-path="url(#pa504078bac)" style="fill: #1f77b4"/>
   </g>
   <g id="patch_200">
    <path d="M 273.553355 266.2 
L 274.312673 266.2 
L 274.312673 260.671861 
L 273.553355 260.671861 
z
" clip-path="url(#pa504078bac)" style="fill: #1f77b4"/>
   </g>
   <g id="patch_201">
    <path d="M 274.502503 266.2 
L 275.261821 266.2 
L 275.261821 260.671861 
L 274.502503 260.671861 
z
" clip-path="url(#pa504078bac)" style="fill: #1f77b4"/>
   </g>
   <g id="patch_202">
    <path d="M 275.451651 266.2 
L 276.21097 266.2 
L 276.21097 260.671861 
L 275.451651 260.671861 
z
" clip-path="url(#pa504078bac)" style="fill: #1f77b4"/>
   </g>
   <g id="patch_203">
    <path d="M 276.400799 266.2 
L 277.160118 266.2 
L 277.160118 260.671861 
L 276.400799 260.671861 
z
" clip-path="url(#pa504078bac)" style="fill: #1f77b4"/>
   </g>
   <g id="patch_204">
    <path d="M 277.349947 266.2 
L 278.109266 266.2 
L 278.109266 260.671861 
L 277.349947 260.671861 
z
" clip-path="url(#pa504078bac)" style="fill: #1f77b4"/>
   </g>
   <g id="patch_205">
    <path d="M 278.299096 266.2 
L 279.058414 266.2 
L 279.058414 260.671861 
L 278.299096 260.671861 
z
" clip-path="url(#pa504078bac)" style="fill: #1f77b4"/>
   </g>
   <g id="patch_206">
    <path d="M 279.248244 266.2 
L 280.007562 266.2 
L 280.007562 260.671861 
L 279.248244 260.671861 
z
" clip-path="url(#pa504078bac)" style="fill: #1f77b4"/>
   </g>
   <g id="patch_207">
    <path d="M 280.197392 266.2 
L 280.956711 266.2 
L 280.956711 260.671861 
L 280.197392 260.671861 
z
" clip-path="url(#pa504078bac)" style="fill: #1f77b4"/>
   </g>
   <g id="patch_208">
    <path d="M 281.14654 266.2 
L 281.905859 266.2 
L 281.905859 260.671861 
L 281.14654 260.671861 
z
" clip-path="url(#pa504078bac)" style="fill: #1f77b4"/>
   </g>
   <g id="patch_209">
    <path d="M 282.095688 266.2 
L 282.855007 266.2 
L 282.855007 260.671861 
L 282.095688 260.671861 
z
" clip-path="url(#pa504078bac)" style="fill: #1f77b4"/>
   </g>
   <g id="patch_210">
    <path d="M 283.044836 266.2 
L 283.804155 266.2 
L 283.804155 260.671861 
L 283.044836 260.671861 
z
" clip-path="url(#pa504078bac)" style="fill: #1f77b4"/>
   </g>
   <g id="patch_211">
    <path d="M 283.993985 266.2 
L 284.753303 266.2 
L 284.753303 260.671861 
L 283.993985 260.671861 
z
" clip-path="url(#pa504078bac)" style="fill: #1f77b4"/>
   </g>
   <g id="patch_212">
    <path d="M 284.943133 266.2 
L 285.702451 266.2 
L 285.702451 260.671861 
L 284.943133 260.671861 
z
" clip-path="url(#pa504078bac)" style="fill: #1f77b4"/>
   </g>
   <g id="patch_213">
    <path d="M 285.892281 266.2 
L 286.6516 266.2 
L 286.6516 260.671861 
L 285.892281 260.671861 
z
" clip-path="url(#pa504078bac)" style="fill: #1f77b4"/>
   </g>
   <g id="patch_214">
    <path d="M 286.841429 266.2 
L 287.600748 266.2 
L 287.600748 260.671861 
L 286.841429 260.671861 
z
" clip-path="url(#pa504078bac)" style="fill: #1f77b4"/>
   </g>
   <g id="patch_215">
    <path d="M 287.790577 266.2 
L 288.549896 266.2 
L 288.549896 260.671861 
L 287.790577 260.671861 
z
" clip-path="url(#pa504078bac)" style="fill: #1f77b4"/>
   </g>
   <g id="patch_216">
    <path d="M 288.739726 266.2 
L 289.499044 266.2 
L 289.499044 260.671861 
L 288.739726 260.671861 
z
" clip-path="url(#pa504078bac)" style="fill: #1f77b4"/>
   </g>
   <g id="patch_217">
    <path d="M 289.688874 266.2 
L 290.448192 266.2 
L 290.448192 260.671861 
L 289.688874 260.671861 
z
" clip-path="url(#pa504078bac)" style="fill: #1f77b4"/>
   </g>
   <g id="patch_218">
    <path d="M 290.638022 266.2 
L 291.39734 266.2 
L 291.39734 260.671861 
L 290.638022 260.671861 
z
" clip-path="url(#pa504078bac)" style="fill: #1f77b4"/>
   </g>
   <g id="patch_219">
    <path d="M 291.58717 266.2 
L 292.346489 266.2 
L 292.346489 260.671861 
L 291.58717 260.671861 
z
" clip-path="url(#pa504078bac)" style="fill: #1f77b4"/>
   </g>
   <g id="patch_220">
    <path d="M 292.536318 266.2 
L 293.295637 266.2 
L 293.295637 260.671861 
L 292.536318 260.671861 
z
" clip-path="url(#pa504078bac)" style="fill: #1f77b4"/>
   </g>
   <g id="patch_221">
    <path d="M 293.485466 266.2 
L 294.244785 266.2 
L 294.244785 260.671861 
L 293.485466 260.671861 
z
" clip-path="url(#pa504078bac)" style="fill: #1f77b4"/>
   </g>
   <g id="patch_222">
    <path d="M 294.434615 266.2 
L 295.193933 266.2 
L 295.193933 260.671861 
L 294.434615 260.671861 
z
" clip-path="url(#pa504078bac)" style="fill: #1f77b4"/>
   </g>
   <g id="patch_223">
    <path d="M 295.383763 266.2 
L 296.143081 266.2 
L 296.143081 260.671861 
L 295.383763 260.671861 
z
" clip-path="url(#pa504078bac)" style="fill: #1f77b4"/>
   </g>
   <g id="patch_224">
    <path d="M 296.332911 266.2 
L 297.092229 266.2 
L 297.092229 260.671861 
L 296.332911 260.671861 
z
" clip-path="url(#pa504078bac)" style="fill: #1f77b4"/>
   </g>
   <g id="patch_225">
    <path d="M 297.282059 266.2 
L 298.041378 266.2 
L 298.041378 260.671861 
L 297.282059 260.671861 
z
" clip-path="url(#pa504078bac)" style="fill: #1f77b4"/>
   </g>
   <g id="patch_226">
    <path d="M 298.231207 266.2 
L 298.990526 266.2 
L 298.990526 260.671861 
L 298.231207 260.671861 
z
" clip-path="url(#pa504078bac)" style="fill: #1f77b4"/>
   </g>
   <g id="patch_227">
    <path d="M 299.180355 266.2 
L 299.939674 266.2 
L 299.939674 260.671861 
L 299.180355 260.671861 
z
" clip-path="url(#pa504078bac)" style="fill: #1f77b4"/>
   </g>
   <g id="patch_228">
    <path d="M 300.129504 266.2 
L 300.888822 266.2 
L 300.888822 260.671861 
L 300.129504 260.671861 
z
" clip-path="url(#pa504078bac)" style="fill: #1f77b4"/>
   </g>
   <g id="patch_229">
    <path d="M 301.078652 266.2 
L 301.83797 266.2 
L 301.83797 260.671861 
L 301.078652 260.671861 
z
" clip-path="url(#pa504078bac)" style="fill: #1f77b4"/>
   </g>
   <g id="patch_230">
    <path d="M 302.0278 266.2 
L 302.787118 266.2 
L 302.787118 260.671861 
L 302.0278 260.671861 
z
" clip-path="url(#pa504078bac)" style="fill: #1f77b4"/>
   </g>
   <g id="patch_231">
    <path d="M 302.976948 266.2 
L 303.736267 266.2 
L 303.736267 260.671861 
L 302.976948 260.671861 
z
" clip-path="url(#pa504078bac)" style="fill: #1f77b4"/>
   </g>
   <g id="patch_232">
    <path d="M 303.926096 266.2 
L 304.685415 266.2 
L 304.685415 260.671861 
L 303.926096 260.671861 
z
" clip-path="url(#pa504078bac)" style="fill: #1f77b4"/>
   </g>
   <g id="patch_233">
    <path d="M 304.875244 266.2 
L 305.634563 266.2 
L 305.634563 260.671861 
L 304.875244 260.671861 
z
" clip-path="url(#pa504078bac)" style="fill: #1f77b4"/>
   </g>
   <g id="patch_234">
    <path d="M 305.824393 266.2 
L 306.583711 266.2 
L 306.583711 260.671861 
L 305.824393 260.671861 
z
" clip-path="url(#pa504078bac)" style="fill: #1f77b4"/>
   </g>
   <g id="patch_235">
    <path d="M 306.773541 266.2 
L 307.532859 266.2 
L 307.532859 260.671861 
L 306.773541 260.671861 
z
" clip-path="url(#pa504078bac)" style="fill: #1f77b4"/>
   </g>
   <g id="patch_236">
    <path d="M 307.722689 266.2 
L 308.482008 266.2 
L 308.482008 260.671861 
L 307.722689 260.671861 
z
" clip-path="url(#pa504078bac)" style="fill: #1f77b4"/>
   </g>
   <g id="patch_237">
    <path d="M 308.671837 266.2 
L 309.431156 266.2 
L 309.431156 260.671861 
L 308.671837 260.671861 
z
" clip-path="url(#pa504078bac)" style="fill: #1f77b4"/>
   </g>
   <g id="patch_238">
    <path d="M 309.620985 266.2 
L 310.380304 266.2 
L 310.380304 260.671861 
L 309.620985 260.671861 
z
" clip-path="url(#pa504078bac)" style="fill: #1f77b4"/>
   </g>
   <g id="patch_239">
    <path d="M 310.570133 266.2 
L 311.329452 266.2 
L 311.329452 260.671861 
L 310.570133 260.671861 
z
" clip-path="url(#pa504078bac)" style="fill: #1f77b4"/>
   </g>
   <g id="patch_240">
    <path d="M 311.519282 266.2 
L 312.2786 266.2 
L 312.2786 260.671861 
L 311.519282 260.671861 
z
" clip-path="url(#pa504078bac)" style="fill: #1f77b4"/>
   </g>
   <g id="patch_241">
    <path d="M 312.46843 266.2 
L 313.227748 266.2 
L 313.227748 260.671861 
L 312.46843 260.671861 
z
" clip-path="url(#pa504078bac)" style="fill: #1f77b4"/>
   </g>
   <g id="patch_242">
    <path d="M 313.417578 266.2 
L 314.176897 266.2 
L 314.176897 260.671861 
L 313.417578 260.671861 
z
" clip-path="url(#pa504078bac)" style="fill: #1f77b4"/>
   </g>
   <g id="patch_243">
    <path d="M 314.366726 266.2 
L 315.126045 266.2 
L 315.126045 260.671861 
L 314.366726 260.671861 
z
" clip-path="url(#pa504078bac)" style="fill: #1f77b4"/>
   </g>
   <g id="patch_244">
    <path d="M 315.315874 266.2 
L 316.075193 266.2 
L 316.075193 260.671861 
L 315.315874 260.671861 
z
" clip-path="url(#pa504078bac)" style="fill: #1f77b4"/>
   </g>
   <g id="patch_245">
    <path d="M 316.265023 266.2 
L 317.024341 266.2 
L 317.024341 260.671861 
L 316.265023 260.671861 
z
" clip-path="url(#pa504078bac)" style="fill: #1f77b4"/>
   </g>
   <g id="patch_246">
    <path d="M 317.214171 266.2 
L 317.973489 266.2 
L 317.973489 260.671861 
L 317.214171 260.671861 
z
" clip-path="url(#pa504078bac)" style="fill: #1f77b4"/>
   </g>
   <g id="patch_247">
    <path d="M 318.163319 266.2 
L 318.922637 266.2 
L 318.922637 260.671861 
L 318.163319 260.671861 
z
" clip-path="url(#pa504078bac)" style="fill: #1f77b4"/>
   </g>
   <g id="patch_248">
    <path d="M 319.112467 266.2 
L 319.871786 266.2 
L 319.871786 260.671861 
L 319.112467 260.671861 
z
" clip-path="url(#pa504078bac)" style="fill: #1f77b4"/>
   </g>
   <g id="patch_249">
    <path d="M 320.061615 266.2 
L 320.820934 266.2 
L 320.820934 260.671861 
L 320.061615 260.671861 
z
" clip-path="url(#pa504078bac)" style="fill: #1f77b4"/>
   </g>
   <g id="patch_250">
    <path d="M 321.010763 266.2 
L 321.770082 266.2 
L 321.770082 260.671861 
L 321.010763 260.671861 
z
" clip-path="url(#pa504078bac)" style="fill: #1f77b4"/>
   </g>
   <g id="patch_251">
    <path d="M 321.959912 266.2 
L 322.71923 266.2 
L 322.71923 260.671861 
L 321.959912 260.671861 
z
" clip-path="url(#pa504078bac)" style="fill: #1f77b4"/>
   </g>
   <g id="patch_252">
    <path d="M 322.90906 266.2 
L 323.668378 266.2 
L 323.668378 260.671861 
L 322.90906 260.671861 
z
" clip-path="url(#pa504078bac)" style="fill: #1f77b4"/>
   </g>
   <g id="patch_253">
    <path d="M 323.858208 266.2 
L 324.617526 266.2 
L 324.617526 260.671861 
L 323.858208 260.671861 
z
" clip-path="url(#pa504078bac)" style="fill: #1f77b4"/>
   </g>
   <g id="patch_254">
    <path d="M 324.807356 266.2 
L 325.566675 266.2 
L 325.566675 260.671861 
L 324.807356 260.671861 
z
" clip-path="url(#pa504078bac)" style="fill: #1f77b4"/>
   </g>
   <g id="patch_255">
    <path d="M 325.756504 266.2 
L 326.515823 266.2 
L 326.515823 260.671861 
L 325.756504 260.671861 
z
" clip-path="url(#pa504078bac)" style="fill: #1f77b4"/>
   </g>
   <g id="patch_256">
    <path d="M 326.705652 266.2 
L 327.464971 266.2 
L 327.464971 260.671861 
L 326.705652 260.671861 
z
" clip-path="url(#pa504078bac)" style="fill: #1f77b4"/>
   </g>
   <g id="patch_257">
    <path d="M 327.654801 266.2 
L 328.414119 266.2 
L 328.414119 260.671861 
L 327.654801 260.671861 
z
" clip-path="url(#pa504078bac)" style="fill: #1f77b4"/>
   </g>
   <g id="patch_258">
    <path d="M 328.603949 266.2 
L 329.363267 266.2 
L 329.363267 260.671861 
L 328.603949 260.671861 
z
" clip-path="url(#pa504078bac)" style="fill: #1f77b4"/>
   </g>
   <g id="patch_259">
    <path d="M 329.553097 266.2 
L 330.312415 266.2 
L 330.312415 260.671861 
L 329.553097 260.671861 
z
" clip-path="url(#pa504078bac)" style="fill: #1f77b4"/>
   </g>
   <g id="patch_260">
    <path d="M 330.502245 266.2 
L 331.261564 266.2 
L 331.261564 260.671861 
L 330.502245 260.671861 
z
" clip-path="url(#pa504078bac)" style="fill: #1f77b4"/>
   </g>
   <g id="patch_261">
    <path d="M 331.451393 266.2 
L 332.210712 266.2 
L 332.210712 260.671861 
L 331.451393 260.671861 
z
" clip-path="url(#pa504078bac)" style="fill: #1f77b4"/>
   </g>
   <g id="patch_262">
    <path d="M 332.400541 266.2 
L 333.15986 266.2 
L 333.15986 260.671861 
L 332.400541 260.671861 
z
" clip-path="url(#pa504078bac)" style="fill: #1f77b4"/>
   </g>
   <g id="patch_263">
    <path d="M 333.34969 266.2 
L 334.109008 266.2 
L 334.109008 260.671861 
L 333.34969 260.671861 
z
" clip-path="url(#pa504078bac)" style="fill: #1f77b4"/>
   </g>
   <g id="patch_264">
    <path d="M 334.298838 266.2 
L 335.058156 266.2 
L 335.058156 260.671861 
L 334.298838 260.671861 
z
" clip-path="url(#pa504078bac)" style="fill: #1f77b4"/>
   </g>
   <g id="patch_265">
    <path d="M 335.247986 266.2 
L 336.007305 266.2 
L 336.007305 260.671861 
L 335.247986 260.671861 
z
" clip-path="url(#pa504078bac)" style="fill: #1f77b4"/>
   </g>
   <g id="patch_266">
    <path d="M 336.197134 266.2 
L 336.956453 266.2 
L 336.956453 260.671861 
L 336.197134 260.671861 
z
" clip-path="url(#pa504078bac)" style="fill: #1f77b4"/>
   </g>
   <g id="patch_267">
    <path d="M 337.146282 266.2 
L 337.905601 266.2 
L 337.905601 260.671861 
L 337.146282 260.671861 
z
" clip-path="url(#pa504078bac)" style="fill: #1f77b4"/>
   </g>
   <g id="patch_268">
    <path d="M 338.09543 266.2 
L 338.854749 266.2 
L 338.854749 260.671861 
L 338.09543 260.671861 
z
" clip-path="url(#pa504078bac)" style="fill: #1f77b4"/>
   </g>
   <g id="patch_269">
    <path d="M 339.044579 266.2 
L 339.803897 266.2 
L 339.803897 260.671861 
L 339.044579 260.671861 
z
" clip-path="url(#pa504078bac)" style="fill: #1f77b4"/>
   </g>
   <g id="patch_270">
    <path d="M 339.993727 266.2 
L 340.753045 266.2 
L 340.753045 260.671861 
L 339.993727 260.671861 
z
" clip-path="url(#pa504078bac)" style="fill: #1f77b4"/>
   </g>
   <g id="patch_271">
    <path d="M 340.942875 266.2 
L 341.702194 266.2 
L 341.702194 260.671861 
L 340.942875 260.671861 
z
" clip-path="url(#pa504078bac)" style="fill: #1f77b4"/>
   </g>
   <g id="patch_272">
    <path d="M 341.892023 266.2 
L 342.651342 266.2 
L 342.651342 260.671861 
L 341.892023 260.671861 
z
" clip-path="url(#pa504078bac)" style="fill: #1f77b4"/>
   </g>
   <g id="patch_273">
    <path d="M 342.841171 266.2 
L 343.60049 266.2 
L 343.60049 260.671861 
L 342.841171 260.671861 
z
" clip-path="url(#pa504078bac)" style="fill: #1f77b4"/>
   </g>
   <g id="patch_274">
    <path d="M 343.79032 266.2 
L 344.549638 266.2 
L 344.549638 260.671861 
L 343.79032 260.671861 
z
" clip-path="url(#pa504078bac)" style="fill: #1f77b4"/>
   </g>
   <g id="patch_275">
    <path d="M 344.739468 266.2 
L 345.498786 266.2 
L 345.498786 260.671861 
L 344.739468 260.671861 
z
" clip-path="url(#pa504078bac)" style="fill: #1f77b4"/>
   </g>
   <g id="patch_276">
    <path d="M 345.688616 266.2 
L 346.447934 266.2 
L 346.447934 260.671861 
L 345.688616 260.671861 
z
" clip-path="url(#pa504078bac)" style="fill: #1f77b4"/>
   </g>
   <g id="patch_277">
    <path d="M 346.637764 266.2 
L 347.397083 266.2 
L 347.397083 260.671861 
L 346.637764 260.671861 
z
" clip-path="url(#pa504078bac)" style="fill: #1f77b4"/>
   </g>
   <g id="patch_278">
    <path d="M 347.586912 266.2 
L 348.346231 266.2 
L 348.346231 260.671861 
L 347.586912 260.671861 
z
" clip-path="url(#pa504078bac)" style="fill: #1f77b4"/>
   </g>
   <g id="patch_279">
    <path d="M 348.53606 266.2 
L 349.295379 266.2 
L 349.295379 260.671861 
L 348.53606 260.671861 
z
" clip-path="url(#pa504078bac)" style="fill: #1f77b4"/>
   </g>
   <g id="patch_280">
    <path d="M 349.485209 266.2 
L 350.244527 266.2 
L 350.244527 260.671861 
L 349.485209 260.671861 
z
" clip-path="url(#pa504078bac)" style="fill: #1f77b4"/>
   </g>
   <g id="patch_281">
    <path d="M 350.434357 266.2 
L 351.193675 266.2 
L 351.193675 260.671861 
L 350.434357 260.671861 
z
" clip-path="url(#pa504078bac)" style="fill: #1f77b4"/>
   </g>
   <g id="patch_282">
    <path d="M 351.383505 266.2 
L 352.142823 266.2 
L 352.142823 260.671861 
L 351.383505 260.671861 
z
" clip-path="url(#pa504078bac)" style="fill: #1f77b4"/>
   </g>
   <g id="patch_283">
    <path d="M 352.332653 266.2 
L 353.091972 266.2 
L 353.091972 260.671861 
L 352.332653 260.671861 
z
" clip-path="url(#pa504078bac)" style="fill: #1f77b4"/>
   </g>
   <g id="patch_284">
    <path d="M 353.281801 266.2 
L 354.04112 266.2 
L 354.04112 260.671861 
L 353.281801 260.671861 
z
" clip-path="url(#pa504078bac)" style="fill: #1f77b4"/>
   </g>
   <g id="patch_285">
    <path d="M 354.230949 266.2 
L 354.990268 266.2 
L 354.990268 260.671861 
L 354.230949 260.671861 
z
" clip-path="url(#pa504078bac)" style="fill: #1f77b4"/>
   </g>
   <g id="patch_286">
    <path d="M 355.180098 266.2 
L 355.939416 266.2 
L 355.939416 260.671861 
L 355.180098 260.671861 
z
" clip-path="url(#pa504078bac)" style="fill: #1f77b4"/>
   </g>
   <g id="patch_287">
    <path d="M 356.129246 266.2 
L 356.888564 266.2 
L 356.888564 260.671861 
L 356.129246 260.671861 
z
" clip-path="url(#pa504078bac)" style="fill: #1f77b4"/>
   </g>
   <g id="patch_288">
    <path d="M 357.078394 266.2 
L 357.837712 266.2 
L 357.837712 260.671861 
L 357.078394 260.671861 
z
" clip-path="url(#pa504078bac)" style="fill: #1f77b4"/>
   </g>
   <g id="patch_289">
    <path d="M 358.027542 266.2 
L 358.786861 266.2 
L 358.786861 260.671861 
L 358.027542 260.671861 
z
" clip-path="url(#pa504078bac)" style="fill: #1f77b4"/>
   </g>
   <g id="patch_290">
    <path d="M 358.97669 266.2 
L 359.736009 266.2 
L 359.736009 260.671861 
L 358.97669 260.671861 
z
" clip-path="url(#pa504078bac)" style="fill: #1f77b4"/>
   </g>
   <g id="patch_291">
    <path d="M 359.925838 266.2 
L 360.685157 266.2 
L 360.685157 260.671861 
L 359.925838 260.671861 
z
" clip-path="url(#pa504078bac)" style="fill: #1f77b4"/>
   </g>
   <g id="patch_292">
    <path d="M 360.874987 266.2 
L 361.634305 266.2 
L 361.634305 260.671861 
L 360.874987 260.671861 
z
" clip-path="url(#pa504078bac)" style="fill: #1f77b4"/>
   </g>
   <g id="patch_293">
    <path d="M 361.824135 266.2 
L 362.583453 266.2 
L 362.583453 260.671861 
L 361.824135 260.671861 
z
" clip-path="url(#pa504078bac)" style="fill: #1f77b4"/>
   </g>
   <g id="patch_294">
    <path d="M 362.773283 266.2 
L 363.532602 266.2 
L 363.532602 260.671861 
L 362.773283 260.671861 
z
" clip-path="url(#pa504078bac)" style="fill: #1f77b4"/>
   </g>
   <g id="patch_295">
    <path d="M 363.722431 266.2 
L 364.48175 266.2 
L 364.48175 260.671861 
L 363.722431 260.671861 
z
" clip-path="url(#pa504078bac)" style="fill: #1f77b4"/>
   </g>
   <g id="patch_296">
    <path d="M 364.671579 266.2 
L 365.430898 266.2 
L 365.430898 260.671861 
L 364.671579 260.671861 
z
" clip-path="url(#pa504078bac)" style="fill: #1f77b4"/>
   </g>
   <g id="patch_297">
    <path d="M 365.620727 266.2 
L 366.380046 266.2 
L 366.380046 260.671861 
L 365.620727 260.671861 
z
" clip-path="url(#pa504078bac)" style="fill: #1f77b4"/>
   </g>
   <g id="patch_298">
    <path d="M 366.569876 266.2 
L 367.329194 266.2 
L 367.329194 260.671861 
L 366.569876 260.671861 
z
" clip-path="url(#pa504078bac)" style="fill: #1f77b4"/>
   </g>
   <g id="patch_299">
    <path d="M 367.519024 266.2 
L 368.278342 266.2 
L 368.278342 260.671861 
L 367.519024 260.671861 
z
" clip-path="url(#pa504078bac)" style="fill: #1f77b4"/>
   </g>
   <g id="patch_300">
    <path d="M 368.468172 266.2 
L 369.227491 266.2 
L 369.227491 260.671861 
L 368.468172 260.671861 
z
" clip-path="url(#pa504078bac)" style="fill: #1f77b4"/>
   </g>
   <g id="patch_301">
    <path d="M 369.41732 266.2 
L 370.176639 266.2 
L 370.176639 260.671861 
L 369.41732 260.671861 
z
" clip-path="url(#pa504078bac)" style="fill: #1f77b4"/>
   </g>
   <g id="patch_302">
    <path d="M 370.366468 266.2 
L 371.125787 266.2 
L 371.125787 260.671861 
L 370.366468 260.671861 
z
" clip-path="url(#pa504078bac)" style="fill: #1f77b4"/>
   </g>
   <g id="patch_303">
    <path d="M 371.315617 266.2 
L 372.074935 266.2 
L 372.074935 260.671861 
L 371.315617 260.671861 
z
" clip-path="url(#pa504078bac)" style="fill: #1f77b4"/>
   </g>
   <g id="patch_304">
    <path d="M 372.264765 266.2 
L 373.024083 266.2 
L 373.024083 260.671861 
L 372.264765 260.671861 
z
" clip-path="url(#pa504078bac)" style="fill: #1f77b4"/>
   </g>
   <g id="patch_305">
    <path d="M 373.213913 266.2 
L 373.973231 266.2 
L 373.973231 260.671861 
L 373.213913 260.671861 
z
" clip-path="url(#pa504078bac)" style="fill: #1f77b4"/>
   </g>
   <g id="patch_306">
    <path d="M 374.163061 266.2 
L 374.92238 266.2 
L 374.92238 260.671861 
L 374.163061 260.671861 
z
" clip-path="url(#pa504078bac)" style="fill: #1f77b4"/>
   </g>
   <g id="patch_307">
    <path d="M 375.112209 266.2 
L 375.871528 266.2 
L 375.871528 260.671861 
L 375.112209 260.671861 
z
" clip-path="url(#pa504078bac)" style="fill: #1f77b4"/>
   </g>
   <g id="patch_308">
    <path d="M 376.061357 266.2 
L 376.820676 266.2 
L 376.820676 260.671861 
L 376.061357 260.671861 
z
" clip-path="url(#pa504078bac)" style="fill: #1f77b4"/>
   </g>
   <g id="patch_309">
    <path d="M 377.010506 266.2 
L 377.769824 266.2 
L 377.769824 260.671861 
L 377.010506 260.671861 
z
" clip-path="url(#pa504078bac)" style="fill: #1f77b4"/>
   </g>
   <g id="patch_310">
    <path d="M 377.959654 266.2 
L 378.718972 266.2 
L 378.718972 260.671861 
L 377.959654 260.671861 
z
" clip-path="url(#pa504078bac)" style="fill: #1f77b4"/>
   </g>
   <g id="patch_311">
    <path d="M 378.908802 266.2 
L 379.66812 266.2 
L 379.66812 260.671861 
L 378.908802 260.671861 
z
" clip-path="url(#pa504078bac)" style="fill: #1f77b4"/>
   </g>
   <g id="patch_312">
    <path d="M 379.85795 266.2 
L 380.617269 266.2 
L 380.617269 260.671861 
L 379.85795 260.671861 
z
" clip-path="url(#pa504078bac)" style="fill: #1f77b4"/>
   </g>
   <g id="patch_313">
    <path d="M 380.807098 266.2 
L 381.566417 266.2 
L 381.566417 260.671861 
L 380.807098 260.671861 
z
" clip-path="url(#pa504078bac)" style="fill: #1f77b4"/>
   </g>
   <g id="patch_314">
    <path d="M 381.756246 266.2 
L 382.515565 266.2 
L 382.515565 260.671861 
L 381.756246 260.671861 
z
" clip-path="url(#pa504078bac)" style="fill: #1f77b4"/>
   </g>
   <g id="patch_315">
    <path d="M 382.705395 266.2 
L 383.464713 266.2 
L 383.464713 260.671861 
L 382.705395 260.671861 
z
" clip-path="url(#pa504078bac)" style="fill: #1f77b4"/>
   </g>
   <g id="patch_316">
    <path d="M 383.654543 266.2 
L 384.413861 266.2 
L 384.413861 260.671861 
L 383.654543 260.671861 
z
" clip-path="url(#pa504078bac)" style="fill: #1f77b4"/>
   </g>
   <g id="patch_317">
    <path d="M 384.603691 266.2 
L 385.363009 266.2 
L 385.363009 260.671861 
L 384.603691 260.671861 
z
" clip-path="url(#pa504078bac)" style="fill: #1f77b4"/>
   </g>
   <g id="patch_318">
    <path d="M 385.552839 266.2 
L 386.312158 266.2 
L 386.312158 260.671861 
L 385.552839 260.671861 
z
" clip-path="url(#pa504078bac)" style="fill: #1f77b4"/>
   </g>
   <g id="patch_319">
    <path d="M 386.501987 266.2 
L 387.261306 266.2 
L 387.261306 260.671861 
L 386.501987 260.671861 
z
" clip-path="url(#pa504078bac)" style="fill: #1f77b4"/>
   </g>
   <g id="patch_320">
    <path d="M 387.451135 266.2 
L 388.210454 266.2 
L 388.210454 260.671861 
L 387.451135 260.671861 
z
" clip-path="url(#pa504078bac)" style="fill: #1f77b4"/>
   </g>
   <g id="patch_321">
    <path d="M 388.400284 266.2 
L 389.159602 266.2 
L 389.159602 260.671861 
L 388.400284 260.671861 
z
" clip-path="url(#pa504078bac)" style="fill: #1f77b4"/>
   </g>
   <g id="patch_322">
    <path d="M 389.349432 266.2 
L 390.10875 266.2 
L 390.10875 260.671861 
L 389.349432 260.671861 
z
" clip-path="url(#pa504078bac)" style="fill: #1f77b4"/>
   </g>
   <g id="patch_323">
    <path d="M 390.29858 266.2 
L 391.057898 266.2 
L 391.057898 260.671861 
L 390.29858 260.671861 
z
" clip-path="url(#pa504078bac)" style="fill: #1f77b4"/>
   </g>
   <g id="patch_324">
    <path d="M 391.247728 266.2 
L 392.007047 266.2 
L 392.007047 260.671861 
L 391.247728 260.671861 
z
" clip-path="url(#pa504078bac)" style="fill: #1f77b4"/>
   </g>
   <g id="patch_325">
    <path d="M 392.196876 266.2 
L 392.956195 266.2 
L 392.956195 260.671861 
L 392.196876 260.671861 
z
" clip-path="url(#pa504078bac)" style="fill: #1f77b4"/>
   </g>
   <g id="patch_326">
    <path d="M 393.146024 266.2 
L 393.905343 266.2 
L 393.905343 260.671861 
L 393.146024 260.671861 
z
" clip-path="url(#pa504078bac)" style="fill: #1f77b4"/>
   </g>
   <g id="patch_327">
    <path d="M 394.095173 266.2 
L 394.854491 266.2 
L 394.854491 260.671861 
L 394.095173 260.671861 
z
" clip-path="url(#pa504078bac)" style="fill: #1f77b4"/>
   </g>
   <g id="patch_328">
    <path d="M 395.044321 266.2 
L 395.803639 266.2 
L 395.803639 260.671861 
L 395.044321 260.671861 
z
" clip-path="url(#pa504078bac)" style="fill: #1f77b4"/>
   </g>
   <g id="patch_329">
    <path d="M 395.993469 266.2 
L 396.752788 266.2 
L 396.752788 260.671861 
L 395.993469 260.671861 
z
" clip-path="url(#pa504078bac)" style="fill: #1f77b4"/>
   </g>
   <g id="patch_330">
    <path d="M 396.942617 266.2 
L 397.701936 266.2 
L 397.701936 260.671861 
L 396.942617 260.671861 
z
" clip-path="url(#pa504078bac)" style="fill: #1f77b4"/>
   </g>
   <g id="patch_331">
    <path d="M 397.891765 266.2 
L 398.651084 266.2 
L 398.651084 260.671861 
L 397.891765 260.671861 
z
" clip-path="url(#pa504078bac)" style="fill: #1f77b4"/>
   </g>
   <g id="patch_332">
    <path d="M 398.840914 266.2 
L 399.600232 266.2 
L 399.600232 260.671861 
L 398.840914 260.671861 
z
" clip-path="url(#pa504078bac)" style="fill: #1f77b4"/>
   </g>
   <g id="patch_333">
    <path d="M 399.790062 266.2 
L 400.54938 266.2 
L 400.54938 260.671861 
L 399.790062 260.671861 
z
" clip-path="url(#pa504078bac)" style="fill: #1f77b4"/>
   </g>
   <g id="patch_334">
    <path d="M 400.73921 266.2 
L 401.498528 266.2 
L 401.498528 260.671861 
L 400.73921 260.671861 
z
" clip-path="url(#pa504078bac)" style="fill: #1f77b4"/>
   </g>
   <g id="patch_335">
    <path d="M 401.688358 266.2 
L 402.447677 266.2 
L 402.447677 260.671861 
L 401.688358 260.671861 
z
" clip-path="url(#pa504078bac)" style="fill: #1f77b4"/>
   </g>
   <g id="patch_336">
    <path d="M 402.637506 266.2 
L 403.396825 266.2 
L 403.396825 260.671861 
L 402.637506 260.671861 
z
" clip-path="url(#pa504078bac)" style="fill: #1f77b4"/>
   </g>
   <g id="patch_337">
    <path d="M 403.586654 266.2 
L 404.345973 266.2 
L 404.345973 260.671861 
L 403.586654 260.671861 
z
" clip-path="url(#pa504078bac)" style="fill: #1f77b4"/>
   </g>
   <g id="patch_338">
    <path d="M 404.535803 266.2 
L 405.295121 266.2 
L 405.295121 260.671861 
L 404.535803 260.671861 
z
" clip-path="url(#pa504078bac)" style="fill: #1f77b4"/>
   </g>
   <g id="patch_339">
    <path d="M 405.484951 266.2 
L 406.244269 266.2 
L 406.244269 260.671861 
L 405.484951 260.671861 
z
" clip-path="url(#pa504078bac)" style="fill: #1f77b4"/>
   </g>
   <g id="patch_340">
    <path d="M 406.434099 266.2 
L 407.193417 266.2 
L 407.193417 260.671861 
L 406.434099 260.671861 
z
" clip-path="url(#pa504078bac)" style="fill: #1f77b4"/>
   </g>
   <g id="patch_341">
    <path d="M 407.383247 266.2 
L 408.142566 266.2 
L 408.142566 260.671861 
L 407.383247 260.671861 
z
" clip-path="url(#pa504078bac)" style="fill: #1f77b4"/>
   </g>
   <g id="patch_342">
    <path d="M 408.332395 266.2 
L 409.091714 266.2 
L 409.091714 260.671861 
L 408.332395 260.671861 
z
" clip-path="url(#pa504078bac)" style="fill: #1f77b4"/>
   </g>
   <g id="patch_343">
    <path d="M 409.281543 266.2 
L 410.040862 266.2 
L 410.040862 260.671861 
L 409.281543 260.671861 
z
" clip-path="url(#pa504078bac)" style="fill: #1f77b4"/>
   </g>
   <g id="patch_344">
    <path d="M 410.230692 266.2 
L 410.99001 266.2 
L 410.99001 260.671861 
L 410.230692 260.671861 
z
" clip-path="url(#pa504078bac)" style="fill: #1f77b4"/>
   </g>
   <g id="patch_345">
    <path d="M 411.17984 266.2 
L 411.939158 266.2 
L 411.939158 260.671861 
L 411.17984 260.671861 
z
" clip-path="url(#pa504078bac)" style="fill: #1f77b4"/>
   </g>
   <g id="patch_346">
    <path d="M 412.128988 266.2 
L 412.888306 266.2 
L 412.888306 260.671861 
L 412.128988 260.671861 
z
" clip-path="url(#pa504078bac)" style="fill: #1f77b4"/>
   </g>
   <g id="patch_347">
    <path d="M 413.078136 266.2 
L 413.837455 266.2 
L 413.837455 260.671861 
L 413.078136 260.671861 
z
" clip-path="url(#pa504078bac)" style="fill: #1f77b4"/>
   </g>
   <g id="patch_348">
    <path d="M 414.027284 266.2 
L 414.786603 266.2 
L 414.786603 260.671861 
L 414.027284 260.671861 
z
" clip-path="url(#pa504078bac)" style="fill: #1f77b4"/>
   </g>
   <g id="patch_349">
    <path d="M 414.976432 266.2 
L 415.735751 266.2 
L 415.735751 260.671861 
L 414.976432 260.671861 
z
" clip-path="url(#pa504078bac)" style="fill: #1f77b4"/>
   </g>
   <g id="patch_350">
    <path d="M 415.925581 266.2 
L 416.684899 266.2 
L 416.684899 260.671861 
L 415.925581 260.671861 
z
" clip-path="url(#pa504078bac)" style="fill: #1f77b4"/>
   </g>
   <g id="patch_351">
    <path d="M 416.874729 266.2 
L 417.634047 266.2 
L 417.634047 260.671861 
L 416.874729 260.671861 
z
" clip-path="url(#pa504078bac)" style="fill: #1f77b4"/>
   </g>
   <g id="patch_352">
    <path d="M 417.823877 266.2 
L 418.583195 266.2 
L 418.583195 260.671861 
L 417.823877 260.671861 
z
" clip-path="url(#pa504078bac)" style="fill: #1f77b4"/>
   </g>
   <g id="patch_353">
    <path d="M 418.773025 266.2 
L 419.532344 266.2 
L 419.532344 260.671861 
L 418.773025 260.671861 
z
" clip-path="url(#pa504078bac)" style="fill: #1f77b4"/>
   </g>
   <g id="patch_354">
    <path d="M 419.722173 266.2 
L 420.481492 266.2 
L 420.481492 260.671861 
L 419.722173 260.671861 
z
" clip-path="url(#pa504078bac)" style="fill: #1f77b4"/>
   </g>
   <g id="patch_355">
    <path d="M 420.671321 266.2 
L 421.43064 266.2 
L 421.43064 260.671861 
L 420.671321 260.671861 
z
" clip-path="url(#pa504078bac)" style="fill: #1f77b4"/>
   </g>
   <g id="patch_356">
    <path d="M 421.62047 266.2 
L 422.379788 266.2 
L 422.379788 260.671861 
L 421.62047 260.671861 
z
" clip-path="url(#pa504078bac)" style="fill: #1f77b4"/>
   </g>
   <g id="patch_357">
    <path d="M 422.569618 266.2 
L 423.328936 266.2 
L 423.328936 260.671861 
L 422.569618 260.671861 
z
" clip-path="url(#pa504078bac)" style="fill: #1f77b4"/>
   </g>
   <g id="patch_358">
    <path d="M 423.518766 266.2 
L 424.278085 266.2 
L 424.278085 260.671861 
L 423.518766 260.671861 
z
" clip-path="url(#pa504078bac)" style="fill: #1f77b4"/>
   </g>
   <g id="patch_359">
    <path d="M 424.467914 266.2 
L 425.227233 266.2 
L 425.227233 260.671861 
L 424.467914 260.671861 
z
" clip-path="url(#pa504078bac)" style="fill: #1f77b4"/>
   </g>
   <g id="patch_360">
    <path d="M 425.417062 266.2 
L 426.176381 266.2 
L 426.176381 260.671861 
L 425.417062 260.671861 
z
" clip-path="url(#pa504078bac)" style="fill: #1f77b4"/>
   </g>
   <g id="patch_361">
    <path d="M 426.366211 266.2 
L 427.125529 266.2 
L 427.125529 260.671861 
L 426.366211 260.671861 
z
" clip-path="url(#pa504078bac)" style="fill: #1f77b4"/>
   </g>
   <g id="patch_362">
    <path d="M 427.315359 266.2 
L 428.074677 266.2 
L 428.074677 260.671861 
L 427.315359 260.671861 
z
" clip-path="url(#pa504078bac)" style="fill: #1f77b4"/>
   </g>
   <g id="patch_363">
    <path d="M 428.264507 266.2 
L 429.023825 266.2 
L 429.023825 260.671861 
L 428.264507 260.671861 
z
" clip-path="url(#pa504078bac)" style="fill: #1f77b4"/>
   </g>
   <g id="patch_364">
    <path d="M 429.213655 266.2 
L 429.972974 266.2 
L 429.972974 260.671861 
L 429.213655 260.671861 
z
" clip-path="url(#pa504078bac)" style="fill: #1f77b4"/>
   </g>
   <g id="patch_365">
    <path d="M 430.162803 266.2 
L 430.922122 266.2 
L 430.922122 260.671861 
L 430.162803 260.671861 
z
" clip-path="url(#pa504078bac)" style="fill: #1f77b4"/>
   </g>
   <g id="patch_366">
    <path d="M 431.111951 266.2 
L 431.87127 266.2 
L 431.87127 260.671861 
L 431.111951 260.671861 
z
" clip-path="url(#pa504078bac)" style="fill: #1f77b4"/>
   </g>
   <g id="patch_367">
    <path d="M 432.0611 266.2 
L 432.820418 266.2 
L 432.820418 260.671861 
L 432.0611 260.671861 
z
" clip-path="url(#pa504078bac)" style="fill: #1f77b4"/>
   </g>
   <g id="patch_368">
    <path d="M 433.010248 266.2 
L 433.769566 266.2 
L 433.769566 260.671861 
L 433.010248 260.671861 
z
" clip-path="url(#pa504078bac)" style="fill: #1f77b4"/>
   </g>
   <g id="patch_369">
    <path d="M 433.959396 266.2 
L 434.718714 266.2 
L 434.718714 260.671861 
L 433.959396 260.671861 
z
" clip-path="url(#pa504078bac)" style="fill: #1f77b4"/>
   </g>
   <g id="patch_370">
    <path d="M 434.908544 266.2 
L 435.667863 266.2 
L 435.667863 260.671861 
L 434.908544 260.671861 
z
" clip-path="url(#pa504078bac)" style="fill: #1f77b4"/>
   </g>
   <g id="patch_371">
    <path d="M 435.857692 266.2 
L 436.617011 266.2 
L 436.617011 260.671861 
L 435.857692 260.671861 
z
" clip-path="url(#pa504078bac)" style="fill: #1f77b4"/>
   </g>
   <g id="patch_372">
    <path d="M 436.80684 266.2 
L 437.566159 266.2 
L 437.566159 260.671861 
L 436.80684 260.671861 
z
" clip-path="url(#pa504078bac)" style="fill: #1f77b4"/>
   </g>
   <g id="patch_373">
    <path d="M 437.755989 266.2 
L 438.515307 266.2 
L 438.515307 260.671861 
L 437.755989 260.671861 
z
" clip-path="url(#pa504078bac)" style="fill: #1f77b4"/>
   </g>
   <g id="patch_374">
    <path d="M 438.705137 266.2 
L 439.464455 266.2 
L 439.464455 260.671861 
L 438.705137 260.671861 
z
" clip-path="url(#pa504078bac)" style="fill: #1f77b4"/>
   </g>
   <g id="patch_375">
    <path d="M 439.654285 266.2 
L 440.413603 266.2 
L 440.413603 260.671861 
L 439.654285 260.671861 
z
" clip-path="url(#pa504078bac)" style="fill: #1f77b4"/>
   </g>
   <g id="patch_376">
    <path d="M 440.603433 266.2 
L 441.362752 266.2 
L 441.362752 260.671861 
L 440.603433 260.671861 
z
" clip-path="url(#pa504078bac)" style="fill: #1f77b4"/>
   </g>
   <g id="patch_377">
    <path d="M 441.552581 266.2 
L 442.3119 266.2 
L 442.3119 260.671861 
L 441.552581 260.671861 
z
" clip-path="url(#pa504078bac)" style="fill: #1f77b4"/>
   </g>
   <g id="patch_378">
    <path d="M 442.501729 266.2 
L 443.261048 266.2 
L 443.261048 260.671861 
L 442.501729 260.671861 
z
" clip-path="url(#pa504078bac)" style="fill: #1f77b4"/>
   </g>
   <g id="patch_379">
    <path d="M 443.450878 266.2 
L 444.210196 266.2 
L 444.210196 260.671861 
L 443.450878 260.671861 
z
" clip-path="url(#pa504078bac)" style="fill: #1f77b4"/>
   </g>
   <g id="patch_380">
    <path d="M 444.400026 266.2 
L 445.159344 266.2 
L 445.159344 260.671861 
L 444.400026 260.671861 
z
" clip-path="url(#pa504078bac)" style="fill: #1f77b4"/>
   </g>
   <g id="patch_381">
    <path d="M 445.349174 266.2 
L 446.108492 266.2 
L 446.108492 260.671861 
L 445.349174 260.671861 
z
" clip-path="url(#pa504078bac)" style="fill: #1f77b4"/>
   </g>
   <g id="patch_382">
    <path d="M 446.298322 266.2 
L 447.057641 266.2 
L 447.057641 260.671861 
L 446.298322 260.671861 
z
" clip-path="url(#pa504078bac)" style="fill: #1f77b4"/>
   </g>
   <g id="patch_383">
    <path d="M 447.24747 266.2 
L 448.006789 266.2 
L 448.006789 260.671861 
L 447.24747 260.671861 
z
" clip-path="url(#pa504078bac)" style="fill: #1f77b4"/>
   </g>
   <g id="patch_384">
    <path d="M 448.196618 266.2 
L 448.955937 266.2 
L 448.955937 260.671861 
L 448.196618 260.671861 
z
" clip-path="url(#pa504078bac)" style="fill: #1f77b4"/>
   </g>
   <g id="patch_385">
    <path d="M 449.145767 266.2 
L 449.905085 266.2 
L 449.905085 260.671861 
L 449.145767 260.671861 
z
" clip-path="url(#pa504078bac)" style="fill: #1f77b4"/>
   </g>
   <g id="matplotlib.axis_1">
    <g id="xtick_1">
     <g id="line2d_1">
      <defs>
       <path id="m7c9f7ee765" d="M 0 0 
L 0 3.5 
" style="stroke: #000000; stroke-width: 0.8"/>
      </defs>
      <g>
       <use xlink:href="#m7c9f7ee765" x="86.950824" y="266.2" style="stroke: #000000; stroke-width: 0.8"/>
      </g>
     </g>
     <g id="text_1">
      <!-- 1 -->
      <g transform="translate(77.407074 295.995312)scale(0.3 -0.3)">
       <defs>
        <path id="DejaVuSans-31" d="M 794 531 
L 1825 531 
L 1825 4091 
L 703 3866 
L 703 4441 
L 1819 4666 
L 2450 4666 
L 2450 531 
L 3481 531 
L 3481 0 
L 794 0 
L 794 531 
z
" transform="scale(0.015625)"/>
       </defs>
       <use xlink:href="#DejaVuSans-31"/>
      </g>
     </g>
    </g>
    <g id="xtick_2">
     <g id="line2d_2">
      <g>
       <use xlink:href="#m7c9f7ee765" x="181.865641" y="266.2" style="stroke: #000000; stroke-width: 0.8"/>
      </g>
     </g>
     <g id="text_2">
      <!-- 101 -->
      <g transform="translate(153.234391 295.995312)scale(0.3 -0.3)">
       <defs>
        <path id="DejaVuSans-30" d="M 2034 4250 
Q 1547 4250 1301 3770 
Q 1056 3291 1056 2328 
Q 1056 1369 1301 889 
Q 1547 409 2034 409 
Q 2525 409 2770 889 
Q 3016 1369 3016 2328 
Q 3016 3291 2770 3770 
Q 2525 4250 2034 4250 
z
M 2034 4750 
Q 2819 4750 3233 4129 
Q 3647 3509 3647 2328 
Q 3647 1150 3233 529 
Q 2819 -91 2034 -91 
Q 1250 -91 836 529 
Q 422 1150 422 2328 
Q 422 3509 836 4129 
Q 1250 4750 2034 4750 
z
" transform="scale(0.015625)"/>
       </defs>
       <use xlink:href="#DejaVuSans-31"/>
       <use xlink:href="#DejaVuSans-30" x="63.623047"/>
       <use xlink:href="#DejaVuSans-31" x="127.246094"/>
      </g>
     </g>
    </g>
    <g id="xtick_3">
     <g id="line2d_3">
      <g>
       <use xlink:href="#m7c9f7ee765" x="276.780459" y="266.2" style="stroke: #000000; stroke-width: 0.8"/>
      </g>
     </g>
     <g id="text_3">
      <!-- 201 -->
      <g transform="translate(248.149209 295.995312)scale(0.3 -0.3)">
       <defs>
        <path id="DejaVuSans-32" d="M 1228 531 
L 3431 531 
L 3431 0 
L 469 0 
L 469 531 
Q 828 903 1448 1529 
Q 2069 2156 2228 2338 
Q 2531 2678 2651 2914 
Q 2772 3150 2772 3378 
Q 2772 3750 2511 3984 
Q 2250 4219 1831 4219 
Q 1534 4219 1204 4116 
Q 875 4013 500 3803 
L 500 4441 
Q 881 4594 1212 4672 
Q 1544 4750 1819 4750 
Q 2544 4750 2975 4387 
Q 3406 4025 3406 3419 
Q 3406 3131 3298 2873 
Q 3191 2616 2906 2266 
Q 2828 2175 2409 1742 
Q 1991 1309 1228 531 
z
" transform="scale(0.015625)"/>
       </defs>
       <use xlink:href="#DejaVuSans-32"/>
       <use xlink:href="#DejaVuSans-30" x="63.623047"/>
       <use xlink:href="#DejaVuSans-31" x="127.246094"/>
      </g>
     </g>
    </g>
    <g id="xtick_4">
     <g id="line2d_4">
      <g>
       <use xlink:href="#m7c9f7ee765" x="371.695276" y="266.2" style="stroke: #000000; stroke-width: 0.8"/>
      </g>
     </g>
     <g id="text_4">
      <!-- 301 -->
      <g transform="translate(343.064026 295.995312)scale(0.3 -0.3)">
       <defs>
        <path id="DejaVuSans-33" d="M 2597 2516 
Q 3050 2419 3304 2112 
Q 3559 1806 3559 1356 
Q 3559 666 3084 287 
Q 2609 -91 1734 -91 
Q 1441 -91 1130 -33 
Q 819 25 488 141 
L 488 750 
Q 750 597 1062 519 
Q 1375 441 1716 441 
Q 2309 441 2620 675 
Q 2931 909 2931 1356 
Q 2931 1769 2642 2001 
Q 2353 2234 1838 2234 
L 1294 2234 
L 1294 2753 
L 1863 2753 
Q 2328 2753 2575 2939 
Q 2822 3125 2822 3475 
Q 2822 3834 2567 4026 
Q 2313 4219 1838 4219 
Q 1578 4219 1281 4162 
Q 984 4106 628 3988 
L 628 4550 
Q 988 4650 1302 4700 
Q 1616 4750 1894 4750 
Q 2613 4750 3031 4423 
Q 3450 4097 3450 3541 
Q 3450 3153 3228 2886 
Q 3006 2619 2597 2516 
z
" transform="scale(0.015625)"/>
       </defs>
       <use xlink:href="#DejaVuSans-33"/>
       <use xlink:href="#DejaVuSans-30" x="63.623047"/>
       <use xlink:href="#DejaVuSans-31" x="127.246094"/>
      </g>
     </g>
    </g>
    <g id="text_5">
     <!-- $c$ -->
     <g transform="translate(259.988125 329.029687)scale(0.3 -0.3)">
      <defs>
       <path id="DejaVuSans-Oblique-63" d="M 3431 3366 
L 3316 2797 
Q 3109 2947 2876 3022 
Q 2644 3097 2394 3097 
Q 2119 3097 1870 3000 
Q 1622 2903 1453 2725 
Q 1184 2453 1037 2087 
Q 891 1722 891 1331 
Q 891 859 1127 628 
Q 1363 397 1844 397 
Q 2081 397 2348 469 
Q 2616 541 2906 684 
L 2797 116 
Q 2547 13 2283 -39 
Q 2019 -91 1741 -91 
Q 1044 -91 669 257 
Q 294 606 294 1253 
Q 294 1797 489 2255 
Q 684 2713 1069 3078 
Q 1331 3328 1684 3456 
Q 2038 3584 2456 3584 
Q 2700 3584 2940 3529 
Q 3181 3475 3431 3366 
z
" transform="scale(0.015625)"/>
      </defs>
      <use xlink:href="#DejaVuSans-Oblique-63"/>
     </g>
    </g>
   </g>
   <g id="matplotlib.axis_2">
    <g id="ytick_1">
     <g id="line2d_5">
      <defs>
       <path id="m6d13dd93f8" d="M 0 0 
L -3.5 0 
" style="stroke: #000000; stroke-width: 0.8"/>
      </defs>
      <g>
       <use xlink:href="#m6d13dd93f8" x="86.47625" y="266.2" style="stroke: #000000; stroke-width: 0.8"/>
      </g>
     </g>
     <g id="text_6">
      <!-- 0 -->
      <g transform="translate(60.38875 277.597656)scale(0.3 -0.3)">
       <use xlink:href="#DejaVuSans-30"/>
      </g>
     </g>
    </g>
    <g id="ytick_2">
     <g id="line2d_6">
      <g>
       <use xlink:href="#m6d13dd93f8" x="86.47625" y="150.109091" style="stroke: #000000; stroke-width: 0.8"/>
      </g>
     </g>
     <g id="text_7">
      <!-- 21 -->
      <g transform="translate(41.30125 161.506747)scale(0.3 -0.3)">
       <use xlink:href="#DejaVuSans-32"/>
       <use xlink:href="#DejaVuSans-31" x="63.623047"/>
      </g>
     </g>
    </g>
    <g id="ytick_3">
     <g id="line2d_7">
      <g>
       <use xlink:href="#m6d13dd93f8" x="86.47625" y="34.018182" style="stroke: #000000; stroke-width: 0.8"/>
      </g>
     </g>
     <g id="text_8">
      <!-- 42 -->
      <g transform="translate(41.30125 45.415838)scale(0.3 -0.3)">
       <defs>
        <path id="DejaVuSans-34" d="M 2419 4116 
L 825 1625 
L 2419 1625 
L 2419 4116 
z
M 2253 4666 
L 3047 4666 
L 3047 1625 
L 3713 1625 
L 3713 1100 
L 3047 1100 
L 3047 0 
L 2419 0 
L 2419 1100 
L 313 1100 
L 313 1709 
L 2253 4666 
z
" transform="scale(0.015625)"/>
       </defs>
       <use xlink:href="#DejaVuSans-34"/>
       <use xlink:href="#DejaVuSans-32" x="63.623047"/>
      </g>
     </g>
    </g>
    <g id="text_9">
     <!-- $M$ -->
     <g transform="translate(11.20125 132.260938)scale(0.3 -0.3)">
      <defs>
       <path id="DejaVuSans-Oblique-4d" d="M 1081 4666 
L 2028 4666 
L 2572 1522 
L 4378 4666 
L 5350 4666 
L 4441 0 
L 3828 0 
L 4622 4091 
L 2791 897 
L 2175 897 
L 1581 4103 
L 788 0 
L 172 0 
L 1081 4666 
z
" transform="scale(0.015625)"/>
      </defs>
      <use xlink:href="#DejaVuSans-Oblique-4d" transform="translate(0 0.09375)"/>
     </g>
    </g>
   </g>
   <g id="patch_386">
    <path d="M 86.47625 266.2 
L 86.47625 10.8 
" style="fill: none; stroke: #000000; stroke-width: 0.8; stroke-linejoin: miter; stroke-linecap: square"/>
   </g>
   <g id="patch_387">
    <path d="M 450 266.2 
L 450 10.8 
" style="fill: none; stroke: #000000; stroke-width: 0.8; stroke-linejoin: miter; stroke-linecap: square"/>
   </g>
   <g id="patch_388">
    <path d="M 86.47625 266.2 
L 450 266.2 
" style="fill: none; stroke: #000000; stroke-width: 0.8; stroke-linejoin: miter; stroke-linecap: square"/>
   </g>
   <g id="patch_389">
    <path d="M 86.47625 10.8 
L 450 10.8 
" style="fill: none; stroke: #000000; stroke-width: 0.8; stroke-linejoin: miter; stroke-linecap: square"/>
   </g>
  </g>
 </g>
 <defs>
  <clipPath id="pa504078bac">
   <rect x="86.47625" y="10.8" width="363.52375" height="255.4"/>
  </clipPath>
 </defs>
</svg>
