<?xml version="1.0" encoding="utf-8" standalone="no"?>
<!DOCTYPE svg PUBLIC "-//W3C//DTD SVG 1.1//EN"
  "http://www.w3.org/Graphics/SVG/1.1/DTD/svg11.dtd">
<svg xmlns:xlink="http://www.w3.org/1999/xlink" width="460.8pt" height="345.6pt" viewBox="0 0 460.8 345.6" xmlns="http://www.w3.org/2000/svg" version="1.1">
 <metadata>
  <rdf:RDF xmlns:dc="http://purl.org/dc/elements/1.1/" xmlns:cc="http://creativecommons.org/ns#" xmlns:rdf="http://www.w3.org/1999/02/22-rdf-syntax-ns#">
   <cc:Work>
    <dc:type rdf:resource="http://purl.org/dc/dcmitype/StillImage"/>
    <dc:date>2023-08-30T16:06:42.004289</dc:date>
    <dc:format>image/svg+xml</dc:format>
    <dc:creator>
     <cc:Agent>
      <dc:title>Matplotlib v3.5.2, https://matplotlib.org/</dc:title>
     </cc:Agent>
    </dc:creator>
   </cc:Work>
  </rdf:RDF>
 </metadata>
 <defs>
  <style type="text/css">*{stroke-linejoin: round; stroke-linecap: butt}</style>
 </defs>
 <g id="figure_1">
  <g id="patch_1">
   <path d="M 0 345.6 
L 460.8 345.6 
L 460.8 0 
L 0 0 
z
" style="fill: #ffffff"/>
  </g>
  <g id="axes_1">
   <g id="patch_2">
    <path d="M 105.55625 266.2 
L 450 266.2 
L 450 10.8 
L 105.55625 10.8 
z
" style="fill: #ffffff"/>
   </g>
   <g id="patch_3">
    <path d="M 105.855766 266.2 
L 108.251897 266.2 
L 108.251897 34.018182 
L 105.855766 34.018182 
z
" clip-path="url(#p970e41d0e4)" style="fill: #1f77b4"/>
   </g>
   <g id="patch_4">
    <path d="M 108.850929 266.2 
L 111.24706 266.2 
L 111.24706 61.33369 
L 108.850929 61.33369 
z
" clip-path="url(#p970e41d0e4)" style="fill: #1f77b4"/>
   </g>
   <g id="patch_5">
    <path d="M 111.846092 266.2 
L 114.242223 266.2 
L 114.242223 63.609982 
L 111.846092 63.609982 
z
" clip-path="url(#p970e41d0e4)" style="fill: #1f77b4"/>
   </g>
   <g id="patch_6">
    <path d="M 114.841255 266.2 
L 117.237386 266.2 
L 117.237386 70.438859 
L 114.841255 70.438859 
z
" clip-path="url(#p970e41d0e4)" style="fill: #1f77b4"/>
   </g>
   <g id="patch_7">
    <path d="M 117.836418 266.2 
L 120.232549 266.2 
L 120.232549 113.688414 
L 117.836418 113.688414 
z
" clip-path="url(#p970e41d0e4)" style="fill: #1f77b4"/>
   </g>
   <g id="patch_8">
    <path d="M 120.831582 266.2 
L 123.227712 266.2 
L 123.227712 209.292692 
L 120.831582 209.292692 
z
" clip-path="url(#p970e41d0e4)" style="fill: #1f77b4"/>
   </g>
   <g id="patch_9">
    <path d="M 123.826745 266.2 
L 126.222875 266.2 
L 126.222875 209.292692 
L 123.826745 209.292692 
z
" clip-path="url(#p970e41d0e4)" style="fill: #1f77b4"/>
   </g>
   <g id="patch_10">
    <path d="M 126.821908 266.2 
L 129.218038 266.2 
L 129.218038 213.845276 
L 126.821908 213.845276 
z
" clip-path="url(#p970e41d0e4)" style="fill: #1f77b4"/>
   </g>
   <g id="patch_11">
    <path d="M 129.817071 266.2 
L 132.213201 266.2 
L 132.213201 218.397861 
L 129.817071 218.397861 
z
" clip-path="url(#p970e41d0e4)" style="fill: #1f77b4"/>
   </g>
   <g id="patch_12">
    <path d="M 132.812234 266.2 
L 135.208364 266.2 
L 135.208364 218.397861 
L 132.812234 218.397861 
z
" clip-path="url(#p970e41d0e4)" style="fill: #1f77b4"/>
   </g>
   <g id="patch_13">
    <path d="M 135.807397 266.2 
L 138.203527 266.2 
L 138.203527 218.397861 
L 135.807397 218.397861 
z
" clip-path="url(#p970e41d0e4)" style="fill: #1f77b4"/>
   </g>
   <g id="patch_14">
    <path d="M 138.80256 266.2 
L 141.19869 266.2 
L 141.19869 220.674153 
L 138.80256 220.674153 
z
" clip-path="url(#p970e41d0e4)" style="fill: #1f77b4"/>
   </g>
   <g id="patch_15">
    <path d="M 141.797723 266.2 
L 144.193853 266.2 
L 144.193853 225.226738 
L 141.797723 225.226738 
z
" clip-path="url(#p970e41d0e4)" style="fill: #1f77b4"/>
   </g>
   <g id="patch_16">
    <path d="M 144.792886 266.2 
L 147.189016 266.2 
L 147.189016 225.226738 
L 144.792886 225.226738 
z
" clip-path="url(#p970e41d0e4)" style="fill: #1f77b4"/>
   </g>
   <g id="patch_17">
    <path d="M 147.788049 266.2 
L 150.184179 266.2 
L 150.184179 225.226738 
L 147.788049 225.226738 
z
" clip-path="url(#p970e41d0e4)" style="fill: #1f77b4"/>
   </g>
   <g id="patch_18">
    <path d="M 150.783212 266.2 
L 153.179342 266.2 
L 153.179342 227.50303 
L 150.783212 227.50303 
z
" clip-path="url(#p970e41d0e4)" style="fill: #1f77b4"/>
   </g>
   <g id="patch_19">
    <path d="M 153.778375 266.2 
L 156.174505 266.2 
L 156.174505 232.055615 
L 153.778375 232.055615 
z
" clip-path="url(#p970e41d0e4)" style="fill: #1f77b4"/>
   </g>
   <g id="patch_20">
    <path d="M 156.773538 266.2 
L 159.169668 266.2 
L 159.169668 234.331907 
L 156.773538 234.331907 
z
" clip-path="url(#p970e41d0e4)" style="fill: #1f77b4"/>
   </g>
   <g id="patch_21">
    <path d="M 159.768701 266.2 
L 162.164832 266.2 
L 162.164832 236.6082 
L 159.768701 236.6082 
z
" clip-path="url(#p970e41d0e4)" style="fill: #1f77b4"/>
   </g>
   <g id="patch_22">
    <path d="M 162.763864 266.2 
L 165.159995 266.2 
L 165.159995 236.6082 
L 162.763864 236.6082 
z
" clip-path="url(#p970e41d0e4)" style="fill: #1f77b4"/>
   </g>
   <g id="patch_23">
    <path d="M 165.759027 266.2 
L 168.155158 266.2 
L 168.155158 238.884492 
L 165.759027 238.884492 
z
" clip-path="url(#p970e41d0e4)" style="fill: #1f77b4"/>
   </g>
   <g id="patch_24">
    <path d="M 168.75419 266.2 
L 171.150321 266.2 
L 171.150321 241.160784 
L 168.75419 241.160784 
z
" clip-path="url(#p970e41d0e4)" style="fill: #1f77b4"/>
   </g>
   <g id="patch_25">
    <path d="M 171.749353 266.2 
L 174.145484 266.2 
L 174.145484 241.160784 
L 171.749353 241.160784 
z
" clip-path="url(#p970e41d0e4)" style="fill: #1f77b4"/>
   </g>
   <g id="patch_26">
    <path d="M 174.744516 266.2 
L 177.140647 266.2 
L 177.140647 241.160784 
L 174.744516 241.160784 
z
" clip-path="url(#p970e41d0e4)" style="fill: #1f77b4"/>
   </g>
   <g id="patch_27">
    <path d="M 177.739679 266.2 
L 180.13581 266.2 
L 180.13581 243.437077 
L 177.739679 243.437077 
z
" clip-path="url(#p970e41d0e4)" style="fill: #1f77b4"/>
   </g>
   <g id="patch_28">
    <path d="M 180.734842 266.2 
L 183.130973 266.2 
L 183.130973 243.437077 
L 180.734842 243.437077 
z
" clip-path="url(#p970e41d0e4)" style="fill: #1f77b4"/>
   </g>
   <g id="patch_29">
    <path d="M 183.730005 266.2 
L 186.126136 266.2 
L 186.126136 245.713369 
L 183.730005 245.713369 
z
" clip-path="url(#p970e41d0e4)" style="fill: #1f77b4"/>
   </g>
   <g id="patch_30">
    <path d="M 186.725168 266.2 
L 189.121299 266.2 
L 189.121299 247.989661 
L 186.725168 247.989661 
z
" clip-path="url(#p970e41d0e4)" style="fill: #1f77b4"/>
   </g>
   <g id="patch_31">
    <path d="M 189.720332 266.2 
L 192.116462 266.2 
L 192.116462 247.989661 
L 189.720332 247.989661 
z
" clip-path="url(#p970e41d0e4)" style="fill: #1f77b4"/>
   </g>
   <g id="patch_32">
    <path d="M 192.715495 266.2 
L 195.111625 266.2 
L 195.111625 250.265954 
L 192.715495 250.265954 
z
" clip-path="url(#p970e41d0e4)" style="fill: #1f77b4"/>
   </g>
   <g id="patch_33">
    <path d="M 195.710658 266.2 
L 198.106788 266.2 
L 198.106788 250.265954 
L 195.710658 250.265954 
z
" clip-path="url(#p970e41d0e4)" style="fill: #1f77b4"/>
   </g>
   <g id="patch_34">
    <path d="M 198.705821 266.2 
L 201.101951 266.2 
L 201.101951 250.265954 
L 198.705821 250.265954 
z
" clip-path="url(#p970e41d0e4)" style="fill: #1f77b4"/>
   </g>
   <g id="patch_35">
    <path d="M 201.700984 266.2 
L 204.097114 266.2 
L 204.097114 252.542246 
L 201.700984 252.542246 
z
" clip-path="url(#p970e41d0e4)" style="fill: #1f77b4"/>
   </g>
   <g id="patch_36">
    <path d="M 204.696147 266.2 
L 207.092277 266.2 
L 207.092277 252.542246 
L 204.696147 252.542246 
z
" clip-path="url(#p970e41d0e4)" style="fill: #1f77b4"/>
   </g>
   <g id="patch_37">
    <path d="M 207.69131 266.2 
L 210.08744 266.2 
L 210.08744 252.542246 
L 207.69131 252.542246 
z
" clip-path="url(#p970e41d0e4)" style="fill: #1f77b4"/>
   </g>
   <g id="patch_38">
    <path d="M 210.686473 266.2 
L 213.082603 266.2 
L 213.082603 254.818538 
L 210.686473 254.818538 
z
" clip-path="url(#p970e41d0e4)" style="fill: #1f77b4"/>
   </g>
   <g id="patch_39">
    <path d="M 213.681636 266.2 
L 216.077766 266.2 
L 216.077766 254.818538 
L 213.681636 254.818538 
z
" clip-path="url(#p970e41d0e4)" style="fill: #1f77b4"/>
   </g>
   <g id="patch_40">
    <path d="M 216.676799 266.2 
L 219.072929 266.2 
L 219.072929 254.818538 
L 216.676799 254.818538 
z
" clip-path="url(#p970e41d0e4)" style="fill: #1f77b4"/>
   </g>
   <g id="patch_41">
    <path d="M 219.671962 266.2 
L 222.068092 266.2 
L 222.068092 254.818538 
L 219.671962 254.818538 
z
" clip-path="url(#p970e41d0e4)" style="fill: #1f77b4"/>
   </g>
   <g id="patch_42">
    <path d="M 222.667125 266.2 
L 225.063255 266.2 
L 225.063255 254.818538 
L 222.667125 254.818538 
z
" clip-path="url(#p970e41d0e4)" style="fill: #1f77b4"/>
   </g>
   <g id="patch_43">
    <path d="M 225.662288 266.2 
L 228.058418 266.2 
L 228.058418 254.818538 
L 225.662288 254.818538 
z
" clip-path="url(#p970e41d0e4)" style="fill: #1f77b4"/>
   </g>
   <g id="patch_44">
    <path d="M 228.657451 266.2 
L 231.053582 266.2 
L 231.053582 257.094831 
L 228.657451 257.094831 
z
" clip-path="url(#p970e41d0e4)" style="fill: #1f77b4"/>
   </g>
   <g id="patch_45">
    <path d="M 231.652614 266.2 
L 234.048745 266.2 
L 234.048745 257.094831 
L 231.652614 257.094831 
z
" clip-path="url(#p970e41d0e4)" style="fill: #1f77b4"/>
   </g>
   <g id="patch_46">
    <path d="M 234.647777 266.2 
L 237.043908 266.2 
L 237.043908 257.094831 
L 234.647777 257.094831 
z
" clip-path="url(#p970e41d0e4)" style="fill: #1f77b4"/>
   </g>
   <g id="patch_47">
    <path d="M 237.64294 266.2 
L 240.039071 266.2 
L 240.039071 257.094831 
L 237.64294 257.094831 
z
" clip-path="url(#p970e41d0e4)" style="fill: #1f77b4"/>
   </g>
   <g id="patch_48">
    <path d="M 240.638103 266.2 
L 243.034234 266.2 
L 243.034234 257.094831 
L 240.638103 257.094831 
z
" clip-path="url(#p970e41d0e4)" style="fill: #1f77b4"/>
   </g>
   <g id="patch_49">
    <path d="M 243.633266 266.2 
L 246.029397 266.2 
L 246.029397 257.094831 
L 243.633266 257.094831 
z
" clip-path="url(#p970e41d0e4)" style="fill: #1f77b4"/>
   </g>
   <g id="patch_50">
    <path d="M 246.628429 266.2 
L 249.02456 266.2 
L 249.02456 257.094831 
L 246.628429 257.094831 
z
" clip-path="url(#p970e41d0e4)" style="fill: #1f77b4"/>
   </g>
   <g id="patch_51">
    <path d="M 249.623592 266.2 
L 252.019723 266.2 
L 252.019723 259.371123 
L 249.623592 259.371123 
z
" clip-path="url(#p970e41d0e4)" style="fill: #1f77b4"/>
   </g>
   <g id="patch_52">
    <path d="M 252.618755 266.2 
L 255.014886 266.2 
L 255.014886 259.371123 
L 252.618755 259.371123 
z
" clip-path="url(#p970e41d0e4)" style="fill: #1f77b4"/>
   </g>
   <g id="patch_53">
    <path d="M 255.613918 266.2 
L 258.010049 266.2 
L 258.010049 259.371123 
L 255.613918 259.371123 
z
" clip-path="url(#p970e41d0e4)" style="fill: #1f77b4"/>
   </g>
   <g id="patch_54">
    <path d="M 258.609082 266.2 
L 261.005212 266.2 
L 261.005212 259.371123 
L 258.609082 259.371123 
z
" clip-path="url(#p970e41d0e4)" style="fill: #1f77b4"/>
   </g>
   <g id="patch_55">
    <path d="M 261.604245 266.2 
L 264.000375 266.2 
L 264.000375 259.371123 
L 261.604245 259.371123 
z
" clip-path="url(#p970e41d0e4)" style="fill: #1f77b4"/>
   </g>
   <g id="patch_56">
    <path d="M 264.599408 266.2 
L 266.995538 266.2 
L 266.995538 261.647415 
L 264.599408 261.647415 
z
" clip-path="url(#p970e41d0e4)" style="fill: #1f77b4"/>
   </g>
   <g id="patch_57">
    <path d="M 267.594571 266.2 
L 269.990701 266.2 
L 269.990701 261.647415 
L 267.594571 261.647415 
z
" clip-path="url(#p970e41d0e4)" style="fill: #1f77b4"/>
   </g>
   <g id="patch_58">
    <path d="M 270.589734 266.2 
L 272.985864 266.2 
L 272.985864 261.647415 
L 270.589734 261.647415 
z
" clip-path="url(#p970e41d0e4)" style="fill: #1f77b4"/>
   </g>
   <g id="patch_59">
    <path d="M 273.584897 266.2 
L 275.981027 266.2 
L 275.981027 261.647415 
L 273.584897 261.647415 
z
" clip-path="url(#p970e41d0e4)" style="fill: #1f77b4"/>
   </g>
   <g id="patch_60">
    <path d="M 276.58006 266.2 
L 278.97619 266.2 
L 278.97619 261.647415 
L 276.58006 261.647415 
z
" clip-path="url(#p970e41d0e4)" style="fill: #1f77b4"/>
   </g>
   <g id="patch_61">
    <path d="M 279.575223 266.2 
L 281.971353 266.2 
L 281.971353 261.647415 
L 279.575223 261.647415 
z
" clip-path="url(#p970e41d0e4)" style="fill: #1f77b4"/>
   </g>
   <g id="patch_62">
    <path d="M 282.570386 266.2 
L 284.966516 266.2 
L 284.966516 261.647415 
L 282.570386 261.647415 
z
" clip-path="url(#p970e41d0e4)" style="fill: #1f77b4"/>
   </g>
   <g id="patch_63">
    <path d="M 285.565549 266.2 
L 287.961679 266.2 
L 287.961679 261.647415 
L 285.565549 261.647415 
z
" clip-path="url(#p970e41d0e4)" style="fill: #1f77b4"/>
   </g>
   <g id="patch_64">
    <path d="M 288.560712 266.2 
L 290.956842 266.2 
L 290.956842 261.647415 
L 288.560712 261.647415 
z
" clip-path="url(#p970e41d0e4)" style="fill: #1f77b4"/>
   </g>
   <g id="patch_65">
    <path d="M 291.555875 266.2 
L 293.952005 266.2 
L 293.952005 261.647415 
L 291.555875 261.647415 
z
" clip-path="url(#p970e41d0e4)" style="fill: #1f77b4"/>
   </g>
   <g id="patch_66">
    <path d="M 294.551038 266.2 
L 296.947168 266.2 
L 296.947168 261.647415 
L 294.551038 261.647415 
z
" clip-path="url(#p970e41d0e4)" style="fill: #1f77b4"/>
   </g>
   <g id="patch_67">
    <path d="M 297.546201 266.2 
L 299.942332 266.2 
L 299.942332 261.647415 
L 297.546201 261.647415 
z
" clip-path="url(#p970e41d0e4)" style="fill: #1f77b4"/>
   </g>
   <g id="patch_68">
    <path d="M 300.541364 266.2 
L 302.937495 266.2 
L 302.937495 261.647415 
L 300.541364 261.647415 
z
" clip-path="url(#p970e41d0e4)" style="fill: #1f77b4"/>
   </g>
   <g id="patch_69">
    <path d="M 303.536527 266.2 
L 305.932658 266.2 
L 305.932658 261.647415 
L 303.536527 261.647415 
z
" clip-path="url(#p970e41d0e4)" style="fill: #1f77b4"/>
   </g>
   <g id="patch_70">
    <path d="M 306.53169 266.2 
L 308.927821 266.2 
L 308.927821 261.647415 
L 306.53169 261.647415 
z
" clip-path="url(#p970e41d0e4)" style="fill: #1f77b4"/>
   </g>
   <g id="patch_71">
    <path d="M 309.526853 266.2 
L 311.922984 266.2 
L 311.922984 261.647415 
L 309.526853 261.647415 
z
" clip-path="url(#p970e41d0e4)" style="fill: #1f77b4"/>
   </g>
   <g id="patch_72">
    <path d="M 312.522016 266.2 
L 314.918147 266.2 
L 314.918147 261.647415 
L 312.522016 261.647415 
z
" clip-path="url(#p970e41d0e4)" style="fill: #1f77b4"/>
   </g>
   <g id="patch_73">
    <path d="M 315.517179 266.2 
L 317.91331 266.2 
L 317.91331 261.647415 
L 315.517179 261.647415 
z
" clip-path="url(#p970e41d0e4)" style="fill: #1f77b4"/>
   </g>
   <g id="patch_74">
    <path d="M 318.512342 266.2 
L 320.908473 266.2 
L 320.908473 261.647415 
L 318.512342 261.647415 
z
" clip-path="url(#p970e41d0e4)" style="fill: #1f77b4"/>
   </g>
   <g id="patch_75">
    <path d="M 321.507505 266.2 
L 323.903636 266.2 
L 323.903636 261.647415 
L 321.507505 261.647415 
z
" clip-path="url(#p970e41d0e4)" style="fill: #1f77b4"/>
   </g>
   <g id="patch_76">
    <path d="M 324.502668 266.2 
L 326.898799 266.2 
L 326.898799 263.923708 
L 324.502668 263.923708 
z
" clip-path="url(#p970e41d0e4)" style="fill: #1f77b4"/>
   </g>
   <g id="patch_77">
    <path d="M 327.497832 266.2 
L 329.893962 266.2 
L 329.893962 263.923708 
L 327.497832 263.923708 
z
" clip-path="url(#p970e41d0e4)" style="fill: #1f77b4"/>
   </g>
   <g id="patch_78">
    <path d="M 330.492995 266.2 
L 332.889125 266.2 
L 332.889125 263.923708 
L 330.492995 263.923708 
z
" clip-path="url(#p970e41d0e4)" style="fill: #1f77b4"/>
   </g>
   <g id="patch_79">
    <path d="M 333.488158 266.2 
L 335.884288 266.2 
L 335.884288 263.923708 
L 333.488158 263.923708 
z
" clip-path="url(#p970e41d0e4)" style="fill: #1f77b4"/>
   </g>
   <g id="patch_80">
    <path d="M 336.483321 266.2 
L 338.879451 266.2 
L 338.879451 263.923708 
L 336.483321 263.923708 
z
" clip-path="url(#p970e41d0e4)" style="fill: #1f77b4"/>
   </g>
   <g id="patch_81">
    <path d="M 339.478484 266.2 
L 341.874614 266.2 
L 341.874614 263.923708 
L 339.478484 263.923708 
z
" clip-path="url(#p970e41d0e4)" style="fill: #1f77b4"/>
   </g>
   <g id="patch_82">
    <path d="M 342.473647 266.2 
L 344.869777 266.2 
L 344.869777 263.923708 
L 342.473647 263.923708 
z
" clip-path="url(#p970e41d0e4)" style="fill: #1f77b4"/>
   </g>
   <g id="patch_83">
    <path d="M 345.46881 266.2 
L 347.86494 266.2 
L 347.86494 263.923708 
L 345.46881 263.923708 
z
" clip-path="url(#p970e41d0e4)" style="fill: #1f77b4"/>
   </g>
   <g id="patch_84">
    <path d="M 348.463973 266.2 
L 350.860103 266.2 
L 350.860103 263.923708 
L 348.463973 263.923708 
z
" clip-path="url(#p970e41d0e4)" style="fill: #1f77b4"/>
   </g>
   <g id="patch_85">
    <path d="M 351.459136 266.2 
L 353.855266 266.2 
L 353.855266 263.923708 
L 351.459136 263.923708 
z
" clip-path="url(#p970e41d0e4)" style="fill: #1f77b4"/>
   </g>
   <g id="patch_86">
    <path d="M 354.454299 266.2 
L 356.850429 266.2 
L 356.850429 263.923708 
L 354.454299 263.923708 
z
" clip-path="url(#p970e41d0e4)" style="fill: #1f77b4"/>
   </g>
   <g id="patch_87">
    <path d="M 357.449462 266.2 
L 359.845592 266.2 
L 359.845592 263.923708 
L 357.449462 263.923708 
z
" clip-path="url(#p970e41d0e4)" style="fill: #1f77b4"/>
   </g>
   <g id="patch_88">
    <path d="M 360.444625 266.2 
L 362.840755 266.2 
L 362.840755 263.923708 
L 360.444625 263.923708 
z
" clip-path="url(#p970e41d0e4)" style="fill: #1f77b4"/>
   </g>
   <g id="patch_89">
    <path d="M 363.439788 266.2 
L 365.835918 266.2 
L 365.835918 263.923708 
L 363.439788 263.923708 
z
" clip-path="url(#p970e41d0e4)" style="fill: #1f77b4"/>
   </g>
   <g id="patch_90">
    <path d="M 366.434951 266.2 
L 368.831082 266.2 
L 368.831082 263.923708 
L 366.434951 263.923708 
z
" clip-path="url(#p970e41d0e4)" style="fill: #1f77b4"/>
   </g>
   <g id="patch_91">
    <path d="M 369.430114 266.2 
L 371.826245 266.2 
L 371.826245 263.923708 
L 369.430114 263.923708 
z
" clip-path="url(#p970e41d0e4)" style="fill: #1f77b4"/>
   </g>
   <g id="patch_92">
    <path d="M 372.425277 266.2 
L 374.821408 266.2 
L 374.821408 263.923708 
L 372.425277 263.923708 
z
" clip-path="url(#p970e41d0e4)" style="fill: #1f77b4"/>
   </g>
   <g id="patch_93">
    <path d="M 375.42044 266.2 
L 377.816571 266.2 
L 377.816571 263.923708 
L 375.42044 263.923708 
z
" clip-path="url(#p970e41d0e4)" style="fill: #1f77b4"/>
   </g>
   <g id="patch_94">
    <path d="M 378.415603 266.2 
L 380.811734 266.2 
L 380.811734 263.923708 
L 378.415603 263.923708 
z
" clip-path="url(#p970e41d0e4)" style="fill: #1f77b4"/>
   </g>
   <g id="patch_95">
    <path d="M 381.410766 266.2 
L 383.806897 266.2 
L 383.806897 263.923708 
L 381.410766 263.923708 
z
" clip-path="url(#p970e41d0e4)" style="fill: #1f77b4"/>
   </g>
   <g id="patch_96">
    <path d="M 384.405929 266.2 
L 386.80206 266.2 
L 386.80206 263.923708 
L 384.405929 263.923708 
z
" clip-path="url(#p970e41d0e4)" style="fill: #1f77b4"/>
   </g>
   <g id="patch_97">
    <path d="M 387.401092 266.2 
L 389.797223 266.2 
L 389.797223 263.923708 
L 387.401092 263.923708 
z
" clip-path="url(#p970e41d0e4)" style="fill: #1f77b4"/>
   </g>
   <g id="patch_98">
    <path d="M 390.396255 266.2 
L 392.792386 266.2 
L 392.792386 263.923708 
L 390.396255 263.923708 
z
" clip-path="url(#p970e41d0e4)" style="fill: #1f77b4"/>
   </g>
   <g id="patch_99">
    <path d="M 393.391418 266.2 
L 395.787549 266.2 
L 395.787549 263.923708 
L 393.391418 263.923708 
z
" clip-path="url(#p970e41d0e4)" style="fill: #1f77b4"/>
   </g>
   <g id="patch_100">
    <path d="M 396.386582 266.2 
L 398.782712 266.2 
L 398.782712 263.923708 
L 396.386582 263.923708 
z
" clip-path="url(#p970e41d0e4)" style="fill: #1f77b4"/>
   </g>
   <g id="patch_101">
    <path d="M 399.381745 266.2 
L 401.777875 266.2 
L 401.777875 263.923708 
L 399.381745 263.923708 
z
" clip-path="url(#p970e41d0e4)" style="fill: #1f77b4"/>
   </g>
   <g id="patch_102">
    <path d="M 402.376908 266.2 
L 404.773038 266.2 
L 404.773038 263.923708 
L 402.376908 263.923708 
z
" clip-path="url(#p970e41d0e4)" style="fill: #1f77b4"/>
   </g>
   <g id="patch_103">
    <path d="M 405.372071 266.2 
L 407.768201 266.2 
L 407.768201 263.923708 
L 405.372071 263.923708 
z
" clip-path="url(#p970e41d0e4)" style="fill: #1f77b4"/>
   </g>
   <g id="patch_104">
    <path d="M 408.367234 266.2 
L 410.763364 266.2 
L 410.763364 263.923708 
L 408.367234 263.923708 
z
" clip-path="url(#p970e41d0e4)" style="fill: #1f77b4"/>
   </g>
   <g id="patch_105">
    <path d="M 411.362397 266.2 
L 413.758527 266.2 
L 413.758527 263.923708 
L 411.362397 263.923708 
z
" clip-path="url(#p970e41d0e4)" style="fill: #1f77b4"/>
   </g>
   <g id="patch_106">
    <path d="M 414.35756 266.2 
L 416.75369 266.2 
L 416.75369 263.923708 
L 414.35756 263.923708 
z
" clip-path="url(#p970e41d0e4)" style="fill: #1f77b4"/>
   </g>
   <g id="patch_107">
    <path d="M 417.352723 266.2 
L 419.748853 266.2 
L 419.748853 263.923708 
L 417.352723 263.923708 
z
" clip-path="url(#p970e41d0e4)" style="fill: #1f77b4"/>
   </g>
   <g id="patch_108">
    <path d="M 420.347886 266.2 
L 422.744016 266.2 
L 422.744016 263.923708 
L 420.347886 263.923708 
z
" clip-path="url(#p970e41d0e4)" style="fill: #1f77b4"/>
   </g>
   <g id="patch_109">
    <path d="M 423.343049 266.2 
L 425.739179 266.2 
L 425.739179 263.923708 
L 423.343049 263.923708 
z
" clip-path="url(#p970e41d0e4)" style="fill: #1f77b4"/>
   </g>
   <g id="patch_110">
    <path d="M 426.338212 266.2 
L 428.734342 266.2 
L 428.734342 263.923708 
L 426.338212 263.923708 
z
" clip-path="url(#p970e41d0e4)" style="fill: #1f77b4"/>
   </g>
   <g id="patch_111">
    <path d="M 429.333375 266.2 
L 431.729505 266.2 
L 431.729505 263.923708 
L 429.333375 263.923708 
z
" clip-path="url(#p970e41d0e4)" style="fill: #1f77b4"/>
   </g>
   <g id="patch_112">
    <path d="M 432.328538 266.2 
L 434.724668 266.2 
L 434.724668 263.923708 
L 432.328538 263.923708 
z
" clip-path="url(#p970e41d0e4)" style="fill: #1f77b4"/>
   </g>
   <g id="patch_113">
    <path d="M 435.323701 266.2 
L 437.719832 266.2 
L 437.719832 263.923708 
L 435.323701 263.923708 
z
" clip-path="url(#p970e41d0e4)" style="fill: #1f77b4"/>
   </g>
   <g id="patch_114">
    <path d="M 438.318864 266.2 
L 440.714995 266.2 
L 440.714995 263.923708 
L 438.318864 263.923708 
z
" clip-path="url(#p970e41d0e4)" style="fill: #1f77b4"/>
   </g>
   <g id="patch_115">
    <path d="M 441.314027 266.2 
L 443.710158 266.2 
L 443.710158 263.923708 
L 441.314027 263.923708 
z
" clip-path="url(#p970e41d0e4)" style="fill: #1f77b4"/>
   </g>
   <g id="patch_116">
    <path d="M 444.30919 266.2 
L 446.705321 266.2 
L 446.705321 263.923708 
L 444.30919 263.923708 
z
" clip-path="url(#p970e41d0e4)" style="fill: #1f77b4"/>
   </g>
   <g id="patch_117">
    <path d="M 447.304353 266.2 
L 449.700484 266.2 
L 449.700484 263.923708 
L 447.304353 263.923708 
z
" clip-path="url(#p970e41d0e4)" style="fill: #1f77b4"/>
   </g>
   <g id="matplotlib.axis_1">
    <g id="xtick_1">
     <g id="line2d_1">
      <defs>
       <path id="m6b1278f028" d="M 0 0 
L 0 3.5 
" style="stroke: #000000; stroke-width: 0.8"/>
      </defs>
      <g>
       <use xlink:href="#m6b1278f028" x="107.053832" y="266.2" style="stroke: #000000; stroke-width: 0.8"/>
      </g>
     </g>
     <g id="text_1">
      <!-- 1 -->
      <g transform="translate(97.510082 295.995312)scale(0.3 -0.3)">
       <defs>
        <path id="DejaVuSans-31" d="M 794 531 
L 1825 531 
L 1825 4091 
L 703 3866 
L 703 4441 
L 1819 4666 
L 2450 4666 
L 2450 531 
L 3481 531 
L 3481 0 
L 794 0 
L 794 531 
z
" transform="scale(0.015625)"/>
       </defs>
       <use xlink:href="#DejaVuSans-31"/>
      </g>
     </g>
    </g>
    <g id="xtick_2">
     <g id="line2d_2">
      <g>
       <use xlink:href="#m6b1278f028" x="256.811984" y="266.2" style="stroke: #000000; stroke-width: 0.8"/>
      </g>
     </g>
     <g id="text_2">
      <!-- 51 -->
      <g transform="translate(237.724484 295.995312)scale(0.3 -0.3)">
       <defs>
        <path id="DejaVuSans-35" d="M 691 4666 
L 3169 4666 
L 3169 4134 
L 1269 4134 
L 1269 2991 
Q 1406 3038 1543 3061 
Q 1681 3084 1819 3084 
Q 2600 3084 3056 2656 
Q 3513 2228 3513 1497 
Q 3513 744 3044 326 
Q 2575 -91 1722 -91 
Q 1428 -91 1123 -41 
Q 819 9 494 109 
L 494 744 
Q 775 591 1075 516 
Q 1375 441 1709 441 
Q 2250 441 2565 725 
Q 2881 1009 2881 1497 
Q 2881 1984 2565 2268 
Q 2250 2553 1709 2553 
Q 1456 2553 1204 2497 
Q 953 2441 691 2322 
L 691 4666 
z
" transform="scale(0.015625)"/>
       </defs>
       <use xlink:href="#DejaVuSans-35"/>
       <use xlink:href="#DejaVuSans-31" x="63.623047"/>
      </g>
     </g>
    </g>
    <g id="xtick_3">
     <g id="line2d_3">
      <g>
       <use xlink:href="#m6b1278f028" x="406.570136" y="266.2" style="stroke: #000000; stroke-width: 0.8"/>
      </g>
     </g>
     <g id="text_3">
      <!-- 101 -->
      <g transform="translate(377.938886 295.995312)scale(0.3 -0.3)">
       <defs>
        <path id="DejaVuSans-30" d="M 2034 4250 
Q 1547 4250 1301 3770 
Q 1056 3291 1056 2328 
Q 1056 1369 1301 889 
Q 1547 409 2034 409 
Q 2525 409 2770 889 
Q 3016 1369 3016 2328 
Q 3016 3291 2770 3770 
Q 2525 4250 2034 4250 
z
M 2034 4750 
Q 2819 4750 3233 4129 
Q 3647 3509 3647 2328 
Q 3647 1150 3233 529 
Q 2819 -91 2034 -91 
Q 1250 -91 836 529 
Q 422 1150 422 2328 
Q 422 3509 836 4129 
Q 1250 4750 2034 4750 
z
" transform="scale(0.015625)"/>
       </defs>
       <use xlink:href="#DejaVuSans-31"/>
       <use xlink:href="#DejaVuSans-30" x="63.623047"/>
       <use xlink:href="#DejaVuSans-31" x="127.246094"/>
      </g>
     </g>
    </g>
    <g id="text_4">
     <!-- $c$ -->
     <g transform="translate(269.528125 329.029687)scale(0.3 -0.3)">
      <defs>
       <path id="DejaVuSans-Oblique-63" d="M 3431 3366 
L 3316 2797 
Q 3109 2947 2876 3022 
Q 2644 3097 2394 3097 
Q 2119 3097 1870 3000 
Q 1622 2903 1453 2725 
Q 1184 2453 1037 2087 
Q 891 1722 891 1331 
Q 891 859 1127 628 
Q 1363 397 1844 397 
Q 2081 397 2348 469 
Q 2616 541 2906 684 
L 2797 116 
Q 2547 13 2283 -39 
Q 2019 -91 1741 -91 
Q 1044 -91 669 257 
Q 294 606 294 1253 
Q 294 1797 489 2255 
Q 684 2713 1069 3078 
Q 1331 3328 1684 3456 
Q 2038 3584 2456 3584 
Q 2700 3584 2940 3529 
Q 3181 3475 3431 3366 
z
" transform="scale(0.015625)"/>
      </defs>
      <use xlink:href="#DejaVuSans-Oblique-63"/>
     </g>
    </g>
   </g>
   <g id="matplotlib.axis_2">
    <g id="ytick_1">
     <g id="line2d_4">
      <defs>
       <path id="m050ea4556a" d="M 0 0 
L -3.5 0 
" style="stroke: #000000; stroke-width: 0.8"/>
      </defs>
      <g>
       <use xlink:href="#m050ea4556a" x="105.55625" y="266.2" style="stroke: #000000; stroke-width: 0.8"/>
      </g>
     </g>
     <g id="text_5">
      <!-- 0 -->
      <g transform="translate(79.46875 277.597656)scale(0.3 -0.3)">
       <use xlink:href="#DejaVuSans-30"/>
      </g>
     </g>
    </g>
    <g id="ytick_2">
     <g id="line2d_5">
      <g>
       <use xlink:href="#m050ea4556a" x="105.55625" y="150.109091" style="stroke: #000000; stroke-width: 0.8"/>
      </g>
     </g>
     <g id="text_6">
      <!-- 51 -->
      <g transform="translate(60.38125 161.506747)scale(0.3 -0.3)">
       <use xlink:href="#DejaVuSans-35"/>
       <use xlink:href="#DejaVuSans-31" x="63.623047"/>
      </g>
     </g>
    </g>
    <g id="ytick_3">
     <g id="line2d_6">
      <g>
       <use xlink:href="#m050ea4556a" x="105.55625" y="34.018182" style="stroke: #000000; stroke-width: 0.8"/>
      </g>
     </g>
     <g id="text_7">
      <!-- 102 -->
      <g transform="translate(41.29375 45.415838)scale(0.3 -0.3)">
       <defs>
        <path id="DejaVuSans-32" d="M 1228 531 
L 3431 531 
L 3431 0 
L 469 0 
L 469 531 
Q 828 903 1448 1529 
Q 2069 2156 2228 2338 
Q 2531 2678 2651 2914 
Q 2772 3150 2772 3378 
Q 2772 3750 2511 3984 
Q 2250 4219 1831 4219 
Q 1534 4219 1204 4116 
Q 875 4013 500 3803 
L 500 4441 
Q 881 4594 1212 4672 
Q 1544 4750 1819 4750 
Q 2544 4750 2975 4387 
Q 3406 4025 3406 3419 
Q 3406 3131 3298 2873 
Q 3191 2616 2906 2266 
Q 2828 2175 2409 1742 
Q 1991 1309 1228 531 
z
" transform="scale(0.015625)"/>
       </defs>
       <use xlink:href="#DejaVuSans-31"/>
       <use xlink:href="#DejaVuSans-30" x="63.623047"/>
       <use xlink:href="#DejaVuSans-32" x="127.246094"/>
      </g>
     </g>
    </g>
    <g id="text_8">
     <!-- $M$ -->
     <g transform="translate(11.19375 132.260938)scale(0.3 -0.3)">
      <defs>
       <path id="DejaVuSans-Oblique-4d" d="M 1081 4666 
L 2028 4666 
L 2572 1522 
L 4378 4666 
L 5350 4666 
L 4441 0 
L 3828 0 
L 4622 4091 
L 2791 897 
L 2175 897 
L 1581 4103 
L 788 0 
L 172 0 
L 1081 4666 
z
" transform="scale(0.015625)"/>
      </defs>
      <use xlink:href="#DejaVuSans-Oblique-4d" transform="translate(0 0.09375)"/>
     </g>
    </g>
   </g>
   <g id="patch_118">
    <path d="M 105.55625 266.2 
L 105.55625 10.8 
" style="fill: none; stroke: #000000; stroke-width: 0.8; stroke-linejoin: miter; stroke-linecap: square"/>
   </g>
   <g id="patch_119">
    <path d="M 450 266.2 
L 450 10.8 
" style="fill: none; stroke: #000000; stroke-width: 0.8; stroke-linejoin: miter; stroke-linecap: square"/>
   </g>
   <g id="patch_120">
    <path d="M 105.55625 266.2 
L 450 266.2 
" style="fill: none; stroke: #000000; stroke-width: 0.8; stroke-linejoin: miter; stroke-linecap: square"/>
   </g>
   <g id="patch_121">
    <path d="M 105.55625 10.8 
L 450 10.8 
" style="fill: none; stroke: #000000; stroke-width: 0.8; stroke-linejoin: miter; stroke-linecap: square"/>
   </g>
  </g>
 </g>
 <defs>
  <clipPath id="p970e41d0e4">
   <rect x="105.55625" y="10.8" width="344.44375" height="255.4"/>
  </clipPath>
 </defs>
</svg>
