<?xml version="1.0" encoding="utf-8" standalone="no"?>
<!DOCTYPE svg PUBLIC "-//W3C//DTD SVG 1.1//EN"
  "http://www.w3.org/Graphics/SVG/1.1/DTD/svg11.dtd">
<svg xmlns:xlink="http://www.w3.org/1999/xlink" width="460.8pt" height="345.6pt" viewBox="0 0 460.8 345.6" xmlns="http://www.w3.org/2000/svg" version="1.1">
 <metadata>
  <rdf:RDF xmlns:dc="http://purl.org/dc/elements/1.1/" xmlns:cc="http://creativecommons.org/ns#" xmlns:rdf="http://www.w3.org/1999/02/22-rdf-syntax-ns#">
   <cc:Work>
    <dc:type rdf:resource="http://purl.org/dc/dcmitype/StillImage"/>
    <dc:date>2023-08-30T16:14:28.764864</dc:date>
    <dc:format>image/svg+xml</dc:format>
    <dc:creator>
     <cc:Agent>
      <dc:title>Matplotlib v3.5.2, https://matplotlib.org/</dc:title>
     </cc:Agent>
    </dc:creator>
   </cc:Work>
  </rdf:RDF>
 </metadata>
 <defs>
  <style type="text/css">*{stroke-linejoin: round; stroke-linecap: butt}</style>
 </defs>
 <g id="figure_1">
  <g id="patch_1">
   <path d="M 0 345.6 
L 460.8 345.6 
L 460.8 0 
L 0 0 
z
" style="fill: #ffffff"/>
  </g>
  <g id="axes_1">
   <g id="patch_2">
    <path d="M 86.47625 266.2 
L 450 266.2 
L 450 10.8 
L 86.47625 10.8 
z
" style="fill: #ffffff"/>
   </g>
   <g id="patch_3">
    <path d="M 86.615 266.2 
L 87.724996 266.2 
L 87.724996 34.018182 
L 86.615 34.018182 
z
" clip-path="url(#p414e0aee32)" style="fill: #1f77b4"/>
   </g>
   <g id="patch_4">
    <path d="M 88.002495 266.2 
L 89.112491 266.2 
L 89.112491 44.734266 
L 88.002495 44.734266 
z
" clip-path="url(#p414e0aee32)" style="fill: #1f77b4"/>
   </g>
   <g id="patch_5">
    <path d="M 89.38999 266.2 
L 90.499986 266.2 
L 90.499986 66.166434 
L 89.38999 66.166434 
z
" clip-path="url(#p414e0aee32)" style="fill: #1f77b4"/>
   </g>
   <g id="patch_6">
    <path d="M 90.777485 266.2 
L 91.887481 266.2 
L 91.887481 91.170629 
L 90.777485 91.170629 
z
" clip-path="url(#p414e0aee32)" style="fill: #1f77b4"/>
   </g>
   <g id="patch_7">
    <path d="M 92.16498 266.2 
L 93.274977 266.2 
L 93.274977 101.886713 
L 92.16498 101.886713 
z
" clip-path="url(#p414e0aee32)" style="fill: #1f77b4"/>
   </g>
   <g id="patch_8">
    <path d="M 93.552476 266.2 
L 94.662472 266.2 
L 94.662472 105.458741 
L 93.552476 105.458741 
z
" clip-path="url(#p414e0aee32)" style="fill: #1f77b4"/>
   </g>
   <g id="patch_9">
    <path d="M 94.939971 266.2 
L 96.049967 266.2 
L 96.049967 148.323077 
L 94.939971 148.323077 
z
" clip-path="url(#p414e0aee32)" style="fill: #1f77b4"/>
   </g>
   <g id="patch_10">
    <path d="M 96.327466 266.2 
L 97.437462 266.2 
L 97.437462 198.331469 
L 96.327466 198.331469 
z
" clip-path="url(#p414e0aee32)" style="fill: #1f77b4"/>
   </g>
   <g id="patch_11">
    <path d="M 97.714961 266.2 
L 98.824958 266.2 
L 98.824958 205.475524 
L 97.714961 205.475524 
z
" clip-path="url(#p414e0aee32)" style="fill: #1f77b4"/>
   </g>
   <g id="patch_12">
    <path d="M 99.102457 266.2 
L 100.212453 266.2 
L 100.212453 212.61958 
L 99.102457 212.61958 
z
" clip-path="url(#p414e0aee32)" style="fill: #1f77b4"/>
   </g>
   <g id="patch_13">
    <path d="M 100.489952 266.2 
L 101.599948 266.2 
L 101.599948 216.191608 
L 100.489952 216.191608 
z
" clip-path="url(#p414e0aee32)" style="fill: #1f77b4"/>
   </g>
   <g id="patch_14">
    <path d="M 101.877447 266.2 
L 102.987443 266.2 
L 102.987443 219.763636 
L 101.877447 219.763636 
z
" clip-path="url(#p414e0aee32)" style="fill: #1f77b4"/>
   </g>
   <g id="patch_15">
    <path d="M 103.264942 266.2 
L 104.374938 266.2 
L 104.374938 223.335664 
L 103.264942 223.335664 
z
" clip-path="url(#p414e0aee32)" style="fill: #1f77b4"/>
   </g>
   <g id="patch_16">
    <path d="M 104.652438 266.2 
L 105.762434 266.2 
L 105.762434 226.907692 
L 104.652438 226.907692 
z
" clip-path="url(#p414e0aee32)" style="fill: #1f77b4"/>
   </g>
   <g id="patch_17">
    <path d="M 106.039933 266.2 
L 107.149929 266.2 
L 107.149929 230.47972 
L 106.039933 230.47972 
z
" clip-path="url(#p414e0aee32)" style="fill: #1f77b4"/>
   </g>
   <g id="patch_18">
    <path d="M 107.427428 266.2 
L 108.537424 266.2 
L 108.537424 230.47972 
L 107.427428 230.47972 
z
" clip-path="url(#p414e0aee32)" style="fill: #1f77b4"/>
   </g>
   <g id="patch_19">
    <path d="M 108.814923 266.2 
L 109.924919 266.2 
L 109.924919 230.47972 
L 108.814923 230.47972 
z
" clip-path="url(#p414e0aee32)" style="fill: #1f77b4"/>
   </g>
   <g id="patch_20">
    <path d="M 110.202418 266.2 
L 111.312415 266.2 
L 111.312415 230.47972 
L 110.202418 230.47972 
z
" clip-path="url(#p414e0aee32)" style="fill: #1f77b4"/>
   </g>
   <g id="patch_21">
    <path d="M 111.589914 266.2 
L 112.69991 266.2 
L 112.69991 230.47972 
L 111.589914 230.47972 
z
" clip-path="url(#p414e0aee32)" style="fill: #1f77b4"/>
   </g>
   <g id="patch_22">
    <path d="M 112.977409 266.2 
L 114.087405 266.2 
L 114.087405 234.051748 
L 112.977409 234.051748 
z
" clip-path="url(#p414e0aee32)" style="fill: #1f77b4"/>
   </g>
   <g id="patch_23">
    <path d="M 114.364904 266.2 
L 115.4749 266.2 
L 115.4749 234.051748 
L 114.364904 234.051748 
z
" clip-path="url(#p414e0aee32)" style="fill: #1f77b4"/>
   </g>
   <g id="patch_24">
    <path d="M 115.752399 266.2 
L 116.862396 266.2 
L 116.862396 234.051748 
L 115.752399 234.051748 
z
" clip-path="url(#p414e0aee32)" style="fill: #1f77b4"/>
   </g>
   <g id="patch_25">
    <path d="M 117.139895 266.2 
L 118.249891 266.2 
L 118.249891 237.623776 
L 117.139895 237.623776 
z
" clip-path="url(#p414e0aee32)" style="fill: #1f77b4"/>
   </g>
   <g id="patch_26">
    <path d="M 118.52739 266.2 
L 119.637386 266.2 
L 119.637386 237.623776 
L 118.52739 237.623776 
z
" clip-path="url(#p414e0aee32)" style="fill: #1f77b4"/>
   </g>
   <g id="patch_27">
    <path d="M 119.914885 266.2 
L 121.024881 266.2 
L 121.024881 237.623776 
L 119.914885 237.623776 
z
" clip-path="url(#p414e0aee32)" style="fill: #1f77b4"/>
   </g>
   <g id="patch_28">
    <path d="M 121.30238 266.2 
L 122.412376 266.2 
L 122.412376 241.195804 
L 121.30238 241.195804 
z
" clip-path="url(#p414e0aee32)" style="fill: #1f77b4"/>
   </g>
   <g id="patch_29">
    <path d="M 122.689875 266.2 
L 123.799872 266.2 
L 123.799872 241.195804 
L 122.689875 241.195804 
z
" clip-path="url(#p414e0aee32)" style="fill: #1f77b4"/>
   </g>
   <g id="patch_30">
    <path d="M 124.077371 266.2 
L 125.187367 266.2 
L 125.187367 241.195804 
L 124.077371 241.195804 
z
" clip-path="url(#p414e0aee32)" style="fill: #1f77b4"/>
   </g>
   <g id="patch_31">
    <path d="M 125.464866 266.2 
L 126.574862 266.2 
L 126.574862 241.195804 
L 125.464866 241.195804 
z
" clip-path="url(#p414e0aee32)" style="fill: #1f77b4"/>
   </g>
   <g id="patch_32">
    <path d="M 126.852361 266.2 
L 127.962357 266.2 
L 127.962357 241.195804 
L 126.852361 241.195804 
z
" clip-path="url(#p414e0aee32)" style="fill: #1f77b4"/>
   </g>
   <g id="patch_33">
    <path d="M 128.239856 266.2 
L 129.349853 266.2 
L 129.349853 241.195804 
L 128.239856 241.195804 
z
" clip-path="url(#p414e0aee32)" style="fill: #1f77b4"/>
   </g>
   <g id="patch_34">
    <path d="M 129.627352 266.2 
L 130.737348 266.2 
L 130.737348 241.195804 
L 129.627352 241.195804 
z
" clip-path="url(#p414e0aee32)" style="fill: #1f77b4"/>
   </g>
   <g id="patch_35">
    <path d="M 131.014847 266.2 
L 132.124843 266.2 
L 132.124843 241.195804 
L 131.014847 241.195804 
z
" clip-path="url(#p414e0aee32)" style="fill: #1f77b4"/>
   </g>
   <g id="patch_36">
    <path d="M 132.402342 266.2 
L 133.512338 266.2 
L 133.512338 244.767832 
L 132.402342 244.767832 
z
" clip-path="url(#p414e0aee32)" style="fill: #1f77b4"/>
   </g>
   <g id="patch_37">
    <path d="M 133.789837 266.2 
L 134.899833 266.2 
L 134.899833 244.767832 
L 133.789837 244.767832 
z
" clip-path="url(#p414e0aee32)" style="fill: #1f77b4"/>
   </g>
   <g id="patch_38">
    <path d="M 135.177333 266.2 
L 136.287329 266.2 
L 136.287329 248.33986 
L 135.177333 248.33986 
z
" clip-path="url(#p414e0aee32)" style="fill: #1f77b4"/>
   </g>
   <g id="patch_39">
    <path d="M 136.564828 266.2 
L 137.674824 266.2 
L 137.674824 248.33986 
L 136.564828 248.33986 
z
" clip-path="url(#p414e0aee32)" style="fill: #1f77b4"/>
   </g>
   <g id="patch_40">
    <path d="M 137.952323 266.2 
L 139.062319 266.2 
L 139.062319 248.33986 
L 137.952323 248.33986 
z
" clip-path="url(#p414e0aee32)" style="fill: #1f77b4"/>
   </g>
   <g id="patch_41">
    <path d="M 139.339818 266.2 
L 140.449814 266.2 
L 140.449814 248.33986 
L 139.339818 248.33986 
z
" clip-path="url(#p414e0aee32)" style="fill: #1f77b4"/>
   </g>
   <g id="patch_42">
    <path d="M 140.727313 266.2 
L 141.83731 266.2 
L 141.83731 248.33986 
L 140.727313 248.33986 
z
" clip-path="url(#p414e0aee32)" style="fill: #1f77b4"/>
   </g>
   <g id="patch_43">
    <path d="M 142.114809 266.2 
L 143.224805 266.2 
L 143.224805 248.33986 
L 142.114809 248.33986 
z
" clip-path="url(#p414e0aee32)" style="fill: #1f77b4"/>
   </g>
   <g id="patch_44">
    <path d="M 143.502304 266.2 
L 144.6123 266.2 
L 144.6123 248.33986 
L 143.502304 248.33986 
z
" clip-path="url(#p414e0aee32)" style="fill: #1f77b4"/>
   </g>
   <g id="patch_45">
    <path d="M 144.889799 266.2 
L 145.999795 266.2 
L 145.999795 251.911888 
L 144.889799 251.911888 
z
" clip-path="url(#p414e0aee32)" style="fill: #1f77b4"/>
   </g>
   <g id="patch_46">
    <path d="M 146.277294 266.2 
L 147.387291 266.2 
L 147.387291 251.911888 
L 146.277294 251.911888 
z
" clip-path="url(#p414e0aee32)" style="fill: #1f77b4"/>
   </g>
   <g id="patch_47">
    <path d="M 147.66479 266.2 
L 148.774786 266.2 
L 148.774786 251.911888 
L 147.66479 251.911888 
z
" clip-path="url(#p414e0aee32)" style="fill: #1f77b4"/>
   </g>
   <g id="patch_48">
    <path d="M 149.052285 266.2 
L 150.162281 266.2 
L 150.162281 251.911888 
L 149.052285 251.911888 
z
" clip-path="url(#p414e0aee32)" style="fill: #1f77b4"/>
   </g>
   <g id="patch_49">
    <path d="M 150.43978 266.2 
L 151.549776 266.2 
L 151.549776 251.911888 
L 150.43978 251.911888 
z
" clip-path="url(#p414e0aee32)" style="fill: #1f77b4"/>
   </g>
   <g id="patch_50">
    <path d="M 151.827275 266.2 
L 152.937271 266.2 
L 152.937271 251.911888 
L 151.827275 251.911888 
z
" clip-path="url(#p414e0aee32)" style="fill: #1f77b4"/>
   </g>
   <g id="patch_51">
    <path d="M 153.214771 266.2 
L 154.324767 266.2 
L 154.324767 251.911888 
L 153.214771 251.911888 
z
" clip-path="url(#p414e0aee32)" style="fill: #1f77b4"/>
   </g>
   <g id="patch_52">
    <path d="M 154.602266 266.2 
L 155.712262 266.2 
L 155.712262 251.911888 
L 154.602266 251.911888 
z
" clip-path="url(#p414e0aee32)" style="fill: #1f77b4"/>
   </g>
   <g id="patch_53">
    <path d="M 155.989761 266.2 
L 157.099757 266.2 
L 157.099757 251.911888 
L 155.989761 251.911888 
z
" clip-path="url(#p414e0aee32)" style="fill: #1f77b4"/>
   </g>
   <g id="patch_54">
    <path d="M 157.377256 266.2 
L 158.487252 266.2 
L 158.487252 251.911888 
L 157.377256 251.911888 
z
" clip-path="url(#p414e0aee32)" style="fill: #1f77b4"/>
   </g>
   <g id="patch_55">
    <path d="M 158.764751 266.2 
L 159.874748 266.2 
L 159.874748 251.911888 
L 158.764751 251.911888 
z
" clip-path="url(#p414e0aee32)" style="fill: #1f77b4"/>
   </g>
   <g id="patch_56">
    <path d="M 160.152247 266.2 
L 161.262243 266.2 
L 161.262243 251.911888 
L 160.152247 251.911888 
z
" clip-path="url(#p414e0aee32)" style="fill: #1f77b4"/>
   </g>
   <g id="patch_57">
    <path d="M 161.539742 266.2 
L 162.649738 266.2 
L 162.649738 251.911888 
L 161.539742 251.911888 
z
" clip-path="url(#p414e0aee32)" style="fill: #1f77b4"/>
   </g>
   <g id="patch_58">
    <path d="M 162.927237 266.2 
L 164.037233 266.2 
L 164.037233 255.483916 
L 162.927237 255.483916 
z
" clip-path="url(#p414e0aee32)" style="fill: #1f77b4"/>
   </g>
   <g id="patch_59">
    <path d="M 164.314732 266.2 
L 165.424729 266.2 
L 165.424729 255.483916 
L 164.314732 255.483916 
z
" clip-path="url(#p414e0aee32)" style="fill: #1f77b4"/>
   </g>
   <g id="patch_60">
    <path d="M 165.702228 266.2 
L 166.812224 266.2 
L 166.812224 255.483916 
L 165.702228 255.483916 
z
" clip-path="url(#p414e0aee32)" style="fill: #1f77b4"/>
   </g>
   <g id="patch_61">
    <path d="M 167.089723 266.2 
L 168.199719 266.2 
L 168.199719 255.483916 
L 167.089723 255.483916 
z
" clip-path="url(#p414e0aee32)" style="fill: #1f77b4"/>
   </g>
   <g id="patch_62">
    <path d="M 168.477218 266.2 
L 169.587214 266.2 
L 169.587214 255.483916 
L 168.477218 255.483916 
z
" clip-path="url(#p414e0aee32)" style="fill: #1f77b4"/>
   </g>
   <g id="patch_63">
    <path d="M 169.864713 266.2 
L 170.974709 266.2 
L 170.974709 255.483916 
L 169.864713 255.483916 
z
" clip-path="url(#p414e0aee32)" style="fill: #1f77b4"/>
   </g>
   <g id="patch_64">
    <path d="M 171.252208 266.2 
L 172.362205 266.2 
L 172.362205 255.483916 
L 171.252208 255.483916 
z
" clip-path="url(#p414e0aee32)" style="fill: #1f77b4"/>
   </g>
   <g id="patch_65">
    <path d="M 172.639704 266.2 
L 173.7497 266.2 
L 173.7497 255.483916 
L 172.639704 255.483916 
z
" clip-path="url(#p414e0aee32)" style="fill: #1f77b4"/>
   </g>
   <g id="patch_66">
    <path d="M 174.027199 266.2 
L 175.137195 266.2 
L 175.137195 255.483916 
L 174.027199 255.483916 
z
" clip-path="url(#p414e0aee32)" style="fill: #1f77b4"/>
   </g>
   <g id="patch_67">
    <path d="M 175.414694 266.2 
L 176.52469 266.2 
L 176.52469 255.483916 
L 175.414694 255.483916 
z
" clip-path="url(#p414e0aee32)" style="fill: #1f77b4"/>
   </g>
   <g id="patch_68">
    <path d="M 176.802189 266.2 
L 177.912186 266.2 
L 177.912186 255.483916 
L 176.802189 255.483916 
z
" clip-path="url(#p414e0aee32)" style="fill: #1f77b4"/>
   </g>
   <g id="patch_69">
    <path d="M 178.189685 266.2 
L 179.299681 266.2 
L 179.299681 255.483916 
L 178.189685 255.483916 
z
" clip-path="url(#p414e0aee32)" style="fill: #1f77b4"/>
   </g>
   <g id="patch_70">
    <path d="M 179.57718 266.2 
L 180.687176 266.2 
L 180.687176 255.483916 
L 179.57718 255.483916 
z
" clip-path="url(#p414e0aee32)" style="fill: #1f77b4"/>
   </g>
   <g id="patch_71">
    <path d="M 180.964675 266.2 
L 182.074671 266.2 
L 182.074671 255.483916 
L 180.964675 255.483916 
z
" clip-path="url(#p414e0aee32)" style="fill: #1f77b4"/>
   </g>
   <g id="patch_72">
    <path d="M 182.35217 266.2 
L 183.462167 266.2 
L 183.462167 255.483916 
L 182.35217 255.483916 
z
" clip-path="url(#p414e0aee32)" style="fill: #1f77b4"/>
   </g>
   <g id="patch_73">
    <path d="M 183.739666 266.2 
L 184.849662 266.2 
L 184.849662 255.483916 
L 183.739666 255.483916 
z
" clip-path="url(#p414e0aee32)" style="fill: #1f77b4"/>
   </g>
   <g id="patch_74">
    <path d="M 185.127161 266.2 
L 186.237157 266.2 
L 186.237157 255.483916 
L 185.127161 255.483916 
z
" clip-path="url(#p414e0aee32)" style="fill: #1f77b4"/>
   </g>
   <g id="patch_75">
    <path d="M 186.514656 266.2 
L 187.624652 266.2 
L 187.624652 255.483916 
L 186.514656 255.483916 
z
" clip-path="url(#p414e0aee32)" style="fill: #1f77b4"/>
   </g>
   <g id="patch_76">
    <path d="M 187.902151 266.2 
L 189.012147 266.2 
L 189.012147 255.483916 
L 187.902151 255.483916 
z
" clip-path="url(#p414e0aee32)" style="fill: #1f77b4"/>
   </g>
   <g id="patch_77">
    <path d="M 189.289646 266.2 
L 190.399643 266.2 
L 190.399643 255.483916 
L 189.289646 255.483916 
z
" clip-path="url(#p414e0aee32)" style="fill: #1f77b4"/>
   </g>
   <g id="patch_78">
    <path d="M 190.677142 266.2 
L 191.787138 266.2 
L 191.787138 259.055944 
L 190.677142 259.055944 
z
" clip-path="url(#p414e0aee32)" style="fill: #1f77b4"/>
   </g>
   <g id="patch_79">
    <path d="M 192.064637 266.2 
L 193.174633 266.2 
L 193.174633 259.055944 
L 192.064637 259.055944 
z
" clip-path="url(#p414e0aee32)" style="fill: #1f77b4"/>
   </g>
   <g id="patch_80">
    <path d="M 193.452132 266.2 
L 194.562128 266.2 
L 194.562128 259.055944 
L 193.452132 259.055944 
z
" clip-path="url(#p414e0aee32)" style="fill: #1f77b4"/>
   </g>
   <g id="patch_81">
    <path d="M 194.839627 266.2 
L 195.949624 266.2 
L 195.949624 259.055944 
L 194.839627 259.055944 
z
" clip-path="url(#p414e0aee32)" style="fill: #1f77b4"/>
   </g>
   <g id="patch_82">
    <path d="M 196.227123 266.2 
L 197.337119 266.2 
L 197.337119 259.055944 
L 196.227123 259.055944 
z
" clip-path="url(#p414e0aee32)" style="fill: #1f77b4"/>
   </g>
   <g id="patch_83">
    <path d="M 197.614618 266.2 
L 198.724614 266.2 
L 198.724614 259.055944 
L 197.614618 259.055944 
z
" clip-path="url(#p414e0aee32)" style="fill: #1f77b4"/>
   </g>
   <g id="patch_84">
    <path d="M 199.002113 266.2 
L 200.112109 266.2 
L 200.112109 259.055944 
L 199.002113 259.055944 
z
" clip-path="url(#p414e0aee32)" style="fill: #1f77b4"/>
   </g>
   <g id="patch_85">
    <path d="M 200.389608 266.2 
L 201.499604 266.2 
L 201.499604 259.055944 
L 200.389608 259.055944 
z
" clip-path="url(#p414e0aee32)" style="fill: #1f77b4"/>
   </g>
   <g id="patch_86">
    <path d="M 201.777104 266.2 
L 202.8871 266.2 
L 202.8871 259.055944 
L 201.777104 259.055944 
z
" clip-path="url(#p414e0aee32)" style="fill: #1f77b4"/>
   </g>
   <g id="patch_87">
    <path d="M 203.164599 266.2 
L 204.274595 266.2 
L 204.274595 259.055944 
L 203.164599 259.055944 
z
" clip-path="url(#p414e0aee32)" style="fill: #1f77b4"/>
   </g>
   <g id="patch_88">
    <path d="M 204.552094 266.2 
L 205.66209 266.2 
L 205.66209 259.055944 
L 204.552094 259.055944 
z
" clip-path="url(#p414e0aee32)" style="fill: #1f77b4"/>
   </g>
   <g id="patch_89">
    <path d="M 205.939589 266.2 
L 207.049585 266.2 
L 207.049585 259.055944 
L 205.939589 259.055944 
z
" clip-path="url(#p414e0aee32)" style="fill: #1f77b4"/>
   </g>
   <g id="patch_90">
    <path d="M 207.327084 266.2 
L 208.437081 266.2 
L 208.437081 259.055944 
L 207.327084 259.055944 
z
" clip-path="url(#p414e0aee32)" style="fill: #1f77b4"/>
   </g>
   <g id="patch_91">
    <path d="M 208.71458 266.2 
L 209.824576 266.2 
L 209.824576 259.055944 
L 208.71458 259.055944 
z
" clip-path="url(#p414e0aee32)" style="fill: #1f77b4"/>
   </g>
   <g id="patch_92">
    <path d="M 210.102075 266.2 
L 211.212071 266.2 
L 211.212071 259.055944 
L 210.102075 259.055944 
z
" clip-path="url(#p414e0aee32)" style="fill: #1f77b4"/>
   </g>
   <g id="patch_93">
    <path d="M 211.48957 266.2 
L 212.599566 266.2 
L 212.599566 259.055944 
L 211.48957 259.055944 
z
" clip-path="url(#p414e0aee32)" style="fill: #1f77b4"/>
   </g>
   <g id="patch_94">
    <path d="M 212.877065 266.2 
L 213.987062 266.2 
L 213.987062 259.055944 
L 212.877065 259.055944 
z
" clip-path="url(#p414e0aee32)" style="fill: #1f77b4"/>
   </g>
   <g id="patch_95">
    <path d="M 214.264561 266.2 
L 215.374557 266.2 
L 215.374557 259.055944 
L 214.264561 259.055944 
z
" clip-path="url(#p414e0aee32)" style="fill: #1f77b4"/>
   </g>
   <g id="patch_96">
    <path d="M 215.652056 266.2 
L 216.762052 266.2 
L 216.762052 259.055944 
L 215.652056 259.055944 
z
" clip-path="url(#p414e0aee32)" style="fill: #1f77b4"/>
   </g>
   <g id="patch_97">
    <path d="M 217.039551 266.2 
L 218.149547 266.2 
L 218.149547 259.055944 
L 217.039551 259.055944 
z
" clip-path="url(#p414e0aee32)" style="fill: #1f77b4"/>
   </g>
   <g id="patch_98">
    <path d="M 218.427046 266.2 
L 219.537042 266.2 
L 219.537042 259.055944 
L 218.427046 259.055944 
z
" clip-path="url(#p414e0aee32)" style="fill: #1f77b4"/>
   </g>
   <g id="patch_99">
    <path d="M 219.814542 266.2 
L 220.924538 266.2 
L 220.924538 259.055944 
L 219.814542 259.055944 
z
" clip-path="url(#p414e0aee32)" style="fill: #1f77b4"/>
   </g>
   <g id="patch_100">
    <path d="M 221.202037 266.2 
L 222.312033 266.2 
L 222.312033 259.055944 
L 221.202037 259.055944 
z
" clip-path="url(#p414e0aee32)" style="fill: #1f77b4"/>
   </g>
   <g id="patch_101">
    <path d="M 222.589532 266.2 
L 223.699528 266.2 
L 223.699528 259.055944 
L 222.589532 259.055944 
z
" clip-path="url(#p414e0aee32)" style="fill: #1f77b4"/>
   </g>
   <g id="patch_102">
    <path d="M 223.977027 266.2 
L 225.087023 266.2 
L 225.087023 259.055944 
L 223.977027 259.055944 
z
" clip-path="url(#p414e0aee32)" style="fill: #1f77b4"/>
   </g>
   <g id="patch_103">
    <path d="M 225.364522 266.2 
L 226.474519 266.2 
L 226.474519 259.055944 
L 225.364522 259.055944 
z
" clip-path="url(#p414e0aee32)" style="fill: #1f77b4"/>
   </g>
   <g id="patch_104">
    <path d="M 226.752018 266.2 
L 227.862014 266.2 
L 227.862014 259.055944 
L 226.752018 259.055944 
z
" clip-path="url(#p414e0aee32)" style="fill: #1f77b4"/>
   </g>
   <g id="patch_105">
    <path d="M 228.139513 266.2 
L 229.249509 266.2 
L 229.249509 259.055944 
L 228.139513 259.055944 
z
" clip-path="url(#p414e0aee32)" style="fill: #1f77b4"/>
   </g>
   <g id="patch_106">
    <path d="M 229.527008 266.2 
L 230.637004 266.2 
L 230.637004 259.055944 
L 229.527008 259.055944 
z
" clip-path="url(#p414e0aee32)" style="fill: #1f77b4"/>
   </g>
   <g id="patch_107">
    <path d="M 230.914503 266.2 
L 232.0245 266.2 
L 232.0245 259.055944 
L 230.914503 259.055944 
z
" clip-path="url(#p414e0aee32)" style="fill: #1f77b4"/>
   </g>
   <g id="patch_108">
    <path d="M 232.301999 266.2 
L 233.411995 266.2 
L 233.411995 259.055944 
L 232.301999 259.055944 
z
" clip-path="url(#p414e0aee32)" style="fill: #1f77b4"/>
   </g>
   <g id="patch_109">
    <path d="M 233.689494 266.2 
L 234.79949 266.2 
L 234.79949 259.055944 
L 233.689494 259.055944 
z
" clip-path="url(#p414e0aee32)" style="fill: #1f77b4"/>
   </g>
   <g id="patch_110">
    <path d="M 235.076989 266.2 
L 236.186985 266.2 
L 236.186985 259.055944 
L 235.076989 259.055944 
z
" clip-path="url(#p414e0aee32)" style="fill: #1f77b4"/>
   </g>
   <g id="patch_111">
    <path d="M 236.464484 266.2 
L 237.57448 266.2 
L 237.57448 259.055944 
L 236.464484 259.055944 
z
" clip-path="url(#p414e0aee32)" style="fill: #1f77b4"/>
   </g>
   <g id="patch_112">
    <path d="M 237.851979 266.2 
L 238.961976 266.2 
L 238.961976 259.055944 
L 237.851979 259.055944 
z
" clip-path="url(#p414e0aee32)" style="fill: #1f77b4"/>
   </g>
   <g id="patch_113">
    <path d="M 239.239475 266.2 
L 240.349471 266.2 
L 240.349471 259.055944 
L 239.239475 259.055944 
z
" clip-path="url(#p414e0aee32)" style="fill: #1f77b4"/>
   </g>
   <g id="patch_114">
    <path d="M 240.62697 266.2 
L 241.736966 266.2 
L 241.736966 259.055944 
L 240.62697 259.055944 
z
" clip-path="url(#p414e0aee32)" style="fill: #1f77b4"/>
   </g>
   <g id="patch_115">
    <path d="M 242.014465 266.2 
L 243.124461 266.2 
L 243.124461 259.055944 
L 242.014465 259.055944 
z
" clip-path="url(#p414e0aee32)" style="fill: #1f77b4"/>
   </g>
   <g id="patch_116">
    <path d="M 243.40196 266.2 
L 244.511957 266.2 
L 244.511957 259.055944 
L 243.40196 259.055944 
z
" clip-path="url(#p414e0aee32)" style="fill: #1f77b4"/>
   </g>
   <g id="patch_117">
    <path d="M 244.789456 266.2 
L 245.899452 266.2 
L 245.899452 259.055944 
L 244.789456 259.055944 
z
" clip-path="url(#p414e0aee32)" style="fill: #1f77b4"/>
   </g>
   <g id="patch_118">
    <path d="M 246.176951 266.2 
L 247.286947 266.2 
L 247.286947 262.627972 
L 246.176951 262.627972 
z
" clip-path="url(#p414e0aee32)" style="fill: #1f77b4"/>
   </g>
   <g id="patch_119">
    <path d="M 247.564446 266.2 
L 248.674442 266.2 
L 248.674442 262.627972 
L 247.564446 262.627972 
z
" clip-path="url(#p414e0aee32)" style="fill: #1f77b4"/>
   </g>
   <g id="patch_120">
    <path d="M 248.951941 266.2 
L 250.061938 266.2 
L 250.061938 262.627972 
L 248.951941 262.627972 
z
" clip-path="url(#p414e0aee32)" style="fill: #1f77b4"/>
   </g>
   <g id="patch_121">
    <path d="M 250.339437 266.2 
L 251.449433 266.2 
L 251.449433 262.627972 
L 250.339437 262.627972 
z
" clip-path="url(#p414e0aee32)" style="fill: #1f77b4"/>
   </g>
   <g id="patch_122">
    <path d="M 251.726932 266.2 
L 252.836928 266.2 
L 252.836928 262.627972 
L 251.726932 262.627972 
z
" clip-path="url(#p414e0aee32)" style="fill: #1f77b4"/>
   </g>
   <g id="patch_123">
    <path d="M 253.114427 266.2 
L 254.224423 266.2 
L 254.224423 262.627972 
L 253.114427 262.627972 
z
" clip-path="url(#p414e0aee32)" style="fill: #1f77b4"/>
   </g>
   <g id="patch_124">
    <path d="M 254.501922 266.2 
L 255.611918 266.2 
L 255.611918 262.627972 
L 254.501922 262.627972 
z
" clip-path="url(#p414e0aee32)" style="fill: #1f77b4"/>
   </g>
   <g id="patch_125">
    <path d="M 255.889417 266.2 
L 256.999414 266.2 
L 256.999414 262.627972 
L 255.889417 262.627972 
z
" clip-path="url(#p414e0aee32)" style="fill: #1f77b4"/>
   </g>
   <g id="patch_126">
    <path d="M 257.276913 266.2 
L 258.386909 266.2 
L 258.386909 262.627972 
L 257.276913 262.627972 
z
" clip-path="url(#p414e0aee32)" style="fill: #1f77b4"/>
   </g>
   <g id="patch_127">
    <path d="M 258.664408 266.2 
L 259.774404 266.2 
L 259.774404 262.627972 
L 258.664408 262.627972 
z
" clip-path="url(#p414e0aee32)" style="fill: #1f77b4"/>
   </g>
   <g id="patch_128">
    <path d="M 260.051903 266.2 
L 261.161899 266.2 
L 261.161899 262.627972 
L 260.051903 262.627972 
z
" clip-path="url(#p414e0aee32)" style="fill: #1f77b4"/>
   </g>
   <g id="patch_129">
    <path d="M 261.439398 266.2 
L 262.549395 266.2 
L 262.549395 262.627972 
L 261.439398 262.627972 
z
" clip-path="url(#p414e0aee32)" style="fill: #1f77b4"/>
   </g>
   <g id="patch_130">
    <path d="M 262.826894 266.2 
L 263.93689 266.2 
L 263.93689 262.627972 
L 262.826894 262.627972 
z
" clip-path="url(#p414e0aee32)" style="fill: #1f77b4"/>
   </g>
   <g id="patch_131">
    <path d="M 264.214389 266.2 
L 265.324385 266.2 
L 265.324385 262.627972 
L 264.214389 262.627972 
z
" clip-path="url(#p414e0aee32)" style="fill: #1f77b4"/>
   </g>
   <g id="patch_132">
    <path d="M 265.601884 266.2 
L 266.71188 266.2 
L 266.71188 262.627972 
L 265.601884 262.627972 
z
" clip-path="url(#p414e0aee32)" style="fill: #1f77b4"/>
   </g>
   <g id="patch_133">
    <path d="M 266.989379 266.2 
L 268.099375 266.2 
L 268.099375 262.627972 
L 266.989379 262.627972 
z
" clip-path="url(#p414e0aee32)" style="fill: #1f77b4"/>
   </g>
   <g id="patch_134">
    <path d="M 268.376875 266.2 
L 269.486871 266.2 
L 269.486871 262.627972 
L 268.376875 262.627972 
z
" clip-path="url(#p414e0aee32)" style="fill: #1f77b4"/>
   </g>
   <g id="patch_135">
    <path d="M 269.76437 266.2 
L 270.874366 266.2 
L 270.874366 262.627972 
L 269.76437 262.627972 
z
" clip-path="url(#p414e0aee32)" style="fill: #1f77b4"/>
   </g>
   <g id="patch_136">
    <path d="M 271.151865 266.2 
L 272.261861 266.2 
L 272.261861 262.627972 
L 271.151865 262.627972 
z
" clip-path="url(#p414e0aee32)" style="fill: #1f77b4"/>
   </g>
   <g id="patch_137">
    <path d="M 272.53936 266.2 
L 273.649356 266.2 
L 273.649356 262.627972 
L 272.53936 262.627972 
z
" clip-path="url(#p414e0aee32)" style="fill: #1f77b4"/>
   </g>
   <g id="patch_138">
    <path d="M 273.926855 266.2 
L 275.036852 266.2 
L 275.036852 262.627972 
L 273.926855 262.627972 
z
" clip-path="url(#p414e0aee32)" style="fill: #1f77b4"/>
   </g>
   <g id="patch_139">
    <path d="M 275.314351 266.2 
L 276.424347 266.2 
L 276.424347 262.627972 
L 275.314351 262.627972 
z
" clip-path="url(#p414e0aee32)" style="fill: #1f77b4"/>
   </g>
   <g id="patch_140">
    <path d="M 276.701846 266.2 
L 277.811842 266.2 
L 277.811842 262.627972 
L 276.701846 262.627972 
z
" clip-path="url(#p414e0aee32)" style="fill: #1f77b4"/>
   </g>
   <g id="patch_141">
    <path d="M 278.089341 266.2 
L 279.199337 266.2 
L 279.199337 262.627972 
L 278.089341 262.627972 
z
" clip-path="url(#p414e0aee32)" style="fill: #1f77b4"/>
   </g>
   <g id="patch_142">
    <path d="M 279.476836 266.2 
L 280.586833 266.2 
L 280.586833 262.627972 
L 279.476836 262.627972 
z
" clip-path="url(#p414e0aee32)" style="fill: #1f77b4"/>
   </g>
   <g id="patch_143">
    <path d="M 280.864332 266.2 
L 281.974328 266.2 
L 281.974328 262.627972 
L 280.864332 262.627972 
z
" clip-path="url(#p414e0aee32)" style="fill: #1f77b4"/>
   </g>
   <g id="patch_144">
    <path d="M 282.251827 266.2 
L 283.361823 266.2 
L 283.361823 262.627972 
L 282.251827 262.627972 
z
" clip-path="url(#p414e0aee32)" style="fill: #1f77b4"/>
   </g>
   <g id="patch_145">
    <path d="M 283.639322 266.2 
L 284.749318 266.2 
L 284.749318 262.627972 
L 283.639322 262.627972 
z
" clip-path="url(#p414e0aee32)" style="fill: #1f77b4"/>
   </g>
   <g id="patch_146">
    <path d="M 285.026817 266.2 
L 286.136813 266.2 
L 286.136813 262.627972 
L 285.026817 262.627972 
z
" clip-path="url(#p414e0aee32)" style="fill: #1f77b4"/>
   </g>
   <g id="patch_147">
    <path d="M 286.414312 266.2 
L 287.524309 266.2 
L 287.524309 262.627972 
L 286.414312 262.627972 
z
" clip-path="url(#p414e0aee32)" style="fill: #1f77b4"/>
   </g>
   <g id="patch_148">
    <path d="M 287.801808 266.2 
L 288.911804 266.2 
L 288.911804 262.627972 
L 287.801808 262.627972 
z
" clip-path="url(#p414e0aee32)" style="fill: #1f77b4"/>
   </g>
   <g id="patch_149">
    <path d="M 289.189303 266.2 
L 290.299299 266.2 
L 290.299299 262.627972 
L 289.189303 262.627972 
z
" clip-path="url(#p414e0aee32)" style="fill: #1f77b4"/>
   </g>
   <g id="patch_150">
    <path d="M 290.576798 266.2 
L 291.686794 266.2 
L 291.686794 262.627972 
L 290.576798 262.627972 
z
" clip-path="url(#p414e0aee32)" style="fill: #1f77b4"/>
   </g>
   <g id="patch_151">
    <path d="M 291.964293 266.2 
L 293.07429 266.2 
L 293.07429 262.627972 
L 291.964293 262.627972 
z
" clip-path="url(#p414e0aee32)" style="fill: #1f77b4"/>
   </g>
   <g id="patch_152">
    <path d="M 293.351789 266.2 
L 294.461785 266.2 
L 294.461785 262.627972 
L 293.351789 262.627972 
z
" clip-path="url(#p414e0aee32)" style="fill: #1f77b4"/>
   </g>
   <g id="patch_153">
    <path d="M 294.739284 266.2 
L 295.84928 266.2 
L 295.84928 262.627972 
L 294.739284 262.627972 
z
" clip-path="url(#p414e0aee32)" style="fill: #1f77b4"/>
   </g>
   <g id="patch_154">
    <path d="M 296.126779 266.2 
L 297.236775 266.2 
L 297.236775 262.627972 
L 296.126779 262.627972 
z
" clip-path="url(#p414e0aee32)" style="fill: #1f77b4"/>
   </g>
   <g id="patch_155">
    <path d="M 297.514274 266.2 
L 298.624271 266.2 
L 298.624271 262.627972 
L 297.514274 262.627972 
z
" clip-path="url(#p414e0aee32)" style="fill: #1f77b4"/>
   </g>
   <g id="patch_156">
    <path d="M 298.90177 266.2 
L 300.011766 266.2 
L 300.011766 262.627972 
L 298.90177 262.627972 
z
" clip-path="url(#p414e0aee32)" style="fill: #1f77b4"/>
   </g>
   <g id="patch_157">
    <path d="M 300.289265 266.2 
L 301.399261 266.2 
L 301.399261 262.627972 
L 300.289265 262.627972 
z
" clip-path="url(#p414e0aee32)" style="fill: #1f77b4"/>
   </g>
   <g id="patch_158">
    <path d="M 301.67676 266.2 
L 302.786756 266.2 
L 302.786756 262.627972 
L 301.67676 262.627972 
z
" clip-path="url(#p414e0aee32)" style="fill: #1f77b4"/>
   </g>
   <g id="patch_159">
    <path d="M 303.064255 266.2 
L 304.174251 266.2 
L 304.174251 262.627972 
L 303.064255 262.627972 
z
" clip-path="url(#p414e0aee32)" style="fill: #1f77b4"/>
   </g>
   <g id="patch_160">
    <path d="M 304.45175 266.2 
L 305.561747 266.2 
L 305.561747 262.627972 
L 304.45175 262.627972 
z
" clip-path="url(#p414e0aee32)" style="fill: #1f77b4"/>
   </g>
   <g id="patch_161">
    <path d="M 305.839246 266.2 
L 306.949242 266.2 
L 306.949242 262.627972 
L 305.839246 262.627972 
z
" clip-path="url(#p414e0aee32)" style="fill: #1f77b4"/>
   </g>
   <g id="patch_162">
    <path d="M 307.226741 266.2 
L 308.336737 266.2 
L 308.336737 262.627972 
L 307.226741 262.627972 
z
" clip-path="url(#p414e0aee32)" style="fill: #1f77b4"/>
   </g>
   <g id="patch_163">
    <path d="M 308.614236 266.2 
L 309.724232 266.2 
L 309.724232 262.627972 
L 308.614236 262.627972 
z
" clip-path="url(#p414e0aee32)" style="fill: #1f77b4"/>
   </g>
   <g id="patch_164">
    <path d="M 310.001731 266.2 
L 311.111728 266.2 
L 311.111728 262.627972 
L 310.001731 262.627972 
z
" clip-path="url(#p414e0aee32)" style="fill: #1f77b4"/>
   </g>
   <g id="patch_165">
    <path d="M 311.389227 266.2 
L 312.499223 266.2 
L 312.499223 262.627972 
L 311.389227 262.627972 
z
" clip-path="url(#p414e0aee32)" style="fill: #1f77b4"/>
   </g>
   <g id="patch_166">
    <path d="M 312.776722 266.2 
L 313.886718 266.2 
L 313.886718 262.627972 
L 312.776722 262.627972 
z
" clip-path="url(#p414e0aee32)" style="fill: #1f77b4"/>
   </g>
   <g id="patch_167">
    <path d="M 314.164217 266.2 
L 315.274213 266.2 
L 315.274213 262.627972 
L 314.164217 262.627972 
z
" clip-path="url(#p414e0aee32)" style="fill: #1f77b4"/>
   </g>
   <g id="patch_168">
    <path d="M 315.551712 266.2 
L 316.661708 266.2 
L 316.661708 262.627972 
L 315.551712 262.627972 
z
" clip-path="url(#p414e0aee32)" style="fill: #1f77b4"/>
   </g>
   <g id="patch_169">
    <path d="M 316.939208 266.2 
L 318.049204 266.2 
L 318.049204 262.627972 
L 316.939208 262.627972 
z
" clip-path="url(#p414e0aee32)" style="fill: #1f77b4"/>
   </g>
   <g id="patch_170">
    <path d="M 318.326703 266.2 
L 319.436699 266.2 
L 319.436699 262.627972 
L 318.326703 262.627972 
z
" clip-path="url(#p414e0aee32)" style="fill: #1f77b4"/>
   </g>
   <g id="patch_171">
    <path d="M 319.714198 266.2 
L 320.824194 266.2 
L 320.824194 262.627972 
L 319.714198 262.627972 
z
" clip-path="url(#p414e0aee32)" style="fill: #1f77b4"/>
   </g>
   <g id="patch_172">
    <path d="M 321.101693 266.2 
L 322.211689 266.2 
L 322.211689 262.627972 
L 321.101693 262.627972 
z
" clip-path="url(#p414e0aee32)" style="fill: #1f77b4"/>
   </g>
   <g id="patch_173">
    <path d="M 322.489188 266.2 
L 323.599185 266.2 
L 323.599185 262.627972 
L 322.489188 262.627972 
z
" clip-path="url(#p414e0aee32)" style="fill: #1f77b4"/>
   </g>
   <g id="patch_174">
    <path d="M 323.876684 266.2 
L 324.98668 266.2 
L 324.98668 262.627972 
L 323.876684 262.627972 
z
" clip-path="url(#p414e0aee32)" style="fill: #1f77b4"/>
   </g>
   <g id="patch_175">
    <path d="M 325.264179 266.2 
L 326.374175 266.2 
L 326.374175 262.627972 
L 325.264179 262.627972 
z
" clip-path="url(#p414e0aee32)" style="fill: #1f77b4"/>
   </g>
   <g id="patch_176">
    <path d="M 326.651674 266.2 
L 327.76167 266.2 
L 327.76167 262.627972 
L 326.651674 262.627972 
z
" clip-path="url(#p414e0aee32)" style="fill: #1f77b4"/>
   </g>
   <g id="patch_177">
    <path d="M 328.039169 266.2 
L 329.149166 266.2 
L 329.149166 262.627972 
L 328.039169 262.627972 
z
" clip-path="url(#p414e0aee32)" style="fill: #1f77b4"/>
   </g>
   <g id="patch_178">
    <path d="M 329.426665 266.2 
L 330.536661 266.2 
L 330.536661 262.627972 
L 329.426665 262.627972 
z
" clip-path="url(#p414e0aee32)" style="fill: #1f77b4"/>
   </g>
   <g id="patch_179">
    <path d="M 330.81416 266.2 
L 331.924156 266.2 
L 331.924156 262.627972 
L 330.81416 262.627972 
z
" clip-path="url(#p414e0aee32)" style="fill: #1f77b4"/>
   </g>
   <g id="patch_180">
    <path d="M 332.201655 266.2 
L 333.311651 266.2 
L 333.311651 262.627972 
L 332.201655 262.627972 
z
" clip-path="url(#p414e0aee32)" style="fill: #1f77b4"/>
   </g>
   <g id="patch_181">
    <path d="M 333.58915 266.2 
L 334.699146 266.2 
L 334.699146 262.627972 
L 333.58915 262.627972 
z
" clip-path="url(#p414e0aee32)" style="fill: #1f77b4"/>
   </g>
   <g id="patch_182">
    <path d="M 334.976646 266.2 
L 336.086642 266.2 
L 336.086642 262.627972 
L 334.976646 262.627972 
z
" clip-path="url(#p414e0aee32)" style="fill: #1f77b4"/>
   </g>
   <g id="patch_183">
    <path d="M 336.364141 266.2 
L 337.474137 266.2 
L 337.474137 262.627972 
L 336.364141 262.627972 
z
" clip-path="url(#p414e0aee32)" style="fill: #1f77b4"/>
   </g>
   <g id="patch_184">
    <path d="M 337.751636 266.2 
L 338.861632 266.2 
L 338.861632 262.627972 
L 337.751636 262.627972 
z
" clip-path="url(#p414e0aee32)" style="fill: #1f77b4"/>
   </g>
   <g id="patch_185">
    <path d="M 339.139131 266.2 
L 340.249127 266.2 
L 340.249127 262.627972 
L 339.139131 262.627972 
z
" clip-path="url(#p414e0aee32)" style="fill: #1f77b4"/>
   </g>
   <g id="patch_186">
    <path d="M 340.526626 266.2 
L 341.636623 266.2 
L 341.636623 262.627972 
L 340.526626 262.627972 
z
" clip-path="url(#p414e0aee32)" style="fill: #1f77b4"/>
   </g>
   <g id="patch_187">
    <path d="M 341.914122 266.2 
L 343.024118 266.2 
L 343.024118 262.627972 
L 341.914122 262.627972 
z
" clip-path="url(#p414e0aee32)" style="fill: #1f77b4"/>
   </g>
   <g id="patch_188">
    <path d="M 343.301617 266.2 
L 344.411613 266.2 
L 344.411613 262.627972 
L 343.301617 262.627972 
z
" clip-path="url(#p414e0aee32)" style="fill: #1f77b4"/>
   </g>
   <g id="patch_189">
    <path d="M 344.689112 266.2 
L 345.799108 266.2 
L 345.799108 262.627972 
L 344.689112 262.627972 
z
" clip-path="url(#p414e0aee32)" style="fill: #1f77b4"/>
   </g>
   <g id="patch_190">
    <path d="M 346.076607 266.2 
L 347.186604 266.2 
L 347.186604 262.627972 
L 346.076607 262.627972 
z
" clip-path="url(#p414e0aee32)" style="fill: #1f77b4"/>
   </g>
   <g id="patch_191">
    <path d="M 347.464103 266.2 
L 348.574099 266.2 
L 348.574099 262.627972 
L 347.464103 262.627972 
z
" clip-path="url(#p414e0aee32)" style="fill: #1f77b4"/>
   </g>
   <g id="patch_192">
    <path d="M 348.851598 266.2 
L 349.961594 266.2 
L 349.961594 262.627972 
L 348.851598 262.627972 
z
" clip-path="url(#p414e0aee32)" style="fill: #1f77b4"/>
   </g>
   <g id="patch_193">
    <path d="M 350.239093 266.2 
L 351.349089 266.2 
L 351.349089 262.627972 
L 350.239093 262.627972 
z
" clip-path="url(#p414e0aee32)" style="fill: #1f77b4"/>
   </g>
   <g id="patch_194">
    <path d="M 351.626588 266.2 
L 352.736584 266.2 
L 352.736584 262.627972 
L 351.626588 262.627972 
z
" clip-path="url(#p414e0aee32)" style="fill: #1f77b4"/>
   </g>
   <g id="patch_195">
    <path d="M 353.014083 266.2 
L 354.12408 266.2 
L 354.12408 262.627972 
L 353.014083 262.627972 
z
" clip-path="url(#p414e0aee32)" style="fill: #1f77b4"/>
   </g>
   <g id="patch_196">
    <path d="M 354.401579 266.2 
L 355.511575 266.2 
L 355.511575 262.627972 
L 354.401579 262.627972 
z
" clip-path="url(#p414e0aee32)" style="fill: #1f77b4"/>
   </g>
   <g id="patch_197">
    <path d="M 355.789074 266.2 
L 356.89907 266.2 
L 356.89907 262.627972 
L 355.789074 262.627972 
z
" clip-path="url(#p414e0aee32)" style="fill: #1f77b4"/>
   </g>
   <g id="patch_198">
    <path d="M 357.176569 266.2 
L 358.286565 266.2 
L 358.286565 262.627972 
L 357.176569 262.627972 
z
" clip-path="url(#p414e0aee32)" style="fill: #1f77b4"/>
   </g>
   <g id="patch_199">
    <path d="M 358.564064 266.2 
L 359.674061 266.2 
L 359.674061 262.627972 
L 358.564064 262.627972 
z
" clip-path="url(#p414e0aee32)" style="fill: #1f77b4"/>
   </g>
   <g id="patch_200">
    <path d="M 359.95156 266.2 
L 361.061556 266.2 
L 361.061556 262.627972 
L 359.95156 262.627972 
z
" clip-path="url(#p414e0aee32)" style="fill: #1f77b4"/>
   </g>
   <g id="patch_201">
    <path d="M 361.339055 266.2 
L 362.449051 266.2 
L 362.449051 262.627972 
L 361.339055 262.627972 
z
" clip-path="url(#p414e0aee32)" style="fill: #1f77b4"/>
   </g>
   <g id="patch_202">
    <path d="M 362.72655 266.2 
L 363.836546 266.2 
L 363.836546 262.627972 
L 362.72655 262.627972 
z
" clip-path="url(#p414e0aee32)" style="fill: #1f77b4"/>
   </g>
   <g id="patch_203">
    <path d="M 364.114045 266.2 
L 365.224042 266.2 
L 365.224042 262.627972 
L 364.114045 262.627972 
z
" clip-path="url(#p414e0aee32)" style="fill: #1f77b4"/>
   </g>
   <g id="patch_204">
    <path d="M 365.501541 266.2 
L 366.611537 266.2 
L 366.611537 262.627972 
L 365.501541 262.627972 
z
" clip-path="url(#p414e0aee32)" style="fill: #1f77b4"/>
   </g>
   <g id="patch_205">
    <path d="M 366.889036 266.2 
L 367.999032 266.2 
L 367.999032 262.627972 
L 366.889036 262.627972 
z
" clip-path="url(#p414e0aee32)" style="fill: #1f77b4"/>
   </g>
   <g id="patch_206">
    <path d="M 368.276531 266.2 
L 369.386527 266.2 
L 369.386527 262.627972 
L 368.276531 262.627972 
z
" clip-path="url(#p414e0aee32)" style="fill: #1f77b4"/>
   </g>
   <g id="patch_207">
    <path d="M 369.664026 266.2 
L 370.774022 266.2 
L 370.774022 262.627972 
L 369.664026 262.627972 
z
" clip-path="url(#p414e0aee32)" style="fill: #1f77b4"/>
   </g>
   <g id="patch_208">
    <path d="M 371.051521 266.2 
L 372.161518 266.2 
L 372.161518 262.627972 
L 371.051521 262.627972 
z
" clip-path="url(#p414e0aee32)" style="fill: #1f77b4"/>
   </g>
   <g id="patch_209">
    <path d="M 372.439017 266.2 
L 373.549013 266.2 
L 373.549013 262.627972 
L 372.439017 262.627972 
z
" clip-path="url(#p414e0aee32)" style="fill: #1f77b4"/>
   </g>
   <g id="patch_210">
    <path d="M 373.826512 266.2 
L 374.936508 266.2 
L 374.936508 262.627972 
L 373.826512 262.627972 
z
" clip-path="url(#p414e0aee32)" style="fill: #1f77b4"/>
   </g>
   <g id="patch_211">
    <path d="M 375.214007 266.2 
L 376.324003 266.2 
L 376.324003 262.627972 
L 375.214007 262.627972 
z
" clip-path="url(#p414e0aee32)" style="fill: #1f77b4"/>
   </g>
   <g id="patch_212">
    <path d="M 376.601502 266.2 
L 377.711499 266.2 
L 377.711499 262.627972 
L 376.601502 262.627972 
z
" clip-path="url(#p414e0aee32)" style="fill: #1f77b4"/>
   </g>
   <g id="patch_213">
    <path d="M 377.988998 266.2 
L 379.098994 266.2 
L 379.098994 262.627972 
L 377.988998 262.627972 
z
" clip-path="url(#p414e0aee32)" style="fill: #1f77b4"/>
   </g>
   <g id="patch_214">
    <path d="M 379.376493 266.2 
L 380.486489 266.2 
L 380.486489 262.627972 
L 379.376493 262.627972 
z
" clip-path="url(#p414e0aee32)" style="fill: #1f77b4"/>
   </g>
   <g id="patch_215">
    <path d="M 380.763988 266.2 
L 381.873984 266.2 
L 381.873984 262.627972 
L 380.763988 262.627972 
z
" clip-path="url(#p414e0aee32)" style="fill: #1f77b4"/>
   </g>
   <g id="patch_216">
    <path d="M 382.151483 266.2 
L 383.261479 266.2 
L 383.261479 262.627972 
L 382.151483 262.627972 
z
" clip-path="url(#p414e0aee32)" style="fill: #1f77b4"/>
   </g>
   <g id="patch_217">
    <path d="M 383.538979 266.2 
L 384.648975 266.2 
L 384.648975 262.627972 
L 383.538979 262.627972 
z
" clip-path="url(#p414e0aee32)" style="fill: #1f77b4"/>
   </g>
   <g id="patch_218">
    <path d="M 384.926474 266.2 
L 386.03647 266.2 
L 386.03647 262.627972 
L 384.926474 262.627972 
z
" clip-path="url(#p414e0aee32)" style="fill: #1f77b4"/>
   </g>
   <g id="patch_219">
    <path d="M 386.313969 266.2 
L 387.423965 266.2 
L 387.423965 262.627972 
L 386.313969 262.627972 
z
" clip-path="url(#p414e0aee32)" style="fill: #1f77b4"/>
   </g>
   <g id="patch_220">
    <path d="M 387.701464 266.2 
L 388.81146 266.2 
L 388.81146 262.627972 
L 387.701464 262.627972 
z
" clip-path="url(#p414e0aee32)" style="fill: #1f77b4"/>
   </g>
   <g id="patch_221">
    <path d="M 389.088959 266.2 
L 390.198956 266.2 
L 390.198956 262.627972 
L 389.088959 262.627972 
z
" clip-path="url(#p414e0aee32)" style="fill: #1f77b4"/>
   </g>
   <g id="patch_222">
    <path d="M 390.476455 266.2 
L 391.586451 266.2 
L 391.586451 262.627972 
L 390.476455 262.627972 
z
" clip-path="url(#p414e0aee32)" style="fill: #1f77b4"/>
   </g>
   <g id="patch_223">
    <path d="M 391.86395 266.2 
L 392.973946 266.2 
L 392.973946 262.627972 
L 391.86395 262.627972 
z
" clip-path="url(#p414e0aee32)" style="fill: #1f77b4"/>
   </g>
   <g id="patch_224">
    <path d="M 393.251445 266.2 
L 394.361441 266.2 
L 394.361441 262.627972 
L 393.251445 262.627972 
z
" clip-path="url(#p414e0aee32)" style="fill: #1f77b4"/>
   </g>
   <g id="patch_225">
    <path d="M 394.63894 266.2 
L 395.748937 266.2 
L 395.748937 262.627972 
L 394.63894 262.627972 
z
" clip-path="url(#p414e0aee32)" style="fill: #1f77b4"/>
   </g>
   <g id="patch_226">
    <path d="M 396.026436 266.2 
L 397.136432 266.2 
L 397.136432 262.627972 
L 396.026436 262.627972 
z
" clip-path="url(#p414e0aee32)" style="fill: #1f77b4"/>
   </g>
   <g id="patch_227">
    <path d="M 397.413931 266.2 
L 398.523927 266.2 
L 398.523927 262.627972 
L 397.413931 262.627972 
z
" clip-path="url(#p414e0aee32)" style="fill: #1f77b4"/>
   </g>
   <g id="patch_228">
    <path d="M 398.801426 266.2 
L 399.911422 266.2 
L 399.911422 262.627972 
L 398.801426 262.627972 
z
" clip-path="url(#p414e0aee32)" style="fill: #1f77b4"/>
   </g>
   <g id="patch_229">
    <path d="M 400.188921 266.2 
L 401.298917 266.2 
L 401.298917 262.627972 
L 400.188921 262.627972 
z
" clip-path="url(#p414e0aee32)" style="fill: #1f77b4"/>
   </g>
   <g id="patch_230">
    <path d="M 401.576417 266.2 
L 402.686413 266.2 
L 402.686413 262.627972 
L 401.576417 262.627972 
z
" clip-path="url(#p414e0aee32)" style="fill: #1f77b4"/>
   </g>
   <g id="patch_231">
    <path d="M 402.963912 266.2 
L 404.073908 266.2 
L 404.073908 262.627972 
L 402.963912 262.627972 
z
" clip-path="url(#p414e0aee32)" style="fill: #1f77b4"/>
   </g>
   <g id="patch_232">
    <path d="M 404.351407 266.2 
L 405.461403 266.2 
L 405.461403 262.627972 
L 404.351407 262.627972 
z
" clip-path="url(#p414e0aee32)" style="fill: #1f77b4"/>
   </g>
   <g id="patch_233">
    <path d="M 405.738902 266.2 
L 406.848898 266.2 
L 406.848898 262.627972 
L 405.738902 262.627972 
z
" clip-path="url(#p414e0aee32)" style="fill: #1f77b4"/>
   </g>
   <g id="patch_234">
    <path d="M 407.126397 266.2 
L 408.236394 266.2 
L 408.236394 262.627972 
L 407.126397 262.627972 
z
" clip-path="url(#p414e0aee32)" style="fill: #1f77b4"/>
   </g>
   <g id="patch_235">
    <path d="M 408.513893 266.2 
L 409.623889 266.2 
L 409.623889 262.627972 
L 408.513893 262.627972 
z
" clip-path="url(#p414e0aee32)" style="fill: #1f77b4"/>
   </g>
   <g id="patch_236">
    <path d="M 409.901388 266.2 
L 411.011384 266.2 
L 411.011384 262.627972 
L 409.901388 262.627972 
z
" clip-path="url(#p414e0aee32)" style="fill: #1f77b4"/>
   </g>
   <g id="patch_237">
    <path d="M 411.288883 266.2 
L 412.398879 266.2 
L 412.398879 262.627972 
L 411.288883 262.627972 
z
" clip-path="url(#p414e0aee32)" style="fill: #1f77b4"/>
   </g>
   <g id="patch_238">
    <path d="M 412.676378 266.2 
L 413.786375 266.2 
L 413.786375 262.627972 
L 412.676378 262.627972 
z
" clip-path="url(#p414e0aee32)" style="fill: #1f77b4"/>
   </g>
   <g id="patch_239">
    <path d="M 414.063874 266.2 
L 415.17387 266.2 
L 415.17387 262.627972 
L 414.063874 262.627972 
z
" clip-path="url(#p414e0aee32)" style="fill: #1f77b4"/>
   </g>
   <g id="patch_240">
    <path d="M 415.451369 266.2 
L 416.561365 266.2 
L 416.561365 262.627972 
L 415.451369 262.627972 
z
" clip-path="url(#p414e0aee32)" style="fill: #1f77b4"/>
   </g>
   <g id="patch_241">
    <path d="M 416.838864 266.2 
L 417.94886 266.2 
L 417.94886 262.627972 
L 416.838864 262.627972 
z
" clip-path="url(#p414e0aee32)" style="fill: #1f77b4"/>
   </g>
   <g id="patch_242">
    <path d="M 418.226359 266.2 
L 419.336355 266.2 
L 419.336355 262.627972 
L 418.226359 262.627972 
z
" clip-path="url(#p414e0aee32)" style="fill: #1f77b4"/>
   </g>
   <g id="patch_243">
    <path d="M 419.613854 266.2 
L 420.723851 266.2 
L 420.723851 262.627972 
L 419.613854 262.627972 
z
" clip-path="url(#p414e0aee32)" style="fill: #1f77b4"/>
   </g>
   <g id="patch_244">
    <path d="M 421.00135 266.2 
L 422.111346 266.2 
L 422.111346 262.627972 
L 421.00135 262.627972 
z
" clip-path="url(#p414e0aee32)" style="fill: #1f77b4"/>
   </g>
   <g id="patch_245">
    <path d="M 422.388845 266.2 
L 423.498841 266.2 
L 423.498841 262.627972 
L 422.388845 262.627972 
z
" clip-path="url(#p414e0aee32)" style="fill: #1f77b4"/>
   </g>
   <g id="patch_246">
    <path d="M 423.77634 266.2 
L 424.886336 266.2 
L 424.886336 262.627972 
L 423.77634 262.627972 
z
" clip-path="url(#p414e0aee32)" style="fill: #1f77b4"/>
   </g>
   <g id="patch_247">
    <path d="M 425.163835 266.2 
L 426.273832 266.2 
L 426.273832 262.627972 
L 425.163835 262.627972 
z
" clip-path="url(#p414e0aee32)" style="fill: #1f77b4"/>
   </g>
   <g id="patch_248">
    <path d="M 426.551331 266.2 
L 427.661327 266.2 
L 427.661327 262.627972 
L 426.551331 262.627972 
z
" clip-path="url(#p414e0aee32)" style="fill: #1f77b4"/>
   </g>
   <g id="patch_249">
    <path d="M 427.938826 266.2 
L 429.048822 266.2 
L 429.048822 262.627972 
L 427.938826 262.627972 
z
" clip-path="url(#p414e0aee32)" style="fill: #1f77b4"/>
   </g>
   <g id="patch_250">
    <path d="M 429.326321 266.2 
L 430.436317 266.2 
L 430.436317 262.627972 
L 429.326321 262.627972 
z
" clip-path="url(#p414e0aee32)" style="fill: #1f77b4"/>
   </g>
   <g id="patch_251">
    <path d="M 430.713816 266.2 
L 431.823813 266.2 
L 431.823813 262.627972 
L 430.713816 262.627972 
z
" clip-path="url(#p414e0aee32)" style="fill: #1f77b4"/>
   </g>
   <g id="patch_252">
    <path d="M 432.101312 266.2 
L 433.211308 266.2 
L 433.211308 262.627972 
L 432.101312 262.627972 
z
" clip-path="url(#p414e0aee32)" style="fill: #1f77b4"/>
   </g>
   <g id="patch_253">
    <path d="M 433.488807 266.2 
L 434.598803 266.2 
L 434.598803 262.627972 
L 433.488807 262.627972 
z
" clip-path="url(#p414e0aee32)" style="fill: #1f77b4"/>
   </g>
   <g id="patch_254">
    <path d="M 434.876302 266.2 
L 435.986298 266.2 
L 435.986298 262.627972 
L 434.876302 262.627972 
z
" clip-path="url(#p414e0aee32)" style="fill: #1f77b4"/>
   </g>
   <g id="patch_255">
    <path d="M 436.263797 266.2 
L 437.373793 266.2 
L 437.373793 262.627972 
L 436.263797 262.627972 
z
" clip-path="url(#p414e0aee32)" style="fill: #1f77b4"/>
   </g>
   <g id="patch_256">
    <path d="M 437.651292 266.2 
L 438.761289 266.2 
L 438.761289 262.627972 
L 437.651292 262.627972 
z
" clip-path="url(#p414e0aee32)" style="fill: #1f77b4"/>
   </g>
   <g id="patch_257">
    <path d="M 439.038788 266.2 
L 440.148784 266.2 
L 440.148784 262.627972 
L 439.038788 262.627972 
z
" clip-path="url(#p414e0aee32)" style="fill: #1f77b4"/>
   </g>
   <g id="patch_258">
    <path d="M 440.426283 266.2 
L 441.536279 266.2 
L 441.536279 262.627972 
L 440.426283 262.627972 
z
" clip-path="url(#p414e0aee32)" style="fill: #1f77b4"/>
   </g>
   <g id="patch_259">
    <path d="M 441.813778 266.2 
L 442.923774 266.2 
L 442.923774 262.627972 
L 441.813778 262.627972 
z
" clip-path="url(#p414e0aee32)" style="fill: #1f77b4"/>
   </g>
   <g id="patch_260">
    <path d="M 443.201273 266.2 
L 444.31127 266.2 
L 444.31127 262.627972 
L 443.201273 262.627972 
z
" clip-path="url(#p414e0aee32)" style="fill: #1f77b4"/>
   </g>
   <g id="patch_261">
    <path d="M 444.588769 266.2 
L 445.698765 266.2 
L 445.698765 262.627972 
L 444.588769 262.627972 
z
" clip-path="url(#p414e0aee32)" style="fill: #1f77b4"/>
   </g>
   <g id="patch_262">
    <path d="M 445.976264 266.2 
L 447.08626 266.2 
L 447.08626 262.627972 
L 445.976264 262.627972 
z
" clip-path="url(#p414e0aee32)" style="fill: #1f77b4"/>
   </g>
   <g id="patch_263">
    <path d="M 447.363759 266.2 
L 448.473755 266.2 
L 448.473755 262.627972 
L 447.363759 262.627972 
z
" clip-path="url(#p414e0aee32)" style="fill: #1f77b4"/>
   </g>
   <g id="patch_264">
    <path d="M 448.751254 266.2 
L 449.86125 266.2 
L 449.86125 262.627972 
L 448.751254 262.627972 
z
" clip-path="url(#p414e0aee32)" style="fill: #1f77b4"/>
   </g>
   <g id="matplotlib.axis_1">
    <g id="xtick_1">
     <g id="line2d_1">
      <defs>
       <path id="m21bcea66cd" d="M 0 0 
L 0 3.5 
" style="stroke: #000000; stroke-width: 0.8"/>
      </defs>
      <g>
       <use xlink:href="#m21bcea66cd" x="87.169998" y="266.2" style="stroke: #000000; stroke-width: 0.8"/>
      </g>
     </g>
     <g id="text_1">
      <!-- 1 -->
      <g transform="translate(77.626248 295.995312)scale(0.3 -0.3)">
       <defs>
        <path id="DejaVuSans-31" d="M 794 531 
L 1825 531 
L 1825 4091 
L 703 3866 
L 703 4441 
L 1819 4666 
L 2450 4666 
L 2450 531 
L 3481 531 
L 3481 0 
L 794 0 
L 794 531 
z
" transform="scale(0.015625)"/>
       </defs>
       <use xlink:href="#DejaVuSans-31"/>
      </g>
     </g>
    </g>
    <g id="xtick_2">
     <g id="line2d_2">
      <g>
       <use xlink:href="#m21bcea66cd" x="225.919521" y="266.2" style="stroke: #000000; stroke-width: 0.8"/>
      </g>
     </g>
     <g id="text_2">
      <!-- 101 -->
      <g transform="translate(197.288271 295.995312)scale(0.3 -0.3)">
       <defs>
        <path id="DejaVuSans-30" d="M 2034 4250 
Q 1547 4250 1301 3770 
Q 1056 3291 1056 2328 
Q 1056 1369 1301 889 
Q 1547 409 2034 409 
Q 2525 409 2770 889 
Q 3016 1369 3016 2328 
Q 3016 3291 2770 3770 
Q 2525 4250 2034 4250 
z
M 2034 4750 
Q 2819 4750 3233 4129 
Q 3647 3509 3647 2328 
Q 3647 1150 3233 529 
Q 2819 -91 2034 -91 
Q 1250 -91 836 529 
Q 422 1150 422 2328 
Q 422 3509 836 4129 
Q 1250 4750 2034 4750 
z
" transform="scale(0.015625)"/>
       </defs>
       <use xlink:href="#DejaVuSans-31"/>
       <use xlink:href="#DejaVuSans-30" x="63.623047"/>
       <use xlink:href="#DejaVuSans-31" x="127.246094"/>
      </g>
     </g>
    </g>
    <g id="xtick_3">
     <g id="line2d_3">
      <g>
       <use xlink:href="#m21bcea66cd" x="364.669043" y="266.2" style="stroke: #000000; stroke-width: 0.8"/>
      </g>
     </g>
     <g id="text_3">
      <!-- 201 -->
      <g transform="translate(336.037793 295.995312)scale(0.3 -0.3)">
       <defs>
        <path id="DejaVuSans-32" d="M 1228 531 
L 3431 531 
L 3431 0 
L 469 0 
L 469 531 
Q 828 903 1448 1529 
Q 2069 2156 2228 2338 
Q 2531 2678 2651 2914 
Q 2772 3150 2772 3378 
Q 2772 3750 2511 3984 
Q 2250 4219 1831 4219 
Q 1534 4219 1204 4116 
Q 875 4013 500 3803 
L 500 4441 
Q 881 4594 1212 4672 
Q 1544 4750 1819 4750 
Q 2544 4750 2975 4387 
Q 3406 4025 3406 3419 
Q 3406 3131 3298 2873 
Q 3191 2616 2906 2266 
Q 2828 2175 2409 1742 
Q 1991 1309 1228 531 
z
" transform="scale(0.015625)"/>
       </defs>
       <use xlink:href="#DejaVuSans-32"/>
       <use xlink:href="#DejaVuSans-30" x="63.623047"/>
       <use xlink:href="#DejaVuSans-31" x="127.246094"/>
      </g>
     </g>
    </g>
    <g id="text_4">
     <!-- $c$ -->
     <g transform="translate(259.988125 329.029687)scale(0.3 -0.3)">
      <defs>
       <path id="DejaVuSans-Oblique-63" d="M 3431 3366 
L 3316 2797 
Q 3109 2947 2876 3022 
Q 2644 3097 2394 3097 
Q 2119 3097 1870 3000 
Q 1622 2903 1453 2725 
Q 1184 2453 1037 2087 
Q 891 1722 891 1331 
Q 891 859 1127 628 
Q 1363 397 1844 397 
Q 2081 397 2348 469 
Q 2616 541 2906 684 
L 2797 116 
Q 2547 13 2283 -39 
Q 2019 -91 1741 -91 
Q 1044 -91 669 257 
Q 294 606 294 1253 
Q 294 1797 489 2255 
Q 684 2713 1069 3078 
Q 1331 3328 1684 3456 
Q 2038 3584 2456 3584 
Q 2700 3584 2940 3529 
Q 3181 3475 3431 3366 
z
" transform="scale(0.015625)"/>
      </defs>
      <use xlink:href="#DejaVuSans-Oblique-63"/>
     </g>
    </g>
   </g>
   <g id="matplotlib.axis_2">
    <g id="ytick_1">
     <g id="line2d_4">
      <defs>
       <path id="mbb7dff565d" d="M 0 0 
L -3.5 0 
" style="stroke: #000000; stroke-width: 0.8"/>
      </defs>
      <g>
       <use xlink:href="#mbb7dff565d" x="86.47625" y="266.2" style="stroke: #000000; stroke-width: 0.8"/>
      </g>
     </g>
     <g id="text_5">
      <!-- 0 -->
      <g transform="translate(60.38875 277.597656)scale(0.3 -0.3)">
       <use xlink:href="#DejaVuSans-30"/>
      </g>
     </g>
    </g>
    <g id="ytick_2">
     <g id="line2d_5">
      <g>
       <use xlink:href="#mbb7dff565d" x="86.47625" y="151.895105" style="stroke: #000000; stroke-width: 0.8"/>
      </g>
     </g>
     <g id="text_6">
      <!-- 32 -->
      <g transform="translate(41.30125 163.292761)scale(0.3 -0.3)">
       <defs>
        <path id="DejaVuSans-33" d="M 2597 2516 
Q 3050 2419 3304 2112 
Q 3559 1806 3559 1356 
Q 3559 666 3084 287 
Q 2609 -91 1734 -91 
Q 1441 -91 1130 -33 
Q 819 25 488 141 
L 488 750 
Q 750 597 1062 519 
Q 1375 441 1716 441 
Q 2309 441 2620 675 
Q 2931 909 2931 1356 
Q 2931 1769 2642 2001 
Q 2353 2234 1838 2234 
L 1294 2234 
L 1294 2753 
L 1863 2753 
Q 2328 2753 2575 2939 
Q 2822 3125 2822 3475 
Q 2822 3834 2567 4026 
Q 2313 4219 1838 4219 
Q 1578 4219 1281 4162 
Q 984 4106 628 3988 
L 628 4550 
Q 988 4650 1302 4700 
Q 1616 4750 1894 4750 
Q 2613 4750 3031 4423 
Q 3450 4097 3450 3541 
Q 3450 3153 3228 2886 
Q 3006 2619 2597 2516 
z
" transform="scale(0.015625)"/>
       </defs>
       <use xlink:href="#DejaVuSans-33"/>
       <use xlink:href="#DejaVuSans-32" x="63.623047"/>
      </g>
     </g>
    </g>
    <g id="ytick_3">
     <g id="line2d_6">
      <g>
       <use xlink:href="#mbb7dff565d" x="86.47625" y="34.018182" style="stroke: #000000; stroke-width: 0.8"/>
      </g>
     </g>
     <g id="text_7">
      <!-- 65 -->
      <g transform="translate(41.30125 45.415838)scale(0.3 -0.3)">
       <defs>
        <path id="DejaVuSans-36" d="M 2113 2584 
Q 1688 2584 1439 2293 
Q 1191 2003 1191 1497 
Q 1191 994 1439 701 
Q 1688 409 2113 409 
Q 2538 409 2786 701 
Q 3034 994 3034 1497 
Q 3034 2003 2786 2293 
Q 2538 2584 2113 2584 
z
M 3366 4563 
L 3366 3988 
Q 3128 4100 2886 4159 
Q 2644 4219 2406 4219 
Q 1781 4219 1451 3797 
Q 1122 3375 1075 2522 
Q 1259 2794 1537 2939 
Q 1816 3084 2150 3084 
Q 2853 3084 3261 2657 
Q 3669 2231 3669 1497 
Q 3669 778 3244 343 
Q 2819 -91 2113 -91 
Q 1303 -91 875 529 
Q 447 1150 447 2328 
Q 447 3434 972 4092 
Q 1497 4750 2381 4750 
Q 2619 4750 2861 4703 
Q 3103 4656 3366 4563 
z
" transform="scale(0.015625)"/>
        <path id="DejaVuSans-35" d="M 691 4666 
L 3169 4666 
L 3169 4134 
L 1269 4134 
L 1269 2991 
Q 1406 3038 1543 3061 
Q 1681 3084 1819 3084 
Q 2600 3084 3056 2656 
Q 3513 2228 3513 1497 
Q 3513 744 3044 326 
Q 2575 -91 1722 -91 
Q 1428 -91 1123 -41 
Q 819 9 494 109 
L 494 744 
Q 775 591 1075 516 
Q 1375 441 1709 441 
Q 2250 441 2565 725 
Q 2881 1009 2881 1497 
Q 2881 1984 2565 2268 
Q 2250 2553 1709 2553 
Q 1456 2553 1204 2497 
Q 953 2441 691 2322 
L 691 4666 
z
" transform="scale(0.015625)"/>
       </defs>
       <use xlink:href="#DejaVuSans-36"/>
       <use xlink:href="#DejaVuSans-35" x="63.623047"/>
      </g>
     </g>
    </g>
    <g id="text_8">
     <!-- $M$ -->
     <g transform="translate(11.20125 132.260938)scale(0.3 -0.3)">
      <defs>
       <path id="DejaVuSans-Oblique-4d" d="M 1081 4666 
L 2028 4666 
L 2572 1522 
L 4378 4666 
L 5350 4666 
L 4441 0 
L 3828 0 
L 4622 4091 
L 2791 897 
L 2175 897 
L 1581 4103 
L 788 0 
L 172 0 
L 1081 4666 
z
" transform="scale(0.015625)"/>
      </defs>
      <use xlink:href="#DejaVuSans-Oblique-4d" transform="translate(0 0.09375)"/>
     </g>
    </g>
   </g>
   <g id="patch_265">
    <path d="M 86.47625 266.2 
L 86.47625 10.8 
" style="fill: none; stroke: #000000; stroke-width: 0.8; stroke-linejoin: miter; stroke-linecap: square"/>
   </g>
   <g id="patch_266">
    <path d="M 450 266.2 
L 450 10.8 
" style="fill: none; stroke: #000000; stroke-width: 0.8; stroke-linejoin: miter; stroke-linecap: square"/>
   </g>
   <g id="patch_267">
    <path d="M 86.47625 266.2 
L 450 266.2 
" style="fill: none; stroke: #000000; stroke-width: 0.8; stroke-linejoin: miter; stroke-linecap: square"/>
   </g>
   <g id="patch_268">
    <path d="M 86.47625 10.8 
L 450 10.8 
" style="fill: none; stroke: #000000; stroke-width: 0.8; stroke-linejoin: miter; stroke-linecap: square"/>
   </g>
  </g>
 </g>
 <defs>
  <clipPath id="p414e0aee32">
   <rect x="86.47625" y="10.8" width="363.52375" height="255.4"/>
  </clipPath>
 </defs>
</svg>
